<svg width="187" height="40" viewBox="0 0 187 40" fill="none" xmlns="http://www.w3.org/2000/svg">
<g clip-path="url(#clip0_4761_1345)">
<path d="M82.0812 5.89165C83.29 9.10648 83.8944 13.9837 83.8944 20.5234C83.8944 26.5578 83.3468 30.9706 82.2476 33.7739C81.1483 36.5731 79.761 37.9748 78.0776 37.9748C76.4996 37.9748 75.23 36.6954 74.2686 34.1406C73.0152 30.775 72.3905 25.9752 72.3905 19.737C72.3905 13.4989 72.9949 9.02499 74.2037 5.8672C75.1732 3.32875 76.4591 2.06156 78.0654 2.06156C79.7772 2.06156 81.1158 3.34097 82.0853 5.89573L82.0812 5.89165ZM72.2688 4.99117C70.3298 8.82534 69.3604 13.7759 69.3604 19.847C69.3604 25.9181 70.2 30.6243 71.8794 34.3647C73.5587 38.1052 75.6316 39.9754 78.1019 39.9754C80.5723 39.9754 82.6248 38.0603 84.3447 34.2262C86.0646 30.392 86.9246 25.5718 86.9246 19.7655C86.9246 13.9593 86.0727 9.4243 84.365 5.65533C82.6613 1.88636 80.6412 0.00390625 78.3169 0.00390625C75.9926 0.00390625 73.9563 1.66633 72.2729 4.99525L72.2688 4.99117ZM53.2565 0.871789L53.0455 9.83583H53.5485C53.6094 8.10822 53.8041 6.73509 54.1286 5.72052C54.4531 4.70595 54.8466 4.02143 55.3049 3.66287C55.6579 3.39802 56.2541 3.26763 57.0898 3.26763H59.2437V32.4741C59.2437 34.6173 59.1464 35.9905 58.9516 36.5894C58.6353 37.5673 58.0958 38.0563 57.3372 38.0563H56.7044V39.0994H64.3061V38.0563H63.6855C62.9878 38.0563 62.4726 37.661 62.14 36.8706C61.9007 36.2879 61.783 34.8211 61.783 32.4741V3.27171H64.3102C65.0525 3.27171 65.6488 3.5284 66.1031 4.04587C66.5574 4.56334 66.9225 5.36603 67.1943 6.45802C67.3606 7.13439 67.4944 8.26305 67.5918 9.8399H68.0948L67.896 0.875863H53.2605L53.2565 0.871789ZM36.5806 0.871789L36.3697 9.83583H36.8727C36.9335 8.10822 37.1282 6.73509 37.4527 5.72052C37.7772 4.70595 38.1707 4.02143 38.6291 3.66287C38.982 3.39802 39.5783 3.26763 40.4139 3.26763H42.5679V32.4741C42.5679 34.6173 42.4705 35.9905 42.2758 36.5894C41.9594 37.5673 41.4199 38.0563 40.6613 38.0563H40.0285V39.0994H47.6302V38.0563H47.0096C46.3119 38.0563 45.7967 37.661 45.4641 36.8706C45.2248 36.2879 45.1072 34.8211 45.1072 32.4741V3.27171H47.6343C48.3766 3.27171 48.9729 3.5284 49.4272 4.04587C49.8815 4.56334 50.2466 5.36603 50.5184 6.45802C50.6847 7.13439 50.8186 8.26305 50.9159 9.8399H51.4189L51.2201 0.875863H36.5847L36.5806 0.871789ZM29.4495 1.91488C30.1269 1.91488 30.638 2.33048 30.9828 3.15354C31.2302 3.75658 31.3519 5.24787 31.3519 7.63557V23.1148C31.3519 27.1731 31.1815 30.0538 30.8449 31.7529C30.5041 33.452 29.8713 34.8496 28.9465 35.9375C28.0216 37.0295 26.971 37.5714 25.7987 37.5714C24.882 37.5714 24.1072 37.2251 23.4784 36.5283C22.8497 35.8316 22.367 34.9514 22.0303 33.8798C21.6936 32.8082 21.4624 31.3129 21.3367 29.3978C21.2069 27.4828 21.146 25.7796 21.146 24.2965V7.63964C21.146 5.49642 21.2555 4.08662 21.4746 3.41024C21.791 2.41605 22.3224 1.91488 23.0606 1.91488H23.7462V0.871789H15.9984V1.91488H16.6718C17.3492 1.91488 17.84 2.28159 18.1443 3.01501C18.4485 3.74843 18.5986 5.28862 18.5986 7.63964V22.5811C18.5986 27.1853 18.7406 30.3227 19.0205 31.9974C19.4423 34.4421 20.1603 36.3857 21.1744 37.8322C22.1885 39.2786 23.6731 40.0039 25.6283 40.0039C27.4253 40.0039 28.8491 39.246 29.8916 37.7344C30.9382 36.2227 31.6359 34.4095 31.9928 32.2948C32.3498 30.1801 32.5283 27.2057 32.5283 23.3715V7.86374C32.5283 5.74089 32.6216 4.38814 32.8041 3.80547C33.1813 2.54643 33.7249 1.91488 34.4307 1.91488H35.1041V0.871789H28.7558V1.91488H29.4292H29.4495ZM0.210933 0.871789L0 9.83583H0.502994C0.563839 8.10822 0.758547 6.73509 1.08306 5.72052C1.40757 4.70595 1.80104 4.02143 2.25941 3.66287C2.61232 3.39802 3.20861 3.26763 4.04423 3.26763H6.19818V32.4741C6.19818 34.6173 6.10082 35.9905 5.90612 36.5894C5.58972 37.5673 5.05022 38.0563 4.29167 38.0563H3.65887V39.0994H11.2646V38.0563H10.644C9.94629 38.0563 9.43113 37.661 9.0985 36.8706C8.85918 36.2879 8.74154 34.8211 8.74154 32.4741V3.27171H11.2687C12.011 3.27171 12.6073 3.5284 13.0616 4.04587C13.5159 4.56334 13.881 5.36603 14.1528 6.45802C14.3191 7.13439 14.4529 8.26305 14.5503 9.8399H15.0533L14.8545 0.875863H0.210933V0.871789Z" fill="#AB8570"/>
<path d="M172.717 24.211L176.044 9.19213L179.285 24.211H172.713H172.717ZM180.838 31.5819C181.216 33.3176 181.402 34.5889 181.402 35.3916C181.402 35.9946 181.268 36.508 181.001 36.9277C180.733 37.3474 180.218 37.5959 179.455 37.6693V38.6838H186.996V37.6693C186.217 37.5796 185.609 37.164 185.171 36.4224C184.732 35.6809 184.246 34.0714 183.71 31.5859L177.062 0.668137H176.567L169.841 31.2518C169.257 33.937 168.726 35.7175 168.247 36.5976C168.012 37.0377 167.497 37.3922 166.698 37.6652V38.6798H172.717V37.6652C171.797 37.5389 171.196 37.2577 170.92 36.8299C170.645 36.4021 170.503 35.9009 170.503 35.3345C170.503 34.6215 170.661 33.5458 170.981 32.0993L172.279 26.236H179.682L180.838 31.5819ZM162.986 0.668137C162.893 1.52787 162.767 2.09831 162.613 2.37945C162.459 2.66467 162.26 2.80321 162.013 2.80321C161.798 2.80321 161.424 2.57503 160.897 2.11868C159.761 1.14894 158.682 0.668137 157.668 0.668137C156.042 0.668137 154.703 1.63381 153.652 3.56108C152.598 5.48835 152.074 7.7864 152.074 10.4552C152.074 11.9914 152.253 13.3971 152.61 14.6765C152.967 15.9559 153.49 17.1253 154.184 18.1847C154.873 19.2441 156.037 20.6661 157.672 22.4467C159.307 24.2273 160.309 25.3926 160.674 25.9427C161.217 26.7453 161.619 27.6132 161.879 28.5463C162.138 29.4794 162.268 30.4002 162.268 31.3129C162.268 32.9591 161.927 34.3811 161.246 35.5872C160.564 36.7932 159.635 37.3963 158.463 37.3963C157.449 37.3963 156.516 36.9562 155.664 36.0802C154.812 35.2041 154.18 34.104 153.77 32.7757C153.356 31.4515 153.028 29.4549 152.784 26.7861H152.261V39.5313H152.784C152.849 38.6716 152.951 38.1052 153.088 37.8322C153.226 37.5592 153.409 37.4207 153.644 37.4207C153.879 37.4207 154.468 37.71 155.384 38.2845C156.301 38.859 156.906 39.1931 157.198 39.2869C157.684 39.4498 158.208 39.5354 158.763 39.5354C160.532 39.5354 161.976 38.5168 163.1 36.4795C164.223 34.4422 164.783 32.0178 164.783 29.2023C164.783 27.7232 164.609 26.3053 164.256 24.9525C163.903 23.5998 163.4 22.4263 162.747 21.4321C162.094 20.4379 160.873 19.0078 159.088 17.1416C156.897 14.8598 155.51 13.0304 154.93 11.6613C154.524 10.7282 154.326 9.69737 154.326 8.56464C154.326 7.08558 154.646 5.76542 155.283 4.60417C155.924 3.44292 156.731 2.86433 157.709 2.86433C158.573 2.86433 159.408 3.29216 160.22 4.15189C161.027 5.01162 161.651 6.17287 162.086 7.63157C162.524 9.09434 162.824 11.0583 162.994 13.5234H163.517V0.668137H162.994H162.986ZM135.52 24.211L138.846 9.19213L142.087 24.211H135.516H135.52ZM143.641 31.5819C144.018 33.3176 144.205 34.5889 144.205 35.3916C144.205 35.9946 144.071 36.508 143.803 36.9277C143.536 37.3474 143.02 37.5959 142.258 37.6693V38.6838H149.799V37.6693C149.02 37.5796 148.411 37.164 147.973 36.4224C147.535 35.6809 147.048 34.0714 146.513 31.5859L139.865 0.668137H139.37L132.644 31.2518C132.06 33.937 131.529 35.7175 131.05 36.5976C130.815 37.0377 130.3 37.3922 129.5 37.6652V38.6798H135.52V37.6652C134.599 37.5389 133.999 37.2577 133.723 36.8299C133.447 36.4021 133.305 35.9009 133.305 35.3345C133.305 34.6215 133.464 33.5458 133.784 32.0993L135.082 26.236H142.485L143.641 31.5819ZM126.762 0.668137C126.657 1.54417 126.487 2.2287 126.239 2.72172C126.053 3.06806 125.829 3.24326 125.578 3.24326C125.408 3.24326 125.128 3.04361 124.73 2.64023C123.387 1.32414 122.025 0.668137 120.641 0.668137C118.865 0.668137 117.226 1.5238 115.729 3.23104C114.228 4.93828 113.052 7.34635 112.196 10.4512C111.34 13.556 110.914 16.9664 110.914 20.6742C110.914 25.2785 111.563 29.2797 112.861 32.6779C114.601 37.2455 117.051 39.5313 120.219 39.5313C121.976 39.5313 123.493 38.7653 124.775 37.2292C126.053 35.6931 127.172 33.2728 128.129 29.9683L127.691 29.4183C126.556 32.4864 125.509 34.54 124.56 35.5709C123.611 36.6017 122.515 37.1192 121.274 37.1192C119.846 37.1192 118.573 36.4632 117.461 35.1471C116.346 33.831 115.514 31.9404 114.958 29.4753C114.403 27.0102 114.127 24.0928 114.127 20.7313C114.127 16.6567 114.419 13.2504 115.007 10.5082C115.595 7.76603 116.398 5.77357 117.425 4.5186C118.451 3.26771 119.595 2.64023 120.864 2.64023C122.377 2.64023 123.675 3.47144 124.754 5.13386C125.833 6.79628 126.665 9.51809 127.249 13.2993H127.687L127.249 0.664062H126.754L126.762 0.668137Z" fill="#AB8570"/>
<path d="M102.339 8.08397C102.546 7.99026 102.708 7.94136 102.826 7.94136C103.098 7.94136 103.317 8.13694 103.479 8.53218C103.645 8.92741 103.726 9.43673 103.726 10.0683C103.726 10.6998 103.625 11.2418 103.422 11.6614C103.219 12.077 102.915 12.2849 102.513 12.2849H102.44C102.412 12.2767 102.376 12.2767 102.339 12.2767V8.0799V8.08397ZM105.333 17.1906C105.101 17.1295 104.915 16.991 104.773 16.775C104.631 16.555 104.461 16.1149 104.262 15.4508L103.39 12.5578C103.743 12.3704 104.006 12.0485 104.172 11.5922C104.343 11.1358 104.424 10.598 104.424 9.97865C104.424 9.40006 104.351 8.89889 104.201 8.47921C104.051 8.05953 103.872 7.77431 103.661 7.6154C103.45 7.46057 103.118 7.37907 102.672 7.37907H101.134V7.65615H101.292C101.451 7.65615 101.572 7.76616 101.653 7.98211C101.71 8.13694 101.739 8.53218 101.739 9.16373V15.679C101.739 16.2535 101.718 16.6202 101.674 16.7709C101.597 17.048 101.471 17.1866 101.292 17.1866H101.134V17.4636H102.939V17.1866H102.773C102.615 17.1866 102.497 17.0765 102.42 16.8606C102.363 16.7058 102.335 16.3146 102.335 15.679V12.7494L102.432 12.7616H102.517C102.582 12.7616 102.672 12.7616 102.777 12.7494L104.205 17.4636H105.329V17.1866L105.333 17.1906ZM99.5969 7.92914C99.8078 7.92914 99.9538 7.96581 100.035 8.03915C100.14 8.14509 100.218 8.29585 100.27 8.49143C100.323 8.69108 100.372 9.05372 100.416 9.58341H100.538L100.493 7.375H97.2442V7.65207H97.3943C97.5687 7.65207 97.6944 7.74986 97.7674 7.94951C97.8202 8.10027 97.8486 8.49143 97.8486 9.13114V15.683C97.8486 16.172 97.8364 16.498 97.8121 16.6569C97.7877 16.8158 97.7431 16.9339 97.6782 17.0154C97.589 17.1295 97.4957 17.1866 97.3943 17.1866H97.2442V17.4636H100.493L100.858 14.9333H100.733C100.599 15.5527 100.465 16.0172 100.339 16.3227C100.238 16.555 100.136 16.7139 100.027 16.7913C99.9173 16.8687 99.747 16.9095 99.5076 16.9095H98.7937C98.6761 16.9095 98.599 16.881 98.5584 16.8239C98.5179 16.7669 98.4895 16.6895 98.4733 16.5917C98.457 16.4939 98.4489 16.225 98.4489 15.7768V12.4519H99.3738C99.5482 12.4519 99.6821 12.5008 99.7672 12.6027C99.8524 12.7005 99.9133 12.839 99.9498 13.0101C99.9782 13.1487 100.007 13.4624 100.035 13.9554H100.149V10.4431H100.035C100.023 11.0177 99.962 11.421 99.8565 11.6492C99.7754 11.8244 99.6131 11.91 99.3738 11.91H98.4489V7.92099H99.605L99.5969 7.92914ZM94.8468 8.12065C95.0132 8.02693 95.147 7.97804 95.2525 7.97804C95.4269 7.97804 95.581 8.07175 95.719 8.25511C95.8569 8.44254 95.9623 8.71961 96.0354 9.09447C96.1084 9.46933 96.1489 9.87271 96.1489 10.3128C96.1489 10.9484 96.0719 11.4659 95.9137 11.8652C95.7555 12.2645 95.5729 12.4641 95.3539 12.4641C95.293 12.4641 95.22 12.4519 95.1348 12.4275C95.0497 12.403 94.9523 12.3663 94.8428 12.3174V8.12065H94.8468ZM95.2241 12.896C95.3417 12.9327 95.4512 12.949 95.5527 12.949C95.9664 12.949 96.2869 12.6923 96.514 12.1748C96.7412 11.6574 96.8548 10.9891 96.8548 10.1661C96.8548 9.56304 96.7817 9.03742 96.6317 8.59737C96.4816 8.15732 96.299 7.84358 96.08 7.65615C95.8609 7.46872 95.5648 7.37907 95.1876 7.37907H93.6421V7.65615H93.8003C93.9585 7.65615 94.0802 7.76616 94.1613 7.98211C94.2181 8.13694 94.2465 8.53218 94.2465 9.16373V15.679C94.2465 16.2535 94.2262 16.6202 94.1856 16.7709C94.1086 17.048 93.9828 17.1866 93.8043 17.1866H93.6461V17.4636H95.4512V17.1866H95.289C95.1308 17.1866 95.0091 17.0765 94.932 16.8606C94.8752 16.7058 94.8468 16.3146 94.8468 15.679V12.7412C94.9807 12.8105 95.1064 12.8634 95.2241 12.896Z" fill="#AB8570"/>
<path d="M100.477 26.3137L101.187 22.2392L101.876 26.3137H100.477ZM102.209 28.3143C102.29 28.787 102.331 29.1292 102.331 29.3493C102.331 29.5123 102.302 29.6508 102.245 29.7649C102.189 29.879 102.079 29.9442 101.917 29.9645V30.2416H103.523V29.9645C103.357 29.9401 103.227 29.826 103.134 29.6263C103.04 29.4267 102.935 28.9866 102.821 28.3143L101.402 19.9248H101.296L99.8643 28.2247C99.7386 28.954 99.625 29.4389 99.5236 29.6752C99.4749 29.7934 99.3613 29.8912 99.195 29.9645V30.2416H100.477V29.9645C100.282 29.9279 100.152 29.8545 100.096 29.7364C100.035 29.6182 100.006 29.4837 100.006 29.333C100.006 29.1415 100.039 28.8481 100.108 28.4569L100.384 26.8638H101.961L102.209 28.3143ZM98.5744 28.8237C98.4689 29.1129 98.3553 29.3167 98.2296 29.4308C98.1038 29.5449 97.8848 29.6019 97.5724 29.6019H97.2763C97.0127 29.6019 96.8585 29.5774 96.8058 29.5286C96.7571 29.4797 96.7206 29.4022 96.6963 29.2963C96.6638 29.1415 96.6476 28.8603 96.6476 28.4488V22.1128C96.6476 21.5139 96.6638 21.1349 96.6963 20.976C96.7287 20.8171 96.7896 20.6867 96.8747 20.5808C96.9599 20.4749 97.1141 20.426 97.3291 20.43V20.153H95.4834V20.43H95.6375C95.7917 20.43 95.9093 20.5401 95.9864 20.756C96.0432 20.9149 96.0716 21.3102 96.0716 21.9376V28.4447C96.0716 29.0192 96.0513 29.3859 96.0067 29.5449C95.9337 29.8219 95.8079 29.9605 95.6375 29.9605H95.4834V30.2375H98.6393L98.9881 27.4994L98.8908 27.4465C98.7853 28.0699 98.6839 28.5303 98.5784 28.8196L98.5744 28.8237Z" fill="#AB8570"/>
</g>
<defs>
<clipPath id="clip0_4761_1345">
<rect width="187" height="40" fill="white"/>
</clipPath>
</defs>
</svg>
