<svg width="1024" height="134" viewBox="0 0 1024 134" fill="none" xmlns="http://www.w3.org/2000/svg">
<path fill-rule="evenodd" clip-rule="evenodd" d="M957.478 37.8679C957.478 37.8679 975.514 29.3707 970.569 26.2308C964.201 22.1852 957.478 37.8679 957.478 37.8679ZM657.897 57.2073C667.383 61.1101 702.162 29.0937 702.162 29.0937C702.162 29.0937 646.985 52.7152 657.897 57.2073ZM748.347 63.1718C749.808 66.8018 771.97 62.4568 804.45 35.4929C804.45 35.4929 744.406 53.3822 748.347 63.1718ZM397.656 57.0538C397.238 57.3479 397.265 57.8284 397.737 58.0064C420.133 66.4747 454.107 53.1713 454.107 53.1713C479.432 40.7425 490.595 21.0185 480.369 16.1163C455.94 4.40782 397.656 57.0538 397.656 57.0538ZM494.576 61.8197C498.419 71.5485 547.363 30.0878 547.363 30.0878C547.363 30.0878 488.662 46.8509 494.576 61.8197ZM536.869 54.1025C536.869 54.1025 499.318 80.9886 488.312 70.4809C480.642 63.1547 491.42 48.8177 491.42 48.8177C491.42 48.8177 428.308 83.2325 391.528 68.1262C390.565 67.7299 389.846 66.902 388.981 66.3213C388.779 66.1839 388.484 66.1689 388.179 66.0837C388.179 66.0837 358.56 95.5259 338.785 126.254C333.657 135.112 330.259 133.989 328.552 132.426C326.846 130.869 328.552 127.241 328.552 127.241C337.035 108.64 381.722 61.4329 381.722 61.4329C382.534 60.4399 382.644 59.5076 381.414 58.8705C373.02 52.1218 378.505 48.7581 378.505 48.7581C378.765 48.5311 379.866 48.1231 381.28 49.2482C383.066 50.5246 383.988 51.2321 385.588 52.7557C386.583 53.7072 387.828 54.4029 389.193 54.7258C390.035 54.9261 390.55 54.1749 391.112 53.7413C391.962 53.0818 392.718 52.3018 393.5 51.5571C393.893 51.1831 394.257 50.7803 394.618 50.3818C421.655 25.8089 434.392 19.6228 449.624 12.9604C458.728 8.97869 478.3 2.42391 489.342 11.8278C491.262 13.4771 492.596 15.6379 493.061 18.2696C493.38 20.0841 493.513 21.8826 493.183 23.6694C492.089 29.8502 484.144 40.3803 483.103 41.8069C482.874 42.1234 482.726 42.5027 482.462 42.996C482.462 42.996 507.832 27.5648 553.321 17.5483C553.714 17.5078 554.167 17.4545 554.509 17.6015C554.509 17.6015 565.626 19.741 555.256 36.2718C555.221 36.2878 555.184 36.3272 555.16 36.3624C553.688 38.3612 549.93 43.5245 549.521 44.1052C549.521 44.1052 541.177 61.6631 557.006 59.5417C557.006 59.5417 579.247 53.1105 600.566 33.9747C600.823 33.7019 601.179 33.3077 601.15 33.0061C601.042 31.9737 601.823 31.6082 602.377 31.0446C602.936 30.4703 603.474 30.1805 604.384 30.3574C612.249 31.8831 630.141 20.8949 631.787 20.2919C633.334 19.7261 641.827 22.5645 637.428 29.6797C636.795 30.6983 632.643 35.543 631.449 37.1338C630.394 38.5487 629.257 39.8997 628.267 41.3658C624.938 46.3426 610.722 67.1609 651.354 42.0573C674.684 29.0607 702.304 18.9078 702.304 18.9078C705.325 18.6681 712.255 24.8841 711.08 31.6956C709.764 39.2914 698.197 55.1157 698.077 59.644C698.057 60.7936 698.739 60.8533 699.601 60.9268C709.967 61.7696 749.646 41.8336 749.646 41.8336C749.646 41.8336 768.06 34.2123 771.638 32.9241C779.385 30.1368 798.661 24.6326 812.205 26.4077C812.737 26.3651 813.195 25.6682 813.737 25.3603L827.263 11.0798C827.263 11.0798 831.379 5.9698 837.251 8.41932C837.964 8.71552 839.116 10.1251 839.375 10.9711C840.125 13.4174 838.341 16.5744 833.855 20.9439C833.855 20.9439 806.382 42.4143 803.646 54.6704C803.272 56.3485 804.351 57.4758 806.038 57.6984C806.038 57.6984 817.061 58.4954 842.566 42.442C852.523 36.1759 868.324 20.4751 868.324 20.4751C869.744 19.1454 871.085 17.7358 872.481 16.3827C873.065 15.8169 873.693 15.2959 874.298 14.7589C874.298 14.7589 877.835 12.9966 879.884 16.0481C881.934 19.0975 879.498 22.1437 879.498 22.1437C879.498 22.1437 861.086 39.7144 856.581 45.0886C856.581 45.0886 847.852 56.4923 861.46 53.5836C880.891 48.6025 908.854 21.1379 909.497 20.1001C914.498 13.3418 921.151 21.4777 917.857 24.2362C916.293 25.5457 913.587 29.7213 913.086 31.6221C910.678 40.7809 923.475 54.2389 923.866 54.1185C924.894 53.8095 937.145 50.8304 950.119 42.6945C951.21 40.9364 956.702 12.7473 973.476 21.6184C979.673 24.899 981.609 33.1383 959.038 46.6698C959.038 46.6698 977.44 73.4696 1021.68 69.4953C1025.76 69.131 1024.02 72.6982 1019.8 73.3566C977.527 79.9061 954.749 51.8575 952.717 49.5923C941.529 55.9351 925.094 60.0915 925.017 60.7212C924.865 62.0477 924.89 62.9107 924.055 63.8995C923.475 64.591 922.679 65.2367 921.848 65.5574C913.073 69.213 898.874 67.7458 898.732 62.5069C898.55 55.9734 913.461 54.2133 913.414 54.1408C912.76 53.1308 906.482 45.8898 905.657 36.1344C905.423 36.1727 866.997 63.3465 858.629 64.8318C840.161 68.107 841.693 53.9533 841.693 53.9533C841.776 53.5186 841.706 53.0541 841.706 52.5522C841.706 52.5522 825.583 63.3891 816.576 65.4252C790.92 71.2235 796.208 54.2836 796.208 54.2836C795.143 54.6011 794.17 55.1605 793.198 55.6826C774.797 67.0021 766.66 69.1842 757.165 71.4825C754.197 72.2016 751.649 72.6619 748.812 72.1633C731.862 69.2023 744.41 52.1314 744.41 52.1314C744.41 52.1314 718.328 64.7742 706.458 68.9626C685.573 76.325 690.916 53.3087 690.916 53.3087C689.08 54.4615 687.321 55.3065 685.502 56.097C685.502 56.097 672.868 61.6854 672.567 61.8069C670.4 62.671 668.261 63.6353 666.043 64.3491C663.44 65.1876 660.821 66.1785 658.005 65.9186C655.736 65.7055 653.515 65.2484 651.917 63.3849C650.84 62.1233 650.222 60.62 649.762 59.042C649.531 58.2621 649.283 57.4896 649.024 56.6468C649.024 56.6468 636.735 62.8468 632.546 64.7061C629.88 65.8887 627.188 67.0565 624.388 67.8897C607.989 72.7557 612.972 54.1259 614.551 49.0521C616.281 43.5021 620.445 37.0613 620.445 37.0613C620.445 37.0613 615.96 40.0798 607.067 41.2635C607.067 41.2635 578.786 64.1627 552.696 70.0494C549.133 70.856 545.605 70.3605 542.504 68.0463C539.459 65.7769 537.715 62.8287 537.369 59.042C537.222 57.4236 537.042 55.8083 536.869 54.1025Z" fill="#ffffff"/>
<path fill-rule="evenodd" clip-rule="evenodd" d="M127.716 42.4056L76.0233 51.2149C75.7652 51.2746 75.4974 51.3928 75.2892 51.5537C72.9549 53.3842 70.6642 55.269 68.2906 57.0483L66.7925 58.1735L22.4476 90.6778C21.3352 91.6591 19.8732 91.7092 18.5472 90.9985C18.1137 90.7683 17.6409 90.6032 17.1745 90.4231C15.9006 89.933 15.2737 88.793 15.9665 87.6284C16.7495 86.3179 16.9482 84.6845 18.1679 83.6158L18.8394 83.0266L57.3289 54.6691C57.8506 54.3154 58.163 54.1045 58.6655 53.7624C58.6655 53.7624 31.2131 55.8028 4.63828 52.7609C4.63828 52.7609 -0.172645 51.5292 0.0047901 46.7037C0.181162 41.8803 3.85097 41.6246 3.85097 41.6246C5.36183 41.6576 6.88224 41.9922 8.37291 42.3129C8.37291 42.3129 35.6075 48.9508 75.0777 41.2378C75.1787 41.2208 75.2807 41.2293 75.3529 41.1909C87.206 35.0379 134.357 1.23901 134.357 1.23901C135.548 0.228943 136.533 -0.0917662 137.817 0.577349C137.817 0.577349 142.27 2.44619 136.381 8.49913C136.381 8.49913 116.749 23.9687 96.2073 37.5129C109.027 37.2349 139.835 31.199 139.835 31.199C139.835 31.199 155.763 19.3456 181.884 8.03458C181.884 8.03458 194.148 3.16324 203.861 6.35113C205.05 6.74322 206.182 7.35907 206.977 8.34356C206.977 8.34356 212.327 14.9783 204.718 20.7989C204.718 20.7989 190.367 29.2374 165.856 34.1034C163.316 34.715 160.756 35.2627 158.212 35.8497L144.409 39.0675L142.857 40.7818L130.069 56.6381C129.117 57.8208 130.011 60.2714 133.455 58.8522C133.455 58.8522 164.007 47.5049 184.868 37.0708C184.868 37.0708 195.727 31.6326 191.056 50.2315C191.056 50.2315 190.885 53.0134 191.585 54.3932C193.463 56.5422 195.933 57.5108 198.647 58.036C215.252 59.825 237.591 51.6326 237.591 51.6326C237.591 51.6326 238.037 51.331 238.24 50.8825C238.24 50.8825 246.536 37.9892 259.444 37.7154C259.444 37.7154 272.755 36.6819 263.376 51.6603C260.947 55.5386 255.71 57.7025 248.957 60.0167C248.587 60.1744 249.337 59.8591 248.957 60.0167C248.823 60.6379 249.569 61.2367 249.569 61.2367C253.223 64.756 267.034 67.4612 280.454 64.4576C302.773 59.4595 327.487 58.4761 327.487 58.4761C327.487 58.4761 334.428 57.857 334.967 62.6335C335.33 65.8278 334.816 69.4419 331.851 69.6624C320.674 70.4967 321.945 67.4612 280.548 72.8546C243.344 77.7014 238.021 63.8503 238.021 63.8503C238.021 63.8503 195.004 75.5865 186.284 63.4806C184.714 61.3358 183.916 58.8554 183.484 56.2503C183.324 55.2786 183.262 54.2877 183.122 53.3117C183.038 52.6916 182.895 52.0822 182.761 51.38C182.761 51.38 149.177 62.4247 136.756 68.9369C136.756 68.9369 131.27 72.145 124.229 67.7116C119.066 64.268 120.342 55.5791 120.342 55.5791C120.65 54.1002 121.186 52.6128 121.926 51.2842C123.595 48.3008 127.716 42.4056 127.716 42.4056ZM245.497 52.0385C248.448 51.5079 253.305 50.5394 255.356 48.5374C255.356 48.5374 258.564 45.7469 256.489 44.0901C254.412 42.4333 247.62 49.199 245.497 52.0385ZM186.612 18.8768C187.07 18.603 187.512 18.2546 187.856 17.8486C188.207 17.4342 188.024 16.9451 187.501 16.7853C187.163 16.6862 186.783 16.65 186.431 16.6873C186.431 16.6873 184.933 15.8839 163.128 25.617C181.82 21.7024 186.612 18.8768 186.612 18.8768Z" fill="#ffffff"/>
<path fill-rule="evenodd" clip-rule="evenodd" d="M885.183 0.283534C886.166 -0.256658 887.295 -0.000945864 888.23 0.846101C888.515 1.10288 890.58 4.76595 890.704 6.04771C890.732 6.3567 890.646 6.68486 890.688 6.99065C886.009 16.8633 878.506 3.94768 885.183 0.283534Z" fill="#ffffff"/>
</svg>
