<svg width="18" height="17" viewBox="0 0 18 17" fill="none" xmlns="http://www.w3.org/2000/svg">
<path d="M6.40046 5.05276L8.11461 1.57663H8.11627L8.25379 1.29777C8.32258 1.15827 8.42904 1.04081 8.56112 0.958674C8.69321 0.876538 8.84564 0.833008 9.00118 0.833008C9.15672 0.833008 9.30916 0.876538 9.44124 0.958674C9.57333 1.04081 9.67979 1.15827 9.74858 1.29777L9.74862 1.29785L11.6019 5.05451L11.7183 5.29043L11.9787 5.32813L16.1218 5.92811C16.2758 5.95046 16.4204 6.01546 16.5393 6.11574C16.6582 6.21602 16.7467 6.34759 16.7947 6.49555C16.8427 6.64351 16.8484 6.80195 16.811 6.95296C16.7736 7.10396 16.6948 7.24149 16.5833 7.34998L16.5831 7.35019L13.5847 10.2719L13.3964 10.4554L13.4409 10.7145L14.1491 14.8406C14.1752 14.9938 14.158 15.1511 14.0994 15.295C14.0408 15.4389 13.9432 15.5635 13.8175 15.6548C13.6919 15.7461 13.5432 15.8005 13.3883 15.8118C13.2334 15.8231 13.0784 15.7909 12.9408 15.7188L9.2329 13.7707L9.0003 13.6485L8.76771 13.7707L5.06157 15.7188C5.06154 15.7188 5.06151 15.7188 5.06149 15.7188C4.92393 15.7909 4.76897 15.8231 4.61408 15.8118C4.45916 15.8005 4.31048 15.7461 4.18482 15.6548C4.05917 15.5635 3.96154 15.4389 3.90295 15.295C3.84436 15.1511 3.82714 14.9938 3.85324 14.8406L4.55984 10.7144L4.60419 10.4554L4.41606 10.272L1.41805 7.34894C1.418 7.34889 1.41795 7.34885 1.41791 7.3488C1.30679 7.24022 1.22824 7.10274 1.19112 6.95187C1.15399 6.80094 1.15981 6.64264 1.20792 6.49485C1.25603 6.34705 1.34451 6.21566 1.46337 6.11551C1.58223 6.01536 1.72673 5.95045 1.88054 5.92811C1.88054 5.92811 1.88054 5.9281 1.88055 5.9281L6.02387 5.32644L6.28414 5.28864L6.40046 5.05276Z" stroke="#D2993E"/>
</svg>
