<svg viewBox="0 -7.450580596923828e-9 100.125 23.626699447631836" fill="none" xmlns="http://www.w3.org/2000/svg">
<path d="M7.78494 9.67985C7.77982 9.44465 7.82162 9.21076 7.90796 8.99153C7.99429 8.77231 8.12346 8.57205 8.28809 8.4022C8.45272 8.23235 8.64959 8.09623 8.86744 8.00162C9.08529 7.90701 9.31986 7.85577 9.55774 7.85082C10.0465 7.85675 10.5135 8.05135 10.8592 8.39309C11.2048 8.73482 11.4016 9.1966 11.4076 9.67985V10.8992H13.7971V9.67985C13.8033 8.55927 13.361 7.48172 12.5669 6.68223C11.7727 5.88274 10.691 5.42618 9.55774 5.41211C8.42446 5.42618 7.34277 5.88274 6.54861 6.68223C5.75444 7.48172 5.31223 8.55927 5.31842 9.67985V10.8992H7.78494V9.67985Z" fill="#FFA400"></path>
<path d="M14.8762 10.8994H4.39352C4.16927 10.9014 3.95478 10.9904 3.79621 11.1471C3.63764 11.3039 3.54767 11.516 3.54565 11.7377V19.5111C3.54767 19.7328 3.63764 19.9449 3.79621 20.1017C3.95478 20.2585 4.16927 20.3474 4.39352 20.3494H14.8762C15.1004 20.3474 15.3149 20.2585 15.4735 20.1017C15.6321 19.9449 15.722 19.7328 15.7241 19.5111V11.7377C15.7096 11.5201 15.6156 11.3151 15.4596 11.1609C15.3037 11.0066 15.0963 10.9137 14.8762 10.8994ZM10.1744 16.0055V17.0724C10.1744 17.2139 10.1176 17.3496 10.0164 17.4496C9.91519 17.5497 9.77796 17.6059 9.63486 17.6059C9.49176 17.6059 9.35452 17.5497 9.25334 17.4496C9.15215 17.3496 9.09531 17.2139 9.09531 17.0724V16.0055C8.93215 15.9132 8.7964 15.7802 8.70169 15.6196C8.60699 15.4591 8.55666 15.2768 8.55576 15.0909C8.55576 14.9508 8.58367 14.8121 8.6379 14.6826C8.69213 14.5532 8.77162 14.4356 8.87182 14.3365C8.97202 14.2374 9.09098 14.1588 9.2219 14.1052C9.35283 14.0516 9.49315 14.024 9.63486 14.024C9.77657 14.024 9.91689 14.0516 10.0478 14.1052C10.1787 14.1588 10.2977 14.2374 10.3979 14.3365C10.4981 14.4356 10.5776 14.5532 10.6318 14.6826C10.686 14.8121 10.714 14.9508 10.714 15.0909C10.7131 15.2768 10.6627 15.4591 10.568 15.6196C10.4733 15.7802 10.3376 15.9132 10.1744 16.0055Z" fill="#003A70"></path>
<path d="M4.08516 8.99403C4.08516 8.79191 4.00395 8.59807 3.8594 8.45515C3.71485 8.31223 3.5188 8.23193 3.31438 8.23193H0.770785C0.56636 8.23193 0.370308 8.31223 0.225758 8.45515C0.0812075 8.59807 0 8.79191 0 8.99403C0 9.19615 0.0812075 9.38999 0.225758 9.53291C0.370308 9.67584 0.56636 9.75613 0.770785 9.75613H3.31438C3.51463 9.74355 3.70338 9.65922 3.84526 9.51893C3.98715 9.37864 4.07244 9.19203 4.08516 8.99403Z" fill="#FFA400"></path>
<path d="M4.62455 5.64089C4.76516 5.72543 4.92324 5.77753 5.08702 5.79331C5.3124 5.78623 5.52913 5.70587 5.70365 5.56468C5.83507 5.41246 5.90065 5.21523 5.88623 5.0156C5.87181 4.81597 5.77854 4.62996 5.62657 4.49775L3.62253 2.82113C3.46857 2.69119 3.26909 2.62635 3.06718 2.64061C2.86528 2.65487 2.67715 2.74709 2.54343 2.89734C2.41201 3.04957 2.34643 3.2468 2.36085 3.44643C2.37527 3.64606 2.46854 3.83207 2.62051 3.96428L4.62455 5.64089Z" fill="#FFA400"></path>
<path d="M9.6348 4.04068C9.82978 4.01421 10.0107 3.9254 10.1498 3.7878C10.289 3.6502 10.3788 3.47137 10.4056 3.27858V0.763659C10.4124 0.661836 10.3971 0.559749 10.3608 0.464234C10.3245 0.368718 10.2679 0.281977 10.195 0.20982C10.122 0.137663 10.0342 0.0817548 9.93764 0.0458384C9.84103 0.00992195 9.73778 -0.00517357 9.6348 0.00156254C9.43037 0.00156254 9.23432 0.0818547 9.08977 0.224776C8.94522 0.367696 8.86401 0.561539 8.86401 0.763659V3.27858C8.86401 3.4807 8.94522 3.67454 9.08977 3.81746C9.23432 3.96038 9.43037 4.04068 9.6348 4.04068Z" fill="#FFA400"></path>
<path d="M14.1054 5.79328C14.2067 5.79597 14.3074 5.77692 14.4005 5.73746C14.4937 5.69799 14.5771 5.63903 14.6449 5.56465L16.649 3.88804C16.7897 3.74924 16.875 3.56485 16.8892 3.36881C16.9033 3.17277 16.8454 2.97827 16.7261 2.8211C16.5857 2.68195 16.3992 2.59762 16.2009 2.58362C16.0026 2.56961 15.8059 2.62689 15.647 2.74489L13.6429 4.4215C13.5022 4.56031 13.4169 4.74469 13.4027 4.94073C13.3886 5.13677 13.4465 5.33127 13.5658 5.48844C13.6101 5.59027 13.6867 5.67509 13.7841 5.73008C13.8814 5.78507 13.9942 5.80726 14.1054 5.79328Z" fill="#FFA400"></path>
<path d="M18.4218 8.23193H15.8782C15.6738 8.23193 15.4777 8.31223 15.3332 8.45515C15.1886 8.59807 15.1074 8.79191 15.1074 8.99403C15.1074 9.19615 15.1886 9.38999 15.3332 9.53291C15.4777 9.67584 15.6738 9.75613 15.8782 9.75613H18.4218C18.5248 9.76286 18.628 9.74777 18.7246 9.71185C18.8212 9.67593 18.909 9.62003 18.982 9.54787C19.0549 9.47571 19.1115 9.38897 19.1478 9.29346C19.1841 9.19794 19.1994 9.09585 19.1926 8.99403C19.1926 8.79191 19.1114 8.59807 18.9668 8.45515C18.8223 8.31223 18.6262 8.23193 18.4218 8.23193Z" fill="#FFA400"></path>
<path d="M24.1256 10.8994H21.8132V20.3494H27.7483V18.368H24.1256V10.8994Z" fill="#003A70"></path>
<path d="M34.3771 14.405C34.0675 14.1073 33.7005 13.8741 33.298 13.7191C32.8794 13.563 32.4351 13.4855 31.9877 13.4905C31.5158 13.492 31.0472 13.5692 30.6003 13.7191C30.1658 13.8549 29.7698 14.0899 29.4441 14.405C29.1026 14.7231 28.8389 15.114 28.6733 15.5481C28.4458 15.9964 28.3396 16.4952 28.365 16.9961C28.3778 17.518 28.4822 18.0337 28.6733 18.5203C28.8586 18.9215 29.1203 19.2838 29.4441 19.5872C29.7698 19.9023 30.1658 20.1373 30.6003 20.2731C31.0456 20.4291 31.5153 20.5065 31.9877 20.5017C32.5994 20.5013 33.2039 20.3713 33.7605 20.1207C34.2698 19.8943 34.6992 19.5228 34.9938 19.0538L33.4522 18.063C33.2844 18.2795 33.0748 18.4608 32.8356 18.5965C32.5855 18.7615 32.2879 18.8418 31.9877 18.8251C31.8044 18.8374 31.6206 18.8114 31.4482 18.7489C31.294 18.7489 31.1398 18.5965 30.9857 18.5203C30.8217 18.4341 30.6875 18.3014 30.6003 18.1392C30.5137 17.9733 30.4613 17.7919 30.4461 17.6058H35.3021V17.0723C35.3128 16.555 35.2346 16.0396 35.0709 15.5481C34.9335 15.1186 34.6958 14.727 34.3771 14.405ZM30.6003 15.7005C30.6786 15.556 30.7831 15.4268 30.9086 15.3195C31.0437 15.1922 31.2002 15.089 31.3711 15.0147C31.5701 14.9519 31.7792 14.9261 31.9877 14.9384C32.1723 14.9298 32.3567 14.9593 32.5292 15.0249C32.7017 15.0905 32.8585 15.1908 32.9897 15.3195C33.1874 15.5548 33.294 15.8519 33.2903 16.1578H30.4461C30.4621 15.9959 30.5148 15.8396 30.6003 15.7005Z" fill="#003A70"></path>
<path d="M38.6934 11.9663H36.5352V13.7191H35.4561V15.3195H36.5352V18.1393C36.5428 18.4748 36.5946 18.8078 36.6893 19.13C36.7705 19.4049 36.901 19.663 37.0747 19.8921C37.2591 20.1046 37.4991 20.2628 37.7684 20.3494C38.1458 20.4478 38.5343 20.499 38.9246 20.5018C39.1585 20.5142 39.3929 20.4884 39.6183 20.4256C39.8009 20.385 39.9811 20.3341 40.1578 20.2732V18.6728C40.0808 18.6728 40.0037 18.749 39.8495 18.749H39.5412C39.4277 18.7583 39.3136 18.7426 39.207 18.703C39.1003 18.6635 39.0039 18.6011 38.9246 18.5203C38.8199 18.3067 38.7671 18.0718 38.7704 17.8345V15.3195H40.2349V13.7191H38.6934V11.9663Z" fill="#003A70"></path>
<path d="M45.4763 15.1668C45.6401 15.0715 45.8258 15.019 46.0159 15.0144C46.2826 14.983 46.5526 15.0363 46.7866 15.1668C47.0057 15.3006 47.2121 15.4537 47.4033 15.6241L48.7136 14.4047C48.3482 14.1038 47.9302 13.8714 47.4804 13.7189C47.007 13.5687 46.513 13.4916 46.0159 13.4902C45.6766 13.4978 45.3397 13.549 45.0138 13.6427C44.6833 13.7085 44.369 13.838 44.0889 14.0237C43.8268 14.1958 43.6144 14.4321 43.4723 14.7096C43.3058 15.013 43.2259 15.3555 43.241 15.7003C43.2284 15.9819 43.2543 16.2639 43.3181 16.5386C43.4527 16.7321 43.6077 16.911 43.7806 17.0721C43.9555 17.2421 44.166 17.3721 44.3972 17.4531L45.0909 17.6818C45.4344 17.7502 45.77 17.8523 46.0929 17.9866C46.1914 18.0133 46.2768 18.0743 46.3335 18.1583C46.3901 18.2423 46.4142 18.3437 46.4013 18.4439C46.4132 18.5342 46.3975 18.626 46.3563 18.7074C46.3151 18.7889 46.2502 18.8563 46.17 18.9011C46.0022 18.9868 45.8188 19.0386 45.6305 19.0535C45.3083 19.0503 44.9914 18.9719 44.7055 18.8249C44.4562 18.6713 44.2237 18.4925 44.0118 18.2914L42.7786 19.587C43.157 19.9283 43.6033 20.1879 44.0889 20.3491C44.615 20.4997 45.1598 20.5766 45.7075 20.5777C46.0463 20.5643 46.3824 20.5132 46.7096 20.4253C47.0355 20.345 47.3473 20.2166 47.6345 20.0443C47.9351 19.8964 48.1787 19.6556 48.3282 19.3584C48.4861 19.0247 48.5651 18.6598 48.5595 18.2914C48.5897 18.0032 48.5362 17.7124 48.4053 17.4531C48.323 17.2052 48.1605 16.991 47.9428 16.8435C47.7289 16.6878 47.4958 16.5597 47.2491 16.4624C46.9408 16.3862 46.7096 16.31 46.4783 16.2338C46.0159 16.0814 45.7075 16.0052 45.5534 15.9289C45.4657 15.9098 45.3873 15.8615 45.3312 15.7922C45.2751 15.7229 45.2447 15.6367 45.2451 15.5479C45.2436 15.4693 45.2645 15.392 45.3054 15.3246C45.3463 15.2572 45.4055 15.2025 45.4763 15.1668Z" fill="#003A70"></path>
<path d="M54.6487 16.3865H58.5797V14.5575H54.6487V12.8047H58.8109V10.8994H52.4905V20.3494H59.0421V18.368H54.6487V16.3865Z" fill="#003A70"></path>
<path d="M66.3647 14.2524C66.1433 14.0088 65.8829 13.8028 65.5939 13.6428C65.2316 13.4792 64.8358 13.4009 64.4377 13.4141C64.2292 13.4018 64.0201 13.4276 63.8211 13.4904C63.6669 13.5666 63.4357 13.6428 63.2815 13.719C63.1274 13.7952 62.9732 13.9476 62.8191 14.1C62.6903 14.2336 62.5859 14.3884 62.5107 14.5573V13.6428H60.3525V20.273H62.5878V16.6912C62.5754 16.51 62.6017 16.3282 62.6649 16.1577L62.8961 15.7004C63.0047 15.5764 63.1353 15.4731 63.2815 15.3956C63.4525 15.3275 63.6376 15.3013 63.8211 15.3194C63.9792 15.3074 64.1379 15.3335 64.2835 15.3956C64.4213 15.4555 64.5313 15.5643 64.5919 15.7004C64.6774 15.8395 64.7301 15.9958 64.746 16.1577C64.8092 16.3282 64.8355 16.51 64.8231 16.6912V20.1968H66.9042V16.0815C66.8907 15.7466 66.8389 15.4142 66.7501 15.0908C66.6689 14.7923 66.5387 14.5091 66.3647 14.2524Z" fill="#003A70"></path>
<path d="M70.4496 15.8528C70.5661 15.6869 70.7259 15.5552 70.912 15.4717C71.1036 15.3764 71.3142 15.3244 71.5287 15.3193C71.7402 15.3427 71.9476 15.3939 72.1453 15.4717C72.3538 15.5535 72.539 15.6843 72.6848 15.8528L73.9952 14.481C73.8609 14.3321 73.705 14.2037 73.5327 14.1C73.3437 13.9685 73.1359 13.8657 72.9161 13.7951C72.6848 13.7189 72.4536 13.7189 72.2224 13.6427C71.9969 13.5799 71.7626 13.5541 71.5287 13.5665C71.0311 13.5619 70.5361 13.6391 70.0642 13.7951C69.6297 13.931 69.2337 14.1659 68.908 14.481C68.5664 14.7991 68.3028 15.1901 68.1372 15.6242C67.9097 16.0724 67.8035 16.5713 67.8289 17.0721C67.8494 17.5684 67.9536 18.0578 68.1372 18.5201C68.3028 18.9542 68.5664 19.3452 68.908 19.6633C69.2337 19.9784 69.6297 20.2133 70.0642 20.3492C70.5361 20.5052 71.0311 20.5824 71.5287 20.5778C72.0006 20.5763 72.4692 20.4991 72.9161 20.3492C73.3222 20.2397 73.6936 20.0299 73.9952 19.7395L72.7619 18.2915C72.6161 18.46 72.4309 18.5908 72.2224 18.6726C72.0008 18.7594 71.7666 18.8108 71.5287 18.825C71.3142 18.8199 71.1036 18.7679 70.912 18.6726C70.7397 18.5688 70.5838 18.4404 70.4496 18.2915C70.3027 18.1424 70.1966 17.9588 70.1412 17.758C70.0777 17.5351 70.0516 17.3034 70.0642 17.0721C70.0516 16.8409 70.0777 16.6092 70.1412 16.3863C70.1966 16.1855 70.3027 16.0019 70.4496 15.8528Z" fill="#003A70"></path>
<path d="M78.62 13.4903C78.2364 13.4737 77.8578 13.5807 77.5409 13.7951C77.2477 14.0183 77.0104 14.3051 76.8472 14.6334V13.6427H74.7661V20.273H76.9243V16.8435C76.9122 16.6872 76.9386 16.5303 77.0014 16.3863C77.007 16.2986 77.0303 16.213 77.0701 16.1344C77.1098 16.0559 77.1651 15.986 77.2326 15.929C77.2799 15.8381 77.3452 15.7575 77.4247 15.692C77.5041 15.6265 77.5961 15.5776 77.6951 15.548C77.9413 15.454 78.202 15.4025 78.4659 15.3955H78.7742C78.8513 15.3955 79.0054 15.4718 79.0825 15.4718V13.5665C79.0521 13.5377 79.0155 13.5159 78.9755 13.5028C78.9356 13.4896 78.8931 13.4853 78.8513 13.4903H78.62Z" fill="#003A70"></path>
<path d="M83.7845 17.9108H83.7074L82.2429 13.6431H79.7764L82.5512 20.1971L82.32 20.7306C82.2567 20.9895 82.1235 21.2265 81.9346 21.4165C81.7139 21.5821 81.4402 21.6633 81.1638 21.6451H80.7784C80.6485 21.6272 80.5198 21.6017 80.393 21.5689L80.1618 23.3979C80.3159 23.3979 80.4701 23.4741 80.7013 23.4741C80.9003 23.5369 81.1094 23.5627 81.3179 23.5503C81.6825 23.5425 82.0448 23.4913 82.397 23.3979C82.6792 23.2915 82.9401 23.1367 83.1678 22.9406C83.4299 22.7686 83.6424 22.5323 83.7845 22.2548C83.9694 21.9661 84.1243 21.6597 84.2469 21.3402L87.4072 13.6431H85.0948L83.7845 17.9108Z" fill="#003A70"></path>
<path d="M94.4984 14.5577C94.2194 14.2399 93.8787 13.9807 93.4964 13.7956C93.0953 13.5791 92.6426 13.4738 92.186 13.4908C91.7286 13.4644 91.2732 13.5703 90.8757 13.7956C90.5305 13.936 90.2354 14.1748 90.0278 14.4815H89.9507V13.6432H87.8696V23.6267H90.0278V19.6638C90.2354 19.9705 90.5305 20.2093 90.8757 20.3496C91.2426 20.4987 91.6352 20.5763 92.0319 20.5783C92.4885 20.5952 92.9412 20.4899 93.3422 20.2734C93.7245 20.0884 94.0653 19.8292 94.3442 19.5113C94.6106 19.1656 94.8189 18.7796 94.9609 18.3682C95.1125 17.9263 95.1906 17.463 95.1921 16.9964C95.1921 16.463 95.115 16.0819 95.115 15.7009C95.0044 15.2767 94.793 14.8848 94.4984 14.5577ZM92.9568 17.6061C92.8838 17.7992 92.7797 17.9793 92.6485 18.1396C92.6012 18.2305 92.5359 18.3111 92.4564 18.3766C92.377 18.442 92.285 18.491 92.186 18.5206C91.9644 18.6074 91.7303 18.6589 91.4923 18.673C91.2533 18.6672 91.0177 18.6155 90.7986 18.5206C90.6263 18.4169 90.4704 18.2885 90.3361 18.1396C90.1893 17.9905 90.0832 17.8069 90.0278 17.6061C89.9605 17.4102 89.9343 17.2027 89.9507 16.9964C89.9382 16.7902 89.9644 16.5835 90.0278 16.3867C90.0832 16.1859 90.1893 16.0024 90.3361 15.8533C90.3834 15.7623 90.4487 15.6817 90.5282 15.6163C90.6076 15.5508 90.6996 15.5018 90.7986 15.4722C91.0202 15.3854 91.2544 15.334 91.4923 15.3198C91.7314 15.3256 91.967 15.3774 92.186 15.4722C92.3584 15.576 92.5142 15.7044 92.6485 15.8533C92.7954 16.0024 92.9015 16.1859 92.9568 16.3867C93.0241 16.5827 93.0503 16.7901 93.0339 16.9964C93.0419 17.2024 93.0158 17.4084 92.9568 17.6061Z" fill="#003A70"></path>
<path d="M100.125 15.3195V13.7191H98.5835V11.9663H96.4253V13.7191H95.3462V15.3195H96.4253V18.1393C96.433 18.4748 96.4848 18.8078 96.5795 19.13C96.6606 19.4049 96.7912 19.663 96.9648 19.8921C97.1492 20.1046 97.3892 20.2628 97.6585 20.3494C98.036 20.4478 98.4244 20.499 98.8147 20.5018C99.0486 20.5142 99.283 20.4884 99.5084 20.4256C99.6911 20.385 99.8712 20.3341 100.048 20.2732V18.6728C99.9709 18.6728 99.8167 18.749 99.7397 18.749H99.4314C99.3179 18.7583 99.2037 18.7426 99.0971 18.703C98.9905 18.6635 98.894 18.6011 98.8147 18.5203C98.71 18.3067 98.6572 18.0718 98.6606 17.8345V15.3195H100.125Z" fill="#003A70"></path>
<path d="M43.6265 12.0426C43.638 11.8722 43.6151 11.7012 43.5591 11.5396C43.5031 11.378 43.4151 11.2291 43.3004 11.1014C43.1856 10.9738 43.0463 10.8699 42.8906 10.796C42.7348 10.7221 42.5658 10.6795 42.3933 10.6708C42.2449 10.6592 42.0958 10.6782 41.9553 10.7267C41.8149 10.7751 41.6861 10.852 41.5774 10.9524C41.4686 11.0527 41.3822 11.1744 41.3236 11.3096C41.265 11.4448 41.2355 11.5906 41.2371 11.7377C41.2339 11.8787 41.2597 12.0188 41.3128 12.1497C41.3659 12.2806 41.4453 12.3994 41.5461 12.4991C41.6469 12.5988 41.7672 12.6773 41.8995 12.7298C42.0319 12.7823 42.1736 12.8078 42.3162 12.8047H42.4703C42.4119 13.0372 42.2858 13.2477 42.1078 13.4102C41.9297 13.5727 41.7074 13.6801 41.4683 13.7192H41.3912V14.7099H41.4683C41.9951 14.6402 42.4833 14.3989 42.8557 14.024C43.1102 13.7605 43.3093 13.4496 43.4416 13.1095C43.5739 12.7695 43.6367 12.4068 43.6265 12.0426Z" fill="#003A70"></path>
</svg>