<svg xmlns="http://www.w3.org/2000/svg" fill="none" viewBox="0.06 0 111 21">
  <g clip-path="url(#clip0)">
    <path d="M9.60318 16.2199L14.1618 13.5301V8.18286L9.60318 10.8727V16.2199Z" fill="white"/>
    <path d="M13.588 7.12985L8.98155 4.42383L4.4389 7.08124L8.98155 9.80346L13.588 7.12985Z" fill="white"/>
    <path d="M0.0556641 5.25V15.75L8.98157 21L17.9234 15.75V5.25L8.98157 0L0.0556641 5.25ZM14.7834 6.43287L15.3413 6.77315V14.2593L9.60319 17.6134L8.99751 17.9699L2.66968 14.2269V6.77315L9.02939 3.0463L14.7834 6.43287Z" fill="white"/>
    <path d="M8.40773 10.8405L3.86508 8.15063V13.5627L8.40773 16.2525V10.8405Z" fill="white"/>
    <path d="M95.9454 3.67822H94.2081V13.1736H95.9454V3.67822Z" fill="white"/>
    <path d="M102.241 9.60881C102.241 10.7107 101.492 11.6343 100.424 11.6343C99.2927 11.6343 98.7029 10.7917 98.7029 9.70604V5.94678H96.9496V9.73844C96.9496 11.9584 98.177 13.2709 99.8824 13.2709C100.887 13.2709 101.556 12.9306 102.289 12.2014L102.401 13.1736H103.979V5.94678H102.241V9.60881Z" fill="white"/>
    <path d="M108.027 8.71757C107.119 8.66895 106.704 8.39349 106.704 7.93979C106.704 7.48608 107.166 7.22682 107.995 7.22682C108.681 7.22682 109.254 7.37266 109.749 7.85877L110.753 6.6759C109.94 5.94673 109.095 5.73608 107.995 5.73608C106.704 5.73608 104.999 6.31942 104.999 7.9884C104.999 9.62497 106.593 10.1273 107.932 10.2245C108.936 10.2893 109.334 10.4838 109.334 10.9861C109.334 11.4884 108.697 11.8611 108.043 11.8449C107.262 11.8287 106.099 11.4074 105.604 10.8403L104.744 12.1041C105.764 13.206 106.895 13.4004 108.011 13.4004C110.036 13.4004 111.056 12.3148 111.056 11.0347C111.056 9.10645 109.35 8.79858 108.027 8.71757Z" fill="white"/>
    <path d="M26.8652 6.95133C26.4667 6.22217 25.5423 5.76846 24.6019 5.76846C22.5298 5.75226 20.904 7.04855 20.904 9.52772C20.904 12.0555 22.4501 13.3842 24.554 13.368C25.3351 13.3518 26.4508 12.9467 26.8493 12.1041L26.929 13.1574H28.5866L28.6026 5.9467H26.913L26.8652 6.95133ZM24.7453 11.7314C23.5658 11.7314 22.6414 10.905 22.6414 9.52772C22.6414 8.15041 23.5977 7.35642 24.7453 7.35642C27.5028 7.37263 27.5028 11.7314 24.7453 11.7314Z" fill="white"/>
    <path d="M35.5361 5.23389L34.8667 6.14129C34.3726 5.80102 33.7988 5.7362 33.2409 5.7362C31.2485 5.7362 29.6387 7.12972 29.6387 9.38204C29.6387 11.6343 31.0094 13.0117 33.225 13.0117C34.1176 13.0117 35.0261 13.4816 35.0261 14.47C35.0261 15.4584 34.2451 16.0093 33.225 16.0093C32.2049 16.0093 31.3601 15.3774 31.3601 14.4538H29.6227C29.6227 16.3982 31.1529 17.6783 33.209 17.6783C35.2652 17.6783 36.7635 16.4631 36.7635 14.47C36.7635 13.5626 36.4766 12.6876 35.2971 12.0881C36.4606 11.5533 36.7953 10.2894 36.7953 9.39824C36.8107 8.61623 36.5443 7.8555 36.0462 7.25935L36.8272 6.23852L35.5361 5.23389ZM33.1931 11.3913C32.173 11.3913 31.3442 10.6297 31.3442 9.38204C31.3442 8.13435 32.173 7.35657 33.1931 7.34037C34.2132 7.32416 35.042 8.13435 35.042 9.38204C35.042 10.6297 34.2132 11.3913 33.1931 11.3913Z" fill="white"/>
    <path d="M41.7046 4.01844L42.5334 4.87723H44.3186V4.79621L42.1987 2.77075H41.2423L39.1065 4.79621V4.87723H40.8757L41.7046 4.01844Z" fill="white"/>
    <path d="M50.232 6.01162C49.3553 6.01162 48.6221 6.3681 47.9049 7.08106L47.7933 5.89819H46.2153L46.1994 13.3195H47.9368V9.64125C47.9368 8.5394 48.6859 7.61579 49.7538 7.61579C50.8855 7.61579 51.4753 8.45838 51.4753 9.54403V13.3357H53.2286V9.56023C53.2286 7.29171 51.9056 6.01162 50.232 6.01162Z" fill="white"/>
    <path d="M57.9784 11.7315C56.8786 11.7315 55.97 11.0024 55.97 9.62505C55.97 8.36116 56.8308 7.48616 58.0102 7.48616C58.5407 7.48969 59.0513 7.69156 59.4448 8.05329L60.5605 6.87042C59.7635 6.09264 59.0144 5.89819 58.0102 5.89819C55.9541 5.89819 54.2167 7.04866 54.2167 9.60884C54.2167 12.169 55.9222 13.4329 57.9784 13.4329C58.4856 13.4492 58.9905 13.3566 59.4601 13.1612C59.9297 12.9657 60.3536 12.6718 60.704 12.2987L59.5404 11.132C59.334 11.3349 59.089 11.4928 58.8203 11.5959C58.5517 11.699 58.2652 11.7451 57.9784 11.7315Z" fill="white"/>
    <path d="M61.6923 13.3681H63.4456L63.4774 5.9144L61.7242 5.89819L61.6923 13.3681Z" fill="white"/>
    <path d="M70.4109 6.87028C70.0124 6.14111 69.088 5.68741 68.1476 5.68741C66.0755 5.6712 64.4497 6.9675 64.4497 9.44667C64.4497 11.9744 65.9958 13.3031 68.0997 13.2869C68.8808 13.2707 69.9965 12.8656 70.395 12.0231L70.4747 13.0925H72.1323L72.1483 5.88185H70.4587L70.4109 6.87028ZM68.291 11.6828C67.1115 11.6828 66.187 10.8564 66.187 9.47907C66.187 8.10176 67.1274 7.30778 68.291 7.30778C71.0644 7.32398 71.0485 11.6828 68.291 11.6828Z" fill="white"/>
    <path d="M63.6049 3.59717H61.5807V5.44439H63.6049V3.59717Z" fill="white"/>
    <path d="M78.0138 5.83339C75.7186 5.81718 74.1884 7.24311 74.1884 9.44682C74.1884 11.7639 75.6389 13.3033 78.0776 13.3033C79.1455 13.3033 80.3728 12.9144 81.1219 12.1366L80.3409 11.213C79.9424 11.6343 79.0817 11.8774 78.4442 11.8774C77.2009 11.8774 76.2605 11.1968 76.1489 10.3056L81.6798 10.3542C81.9508 7.38895 80.3887 5.83339 78.0138 5.83339ZM76.0055 8.75006C76.1286 8.30941 76.3932 7.92331 76.7572 7.65317C77.1211 7.38304 77.5634 7.2444 78.0138 7.25931C79.0339 7.25931 79.7352 7.82644 79.8468 8.75006H76.0055Z" fill="white"/>
    <path d="M41.5293 5.93056C39.234 5.91435 37.7039 7.34028 37.7039 9.54398C37.7039 11.8611 39.1543 13.4005 41.593 13.4005C42.6609 13.4005 43.8883 13.0116 44.6374 12.2338L43.8564 11.3102C43.4579 11.7315 42.5972 11.9745 41.9596 11.9745C40.7164 11.9745 39.776 11.294 39.6644 10.4028L45.1953 10.4514C45.4662 7.48611 43.8883 5.93056 41.5293 5.93056ZM39.5369 8.83102C39.6601 8.39038 39.9247 8.00427 40.2886 7.73414C40.6525 7.464 41.0948 7.32536 41.5452 7.34028C42.5653 7.34028 43.2666 7.90741 43.3782 8.83102H39.5369Z" fill="white"/>
    <path d="M89.9204 3.56469H85.3618V5.46052H89.9204C90.3348 5.46052 91.6578 5.68738 91.6578 6.93506C91.6578 8.18274 90.4305 8.58784 90.4305 8.58784L90.4146 10.4675C90.4146 10.4675 93.4749 10.2406 93.4749 6.82163C93.4749 3.40265 89.9204 3.56469 89.9204 3.56469Z" fill="white"/>
    <path d="M85.3618 8.63672H82.4928V10.5001H85.3618V8.63672Z" fill="white"/>
    <path d="M87.0992 6.04395H85.3618V8.63654H87.0992V10.5H85.3618V13.287H87.0992V10.5H89.8567V8.63654H87.0992V6.04395Z" fill="white"/>
  </g>
  <defs>
    <clipPath id="clip0">
      <rect width="111" height="21" fill="white" transform="translate(0.0556641)"/>
    </clipPath>
  </defs>
</svg>