<svg width="26" height="26" viewBox="0 0 26 26" fill="none" xmlns="http://www.w3.org/2000/svg">
<path d="M0.25 0.25H25.75V25.75H0.25V0.25Z" stroke="white" stroke-width="0.5"/>
<path fill-rule="evenodd" clip-rule="evenodd" d="M14.7981 15.1462H12.9492V24.1431H11.7795V18.1156H10.9626V24.1431H1.85693V1.85742H24.1426V24.1431H14.7981V15.1462ZM11.3775 7.7717C10.2453 7.7717 9.16397 7.85954 8.13251 8.02322C9.52857 6.28702 11.6414 5.17962 14.0056 5.17962C15.9174 5.17962 17.6656 5.90923 18.9988 7.10496C17.6027 5.43114 15.5273 4.36167 13.2135 4.36167C10.371 4.36167 7.88112 5.97261 6.56037 8.3511C5.18974 8.70343 3.98221 9.194 2.98865 9.79786C3.98221 9.35719 5.11393 9.00536 6.35887 8.75334C5.84313 9.81033 5.56681 11.0056 5.56681 12.2642C5.56681 14.6427 6.58531 16.7816 8.22029 18.2289C7.05067 16.8445 6.35887 15.0449 6.35887 13.0821C6.35887 11.3833 6.8746 9.82331 7.74247 8.53924C8.55262 8.4481 9.3672 8.40195 10.1825 8.40101C16.3074 8.40101 21.2747 11.031 21.2747 14.2649C21.2747 15.7371 20.2562 17.0711 18.5833 18.1026C20.9605 17.0326 22.4698 15.4227 22.4698 13.6356C22.4698 10.3892 17.502 7.7717 11.3775 7.7717Z" fill="white"/>
</svg>
