<svg xmlns="http://www.w3.org/2000/svg" fill="none" viewBox="0 0.11 42.62 26.43">
  <rect x="0.375" y="0.481445" width="41.8739" height="25.6768" rx="1.125" stroke="white" stroke-width="0.75"/>
  <path d="M19.15 17.889H16.5262L18.1673 8.77661H20.791L19.15 17.889Z" fill="white"/>
  <path d="M28.6616 8.99977C28.1441 8.81539 27.3232 8.61182 26.3082 8.61182C23.7171 8.61182 21.8925 9.85259 21.8813 11.6265C21.8598 12.9353 23.1877 13.6623 24.1808 14.0987C25.196 14.5446 25.541 14.8357 25.541 15.2331C25.5307 15.8436 24.7208 16.125 23.9653 16.125C22.9178 16.125 22.3565 15.9799 21.5035 15.6403L21.158 15.4947L20.7908 17.5402C21.4062 17.792 22.54 18.0154 23.7171 18.0252C26.4702 18.0252 28.2626 16.8036 28.2838 14.9132C28.2943 13.8759 27.5931 13.081 26.0814 12.4315C25.1637 12.0146 24.6017 11.7335 24.6017 11.3069C24.6124 10.919 25.077 10.5218 26.113 10.5218C26.9659 10.5024 27.5927 10.6865 28.0674 10.8707L28.3048 10.9675L28.6616 8.99977Z" fill="white"/>
  <path d="M32.1488 14.6608C32.3649 14.1373 33.1964 12.1112 33.1964 12.1112C33.1855 12.1307 33.4121 11.5781 33.5416 11.2388L33.725 12.024C33.725 12.024 34.2219 14.2052 34.3298 14.6608C33.9197 14.6608 32.6671 14.6608 32.1488 14.6608ZM35.3876 8.77661H33.3581C32.7322 8.77661 32.2567 8.94127 31.9867 9.53267L28.0894 17.8889H30.8425C30.8425 17.8889 31.2957 16.7642 31.3931 16.522C31.6952 16.522 34.3734 16.522 34.7619 16.522C34.8372 16.8419 35.075 17.8889 35.075 17.8889H37.5044L35.3876 8.77661Z" fill="white"/>
  <path d="M14.3346 8.77661L11.765 14.9904L11.4842 13.7302C11.0092 12.276 9.51928 10.6961 7.85663 9.91057L10.2103 17.8793H12.9849L17.1091 8.77661H14.3346Z" fill="white"/>
  <path d="M9.37893 8.77661H5.15745L5.11426 8.96073C8.40728 9.71692 10.5882 11.5397 11.4842 13.7306L10.5665 9.54259C10.4154 8.9606 9.95113 8.79581 9.37893 8.77661Z" fill="white"/>
</svg>