<svg width="43" height="27" viewBox="0 0 43 27" fill="none" xmlns="http://www.w3.org/2000/svg">
<path d="M42.2489 25.2191C42.2489 25.795 41.7848 26.2649 41.2031 26.2649H1.4208C0.844936 26.2649 0.375 25.8008 0.375 25.2191V1.4208C0.375 0.844936 0.839111 0.375 1.4208 0.375H41.2031C41.779 0.375 42.2489 0.839111 42.2489 1.4208V25.2191Z" stroke="white" stroke-width="0.75"/>
<path d="M22.7571 15.2936C23.4392 15.2923 24.093 15.0281 24.5752 14.5589C25.0575 14.0897 25.3291 13.4536 25.3303 12.7901V11.3238C25.3303 10.661 25.0602 10.0253 24.5791 9.55596C24.0981 9.08666 23.4453 8.8221 22.7641 8.82031H20.6777C19.9955 8.82121 19.3416 9.08526 18.8592 9.55456C18.3768 10.0239 18.1054 10.6601 18.1045 11.3238V18.2064C18.1045 18.2626 18.1274 18.3164 18.1682 18.3562C18.2091 18.3959 18.2644 18.4182 18.3222 18.4182C18.3799 18.4182 18.4353 18.3959 18.4761 18.3562C18.5169 18.3164 18.5399 18.2626 18.5399 18.2064V11.3238C18.5406 10.7722 18.7661 10.2434 19.167 9.85339C19.5679 9.46335 20.1114 9.24392 20.6784 9.2432H22.7648C23.3302 9.24517 23.8719 9.46485 24.2713 9.85422C24.6707 10.2436 24.8955 10.771 24.8964 11.3211V12.7887C24.8956 13.3404 24.67 13.8693 24.269 14.2594C23.8679 14.6494 23.3242 14.8688 22.7571 14.8693H19.8056C19.7499 14.8724 19.6975 14.8961 19.6592 14.9355C19.6209 14.9749 19.5995 15.0272 19.5995 15.0814C19.5995 15.1357 19.6209 15.1879 19.6592 15.2274C19.6975 15.2668 19.7499 15.2905 19.8056 15.2936H22.7571Z" fill="white"/>
<path d="M27.3527 15.1109C27.3559 15.1651 27.3802 15.2161 27.4208 15.2534C27.4613 15.2906 27.515 15.3114 27.5708 15.3114C27.6266 15.3114 27.6802 15.2906 27.7208 15.2534C27.7613 15.2161 27.7857 15.1651 27.7888 15.1109V9.96862C27.7877 9.66388 27.6628 9.37193 27.4413 9.15644C27.2198 8.94096 26.9197 8.81943 26.6065 8.81836H25.6982C25.6425 8.82142 25.5902 8.8451 25.5519 8.88455C25.5135 8.92399 25.4922 8.97621 25.4922 9.03048C25.4922 9.08475 25.5135 9.13697 25.5519 9.17641C25.5902 9.21586 25.6425 9.23954 25.6982 9.2426H26.6023C26.8009 9.24242 26.9915 9.31891 27.1322 9.45528C27.2729 9.59165 27.3522 9.77676 27.3527 9.96997V15.1109Z" fill="white"/>
<path d="M27.7462 7.07454C27.722 7.05091 27.6932 7.03217 27.6615 7.01938C27.6299 7.00658 27.5959 7 27.5616 7C27.5273 7 27.4933 7.00658 27.4616 7.01938C27.4299 7.03217 27.4012 7.05091 27.3769 7.07454L26.9659 7.47375C26.9171 7.52133 26.8896 7.58582 26.8896 7.65306C26.8896 7.72029 26.9171 7.78479 26.9659 7.83236L27.3769 8.23224C27.4012 8.25587 27.4299 8.27462 27.4616 8.28741C27.4933 8.3002 27.5273 8.30679 27.5616 8.30679C27.5959 8.30679 27.6299 8.3002 27.6615 8.28741C27.6932 8.27462 27.722 8.25587 27.7462 8.23224L28.1572 7.83236C28.2061 7.78479 28.2335 7.72029 28.2335 7.65306C28.2335 7.58582 28.2061 7.52133 28.1572 7.47375L27.7462 7.07454Z" fill="white"/>
<path d="M29.3093 9.23708H30.2078C30.4081 9.23659 30.6065 9.27473 30.7915 9.34929C30.9765 9.42386 31.1445 9.53336 31.2858 9.67147L33.3875 11.7162C33.5591 11.883 33.7917 11.9766 34.0343 11.9766C34.2768 11.9766 34.5095 11.883 34.6811 11.7162L36.7751 9.67891C36.9164 9.54072 37.0846 9.43117 37.2697 9.35661C37.4549 9.28204 37.6534 9.24395 37.8538 9.24452H38.584C38.6397 9.24146 38.6921 9.21778 38.7304 9.17833C38.7687 9.13889 38.79 9.08667 38.79 9.0324C38.79 8.97813 38.7687 8.92591 38.7304 8.88647C38.6921 8.84703 38.6397 8.82334 38.584 8.82028H37.8538C37.5961 8.81973 37.3409 8.86884 37.1029 8.96477C36.8649 9.06069 36.6488 9.20154 36.467 9.37917L34.373 11.4165C34.3285 11.4598 34.2757 11.4942 34.2176 11.5176C34.1595 11.5411 34.0972 11.5532 34.0343 11.5532C33.9714 11.5532 33.9091 11.5411 33.8509 11.5176C33.7928 11.4942 33.74 11.4598 33.6956 11.4165L31.5939 9.37173C31.4123 9.19402 31.1963 9.05313 30.9584 8.95719C30.7205 8.86126 30.4654 8.81219 30.2078 8.81284H29.3093C29.2796 8.81121 29.2499 8.81548 29.222 8.82541C29.1941 8.83533 29.1686 8.85069 29.147 8.87055C29.1254 8.89041 29.1082 8.91434 29.0964 8.94089C29.0847 8.96744 29.0786 8.99605 29.0786 9.02496C29.0786 9.05387 29.0847 9.08247 29.0964 9.10903C29.1082 9.13558 29.1254 9.15951 29.147 9.17937C29.1686 9.19923 29.1941 9.21459 29.222 9.22451C29.2499 9.23443 29.2796 9.23871 29.3093 9.23708Z" fill="white"/>
<path d="M38.584 14.8474H37.8538C37.6534 14.848 37.4549 14.8099 37.2697 14.7354C37.0846 14.6608 36.9164 14.5512 36.7751 14.413L34.6811 12.3737C34.5095 12.2069 34.2768 12.1133 34.0343 12.1133C33.7917 12.1133 33.5591 12.2069 33.3875 12.3737L31.2858 14.4185C31.1445 14.5566 30.9765 14.6661 30.7915 14.7406C30.6065 14.8152 30.4081 14.8533 30.2078 14.8529H29.3093C29.2796 14.8512 29.2499 14.8555 29.222 14.8654C29.1941 14.8753 29.1686 14.8907 29.147 14.9106C29.1254 14.9304 29.1082 14.9544 29.0964 14.9809C29.0847 15.0075 29.0786 15.0361 29.0786 15.065C29.0786 15.0939 29.0847 15.1225 29.0964 15.149C29.1082 15.1756 29.1254 15.1995 29.147 15.2194C29.1686 15.2392 29.1941 15.2546 29.222 15.2645C29.2499 15.2744 29.2796 15.2787 29.3093 15.2771H30.2078C30.4654 15.2777 30.7205 15.2287 30.9584 15.1327C31.1963 15.0368 31.4123 14.8959 31.5939 14.7182L33.6963 12.6735C33.7407 12.6301 33.7935 12.5957 33.8516 12.5723C33.9098 12.5488 33.9721 12.5368 34.035 12.5368C34.0979 12.5368 34.1602 12.5488 34.2183 12.5723C34.2764 12.5957 34.3292 12.6301 34.3737 12.6735L36.467 14.7121C36.6487 14.8899 36.8648 15.0308 37.1028 15.1268C37.3409 15.2227 37.5961 15.2717 37.8538 15.271H38.584C38.6397 15.2679 38.6921 15.2443 38.7304 15.2048C38.7687 15.1654 38.79 15.1132 38.79 15.0589C38.79 15.0046 38.7687 14.9524 38.7304 14.9129C38.6921 14.8735 38.6397 14.8498 38.584 14.8468V14.8474Z" fill="white"/>
<path d="M11.7697 15.8922L10.0457 14.2156C9.98478 14.1587 9.90367 14.127 9.81928 14.127C9.7349 14.127 9.65378 14.1587 9.59291 14.2156L7.8626 15.8983C7.70614 16.0513 7.52005 16.1727 7.31508 16.2552C7.11011 16.3378 6.89033 16.38 6.66849 16.3794H6.3291L8.51216 18.5033C8.83974 18.8218 9.28387 19.0006 9.74695 19.0006C10.21 19.0006 10.6542 18.8218 10.9817 18.5033L13.1711 16.3726H12.9624C12.7408 16.3733 12.5213 16.3311 12.3166 16.2487C12.1119 16.1662 11.926 16.0451 11.7697 15.8922Z" fill="white"/>
<path d="M7.8626 10.9246L9.59291 12.6047C9.65301 12.663 9.73441 12.6957 9.81928 12.6957C9.90415 12.6957 9.98555 12.663 10.0457 12.6047L11.7697 10.9246C11.9262 10.7716 12.1123 10.6503 12.3172 10.5677C12.5222 10.4852 12.742 10.443 12.9638 10.4435H13.1725L10.9817 8.31623C10.8196 8.1584 10.6271 8.03319 10.4153 7.94776C10.2034 7.86233 9.9763 7.81836 9.74695 7.81836C9.51761 7.81836 9.29051 7.86233 9.07863 7.94776C8.86676 8.03319 8.67427 8.1584 8.51216 8.31623L6.3291 10.4401H6.66849C6.89056 10.4401 7.11043 10.4829 7.31539 10.5661C7.52035 10.6492 7.70634 10.7711 7.8626 10.9246Z" fill="white"/>
<path d="M13.6593 10.9242C13.6294 10.9358 13.5976 10.942 13.5654 10.9425H12.9638C12.6506 10.9436 12.3506 11.0652 12.1293 11.2808L10.4045 12.9541C10.3277 13.0289 10.2364 13.0882 10.136 13.1286C10.0356 13.1691 9.92797 13.1899 9.81928 13.1899C9.71059 13.1899 9.60297 13.1691 9.50255 13.1286C9.40214 13.0882 9.3109 13.0289 9.23405 12.9541L7.50374 11.27C7.28231 11.0545 6.98234 10.9329 6.66918 10.9317H5.92851C5.89822 10.931 5.8683 10.9251 5.84019 10.9141L4.51116 12.2098C4.18386 12.5285 4 12.9606 4 13.4111C4 13.8617 4.18386 14.2938 4.51116 14.6125L5.8395 15.9048C5.86786 15.8939 5.898 15.8879 5.92851 15.8872H6.66849C6.9816 15.8857 7.28148 15.7642 7.50304 15.5489L9.23335 13.8655C9.39104 13.7191 9.60063 13.6374 9.81858 13.6374C10.0365 13.6374 10.2461 13.7191 10.4038 13.8655L12.1279 15.5428C12.3494 15.7582 12.6493 15.8797 12.9624 15.8811H13.564C13.5963 15.8815 13.6281 15.8879 13.6579 15.9001L14.9793 14.6145C15.1415 14.4568 15.2702 14.2695 15.358 14.0634C15.4458 13.8572 15.491 13.6363 15.491 13.4132C15.491 13.19 15.4458 12.9691 15.358 12.763C15.2702 12.5568 15.1415 12.3695 14.9793 12.2118L13.6593 10.9242Z" fill="white"/>
<path d="M20.3432 17.6139C20.2794 17.5682 20.201 17.5461 20.122 17.5516C20.0081 17.558 19.8951 17.5757 19.7847 17.6044L19.7792 17.5685H19.7173V18.3974H19.7903V18.1538C19.8744 18.1789 19.9618 18.1919 20.0497 18.1924C20.1367 18.1942 20.2228 18.1756 20.3008 18.1382C20.3467 18.1102 20.384 18.0705 20.4085 18.0234C20.433 17.9763 20.4439 17.9236 20.4399 17.871C20.4447 17.8238 20.4385 17.7762 20.4217 17.7317C20.405 17.6872 20.3781 17.6469 20.3432 17.6139ZM20.0448 18.1274C19.9589 18.1278 19.8735 18.1139 19.7924 18.0861V17.6666C19.8984 17.6395 20.007 17.6234 20.1165 17.6186C20.2792 17.6186 20.3634 17.6971 20.3634 17.871C20.3634 18.0564 20.2604 18.1274 20.0448 18.1274Z" fill="white"/>
<path d="M21.2618 17.6176C21.1756 17.5749 21.0803 17.5527 20.9836 17.5527C20.8869 17.5527 20.7916 17.5749 20.7054 17.6176C20.6667 17.648 20.6363 17.6873 20.6169 17.7319C20.5975 17.7765 20.5897 17.8251 20.5942 17.8733C20.5894 17.9215 20.597 17.9701 20.6165 18.0146C20.6359 18.0592 20.6665 18.0983 20.7054 18.1284C20.7888 18.1781 20.886 18.2018 20.9836 18.1961C21.0813 18.2022 21.1785 18.1785 21.2618 18.1284C21.297 18.0953 21.325 18.0556 21.3442 18.0117C21.3633 17.9678 21.3732 17.9206 21.3732 17.873C21.3732 17.8253 21.3633 17.7781 21.3442 17.7342C21.325 17.6904 21.297 17.6507 21.2618 17.6176ZM20.9836 18.1284C20.7659 18.1284 20.6714 18.0479 20.6714 17.8686C20.6714 17.6893 20.7673 17.6176 20.9836 17.6176C21.1999 17.6176 21.2952 17.6987 21.2952 17.8781C21.2952 18.0574 21.1985 18.1284 20.9836 18.1284Z" fill="white"/>
<path d="M22.321 18.0798H22.3161L22.0776 17.5703H22.0108L21.7785 18.0798H21.7737L21.5602 17.5703H21.4795L21.7368 18.1772H21.8022L22.0393 17.6738H22.0442L22.2848 18.1772H22.3502L22.6075 17.5703H22.5296L22.321 18.0798Z" fill="white"/>
<path d="M23.3233 17.6104C23.248 17.5669 23.161 17.5464 23.0736 17.5516C22.9879 17.547 22.903 17.5683 22.8302 17.6125C22.7592 17.6787 22.7176 17.7692 22.7141 17.8649C22.7106 17.9605 22.7455 18.0537 22.8114 18.1247C22.8863 18.1776 22.9787 18.2017 23.0708 18.1923C23.1814 18.1891 23.2915 18.1764 23.3998 18.1544V18.0908C23.2935 18.1117 23.1855 18.1235 23.0771 18.126C22.835 18.126 22.7933 18.0151 22.7905 17.8906H23.4304C23.4304 17.7728 23.413 17.6693 23.3233 17.6104ZM23.0736 17.6152C23.2753 17.6152 23.3476 17.6882 23.3518 17.827H22.7912C22.8051 17.7018 22.8733 17.6152 23.0736 17.6152Z" fill="white"/>
<path d="M23.705 17.6061L23.6988 17.5702H23.6396V18.1792H23.7127V17.6704C23.8078 17.6406 23.9069 17.6244 24.0069 17.6223H24.0242V17.5547H24.0152C23.9098 17.5573 23.8053 17.5746 23.705 17.6061Z" fill="white"/>
<path d="M24.6969 17.6126C24.6212 17.5695 24.5339 17.5497 24.4465 17.5557C24.3611 17.5514 24.2764 17.5726 24.2038 17.6166C24.1325 17.6827 24.0907 17.7733 24.0872 17.869C24.0836 17.9647 24.1188 18.058 24.185 18.1288C24.2599 18.1819 24.3523 18.206 24.4444 18.1965C24.5548 18.1933 24.6646 18.1806 24.7727 18.1586V18.095C24.6666 18.1159 24.5588 18.1276 24.4507 18.1302C24.2086 18.1302 24.1662 18.0192 24.1641 17.8947H24.804C24.8047 17.775 24.7873 17.6714 24.6969 17.6126ZM24.4472 17.6173C24.6489 17.6173 24.7219 17.6904 24.7254 17.8291H24.1683C24.1794 17.7039 24.2476 17.6173 24.4465 17.6173H24.4472Z" fill="white"/>
<path d="M25.6034 17.5925C25.5197 17.568 25.4328 17.555 25.3454 17.554C25.2579 17.5516 25.1711 17.5705 25.0929 17.6088C25.0469 17.6364 25.0096 17.6759 24.9851 17.7228C24.9605 17.7697 24.9497 17.8222 24.9538 17.8747C24.9468 17.9175 24.95 17.9612 24.9634 18.0026C24.9768 18.0439 24.9999 18.0816 25.0309 18.1127C25.0619 18.1437 25.0999 18.1674 25.142 18.1816C25.184 18.1959 25.2289 18.2004 25.2731 18.1947C25.3871 18.1881 25.5001 18.1702 25.6104 18.1413L25.6166 18.1778H25.6757V17.3145H25.6027L25.6034 17.5925ZM25.6034 18.0804C25.4973 18.1065 25.3887 18.1221 25.2793 18.1271C25.1166 18.1271 25.0324 18.0499 25.0324 17.8747C25.0324 17.6995 25.1354 17.6189 25.3517 17.6189C25.4373 17.6183 25.5225 17.632 25.6034 17.6595V18.0804Z" fill="white"/>
<path d="M26.972 17.6162C26.9082 17.5706 26.8298 17.5485 26.7508 17.554C26.6396 17.5605 26.5292 17.5772 26.4212 17.604V17.3145H26.3481V18.1778H26.3975L26.4017 18.1487C26.4913 18.1783 26.5852 18.1938 26.6799 18.1947C26.7668 18.1965 26.8529 18.178 26.9309 18.1406C26.9769 18.1126 27.0142 18.0729 27.0387 18.0258C27.0632 17.9787 27.074 17.926 27.07 17.8733C27.0746 17.8261 27.0682 17.7784 27.0512 17.7339C27.0343 17.6893 27.0072 17.6491 26.972 17.6162ZM26.6722 18.1298C26.5861 18.1303 26.5006 18.1159 26.4198 18.0872V17.669C26.5257 17.6418 26.6344 17.6257 26.7439 17.621C26.9066 17.621 26.9908 17.6995 26.9908 17.8733C26.9921 18.0587 26.8892 18.1298 26.6722 18.1298Z" fill="white"/>
<path d="M27.5198 18.0979H27.515L27.2368 17.5742H27.1533L27.4788 18.1832L27.4558 18.2312C27.4423 18.2703 27.4157 18.3039 27.3803 18.3266C27.3449 18.3493 27.3027 18.3598 27.2604 18.3564C27.2368 18.3564 27.2034 18.3564 27.1679 18.3503V18.418C27.1977 18.4219 27.2276 18.424 27.2576 18.4241C27.3137 18.4286 27.3697 18.415 27.4169 18.3852C27.4641 18.3555 27.4998 18.3113 27.5184 18.2596L27.8696 17.5783H27.7848L27.5198 18.0979Z" fill="white"/>
<path d="M29.1148 17.7594V17.7547C29.1549 17.7433 29.1898 17.719 29.214 17.6859C29.2381 17.6527 29.25 17.6126 29.2476 17.572C29.2505 17.5396 29.2439 17.5071 29.2286 17.4781C29.2134 17.4492 29.1901 17.425 29.1614 17.4082C29.0752 17.3575 28.9716 17.3555 28.8019 17.3555H28.4409V18.1789H28.8102C29.007 18.1789 29.1148 18.1789 29.2038 18.1214C29.2334 18.1045 29.2574 18.0799 29.2733 18.0504C29.2892 18.0208 29.2962 17.9875 29.2936 17.9543C29.2936 17.8365 29.2233 17.7824 29.1148 17.7594ZM28.628 17.4888H28.8276C28.9764 17.4888 29.0592 17.4996 29.0592 17.5957C29.0592 17.6918 28.9938 17.7053 28.829 17.7053H28.6301L28.628 17.4888ZM28.8714 18.047H28.628V17.8338H28.87C29.0147 17.8338 29.1009 17.8447 29.1009 17.9394C29.1009 18.0341 29.0404 18.0449 28.8735 18.0449L28.8714 18.047Z" fill="white"/>
<path d="M30.1223 17.6089C30.0329 17.5636 29.932 17.5442 29.8316 17.5528C29.7502 17.5528 29.6514 17.5575 29.5638 17.5643V17.6901C29.6424 17.6827 29.7259 17.6793 29.7933 17.6793C29.9686 17.6793 30.0333 17.7104 30.0333 17.8051V17.816C29.9602 17.8112 29.8726 17.8079 29.8072 17.8079C29.7279 17.8026 29.6482 17.8136 29.5736 17.8403C29.541 17.8541 29.5135 17.8773 29.4947 17.9066C29.476 17.936 29.4668 17.9702 29.4685 18.0047C29.4669 18.0329 29.4724 18.061 29.4845 18.0866C29.4967 18.1122 29.515 18.1345 29.5381 18.1516C29.595 18.1848 29.661 18.2004 29.7273 18.1962C29.8419 18.1912 29.9556 18.1733 30.0659 18.1428L30.0708 18.1793H30.2099V17.82C30.2071 17.7267 30.1939 17.6583 30.1223 17.6089ZM30.0333 18.0393C29.9474 18.0603 29.8595 18.0725 29.7711 18.0758C29.6737 18.0758 29.6368 18.0467 29.6368 17.9939C29.6368 17.9411 29.6814 17.9121 29.8086 17.9121C29.8858 17.9121 29.9602 17.9154 30.0333 17.9215V18.0393Z" fill="white"/>
<path d="M30.9146 17.5554C30.8015 17.5612 30.6895 17.5796 30.5808 17.6102L30.5752 17.5723H30.4326V18.1813H30.6072V17.734C30.6903 17.712 30.7757 17.6991 30.8617 17.6955C30.9653 17.6955 31.0231 17.7354 31.0231 17.8457V18.184H31.1928V17.8058C31.1962 17.771 31.1917 17.736 31.1797 17.7032C31.1677 17.6703 31.1484 17.6404 31.1232 17.6156C31.0634 17.5718 30.9893 17.5504 30.9146 17.5554Z" fill="white"/>
<path d="M31.5348 17.8726C31.5348 17.7332 31.6127 17.6824 31.7782 17.6824C31.8387 17.6824 31.9173 17.6878 31.9771 17.6933V17.5634C31.8992 17.5566 31.8289 17.5518 31.7573 17.5518C31.6619 17.5456 31.5667 17.5666 31.4833 17.6121C31.4411 17.6411 31.4072 17.6801 31.385 17.7255C31.3627 17.7709 31.3527 17.821 31.356 17.8712C31.3512 17.9186 31.3577 17.9663 31.3748 18.0109C31.3919 18.0555 31.4193 18.0956 31.4548 18.1283C31.5218 18.1761 31.6042 18.1989 31.6871 18.1926C31.7894 18.1892 31.8912 18.1763 31.991 18.154V18.0275C31.9047 18.0456 31.817 18.056 31.7288 18.0586C31.5932 18.06 31.5348 18.0038 31.5348 17.8726Z" fill="white"/>
<path d="M32.8048 17.6163C32.7108 17.5744 32.6085 17.5527 32.5051 17.5527C32.4016 17.5527 32.2994 17.5744 32.2053 17.6163C32.1646 17.6457 32.1324 17.6848 32.1118 17.7298C32.0912 17.7749 32.0829 17.8244 32.0878 17.8735C32.0829 17.9224 32.0911 17.9716 32.1117 18.0165C32.1324 18.0613 32.1646 18.1002 32.2053 18.1292C32.2968 18.1791 32.4013 18.2014 32.5058 18.1935C32.6098 18.2015 32.714 18.1792 32.8048 18.1292C32.8452 18.0996 32.8771 18.0605 32.8975 18.0154C32.9178 17.9704 32.9259 17.9211 32.921 17.8721C32.926 17.8233 32.9179 17.7742 32.8976 17.7293C32.8772 17.6845 32.8453 17.6456 32.8048 17.6163ZM32.5058 18.0656C32.3389 18.0656 32.2672 18.0068 32.2672 17.8687C32.2672 17.7307 32.3403 17.6799 32.5058 17.6799C32.6713 17.6799 32.7415 17.7402 32.7415 17.8782C32.7415 18.0162 32.6699 18.0656 32.5058 18.0656Z" fill="white"/>
<path d="M33.6837 17.7635C33.6837 17.5741 33.7866 17.4848 34.0272 17.4848C34.1142 17.4848 34.2254 17.4909 34.3152 17.4983V17.3515C34.2101 17.3434 34.1142 17.3373 34.0203 17.3373C33.8955 17.3294 33.771 17.3564 33.6614 17.4151C33.6052 17.4549 33.5601 17.5078 33.5302 17.5689C33.5003 17.63 33.4866 17.6973 33.4903 17.7649C33.4903 17.9002 33.5209 18.0274 33.6225 18.1086C33.7104 18.1708 33.8179 18.2012 33.9264 18.1946C34.0637 18.1904 34.2002 18.1729 34.3339 18.1425V17.9943C34.2103 18.0231 34.084 18.0396 33.957 18.0437C33.779 18.0437 33.6837 17.9604 33.6837 17.7635Z" fill="white"/>
<path d="M35.1166 17.6129C35.0344 17.5674 34.9404 17.5463 34.846 17.552C34.7504 17.5452 34.6549 17.5675 34.5727 17.6156C34.5337 17.6461 34.5027 17.6852 34.4823 17.7297C34.4619 17.7741 34.4526 17.8227 34.4552 17.8713C34.4512 17.9182 34.4582 17.9654 34.4755 18.0093C34.4928 18.0532 34.5201 18.0928 34.5553 18.1251C34.6329 18.1769 34.7266 18.2009 34.8203 18.1927C34.9464 18.189 35.0719 18.1757 35.1958 18.1528V18.0337C35.086 18.052 34.9749 18.0624 34.8634 18.0648C34.6882 18.0648 34.6374 18.0053 34.6332 17.9126H35.2264C35.2264 17.7874 35.2167 17.6819 35.1166 17.6129ZM34.6346 17.803C34.6457 17.7103 34.7042 17.6602 34.8433 17.6602C34.9823 17.6602 35.047 17.7042 35.0519 17.803H34.6346Z" fill="white"/>
<path d="M35.8926 17.5557C35.7795 17.5615 35.6675 17.5799 35.5588 17.6105L35.5532 17.5726H35.4106V18.1816H35.5852V17.7343C35.6683 17.7123 35.7537 17.6994 35.8397 17.6958C35.9434 17.6958 36.0011 17.7357 36.0011 17.846V18.1843H36.1743V17.8061C36.1778 17.7713 36.1734 17.7363 36.1614 17.7034C36.1494 17.6705 36.13 17.6407 36.1047 17.6159C36.0441 17.571 35.9685 17.5496 35.8926 17.5557Z" fill="white"/>
<path d="M36.6116 18.0072C36.5983 17.9701 36.5927 17.9307 36.5949 17.8915V17.6966H36.8404V17.5708H36.5949V17.3867H36.4406L36.4218 17.5708H36.2959V17.6966H36.4218V17.924C36.4171 17.9884 36.4331 18.0528 36.4677 18.108C36.491 18.1381 36.5218 18.1619 36.5572 18.177C36.5927 18.1922 36.6315 18.1982 36.6701 18.1946C36.7307 18.1928 36.791 18.1856 36.8502 18.173V18.0512C36.8091 18.0586 36.7675 18.0626 36.7257 18.0633C36.7031 18.0664 36.68 18.0627 36.6596 18.0527C36.6392 18.0426 36.6225 18.0267 36.6116 18.0072Z" fill="white"/>
<path d="M37.1591 17.6094L37.1528 17.5715H37.0103V18.1805H37.1848V17.7319C37.2647 17.7115 37.347 17.701 37.4296 17.7008C37.447 17.7008 37.4699 17.7008 37.4901 17.7008V17.5566H37.4679C37.3629 17.5596 37.2588 17.5773 37.1591 17.6094Z" fill="white"/>
<path d="M38.2119 17.6089C38.1227 17.5636 38.0221 17.5442 37.9219 17.5528C37.8398 17.5528 37.7411 17.5575 37.6535 17.5643V17.6901C37.7327 17.6827 37.8155 17.6793 37.8836 17.6793C38.0589 17.6793 38.1229 17.7104 38.1229 17.8052V17.816C38.0533 17.8112 37.9622 17.8079 37.8969 17.8079C37.8175 17.8027 37.7379 17.8138 37.6632 17.8403C37.6307 17.8543 37.6034 17.8774 37.5848 17.9068C37.5662 17.9361 37.5571 17.9703 37.5589 18.0048C37.5573 18.0329 37.5627 18.061 37.5749 18.0866C37.587 18.1122 37.6054 18.1345 37.6284 18.1516C37.6853 18.1849 37.7513 18.2004 37.8176 18.1962C37.9322 18.1912 38.0459 18.1732 38.1563 18.1428L38.1611 18.1793H38.3002V17.82C38.2974 17.7267 38.2863 17.6583 38.2119 17.6089ZM38.1229 18.0393C38.0373 18.0603 37.9496 18.0725 37.8614 18.0758C37.7633 18.0758 37.7265 18.0467 37.7265 17.9939C37.7265 17.9412 37.771 17.9121 37.8983 17.9121C37.9761 17.9121 38.0499 17.9154 38.1229 17.9215V18.0393Z" fill="white"/>
<path d="M38.6949 17.3145H38.521V18.1771H38.6949V17.3145Z" fill="white"/>
</svg>
