<svg width="44" height="27" viewBox="0 0 44 27" fill="none" xmlns="http://www.w3.org/2000/svg">
<rect x="0.375" y="0.375" width="42.5627" height="25.5773" rx="1.125" stroke="white" stroke-width="0.75"/>
<path d="M11.9827 10.1045L12.1089 10.1049L12.2094 10.0713L12.3099 10.0377L12.3987 9.949L12.4876 9.86039L12.5344 9.74221L12.5813 9.62409L12.5829 9.45016L12.5845 9.27635L12.543 9.20839L12.5013 9.14048L12.4289 9.0964L12.3564 9.05227H12.0436L11.9371 9.09918L11.8306 9.14602L11.7688 9.21116L11.707 9.27635L11.6584 9.38886L11.6098 9.50138L11.6006 9.67666L11.5915 9.85195L11.6366 9.93909L11.6819 10.0262L11.7691 10.0651L11.8563 10.104L11.9827 10.1045ZM32.1163 15.0972H32.5705V14.8238L32.6228 14.4848C32.6517 14.2984 32.6991 14.003 32.7285 13.8287C32.7577 13.6542 32.7942 13.4333 32.8095 13.3376C32.8248 13.2419 32.8654 13.0348 32.8997 12.8773C32.934 12.7197 32.9768 12.5495 32.9949 12.4988C33.0129 12.4482 33.0278 12.395 33.028 12.3807C33.0283 12.3664 33.0669 12.2745 33.1141 12.1765L33.1999 11.9981L33.313 11.8503L33.4262 11.7026L33.5499 11.6111C33.6179 11.5607 33.7274 11.494 33.7932 11.4626L33.9127 11.4057L34.1728 11.4075L34.4329 11.4093L34.5353 11.4416L34.6377 11.4739L34.655 11.4634L34.6722 11.4529L34.6731 11.3876C34.6736 11.3517 34.6958 11.2181 34.7226 11.0907L34.7713 10.8591L34.7166 10.838C34.6641 10.8189 34.6112 10.8011 34.5578 10.7848L34.4538 10.7525L34.2666 10.753L34.0793 10.7535L33.9267 10.8063L33.774 10.8591L33.6594 10.927L33.5449 10.995L33.3959 11.1485L33.2469 11.3019L33.1668 11.4209C33.1229 11.4864 33.0841 11.537 33.0807 11.5334C33.0773 11.5299 33.1013 11.3934 33.1339 11.2303C33.1665 11.0671 33.1936 10.9129 33.1941 10.8876L33.195 10.8415H32.4251V10.8546C32.4251 10.8617 32.406 10.9929 32.3824 11.1461C32.359 11.2993 32.3118 11.595 32.2778 11.8032C32.2369 12.0522 32.1954 12.3011 32.1535 12.55C32.117 12.7651 32.0787 12.98 32.0386 13.1944C32.0097 13.3463 31.9584 13.6134 31.9246 13.7878C31.8907 13.9622 31.8352 14.2431 31.8011 14.4119L31.7006 14.9079L31.6622 15.0972H32.1163ZM21.5704 15.0972H22.0146L22.028 14.9123C22.0353 14.8108 22.0604 14.6058 22.0838 14.4571C22.1072 14.3084 22.1551 14.0117 22.1902 13.798C22.2347 13.5337 22.283 13.27 22.3354 13.0071C22.3801 12.7859 22.4306 12.5661 22.4476 12.5187C22.4647 12.4711 22.4786 12.4197 22.4786 12.4043C22.4786 12.3888 22.5121 12.3048 22.5529 12.2175C22.5937 12.1303 22.6697 11.9967 22.7219 11.9206L22.8167 11.7823L22.9437 11.6667L23.0706 11.5512L23.2271 11.4777L23.3836 11.4041L23.623 11.4054L23.8622 11.4066L23.9798 11.4412C24.0445 11.4601 24.1031 11.4757 24.1098 11.4757C24.1167 11.4757 24.1223 11.454 24.1223 11.4274C24.1223 11.4009 24.1457 11.2661 24.1743 11.1279C24.2029 10.9898 24.2263 10.871 24.2263 10.8638C24.2263 10.8567 24.1585 10.8306 24.0755 10.8058C23.9924 10.781 23.8778 10.755 23.8206 10.748L23.7165 10.7354L23.5813 10.7589C23.5069 10.7719 23.3963 10.8004 23.3355 10.8224C23.2746 10.8444 23.1742 10.8942 23.1123 10.9331C23.0505 10.9721 22.9542 11.048 22.8985 11.1017C22.8425 11.1555 22.7488 11.264 22.6898 11.3428C22.644 11.404 22.5984 11.4654 22.553 11.5269L22.5233 11.5678L22.5413 11.486C22.5513 11.441 22.579 11.2937 22.6029 11.1587C22.6267 11.0236 22.6514 10.8969 22.6574 10.8774L22.6685 10.8415H21.875V10.8908C21.875 10.9179 21.8515 11.0813 21.823 11.2539C21.7943 11.4266 21.7471 11.7151 21.7181 11.8952C21.6891 12.0753 21.6374 12.3883 21.6035 12.5909C21.5673 12.806 21.5291 13.0209 21.4888 13.2353C21.4105 13.6448 21.3304 14.054 21.2485 14.4629C21.2135 14.6374 21.1716 14.8433 21.1554 14.9207C21.1392 14.9981 21.126 15.0694 21.126 15.0792V15.0972H21.5704V15.0972ZM11.1024 15.0972H11.55L11.5626 15.0649C11.5696 15.047 11.5753 15.0003 11.5753 14.9612C11.5753 14.9219 11.6035 14.7177 11.6378 14.5075C11.7163 14.0286 11.7968 13.55 11.8792 13.0717C11.9146 12.8701 11.9518 12.6689 11.9908 12.468C12.0239 12.2993 12.0748 12.0369 12.1038 11.885C12.1328 11.7331 12.1899 11.444 12.2307 11.2427C12.2714 11.0413 12.3098 10.8686 12.316 10.8587L12.3273 10.8407L11.8747 10.8462L11.4221 10.8517L11.3843 11.1177C11.3637 11.264 11.3183 11.5541 11.2836 11.7622C11.249 11.9704 11.1966 12.2881 11.1671 12.468C11.1315 12.6833 11.0934 12.8981 11.0531 13.1126C11.0198 13.2869 10.9688 13.5539 10.9397 13.7058C10.9107 13.8578 10.8585 14.1249 10.8239 14.2993C10.7892 14.4738 10.7427 14.7039 10.7205 14.8108C10.6982 14.9177 10.6744 15.0259 10.6674 15.0512L10.6549 15.0972H11.1024ZM5.50564 15.0972H6.01115L6.04745 14.8773C6.06738 14.7563 6.10638 14.5237 6.13404 14.3607L6.24846 13.6854C6.28374 13.4772 6.33666 13.1688 6.36601 13.0001C6.39535 12.8313 6.44203 12.5695 6.46963 12.4182C6.49729 12.2669 6.52519 12.1381 6.53155 12.1317L6.54325 12.1203H9.26212L9.27724 12.1351L9.29236 12.15L9.26872 12.2681C9.25582 12.3331 9.21748 12.5335 9.18358 12.7136C9.14968 12.8937 9.09267 13.1974 9.05685 13.3888C9.01923 13.5901 8.98095 13.7913 8.94201 13.9924C8.91453 14.133 8.85897 14.4276 8.81853 14.6471C8.77814 14.8665 8.74514 15.0575 8.74526 15.0717L8.7455 15.0972H9.7608L9.78324 14.9694C9.79566 14.8991 9.81546 14.7724 9.82746 14.6881C9.83934 14.6036 9.8682 14.4239 9.89142 14.289C9.91464 14.1541 9.96102 13.887 9.99456 13.6956C10.028 13.5044 10.0842 13.1774 10.1192 12.9693C10.1543 12.7611 10.2063 12.4573 10.2348 12.2942C10.2709 12.0893 10.3086 11.8847 10.3476 11.6803C10.3812 11.5059 10.4371 11.2113 10.4719 11.0256C10.5067 10.8399 10.5587 10.5591 10.5876 10.4015C10.6165 10.244 10.6692 9.95856 10.7047 9.76728C10.7403 9.57601 10.7851 9.35276 10.8044 9.2711L10.8394 9.12278H9.81138L9.7974 9.22001C9.78978 9.2734 9.76494 9.42308 9.74226 9.55247C9.71952 9.68191 9.67835 9.91201 9.65063 10.0639C9.62291 10.2159 9.57227 10.5059 9.53807 10.7085C9.50453 10.9069 9.47225 11.1055 9.44123 11.3043L9.40655 11.5319L8.65202 11.5469L7.89744 11.5619L7.26549 11.5472C6.9179 11.5391 6.63157 11.5308 6.62917 11.5289C6.62683 11.5269 6.63865 11.4474 6.65545 11.3522C6.6776 11.2294 6.70118 11.1069 6.7262 10.9847C6.75812 10.828 6.78914 10.6711 6.8192 10.514C6.8483 10.3622 6.88118 10.1734 6.8924 10.0947C6.90356 10.0159 6.92702 9.88469 6.94448 9.80304C6.96194 9.7215 6.99507 9.54964 7.01811 9.4212C7.04109 9.29275 7.06563 9.17304 7.07265 9.15523L7.08525 9.12278H6.06551L6.03293 9.30184C6.01493 9.40031 5.99099 9.54067 5.97971 9.61383C5.96837 9.68699 5.93039 9.92174 5.89529 10.1356C5.86019 10.3494 5.80835 10.667 5.78009 10.8414L5.6659 11.5473C5.62576 11.7931 5.5834 12.0387 5.53894 12.2838C5.50192 12.4852 5.46418 12.6864 5.42571 12.8875C5.39865 13.0281 5.34711 13.2951 5.31111 13.4809C5.27337 13.6754 5.23443 13.8698 5.19441 14.064C5.16621 14.199 5.13506 14.3555 5.12522 14.4118C5.11526 14.468 5.0831 14.6304 5.05358 14.7724C5.02412 14.9145 5 15.0457 5 15.0639V15.0971H5.50564V15.0972ZM35.7748 15.1967L35.9725 15.1992L36.1598 15.1693C36.2628 15.1529 36.3939 15.1264 36.4511 15.1105C36.5083 15.0945 36.6114 15.0532 36.6799 15.0186L36.8048 14.9557L36.9122 14.8628L37.0196 14.7698L37.1327 14.6216C37.195 14.5398 37.2513 14.4594 37.2579 14.4425L37.27 14.4118L37.2595 14.5141C37.252 14.5825 37.2424 14.6508 37.2307 14.7187C37.2206 14.775 37.2063 14.8832 37.1987 14.9591L37.1849 15.0972H38.0013V14.821L38.0635 14.2993C38.0976 14.0122 38.1483 13.6302 38.1759 13.4501C38.2035 13.27 38.2461 13.0123 38.2706 12.8773C38.295 12.7422 38.3385 12.4982 38.3669 12.335C38.3954 12.1719 38.4469 11.8864 38.4813 11.7008C38.5157 11.5151 38.5709 11.2205 38.6038 11.0461C38.6367 10.8716 38.6879 10.6 38.7175 10.4425C38.7472 10.2849 38.8001 10.0087 38.8354 9.8287C38.8723 9.64091 38.9104 9.45329 38.9497 9.26597C38.9774 9.13664 39.0001 9.02378 39 9.0154V9H38.1093L38.0962 9.12791C38.089 9.19824 38.0549 9.43069 38.0205 9.64457C37.9796 9.89702 37.938 10.1493 37.8957 10.4015C37.871 10.547 37.8466 10.6925 37.8225 10.8381L37.8113 10.9063L37.7762 10.8916C37.7569 10.8835 37.6521 10.8549 37.5434 10.828L37.3457 10.7792L37.0752 10.7585L36.8046 10.7378L36.5758 10.7588L36.347 10.7798L36.1389 10.8315L35.9308 10.8832L35.7331 10.978L35.5353 11.0728L35.3897 11.1788L35.2441 11.2848L35.1182 11.4175C35.0491 11.4904 34.9491 11.6111 34.8961 11.6856L34.7999 11.821L34.6867 12.0524C34.6245 12.1798 34.5488 12.3483 34.5185 12.4271C34.4882 12.5059 34.4348 12.6805 34.3997 12.8151L34.336 13.06L34.3046 13.3779L34.2733 13.6957L34.2968 13.9514L34.3205 14.2072L34.3483 14.2993C34.3637 14.3499 34.3959 14.4401 34.4201 14.4997L34.464 14.6082L34.5441 14.7148L34.6242 14.8215L34.7157 14.8951L34.8071 14.9688L34.9319 15.0298C35.0007 15.0632 35.1158 15.1067 35.1879 15.126C35.26 15.1455 35.377 15.1688 35.4481 15.1779C35.5192 15.1869 35.6661 15.1954 35.7748 15.1967ZM36.1296 14.6164L35.9725 14.6245L35.8665 14.6057C35.8082 14.5954 35.7149 14.5676 35.6591 14.5442L35.5578 14.5015L35.4724 14.4327L35.3872 14.364L35.2604 14.1254L35.2315 13.9924L35.2027 13.8593L35.2052 13.5933L35.2076 13.3274L35.2412 13.0921L35.2747 12.8568L35.3269 12.6931C35.3556 12.6031 35.3792 12.5181 35.3793 12.5043C35.3795 12.4906 35.4077 12.4169 35.4422 12.3407C35.4826 12.2525 35.5252 12.1653 35.57 12.0793C35.606 12.0117 35.6731 11.9065 35.719 11.8454C35.7652 11.7843 35.8473 11.6922 35.9016 11.6407C35.9558 11.5894 36.042 11.5219 36.0933 11.4909L36.1864 11.4346L36.3501 11.3789L36.5137 11.3232L36.857 11.323H37.2004L37.398 11.377C37.5068 11.4066 37.6222 11.441 37.6546 11.4534L37.7134 11.4759L37.702 11.5321C37.6957 11.563 37.6709 11.6987 37.647 11.8337C37.6231 11.9688 37.576 12.2266 37.5423 12.4067C37.5087 12.5867 37.4569 12.8584 37.4273 13.0102C37.3978 13.1621 37.355 13.3555 37.3322 13.4398C37.3088 13.5266 37.2851 13.6131 37.2609 13.6996C37.2444 13.7581 37.2051 13.8595 37.1737 13.9247C37.1422 13.99 37.087 14.0848 37.0511 14.1354C37.0152 14.1861 36.9547 14.2563 36.9164 14.2913C36.878 14.3265 36.7952 14.3888 36.7323 14.43L36.6179 14.5048L36.287 14.6081L36.1296 14.6164ZM28.7416 15.1894L29.0225 15.1815L29.1993 15.137L29.3762 15.0924L29.4907 15.0393C29.5537 15.0101 29.6566 14.9523 29.7195 14.9109C29.7825 14.8697 29.88 14.7911 29.936 14.7363C29.9921 14.6816 30.0754 14.5882 30.121 14.5289C30.1666 14.4694 30.2067 14.4236 30.21 14.4269C30.2134 14.4302 30.2029 14.5247 30.1866 14.637C30.1705 14.7495 30.157 14.8989 30.1568 14.9692L30.1564 15.097H30.9202L30.9318 14.8056L30.9435 14.514L30.998 14.1355C31.028 13.9273 31.0764 13.6189 31.1056 13.4501C31.1347 13.2814 31.1855 12.996 31.2183 12.8158C31.2512 12.6358 31.3032 12.355 31.3339 12.1918L31.3898 11.8952L31.3917 11.6389L31.3935 11.3826L31.3346 11.2642L31.2757 11.1457L31.1958 11.0703L31.1159 10.9949L30.9848 10.9296L30.8535 10.8641L30.4624 10.7786L30.1932 10.7585L29.924 10.7384L29.5773 10.7595C29.3864 10.771 29.1182 10.7939 28.9808 10.8104L28.7311 10.8401L28.3908 10.8414L28.366 10.9591C28.3524 11.0238 28.3145 11.1775 28.2819 11.3007C28.2492 11.4239 28.2256 11.5276 28.2293 11.5313C28.2329 11.535 28.324 11.5146 28.4315 11.4862C28.539 11.4577 28.7676 11.4109 28.9392 11.3822L29.2513 11.3299L29.5322 11.3186L29.8132 11.3071L30.1751 11.3695L30.2958 11.4281L30.4166 11.4868L30.4842 11.5859L30.5519 11.6849L30.5509 11.8412L30.5499 11.9975L30.514 12.1689L30.4782 12.3404L29.7294 12.3431L28.9807 12.3457L28.7357 12.4117C28.6009 12.4481 28.4517 12.4964 28.4041 12.5189C28.3564 12.5416 28.3088 12.5601 28.2982 12.5601C28.2876 12.5601 28.2074 12.6038 28.12 12.6573L27.9611 12.7544L27.836 12.8772C27.7672 12.9447 27.6792 13.046 27.6406 13.1023C27.6019 13.1585 27.5391 13.276 27.5011 13.3635L27.4319 13.5224L27.4001 13.701L27.3683 13.8797V14.2546L27.3986 14.4107L27.429 14.5668L27.4853 14.6686C27.5163 14.7245 27.5733 14.8066 27.6117 14.8508L27.6818 14.9314L27.8062 15.0057L27.9306 15.08L28.0731 15.1196C28.1515 15.1413 28.2707 15.1678 28.3381 15.1783L28.4607 15.1973L28.7416 15.1894V15.1894ZM29.0017 14.6173L28.8352 14.6259L28.725 14.5982C28.6644 14.5831 28.5723 14.5492 28.5205 14.5231L28.4264 14.4754L28.3749 14.4153C28.3467 14.3821 28.3035 14.3172 28.2789 14.2709L28.2343 14.1867L28.2256 13.9901L28.2168 13.7934L28.2521 13.674C28.2715 13.6085 28.317 13.4945 28.3533 13.421L28.4192 13.2873L28.5454 13.1641L28.6716 13.0409L28.8055 12.9775L28.9394 12.9141L29.1058 12.8752L29.2722 12.8363H30.3127L30.3456 12.8497L30.3785 12.863L30.3508 13.0236C30.3356 13.1119 30.2993 13.2716 30.27 13.3786C30.2409 13.4855 30.1894 13.6426 30.1556 13.7277C30.1219 13.813 30.0942 13.8883 30.0942 13.895C30.0942 13.9019 30.06 13.964 30.0182 14.033L29.9422 14.1585L29.8174 14.2801C29.7488 14.3469 29.6851 14.4016 29.6759 14.4016C29.6667 14.4016 29.6246 14.4247 29.5824 14.4528L29.5058 14.5039L29.337 14.5564L29.1683 14.6089L29.0017 14.6173ZM25.3188 15.197L25.5479 15.1995L25.8078 15.1691C25.9508 15.1526 26.1411 15.1249 26.2308 15.1077C26.3392 15.0863 26.4467 15.0612 26.5533 15.0325C26.641 15.0081 26.7204 14.9817 26.7297 14.974C26.739 14.9661 26.7637 14.8733 26.7847 14.7676C26.8058 14.6619 26.8323 14.5202 26.8436 14.4528C26.8549 14.3852 26.8608 14.3263 26.8566 14.322C26.8524 14.3175 26.8371 14.3232 26.8225 14.3345C26.808 14.346 26.7059 14.3882 26.5957 14.4285L26.3953 14.5016L26.11 14.556L25.8246 14.6103L25.5821 14.6022L25.3395 14.594L25.2016 14.547L25.0638 14.5L24.9574 14.4085L24.851 14.3168L24.7803 14.1903L24.7097 14.0638L24.676 13.8946L24.6423 13.7254L24.6426 13.5059L24.6428 13.2864L24.6837 13.0204L24.7246 12.7544L24.7678 12.6111C24.7916 12.5323 24.8186 12.4403 24.8277 12.4066C24.8368 12.3727 24.8749 12.2761 24.9124 12.1917C24.9499 12.1073 25.0169 11.9769 25.0612 11.9018L25.1417 11.7655L25.2406 11.6646L25.3395 11.5638L25.4442 11.5L25.5491 11.4361L25.6836 11.3953C25.7576 11.3729 25.8884 11.3438 25.9742 11.3307L26.1303 11.3068L26.3591 11.3181L26.588 11.3293L26.8585 11.3826L27.129 11.4358L27.239 11.4761C27.2995 11.4983 27.3516 11.5166 27.3549 11.5166C27.3582 11.5166 27.3727 11.4406 27.3872 11.3477C27.4017 11.2549 27.4275 11.1021 27.4445 11.0083C27.4616 10.9144 27.4715 10.8336 27.4664 10.8287C27.4614 10.8237 27.3801 10.811 27.2858 10.8005C27.1914 10.7899 26.9349 10.7712 26.7159 10.7587L26.3175 10.7362L26.0365 10.7574L25.7556 10.7786L25.5475 10.8216L25.3394 10.8646L25.2054 10.9173C25.1317 10.9463 25.0238 10.9986 24.9655 11.0335C24.9097 11.0669 24.8548 11.1017 24.8008 11.138C24.7684 11.1605 24.6703 11.2483 24.5825 11.3331L24.4232 11.4873L24.3342 11.6155C24.2854 11.686 24.2007 11.8329 24.1462 11.9421L24.047 12.1406L23.971 12.3553C23.9292 12.4735 23.8709 12.6669 23.8414 12.785L23.7877 12.9999L23.7682 13.1943L23.7488 13.3887L23.7489 13.6444L23.7492 13.9001L23.7688 14.0489L23.7884 14.1977L23.8508 14.3507L23.913 14.5037L23.9851 14.6144L24.057 14.725L24.1714 14.8358L24.286 14.9466L24.407 15.0096L24.5282 15.0724L24.6872 15.1159C24.7746 15.1398 24.901 15.1672 24.9681 15.1767C25.0351 15.1864 25.193 15.1954 25.319 15.1968H25.3188V15.197ZM18.7018 15.1969L18.9307 15.1995L19.1595 15.1789C19.2855 15.1677 19.4914 15.1441 19.6173 15.1266C19.7433 15.1092 19.9607 15.0701 20.1006 15.0399L20.355 14.9849L20.3677 14.8927C20.3746 14.842 20.4032 14.691 20.4312 14.5572L20.482 14.3138L20.4707 14.3029L20.4595 14.2919L20.3817 14.3288C20.339 14.349 20.2057 14.3975 20.0857 14.4364L19.8674 14.507L19.6383 14.5508L19.4092 14.5943L19.0451 14.5951L18.681 14.5957L18.5561 14.5565C18.4875 14.535 18.3865 14.4956 18.3317 14.4689L18.2322 14.4205L18.0678 14.2744L18.0037 14.1642L17.9395 14.0539L17.8993 13.9158L17.8591 13.7775L17.8589 13.5216L17.8586 13.2658L17.8942 13.0377L17.9301 12.8094L18.5562 12.7806L19.7137 12.788L20.8712 12.7952L20.9061 12.6495C20.9254 12.5693 20.9548 12.4036 20.9714 12.2812L21.0018 12.0587L21.0025 11.8716L21.0032 11.6843L20.9702 11.5446L20.9372 11.4049L20.8827 11.3124C20.8528 11.2615 20.7999 11.1877 20.7654 11.1485C20.7308 11.1092 20.6691 11.0539 20.6282 11.0255C20.5873 10.9971 20.507 10.9494 20.4498 10.9195L20.3458 10.8651L20.1641 10.822L19.9823 10.779L19.7584 10.7579L19.5343 10.7369L19.3263 10.7502L19.1182 10.7635L18.8685 10.8106L18.6188 10.8578L18.4627 10.9191C18.3768 10.9528 18.2458 11.0144 18.1715 11.0559C18.0971 11.0974 17.9941 11.1649 17.9427 11.2059C17.8911 11.2469 17.8018 11.3267 17.7444 11.3832C17.6869 11.4397 17.6019 11.541 17.5555 11.6086C17.5091 11.6761 17.4379 11.7958 17.3973 11.8746C17.3567 11.9534 17.3038 12.0638 17.2798 12.1201C17.2558 12.1763 17.212 12.2914 17.1827 12.3758C17.1533 12.4602 17.1071 12.6214 17.0802 12.7339C17.0484 12.8703 17.0209 13.0075 16.9978 13.1455L16.9646 13.3526L16.9649 13.657L16.9653 13.9615L16.9969 14.0945C17.0142 14.1676 17.0476 14.2781 17.0707 14.34C17.0939 14.4019 17.137 14.4939 17.1663 14.5447C17.1956 14.5953 17.2582 14.6767 17.3054 14.7258C17.3525 14.7748 17.438 14.8492 17.4952 14.8911C17.5524 14.9329 17.6542 14.9919 17.7215 15.022L17.8438 15.0767L18.0144 15.1173C18.1082 15.1397 18.2498 15.1661 18.3291 15.1761C18.4082 15.1861 18.576 15.1956 18.7018 15.1969ZM19.0937 12.3146C18.5177 12.3146 18.0464 12.3106 18.0464 12.3056C18.0464 12.3007 18.071 12.2293 18.101 12.147C18.131 12.0648 18.1838 11.9424 18.2182 11.875L18.2809 11.7525L18.4185 11.6179L18.5561 11.4832L18.6914 11.4197C18.7658 11.3847 18.8641 11.3466 18.9099 11.335C18.9557 11.3234 19.0867 11.3081 19.2011 11.301L19.4093 11.2878L19.5691 11.308L19.7289 11.3282L19.845 11.3805L19.9612 11.4328L20.0249 11.5003C20.0599 11.5374 20.1016 11.5921 20.1177 11.6218L20.1467 11.6759L20.1659 11.7957L20.1851 11.9156L20.1631 12.1151L20.1411 12.3146H19.0937ZM12.9021 17L12.9147 16.9676C12.9217 16.9499 12.9273 16.908 12.9273 16.8746C12.9273 16.8414 12.9421 16.7201 12.9602 16.6054C12.9782 16.4904 13.0204 16.2261 13.0541 16.018C13.0878 15.8098 13.1382 15.4967 13.1661 15.3224C13.1927 15.1571 13.218 14.9917 13.2421 14.8262C13.2558 14.7276 13.2725 14.6471 13.2793 14.6471C13.286 14.6471 13.315 14.6907 13.3436 14.7438L13.3955 14.8405L13.5109 14.9549L13.6262 15.0692L13.7682 15.1251L13.9102 15.1809L14.0794 15.2025L14.2487 15.224L14.4635 15.2111L14.6783 15.198L14.9108 15.1389L15.1435 15.0797L15.2683 15.0237C15.337 14.993 15.4586 14.9256 15.5387 14.8744L15.6844 14.7812L15.8202 14.6476C15.8949 14.5743 16.0003 14.4565 16.0543 14.386C16.1084 14.3156 16.1526 14.2528 16.1526 14.2466C16.1526 14.2403 16.1792 14.1967 16.2117 14.1495C16.2441 14.1025 16.3105 13.9718 16.3592 13.8594C16.408 13.7469 16.4841 13.5443 16.5285 13.4092L16.6091 13.1637L16.6508 12.9511C16.6737 12.8341 16.7033 12.6408 16.7164 12.5214L16.7402 12.3044L16.7264 12.1203L16.7127 11.9362L16.6692 11.752L16.6258 11.5678L16.5555 11.43L16.4852 11.2921L16.3494 11.1506L16.2137 11.009L15.8925 10.8458L15.7156 10.8041L15.5387 10.7625L15.3618 10.7498L15.185 10.7371L14.988 10.7593L14.7909 10.7815L14.6301 10.822L14.4693 10.8623L14.3296 10.9259C14.2528 10.9608 14.1409 11.0202 14.0812 11.0578C14.0214 11.0955 13.9596 11.1387 13.944 11.154C13.9285 11.1693 13.8911 11.1977 13.8611 11.2169L13.8064 11.2521L13.8446 11.0723C13.8657 10.9735 13.8832 10.8812 13.8837 10.867L13.8845 10.8415H13.1215L13.0547 11.2558C13.0178 11.4837 12.9597 11.8359 12.9255 12.0385C12.8501 12.4853 12.7738 12.932 12.6966 13.3786C12.6626 13.5754 12.6063 13.8885 12.5716 14.0742C12.5368 14.2598 12.486 14.5315 12.4585 14.6778C12.4311 14.824 12.3794 15.1002 12.3438 15.2915C12.3017 15.5166 12.2592 15.7417 12.2163 15.9667C12.1757 16.1783 12.1342 16.3897 12.0919 16.601C12.0578 16.7697 12.0249 16.9286 12.0186 16.9538L12.0073 16.9999H12.9021V17ZM14.2071 14.6448L14.0935 14.6249L13.98 14.6052L13.8646 14.5535L13.7492 14.5017L13.6687 14.426L13.5881 14.3505L13.5416 14.2482C13.516 14.1919 13.4832 14.0963 13.4686 14.0356L13.4421 13.9256L13.4527 13.7493L13.4634 13.573L13.517 13.2968C13.5574 13.0856 13.5967 12.8741 13.6346 12.6626C13.6698 12.4656 13.7232 12.177 13.7531 12.0213L13.8076 11.7381L13.9269 11.6405C13.9925 11.5869 14.0964 11.5149 14.1579 11.4807L14.2695 11.4184L14.4151 11.3741L14.5608 11.3297L14.9353 11.3081L15.0878 11.3401L15.2403 11.372L15.3479 11.4207L15.4555 11.4695L15.5458 11.5587L15.6361 11.6479L15.6847 11.7423C15.7115 11.7943 15.7491 11.896 15.7683 11.9683L15.8031 12.0998L15.7924 12.4886L15.7818 12.8774L15.7284 13.1072C15.699 13.2336 15.643 13.4269 15.604 13.5367L15.5332 13.7367L15.4463 13.8985C15.3985 13.9876 15.3249 14.1077 15.2827 14.1657C15.2404 14.2236 15.173 14.2989 15.133 14.3326C15.0844 14.3732 15.0347 14.4124 14.9839 14.4502L14.9076 14.5062L14.5545 14.6243L14.2071 14.6448Z" fill="white"/>
</svg>
