<svg width="44" height="27" viewBox="0 0 44 27" fill="none" xmlns="http://www.w3.org/2000/svg">
<rect x="0.375" y="0.375" width="42.5627" height="25.5773" rx="1.125" stroke="white" stroke-width="0.75"/>
<path d="M32.7816 20.4875C32.8046 20.4874 32.8273 20.4921 32.8484 20.5014C32.8687 20.5104 32.8872 20.5234 32.9029 20.5396C32.9185 20.5555 32.9309 20.5743 32.9396 20.5951C32.9486 20.6167 32.9532 20.6399 32.9532 20.6634C32.9532 20.6869 32.9486 20.7101 32.9396 20.7317C32.9309 20.7525 32.9184 20.7713 32.9029 20.7872C32.8872 20.8034 32.8687 20.8163 32.8484 20.8254C32.8273 20.8348 32.8046 20.8395 32.7816 20.8393C32.7477 20.8397 32.7144 20.8298 32.6859 20.8106C32.6574 20.7915 32.635 20.764 32.6214 20.7317C32.6125 20.7101 32.608 20.6868 32.608 20.6634C32.608 20.6399 32.6125 20.6167 32.6214 20.5951C32.6388 20.5526 32.6716 20.5189 32.7126 20.5013C32.7345 20.4919 32.758 20.4872 32.7816 20.4875V20.4875ZM32.7816 20.8C32.7992 20.8003 32.8166 20.7967 32.8328 20.7896C32.8481 20.7827 32.8621 20.7729 32.874 20.7607C32.8987 20.7349 32.9126 20.6999 32.9126 20.6635C32.9126 20.627 32.8987 20.5921 32.874 20.5662C32.8622 20.554 32.8482 20.5442 32.8328 20.5373C32.8166 20.5302 32.7992 20.5267 32.7816 20.5269C32.7637 20.5267 32.7459 20.5302 32.7293 20.5373C32.7095 20.5461 32.692 20.5599 32.6784 20.5773C32.6649 20.5947 32.6556 20.6154 32.6514 20.6374C32.6472 20.6594 32.6483 20.6821 32.6545 20.7036C32.6607 20.7251 32.6719 20.7447 32.6871 20.7607C32.6992 20.7731 32.7136 20.7829 32.7293 20.7896C32.7459 20.7968 32.7637 20.8003 32.7816 20.8V20.8ZM32.7916 20.5801C32.8083 20.5789 32.8248 20.5838 32.8384 20.594C32.8439 20.5985 32.8482 20.6043 32.8511 20.611C32.854 20.6176 32.8554 20.6249 32.8551 20.6322C32.8553 20.6384 32.8542 20.6446 32.8519 20.6504C32.8496 20.6562 32.8461 20.6614 32.8417 20.6657C32.8315 20.6751 32.8186 20.6808 32.805 20.6819L32.8562 20.7432H32.8161L32.7683 20.6819H32.7527V20.7432H32.7193V20.5801L32.7916 20.5801ZM32.7527 20.6102V20.6542H32.7916C32.7986 20.6563 32.8059 20.6563 32.8128 20.6542C32.8153 20.6524 32.8174 20.65 32.8187 20.6471C32.8201 20.6443 32.8207 20.6412 32.8206 20.638C32.8207 20.6348 32.8201 20.6317 32.8187 20.6288C32.8174 20.626 32.8153 20.6236 32.8128 20.6218C32.8059 20.6197 32.7986 20.6197 32.7916 20.6218L32.7527 20.6102ZM15.2228 20.7421V19.0061C15.2228 18.3511 14.8211 17.9101 14.1746 17.9043C13.9905 17.8919 13.8065 17.9312 13.642 18.0179C13.4774 18.1046 13.3381 18.2356 13.2388 18.3974C13.1483 18.2404 13.0188 18.1118 12.8639 18.025C12.709 17.9383 12.5344 17.8966 12.3586 17.9043C12.2056 17.8966 12.0532 17.9306 11.9166 18.0028C11.78 18.0751 11.6639 18.1832 11.5797 18.3163V17.9691H11V20.7398H11.5853V19.2075C11.5853 18.726 11.8412 18.4714 12.2374 18.4714C12.6335 18.4714 12.8171 18.7318 12.8171 19.2017V20.7433H13.4035V19.2075C13.4035 18.726 13.6705 18.4714 14.0555 18.4714C14.4406 18.4714 14.6408 18.7318 14.6408 19.2017V20.7433L15.2228 20.7421ZM18.4887 19.3533V17.9645H17.9089V18.3013C17.8101 18.1686 17.6821 18.0625 17.5358 17.9919C17.3894 17.9212 17.2289 17.888 17.0677 17.8951C16.3211 17.8951 15.7324 18.5038 15.7324 19.3499C15.7324 20.1959 16.3177 20.8046 17.0677 20.8046C17.2289 20.8117 17.3894 20.7785 17.5358 20.7078C17.6821 20.6372 17.8101 20.5311 17.9089 20.3984V20.734H18.4887V19.3533ZM16.3322 19.3533C16.3322 18.8661 16.6382 18.4668 17.14 18.4668C17.6196 18.4668 17.9423 18.8499 17.9423 19.3533C17.9423 19.8568 17.6196 20.2398 17.14 20.2398C16.6382 20.2445 16.3311 19.8452 16.3311 19.358L16.3322 19.3533ZM30.8911 17.8951C31.0872 17.8944 31.2815 17.9337 31.463 18.0108C31.6326 18.0811 31.7872 18.1853 31.9182 18.3175C32.0471 18.4493 32.1493 18.6068 32.2186 18.7804C32.3633 19.1515 32.3633 19.5667 32.2186 19.9378C32.1493 20.1115 32.0471 20.2689 31.9182 20.4007C31.7872 20.5329 31.6326 20.6372 31.463 20.7074C31.0952 20.8561 30.6871 20.8561 30.3192 20.7074C30.1498 20.6374 29.9955 20.5332 29.8652 20.4007C29.7369 20.2686 29.6351 20.1112 29.5659 19.9378C29.4212 19.5667 29.4212 19.1516 29.5659 18.7804C29.6352 18.607 29.7369 18.4497 29.8652 18.3175C29.9955 18.1851 30.1498 18.0808 30.3192 18.0108C30.501 17.9353 30.6953 17.8976 30.8911 17.8997V17.8951ZM30.8911 18.4656C30.7768 18.4641 30.6634 18.4861 30.5573 18.5304C30.4584 18.5716 30.3686 18.6335 30.2936 18.7122C30.2176 18.7928 30.1578 18.8884 30.1178 18.9934C30.0323 19.2255 30.0323 19.4823 30.1178 19.7144C30.1579 19.819 30.2177 19.9142 30.2936 19.9945C30.3688 20.0737 30.459 20.136 30.5584 20.1774C30.7712 20.2641 31.0077 20.2641 31.2205 20.1774C31.32 20.1356 31.4105 20.0734 31.4864 19.9945C31.5629 19.9144 31.623 19.8192 31.6633 19.7144C31.7488 19.4823 31.7488 19.2255 31.6633 18.9934C31.6231 18.8882 31.563 18.7926 31.4864 18.7122C31.4104 18.6337 31.3199 18.5719 31.2205 18.5304C31.1155 18.4883 31.0036 18.4679 30.8911 18.4703V18.4656ZM21.6377 19.358C21.6377 18.4946 21.1191 17.9032 20.3725 17.9032C19.5936 17.9032 19.0461 18.4946 19.0461 19.358C19.0461 20.2387 19.6147 20.8127 20.4114 20.8127C20.8093 20.8272 21.1983 20.6888 21.5041 20.4239L21.2204 19.9771C20.9991 20.1613 20.7249 20.2632 20.4415 20.2665C20.0676 20.2665 19.7282 20.0871 19.6448 19.5883H21.6232C21.6377 19.5142 21.6377 19.439 21.6377 19.358ZM19.6537 19.1149C19.7149 18.7145 19.9485 18.4425 20.3614 18.4425C20.7352 18.4425 20.9745 18.6855 21.0357 19.1149H19.6537ZM24.3271 18.189C23.9989 17.9862 23.6215 17.8858 23.24 17.8997C22.5657 17.8997 22.1273 18.2353 22.1273 18.7862C22.1273 19.2387 22.45 19.5165 23.0464 19.6033L23.319 19.6438C23.6361 19.6901 23.7875 19.7769 23.7875 19.9332C23.7875 20.1473 23.576 20.2688 23.1799 20.2688C22.8603 20.2793 22.5467 20.1774 22.2897 19.9794L22.0171 20.4493C22.3547 20.6948 22.7592 20.821 23.171 20.8093C23.9399 20.8093 24.3861 20.432 24.3861 19.9054C24.3861 19.4181 24.0345 19.1635 23.4559 19.0767L23.1832 19.0362C22.9329 19.0015 22.7315 18.9494 22.7315 18.7642C22.7315 18.5617 22.9206 18.439 23.2389 18.439C23.5364 18.4416 23.8282 18.5245 24.0857 18.6797L24.3271 18.189ZM26.8619 17.9691H25.915V17.1289H25.3297V17.9691H24.7889V18.52H25.3297V19.7839C25.3297 20.4273 25.5689 20.8104 26.2544 20.8104C26.5104 20.8113 26.7614 20.7371 26.9788 20.5963L26.8119 20.0801C26.6563 20.1765 26.4798 20.2303 26.2989 20.2364C26.0096 20.2364 25.9139 20.0512 25.9139 19.7734V18.5235H26.8675L26.8619 17.9691ZM28.8648 17.8997C28.7235 17.8954 28.5836 17.9309 28.4601 18.0024C28.3365 18.0739 28.2337 18.1788 28.1627 18.3059V17.9691H27.5885V20.7398H28.1683V19.1901C28.1683 18.7272 28.3574 18.4772 28.7369 18.4772C28.861 18.4753 28.9843 18.4989 29.0996 18.5466L29.2777 17.9784C29.1452 17.9291 29.0056 17.9037 28.8648 17.9032V17.8997Z" fill="white"/>
<path d="M24.4326 6.19141H19.5649V14.9393H24.4326V6.19141Z" fill="white"/>
<path d="M19.8757 10.5662C19.875 9.72382 20.066 8.89236 20.4341 8.13471C20.8022 7.37707 21.3378 6.71308 22.0005 6.19301C21.1798 5.54804 20.1942 5.14697 19.1564 5.03564C18.1185 4.92431 17.0703 5.10721 16.1315 5.56344C15.1927 6.01967 14.4012 6.73082 13.8474 7.61561C13.2937 8.5004 13 9.52314 13 10.5669C13 11.6107 13.2937 12.6335 13.8474 13.5183C14.4012 14.403 15.1927 15.1142 16.1315 15.5704C17.0703 16.0266 18.1185 16.2096 19.1564 16.0982C20.1942 15.9869 21.1798 15.5858 22.0005 14.9409C21.3376 14.4206 20.8019 13.7564 20.4338 12.9985C20.0656 12.2405 19.8748 11.4088 19.8757 10.5662Z" fill="white"/>
<path d="M30.4701 14.0113V13.832H30.5428V13.7949H30.3589V13.832H30.4315V14.0113H30.4701ZM30.8271 14.0113V13.7949H30.7715L30.7066 13.9495L30.6417 13.7949H30.5845V14.0113H30.6247V13.849L30.6849 13.9896H30.7267L30.7869 13.849V14.0128L30.8271 14.0113Z" fill="white"/>
<path d="M30.9998 10.5644C30.9998 11.6083 30.7061 12.6311 30.1522 13.5159C29.5984 14.4008 28.8067 15.1119 27.8678 15.5681C26.9289 16.0242 25.8805 16.207 24.8426 16.0955C23.8048 15.984 22.8192 15.5828 21.9985 14.9376C22.6609 14.4171 23.1964 13.7529 23.5646 12.9952C23.9328 12.2375 24.1241 11.4061 24.1241 10.5637C24.1241 9.72125 23.9328 8.88983 23.5646 8.13214C23.1964 7.37445 22.6609 6.71028 21.9985 6.18974C22.8193 5.54449 23.805 5.14321 24.843 5.03178C25.8811 4.92035 26.9295 5.10327 27.8685 5.55962C28.8075 6.01598 29.5991 6.72734 30.1528 7.61239C30.7066 8.49744 31.0001 9.52044 30.9998 10.5644Z" fill="white"/>
</svg>
