<svg viewBox="0 0 39.02090072631836 24" fill="none" xmlns="http://www.w3.org/2000/svg">
<g clip-path="url(#clip0_720_6000)">
<rect width="39" height="24" fill="white"></rect>
<path d="M37.6985 24H1.3014C0.587727 24 0 23.4011 0 22.6738V1.3262C0 0.59893 0.587727 0 1.3014 0H37.7195C38.4332 0 39.0209 0.59893 39.0209 1.3262V22.6738C38.9999 23.4011 38.4122 24 37.6985 24Z" fill="white"></path>
<path d="M37.6985 0.106952C38.3492 0.106952 38.895 0.641711 38.895 1.3262V22.6738C38.895 23.3369 38.3702 23.893 37.6985 23.893H1.3014C0.650698 23.893 0.104951 23.3583 0.104951 22.6738V1.3262C0.104951 0.641711 0.629708 0.106952 1.3014 0.106952H37.6985ZM37.6985 0H1.3014C0.587727 0 0 0.59893 0 1.3262V22.6738C0 23.4011 0.587727 24 1.3014 24H37.7195C38.4332 24 39.0209 23.4011 39.0209 22.6738V1.3262C38.9999 0.59893 38.4122 0 37.6985 0Z" fill="#1D4174"></path>
<path d="M37.6986 24H1.3014C0.587729 24 0 23.4011 0 22.6738V12H39V22.6738C39 23.4011 38.4123 24 37.6986 24Z" fill="#1D4174"></path>
<path d="M14.6093 19.4653L15.1551 19.2942L14.9872 18.8878C14.8402 19.0589 14.7143 19.2728 14.6093 19.4653ZM14.4204 17.6471L13.3499 15.23L5.5625 15.6792L7.72451 21.6685L11.8806 20.3423C11.6077 19.9573 11.5238 19.4867 11.8176 19.2728C12.1535 19.0161 12.6782 19.3156 12.9931 19.722C13.3289 19.1872 14.2105 17.9252 14.4204 17.6471Z" fill="#235F64"></path>
<path d="M13.1182 16.9732C13.4331 16.9732 13.706 16.7165 13.706 16.3957C13.706 16.0748 13.4331 15.8181 13.1182 15.8181C12.8034 15.8181 12.5305 16.0748 12.5305 16.3957C12.5305 16.7165 12.7824 16.9732 13.1182 16.9732ZM12.6355 17.2299H13.601V19.7967H12.6355V17.2299Z" fill="white"></path>
<path d="M12.1527 17.9784C12.1736 17.9784 12.1736 17.9784 12.1527 17.9784L12.1736 17.3153C12.1736 17.3153 12.1736 17.2939 12.1527 17.2939C12.1527 17.2939 12.0267 17.2083 11.6489 17.1869C11.6279 17.1656 11.2921 17.1656 11.2081 17.1869C9.80175 17.2939 9.75977 18.342 9.75977 18.3848V18.6415C9.75977 18.6629 9.75977 19.7324 11.2081 19.818C11.355 19.8394 11.6279 19.818 11.6489 19.818C11.9847 19.818 12.2156 19.711 12.2156 19.711L12.2366 19.6896V19.0907C12.2366 19.0907 12.2366 19.0693 12.2156 19.0907C12.2156 19.0907 12.1107 19.1762 11.6489 19.219C11.5229 19.2404 11.46 19.219 11.418 19.219C10.7673 19.1121 10.7463 18.6201 10.7463 18.6201V18.5987V18.4062V18.3848C10.7463 18.3848 10.7883 17.8714 11.418 17.8073H11.6489C11.9218 17.8287 12.1527 17.9784 12.1527 17.9784Z" fill="white"></path>
<path d="M7.052 19.7754C7.052 19.7968 7.07299 19.7968 7.052 19.7754L7.99657 19.7968C7.99657 19.7968 8.01756 19.7968 8.01756 19.7754V19.0268C8.01756 19.0268 8.01756 19.0054 8.03855 19.0054C8.03855 19.0054 9.54985 19.1123 9.54985 18.0856C9.54985 17.2727 8.60529 17.1872 8.29043 17.2086H7.07299C7.07299 17.2086 7.052 17.2086 7.052 17.23V19.7754ZM8.01756 18.4492V17.7861H8.24845C8.24845 17.7861 8.5843 17.8075 8.60529 18.0428C8.60529 18.0642 8.60529 18.1711 8.60529 18.1711C8.56331 18.4492 8.26944 18.4492 8.26944 18.4492H8.01756Z" fill="white"></path>
<path d="M13.14 21.1979C12.8461 21.1979 12.7202 21.1337 12.6362 21.0482L12.6152 21.0268C12.2794 20.7059 11.9016 20.1712 11.7966 20C11.7546 19.9359 11.7546 19.8503 11.7546 19.8503C11.7546 19.722 11.7546 19.615 11.8806 19.4867C12.0065 19.3583 12.2164 19.3156 12.2584 19.3156C12.3214 19.3156 12.3843 19.3369 12.3843 19.3369H12.4053H12.4263C12.6782 19.4653 12.9511 19.7434 13.098 19.9145C13.182 19.7861 13.2659 19.6364 13.3709 19.4653C14.0426 18.3316 14.9452 16.7915 15.9317 16.7915H15.9527C16.2676 16.7915 16.2885 16.9626 16.2885 17.0054C16.2885 17.0268 16.2885 17.0696 16.2466 17.1337C16.2256 17.1551 16.2046 17.1765 16.1836 17.1979C15.4489 17.7327 14.7143 19.0589 14.1895 20.0428C13.7907 20.7487 13.6228 21.0696 13.4549 21.1551C13.3079 21.1979 13.224 21.1979 13.14 21.1979Z" fill="#3CB65E"></path>
<path d="M15.9317 16.9412H15.9527C16.1416 16.9412 16.1416 17.0054 16.1416 17.0054V17.0268L16.1206 17.0482C14.9032 17.9252 13.7487 20.8129 13.4128 20.984C13.3079 21.0268 13.2449 21.0268 13.1819 21.0268C12.8881 21.0268 12.8041 20.9412 12.7621 20.8984C12.4473 20.599 12.0695 20.0642 11.9855 19.9145C11.9645 19.8931 11.9645 19.8503 11.9645 19.8503C11.9645 19.7434 11.9645 19.6792 12.0485 19.5936C12.1324 19.5081 12.2794 19.4867 12.3004 19.4867C12.3004 19.4867 12.3004 19.4867 12.3213 19.4867C12.3633 19.4867 12.3843 19.5081 12.4053 19.5081C12.7411 19.7006 13.14 20.1712 13.14 20.1712H13.161H13.1819C13.7277 19.23 14.8402 16.9412 15.9317 16.9412ZM15.9317 16.6204C14.8612 16.6204 13.9376 18.2033 13.2449 19.3797C13.1819 19.4867 13.14 19.5722 13.077 19.6578C12.9091 19.5081 12.6992 19.3156 12.5103 19.2086L12.4893 19.1872H12.4683C12.4053 19.1658 12.3423 19.1658 12.3004 19.1658C12.2794 19.1658 12.2794 19.1658 12.2584 19.1658C12.1534 19.1658 11.9225 19.23 11.7966 19.3797C11.6287 19.5722 11.6287 19.722 11.6287 19.8503C11.6287 19.9145 11.6497 20 11.6916 20.0856C11.7966 20.2567 12.1954 20.8343 12.5312 21.1551H12.5522H12.5732C12.6992 21.2621 12.8461 21.3476 13.1819 21.3476C13.2659 21.3476 13.3918 21.3476 13.5388 21.2835C13.7487 21.1765 13.9166 20.8557 14.3364 20.107C14.8402 19.2086 15.5748 17.8396 16.2885 17.3262C16.3305 17.3049 16.3515 17.2621 16.3935 17.2193C16.4354 17.1551 16.4564 17.091 16.4564 17.0054C16.4564 16.9626 16.4354 16.6204 15.9527 16.6204H15.9317Z" fill="white"></path>
<path d="M19.2063 18.8664L19.5002 18.9733C19.4372 19.2942 19.3323 19.5509 19.1644 19.722C18.9964 19.8931 18.8075 19.9787 18.5766 19.9787C18.3457 19.9787 18.1358 19.9145 17.9889 19.7862C17.842 19.6578 17.737 19.4653 17.653 19.2086C17.5691 18.952 17.5271 18.6953 17.5271 18.3958C17.5271 18.075 17.5691 17.7969 17.653 17.583C17.737 17.3691 17.8629 17.1766 18.0309 17.0482C18.1988 16.9199 18.3667 16.8557 18.5556 16.8557C18.7865 16.8557 18.9544 16.9413 19.1224 17.091C19.2903 17.2407 19.3743 17.4546 19.4372 17.7327L19.1434 17.8183C19.1014 17.6044 19.0174 17.4332 18.9125 17.3477C18.8075 17.2621 18.7026 17.198 18.5556 17.198C18.3877 17.198 18.2408 17.2621 18.1358 17.3691C18.0309 17.476 17.9469 17.6258 17.9049 17.8183C17.8629 18.0108 17.842 18.2033 17.842 18.3958C17.842 18.6525 17.8629 18.8664 17.9259 19.0589C17.9889 19.2514 18.0729 19.4012 18.1778 19.4867C18.2828 19.5723 18.4087 19.6364 18.5556 19.6364C18.7236 19.6364 18.8495 19.5723 18.9754 19.4439C19.0804 19.3156 19.1644 19.1231 19.2063 18.8664Z" fill="white"></path>
<path d="M19.8572 19.9359V16.9199H21.4524V17.2836H20.151V18.1819H21.3685V18.5456H20.151V19.5723H21.5154V19.9359H19.8572Z" fill="white"></path>
<path d="M21.9141 19.9359V16.9199H22.9006C23.0895 16.9199 23.2365 16.9413 23.3414 17.0055C23.4464 17.0697 23.5303 17.1552 23.5933 17.2836C23.6563 17.4119 23.6773 17.583 23.6773 17.7328C23.6773 17.9467 23.6353 18.1178 23.5303 18.2675C23.4254 18.4172 23.2784 18.5028 23.0685 18.5456C23.1525 18.5884 23.1945 18.6525 23.2365 18.6953C23.3204 18.8023 23.4044 18.9306 23.4884 19.1017L23.8662 19.9146H23.5093L23.2155 19.2942C23.1315 19.1231 23.0685 18.9734 23.0056 18.8878C22.9426 18.8023 22.9006 18.7167 22.8586 18.6953C22.8167 18.6525 22.7747 18.6311 22.7327 18.6098C22.6907 18.6098 22.6487 18.5884 22.5648 18.5884H22.2289V19.9359H21.9141ZM22.2079 18.2461H22.8376C22.9636 18.2461 23.0685 18.2247 23.1525 18.1819C23.2365 18.1392 23.2784 18.075 23.3204 18.0108C23.3624 17.9253 23.3834 17.8397 23.3834 17.7328C23.3834 17.583 23.3414 17.4761 23.2784 17.3905C23.1945 17.3049 23.0895 17.2622 22.9216 17.2622H22.2289V18.2461H22.2079Z" fill="white"></path>
<path d="M24.6426 19.9359V17.2621H23.908V16.8984H25.6502V17.2621H24.9155V19.9145H24.6426V19.9359Z" fill="white"></path>
<path d="M26.0071 19.9359V16.9199H26.301V19.9359H26.0071Z" fill="white"></path>
<path d="M26.8257 19.936V16.9199H28.316V17.2836H27.1195V18.2247H28.1481V18.5884H27.1195V19.9574H26.8257V19.936Z" fill="white"></path>
<path d="M28.7358 19.9359V16.9199H29.0297V19.9359H28.7358Z" fill="white"></path>
<path d="M29.5544 19.9359V16.9199H31.1497V17.2836H29.8483V18.1819H31.0658V18.5456H29.8483V19.5723H31.2127V19.9359H29.5544Z" fill="white"></path>
<path d="M31.6116 19.9359V16.9199H32.3672C32.5351 16.9199 32.6611 16.9413 32.766 16.9627C32.892 17.0055 32.9969 17.0697 33.0809 17.1766C33.2068 17.3049 33.2908 17.4761 33.3328 17.69C33.3957 17.9039 33.4167 18.1392 33.4167 18.4172C33.4167 18.6525 33.3957 18.845 33.3537 19.0162C33.3118 19.1873 33.2698 19.337 33.2068 19.4654C33.1438 19.5723 33.0809 19.6793 32.9969 19.7434C32.9339 19.8076 32.829 19.8504 32.724 19.8932C32.6191 19.9359 32.4932 19.9359 32.3672 19.9359H31.6116ZM31.9054 19.5723H32.3672C32.5141 19.5723 32.6191 19.5509 32.7031 19.5081C32.787 19.4654 32.85 19.4226 32.892 19.3584C32.9549 19.2728 33.0179 19.1445 33.0599 18.9734C33.1019 18.8237 33.1229 18.6098 33.1229 18.3958C33.1229 18.075 33.0809 17.8397 33.0179 17.6686C32.9339 17.4975 32.85 17.3905 32.745 17.3263C32.6611 17.2836 32.5351 17.2622 32.3672 17.2622H31.9054V19.5723Z" fill="white"></path>
<path d="M17.3589 2.43848H10.9988C10.4951 2.43848 10.1802 2.97324 10.4111 3.42243L11.0408 4.66308H9.88636C9.65547 4.66308 9.46655 4.85559 9.46655 5.09088C9.46655 5.15505 9.48754 5.24062 9.50853 5.2834L11.5656 9.24062C11.6705 9.45452 11.9224 9.54008 12.1323 9.41174C12.2163 9.36896 12.2793 9.30479 12.3002 9.24062L12.867 8.1711L13.5597 9.51869C13.8115 9.98928 14.4622 9.98928 14.7141 9.51869L17.9047 3.40104C18.1565 2.95185 17.8417 2.43848 17.3589 2.43848ZM14.5042 5.0481L13.1189 7.70051C13.0559 7.85024 12.867 7.89302 12.741 7.82885C12.6991 7.80746 12.6571 7.76468 12.6151 7.70051L11.2507 5.06949C11.1878 4.91976 11.2297 4.74864 11.3767 4.68447C11.4187 4.66308 11.4606 4.64169 11.5026 4.64169H14.2523C14.3993 4.64169 14.5252 4.77003 14.5252 4.91976C14.5462 4.96254 14.5252 5.00532 14.5042 5.0481Z" fill="#EE2565"></path>
<path d="M24.1388 5.2835H23.4461V7.70061C23.4461 7.74339 23.4041 7.78617 23.3621 7.78617H22.8164C22.7744 7.78617 22.7324 7.74339 22.7324 7.70061V5.2835H22.0398C21.9978 5.2835 21.9558 5.24072 21.9558 5.19794V4.77013C21.9558 4.72735 21.9978 4.68457 22.0398 4.68457H24.1388C24.1807 4.68457 24.2227 4.72735 24.2227 4.77013V5.19794C24.2227 5.24072 24.1807 5.2835 24.1388 5.2835Z" fill="#EE2565"></path>
<path d="M26.3847 7.78609C26.2378 7.80748 26.0069 7.85026 25.5661 7.85026C25.0414 7.85026 24.5586 7.72191 24.5586 6.95186V5.56148C24.5586 4.79143 25.0204 4.66309 25.5661 4.66309C26.0069 4.66309 26.2378 4.70587 26.3847 4.72726C26.4477 4.72726 26.4687 4.74865 26.4687 4.81282V5.19785C26.4687 5.24063 26.4267 5.28341 26.3847 5.28341H25.5241C25.3352 5.28341 25.2513 5.34758 25.2513 5.56148V5.94651H26.3428C26.3847 5.94651 26.4267 5.98929 26.4267 6.03207V6.43849C26.4267 6.48127 26.3847 6.52405 26.3428 6.52405H25.2513V6.97325C25.2513 7.18715 25.3142 7.25133 25.5241 7.25133H26.3847C26.4267 7.25133 26.4687 7.29411 26.4687 7.33689V7.72191C26.4687 7.7433 26.4477 7.7647 26.3847 7.78609Z" fill="#EE2565"></path>
<path d="M29.4702 7.78609H28.8195C28.7565 7.78609 28.7355 7.76469 28.7146 7.72191L28.1478 6.80213L27.6441 7.70052C27.6231 7.7433 27.5811 7.78609 27.5391 7.78609H26.9304C26.8884 7.78609 26.8674 7.76469 26.8674 7.72191V7.70052L27.749 6.18181L26.8464 4.74865V4.72726C26.8464 4.70587 26.8674 4.66309 26.9094 4.66309H27.5601C27.6021 4.66309 27.6441 4.70587 27.6651 4.74865L28.1898 5.58287L28.6936 4.74865C28.7146 4.70587 28.7565 4.66309 28.7985 4.66309H29.4072C29.4282 4.66309 29.4702 4.68448 29.4702 4.72726V4.74865L28.5676 6.18181L29.4912 7.67913C29.4912 7.70052 29.5122 7.70052 29.5122 7.72191C29.5332 7.78609 29.5122 7.78609 29.4702 7.78609Z" fill="#EE2565"></path>
<path d="M20.9691 4.68457C20.9481 4.68457 20.9062 4.70596 20.9062 4.72735L20.3184 6.97335C20.3184 7.01613 20.2975 7.03752 20.2555 7.03752C20.2135 7.03752 20.2135 7.01613 20.1925 6.97335L19.6048 4.72735C19.6048 4.70596 19.5628 4.68457 19.5418 4.68457H18.9541C18.9121 4.68457 18.8911 4.70596 18.8911 4.74874C18.8911 4.74874 18.8911 4.74874 18.8911 4.77013C18.8911 4.77013 19.6258 7.33698 19.6258 7.37977C19.7307 7.67923 19.9616 7.82896 20.2555 7.82896C20.5493 7.82896 20.7802 7.67923 20.8852 7.37977C20.9062 7.33698 21.5988 4.77013 21.5988 4.77013C21.5988 4.72735 21.5779 4.70596 21.5569 4.68457C21.5569 4.68457 21.5569 4.68457 21.5359 4.68457H20.9691Z" fill="#EE2565"></path>
<path d="M17.3589 2.43848H10.9988C10.4951 2.43848 10.1802 2.97324 10.4111 3.42243L11.0408 4.66308H9.88636C9.65547 4.66308 9.46655 4.85559 9.46655 5.09088C9.46655 5.15505 9.48754 5.24062 9.50853 5.2834L11.5656 9.24062C11.6705 9.45452 11.9224 9.54008 12.1323 9.41174C12.2163 9.36896 12.2793 9.30479 12.3002 9.24062L12.867 8.1711L13.5597 9.51869C13.8115 9.98928 14.4622 9.98928 14.7141 9.51869L17.9047 3.40104C18.1565 2.95185 17.8417 2.43848 17.3589 2.43848ZM14.5042 5.0481L13.1189 7.70051C13.0559 7.85024 12.867 7.89302 12.741 7.82885C12.6991 7.80746 12.6571 7.76468 12.6151 7.70051L11.2507 5.06949C11.1878 4.91976 11.2297 4.74864 11.3767 4.68447C11.4187 4.66308 11.4606 4.64169 11.5026 4.64169H14.2523C14.3993 4.64169 14.5252 4.77003 14.5252 4.91976C14.5462 4.96254 14.5252 5.00532 14.5042 5.0481Z" fill="#EE2565"></path>
</g>
<defs>
<clipPath id="clip0_720_6000">
<rect width="39" height="24" fill="white"></rect>
</clipPath>
</defs>
</svg>