<svg width="44" height="27" viewBox="0 0 44 27" fill="none" xmlns="http://www.w3.org/2000/svg">
<rect x="0.375" y="0.375" width="42.5627" height="25.5773" rx="1.125" stroke="white" stroke-width="0.75"/>
<path d="M27.3252 15.4804H28.985C29.0324 15.4804 29.1431 15.4646 29.1905 15.4646C29.5066 15.4014 29.7754 15.1168 29.7754 14.7217C29.7754 14.3423 29.5066 14.0577 29.1905 13.9787C29.1431 13.9629 29.0482 13.9629 28.985 13.9629H27.3252V15.4804Z" fill="white"/>
<path d="M28.7951 5C27.2144 5 25.9182 6.28041 25.9182 7.87698V10.8646H29.9807C30.0755 10.8646 30.1862 10.8646 30.2652 10.8804C31.1821 10.9278 31.8618 11.4021 31.8618 12.2241C31.8618 12.8722 31.4034 13.4254 30.5498 13.5361V13.5677C31.4824 13.6309 32.1938 14.1526 32.1938 14.9588C32.1938 15.8282 31.4034 16.3973 30.3601 16.3973H25.9023V22.2461H30.123C31.7037 22.2461 32.9999 20.9656 32.9999 19.3691V5H28.7951Z" fill="white"/>
<path d="M29.5699 12.4143C29.5699 12.0349 29.3011 11.782 28.985 11.7346C28.9534 11.7346 28.8743 11.7188 28.8269 11.7188H27.3252V13.1098H28.8269C28.8743 13.1098 28.9692 13.1098 28.985 13.094C29.3011 13.0466 29.5699 12.7937 29.5699 12.4143Z" fill="white"/>
<path d="M12.8928 5C11.312 5 10.0158 6.28041 10.0158 7.87698V14.9746C10.822 15.3698 11.6598 15.6227 12.4976 15.6227C13.4935 15.6227 14.0309 15.022 14.0309 14.2V10.8488H16.4969V14.1842C16.4969 15.4804 15.6907 16.5395 12.956 16.5395C11.2962 16.5395 10 16.1759 10 16.1759V22.2302H14.2206C15.8014 22.2302 17.0976 20.9498 17.0976 19.3533V5H12.8928Z" fill="white"/>
<path d="M20.8438 5C19.263 5 17.9668 6.28041 17.9668 7.87698V11.6392C18.6939 11.0227 19.9585 10.6275 21.9977 10.7223C23.0884 10.7698 24.2582 11.0701 24.2582 11.0701V12.2873C23.6733 11.9869 22.9778 11.7182 22.0768 11.655C20.5276 11.5443 19.595 12.3031 19.595 13.6309C19.595 14.9746 20.5276 15.7333 22.0768 15.6069C22.9778 15.5436 23.6733 15.2591 24.2582 14.9746V16.1918C24.2582 16.1918 23.1043 16.4921 21.9977 16.5395C19.9585 16.6344 18.6939 16.2392 17.9668 15.6227V22.2619H22.1874C23.7682 22.2619 25.0644 20.9814 25.0644 19.3849V5H20.8438Z" fill="white"/>
</svg>
