<svg xmlns="http://www.w3.org/2000/svg" fill="none" viewBox="0 0.64 42.62 26.64">
  <path d="M11.298 10.2476C11.6419 10.133 12.0123 10.0713 12.3914 10.0713C14.058 10.0713 15.4423 11.2529 15.7598 12.8224L18.1141 12.3374C17.5762 9.66567 15.2131 7.66406 12.3826 7.66406C11.7301 7.66406 11.1128 7.76987 10.5309 7.96386L11.298 10.2476Z" fill="white"/>
  <path d="M42.2489 25.8627C42.2489 26.4386 41.7848 26.9085 41.2031 26.9085H1.4208C0.844936 26.9085 0.375 26.4444 0.375 25.8627V2.06435C0.375 1.48849 0.839111 1.01855 1.4208 1.01855H41.2031C41.779 1.01855 42.2489 1.48267 42.2489 2.06435V25.8627Z" stroke="white" stroke-width="0.75"/>
  <path d="M8.38086 18.0792L9.97686 16.2804C9.26263 15.6455 8.81292 14.7285 8.81292 13.7056C8.81292 12.6828 9.26263 11.7569 9.97686 11.1309L8.38086 9.32324C7.17284 10.3902 6.4057 11.9509 6.4057 13.6968C6.4057 15.4427 7.17284 17.0034 8.38086 18.0792Z" fill="white"/>
  <path d="M15.6201 14.3845C15.3027 15.9541 13.9095 17.1356 12.2518 17.1356C11.8726 17.1356 11.5023 17.0739 11.1584 16.9593L10.3912 19.2431C10.9732 19.437 11.5993 19.5429 12.2429 19.5429C15.0646 19.5429 17.4277 17.5324 17.9744 14.8695L15.6201 14.3845Z" fill="white"/>
  <path d="M20.0465 16.3508C19.9672 16.2273 19.8613 16.0245 19.7996 15.8746C19.4293 15.0105 19.4116 14.1111 19.7203 13.247C20.0641 12.3035 20.7255 11.5804 21.5896 11.2101C22.6654 10.7516 23.8557 10.8397 24.8874 11.4482C25.5399 11.8273 26.0073 12.4005 26.36 13.2293C26.4041 13.3351 26.4481 13.4498 26.4834 13.5379L20.0465 16.3508ZM22.1892 12.6033C21.4221 12.9295 21.0341 13.6526 21.1135 14.4903L24.3495 13.0971C23.794 12.4446 23.071 12.2241 22.1892 12.6033ZM24.7551 15.6366L24.6846 15.5925C24.4906 15.9011 24.1908 16.1568 23.8117 16.3243C23.0886 16.6418 22.4185 16.5536 21.9335 16.1392L21.8894 16.2097L21.0694 17.4354C21.2722 17.5764 21.4926 17.6999 21.7219 17.7969C22.6301 18.176 23.5559 18.1584 24.473 17.7616C25.1343 17.4706 25.6545 17.0386 26.0073 16.483L24.7551 15.6366Z" fill="white"/>
  <path d="M28.7321 9.40259V16.2363L29.799 16.6683L29.1994 18.0792L28.0267 17.5942C27.7621 17.4796 27.5858 17.3032 27.4535 17.1092C27.3212 16.9064 27.2242 16.6331 27.2242 16.2627V9.41141H28.7321V9.40259Z" fill="white"/>
  <path d="M31.4832 14.4994C31.4832 13.9174 31.7389 13.3972 32.1446 13.0445L31.0512 11.8276C30.3105 12.4801 29.8431 13.4325 29.8431 14.4994C29.8431 15.5663 30.3105 16.5186 31.0423 17.1711L32.1269 15.9543C31.7389 15.5928 31.4832 15.0814 31.4832 14.4994Z" fill="white"/>
  <path d="M33.4142 16.4293C33.2026 16.4293 32.991 16.3941 32.797 16.3323L32.2767 17.8754C32.6294 17.9989 33.0086 18.0606 33.4054 18.0606C35.1337 18.0606 36.5709 16.8349 36.906 15.2125L35.31 14.8862C35.1337 15.768 34.3489 16.4381 33.4142 16.4293Z" fill="white"/>
  <path d="M33.4232 10.9282C33.0264 10.9282 32.6473 10.9899 32.2946 11.1134L32.8148 12.6653C33.0088 12.6036 33.2116 12.5683 33.432 12.5683C34.3667 12.5683 35.1515 13.2385 35.3278 14.1202L36.9238 13.794C36.5888 12.1627 35.1515 10.9282 33.4232 10.9282Z" fill="white"/>
</svg>