<svg width="51" height="52" viewBox="0 0 51 52" fill="none" xmlns="http://www.w3.org/2000/svg">
<circle cx="25.5" cy="25.9101" r="23.8279" fill="white"/>
<path d="M25.5 0.410156C11.4152 0.410156 0 11.8254 0 25.9102C0 39.995 11.4152 51.4102 25.5 51.4102C39.5848 51.4102 51.0001 39.995 51.0001 25.9102C51.0001 11.8254 39.5848 0.410156 25.5 0.410156ZM26.0379 40.762C23.478 40.762 20.9678 40.1245 18.7365 38.9092L10.6483 41.0309L12.8098 33.1219C11.475 30.811 10.7678 28.1813 10.7678 25.4918C10.7678 17.0748 17.6209 10.2317 26.028 10.2317C30.1119 10.2317 33.9469 11.8254 36.8256 14.7041C39.7043 17.5928 41.2981 21.4178 41.2881 25.5018C41.2981 33.9088 34.4549 40.762 26.0379 40.762Z" fill="#25D366"/>
<path d="M26.0479 12.8115C19.0553 12.8115 13.3577 18.4992 13.3577 25.4918C13.3577 27.8924 14.025 30.2233 15.3 32.2453L15.5989 32.7235L14.3139 37.4051L19.1151 36.15L19.5833 36.4289C21.5356 37.5844 23.7668 38.192 26.0379 38.192H26.0479C33.0405 38.192 38.7282 32.5043 38.7382 25.5117C38.7382 22.125 37.4233 18.9375 35.0227 16.5369C32.6221 14.1363 29.4346 12.8115 26.0479 12.8115ZM33.5087 30.9405C33.1899 31.827 31.6659 32.6438 30.9387 32.7533C30.2813 32.853 29.4546 32.8928 28.5381 32.6039C27.9803 32.4246 27.2731 32.1955 26.3667 31.7971C22.5417 30.1436 20.0415 26.2986 19.8522 26.0397C19.6629 25.7807 18.2983 23.9678 18.2983 22.0951C18.2983 20.2225 19.2844 19.2961 19.6331 18.9176C19.9817 18.5391 20.4 18.4395 20.6491 18.4395C20.8981 18.4395 21.1571 18.4395 21.3762 18.4494C21.6153 18.4594 21.9241 18.3598 22.2329 19.1068C22.5516 19.8738 23.3086 21.7465 23.4083 21.9358C23.5079 22.125 23.5676 22.3541 23.4381 22.6031C23.3086 22.8621 22.8903 23.41 22.4819 23.908C22.3126 24.1172 22.0934 24.3065 22.3126 24.685C22.5317 25.0635 23.2987 26.3186 24.4342 27.3246C25.8885 28.6196 27.1237 29.028 27.5022 29.2172C27.8807 29.4065 28.1098 29.3766 28.329 29.1176C28.5481 28.8586 29.2852 28.002 29.5342 27.6235C29.7833 27.2449 30.0422 27.3047 30.3909 27.4342C30.7395 27.5637 32.6122 28.4801 33.0006 28.6694C33.3792 28.8586 33.6382 28.9582 33.7278 29.1176C33.8274 29.2869 33.8274 30.0539 33.5087 30.9405Z" fill="#25D366"/>
</svg>
