<svg xmlns="http://www.w3.org/2000/svg" fill="none" viewBox="0 0.16 43.31 26.33">
  <rect x="0.375" y="0.53125" width="42.5627" height="25.5773" rx="1.125" stroke="white" stroke-width="0.75"/>
  <path fill-rule="evenodd" clip-rule="evenodd" d="M7.61926 16.1021C7.61926 15.5662 7.32451 15.6014 7.04254 15.5958V15.4409C7.28703 15.4522 7.53772 15.4522 7.78286 15.4522C8.04622 15.4522 8.40378 15.4409 8.86834 15.4409C10.4929 15.4409 11.3778 16.4712 11.3778 17.5264C11.3778 18.1168 11.014 19.6001 8.79287 19.6001C8.47317 19.6001 8.1779 19.5883 7.88314 19.5883C7.60104 19.5883 7.32451 19.5939 7.04254 19.6001V19.4451C7.41858 19.409 7.60104 19.3974 7.61926 18.9922V16.1021ZM8.23413 18.8972C8.23413 19.3562 8.57954 19.4096 8.88684 19.4096C10.2424 19.4096 10.6872 18.4386 10.6872 17.5509C10.6872 16.4366 9.93445 15.6323 8.72376 15.6323C8.46596 15.6323 8.34733 15.6498 8.23413 15.6562V18.8972Z" fill="white"/>
  <path fill-rule="evenodd" clip-rule="evenodd" d="M11.5975 19.4446H11.7164C11.892 19.4446 12.0176 19.4446 12.0176 19.2475V17.6328C12.0176 17.3711 11.9237 17.3349 11.6912 17.216V17.1209C11.9861 17.0367 12.3377 16.9243 12.3625 16.9064C12.4067 16.8825 12.4438 16.8761 12.4757 16.8761C12.5065 16.8761 12.5194 16.9119 12.5194 16.96V19.2475C12.5194 19.4446 12.6577 19.4446 12.8336 19.4446H12.9398V19.5996C12.7264 19.5996 12.5065 19.5878 12.2814 19.5878C12.0555 19.5878 11.8295 19.5933 11.5975 19.5996V19.4446ZM12.2687 15.959C12.1052 15.959 11.9613 15.816 11.9613 15.6611C11.9613 15.5118 12.1121 15.3745 12.2687 15.3745C12.4315 15.3745 12.5763 15.5001 12.5763 15.6611C12.5763 15.8222 12.4379 15.959 12.2687 15.959Z" fill="white"/>
  <path fill-rule="evenodd" clip-rule="evenodd" d="M13.536 17.6693C13.536 17.4492 13.4667 17.3897 13.1723 17.2763V17.1632C13.4416 17.0798 13.6987 17.002 14.0001 16.8767C14.0191 16.8767 14.0374 16.8886 14.0374 16.9362V17.3237C14.3956 17.0798 14.703 16.8767 15.124 16.8767C15.6565 16.8767 15.8447 17.2463 15.8447 17.711V19.2481C15.8447 19.4452 15.9831 19.4452 16.1586 19.4452H16.2718V19.6002C16.0514 19.6002 15.8321 19.5884 15.6065 19.5884C15.3805 19.5884 15.1545 19.594 14.9286 19.6002V19.4452H15.0418C15.2176 19.4452 15.3425 19.4452 15.3425 19.2481V17.7055C15.3425 17.3654 15.124 17.1988 14.7659 17.1988C14.565 17.1988 14.245 17.3534 14.0374 17.4851V19.2481C14.0374 19.4452 14.176 19.4452 14.3518 19.4452H14.4644V19.6002C14.245 19.6002 14.0253 19.5884 13.7991 19.5884C13.5737 19.5884 13.3476 19.594 13.1219 19.6002V19.4452H13.2351C13.4106 19.4452 13.536 19.4452 13.536 19.2481V17.6693Z" fill="white"/>
  <path fill-rule="evenodd" clip-rule="evenodd" d="M16.7486 17.9558C16.7358 18.0094 16.7358 18.0986 16.7486 18.3014C16.7856 18.8673 17.1691 19.3318 17.6705 19.3318C18.016 19.3318 18.286 19.153 18.5177 18.9329L18.6053 19.0164C18.3166 19.3798 17.9592 19.6898 17.4451 19.6898C16.4473 19.6898 16.2466 18.7717 16.2466 18.3906C16.2466 17.2226 17.0745 16.8767 17.5132 16.8767C18.022 16.8767 18.5682 17.1806 18.574 17.8124C18.574 17.8486 18.574 17.884 18.5682 17.9198L18.5115 17.9558H16.7486ZM17.8596 17.7655C18.0161 17.7655 18.0344 17.6879 18.0344 17.6161C18.0344 17.3127 17.8401 17.0684 17.4886 17.0684C17.1062 17.0684 16.8426 17.3361 16.7674 17.7655H17.8596Z" fill="white"/>
  <path fill-rule="evenodd" clip-rule="evenodd" d="M18.7188 19.4452H18.8883C19.0633 19.4452 19.1889 19.4452 19.1889 19.2481V17.5741C19.1889 17.3897 18.9569 17.3534 18.8627 17.3058V17.2167C19.3207 17.0318 19.5718 16.8767 19.6291 16.8767C19.6658 16.8767 19.6847 16.8946 19.6847 16.9545V17.4909H19.6979C19.8542 17.2585 20.1182 16.8767 20.5007 16.8767C20.6575 16.8767 20.858 16.978 20.858 17.1926C20.858 17.3534 20.7394 17.4971 20.5638 17.4971C20.3687 17.4971 20.3687 17.3534 20.1489 17.3534C20.0424 17.3534 19.691 17.4909 19.691 17.8486V19.2481C19.691 19.4452 19.8164 19.4452 19.9921 19.4452H20.3431V19.6002C19.9981 19.594 19.7355 19.5884 19.4654 19.5884C19.2081 19.5884 18.9445 19.594 18.7188 19.6002V19.4452Z" fill="white"/>
  <path fill-rule="evenodd" clip-rule="evenodd" d="M21.1338 18.7723C21.2156 19.1655 21.466 19.4997 21.9249 19.4997C22.2945 19.4997 22.4324 19.2849 22.4324 19.0765C22.4324 18.373 21.0651 18.5997 21.0651 17.6405C21.0651 17.3064 21.3475 16.8774 22.0377 16.8774C22.2382 16.8774 22.5078 16.9314 22.7523 17.0507L22.7964 17.658H22.6522C22.5895 17.2828 22.3702 17.0684 21.9682 17.0684C21.7173 17.0684 21.4791 17.2053 21.4791 17.4615C21.4791 18.1591 22.9343 17.9442 22.9343 18.8798C22.9343 19.2728 22.6022 19.6904 21.8553 19.6904C21.6046 19.6904 21.3092 19.6068 21.0903 19.4877L21.0209 18.8023L21.1338 18.7723Z" fill="white"/>
  <path fill-rule="evenodd" clip-rule="evenodd" d="M28.5996 16.5186H28.4431C28.3237 15.8221 27.8029 15.5417 27.1007 15.5417C26.3784 15.5417 25.331 16.0002 25.331 17.4303C25.331 18.6344 26.2348 19.4985 27.2007 19.4985C27.8213 19.4985 28.3369 19.0931 28.4621 18.4671L28.6064 18.5027L28.4621 19.373C28.1986 19.5281 27.4894 19.6892 27.0749 19.6892C25.6074 19.6892 24.679 18.7892 24.679 17.4487C24.679 16.2268 25.8271 15.3506 27.0568 15.3506C27.5648 15.3506 28.054 15.506 28.5372 15.667L28.5996 16.5186Z" fill="white"/>
  <path fill-rule="evenodd" clip-rule="evenodd" d="M28.826 19.4448H28.9448C29.1211 19.4448 29.2463 19.4448 29.2463 19.2477V15.9296C29.2463 15.5418 29.1523 15.5301 28.9137 15.4644V15.3689C29.1645 15.2916 29.4282 15.1846 29.5603 15.1125C29.6284 15.0773 29.679 15.0469 29.6975 15.0469C29.7359 15.0469 29.7483 15.0831 29.7483 15.1309V19.2477C29.7483 19.4448 29.8865 19.4448 30.0619 19.4448H30.1682V19.5998C29.9555 19.5998 29.7359 19.588 29.5099 19.588C29.2841 19.588 29.0585 19.5935 28.826 19.5998V19.4448Z" fill="white"/>
  <path fill-rule="evenodd" clip-rule="evenodd" d="M32.8543 19.2722C32.8543 19.3798 32.923 19.3854 33.0293 19.3854C33.105 19.3854 33.1987 19.3798 33.2809 19.3798V19.5052C33.011 19.5288 32.4963 19.654 32.3769 19.6898L32.3456 19.6716V19.189C31.9695 19.4808 31.6806 19.6898 31.2345 19.6898C30.8958 19.6898 30.5447 19.4808 30.5447 18.9809V17.455C30.5447 17.2999 30.5198 17.1509 30.1689 17.1216V17.008C30.395 17.0021 30.8958 16.9666 30.9776 16.9666C31.0473 16.9666 31.0473 17.008 31.0473 17.1394V18.6766C31.0473 18.8555 31.0473 19.3674 31.593 19.3674C31.8059 19.3674 32.0883 19.2129 32.3517 19.0046V17.4013C32.3517 17.2822 32.0507 17.2167 31.8252 17.1574V17.0503C32.3893 17.0139 32.741 16.9666 32.8037 16.9666C32.8543 16.9666 32.8543 17.008 32.8543 17.0738V19.2722Z" fill="white"/>
  <path fill-rule="evenodd" clip-rule="evenodd" d="M34.1025 17.3054C34.3534 17.1032 34.6923 16.8763 35.0373 16.8763C35.7652 16.8763 36.2045 17.4788 36.2045 18.1281C36.2045 18.9085 35.6019 19.6894 34.7043 19.6894C34.2405 19.6894 33.9958 19.5459 33.8323 19.4804L33.6447 19.6175L33.5131 19.5522C33.5692 19.2007 33.6009 18.8551 33.6009 18.4914V15.9296C33.6009 15.5418 33.5064 15.5301 33.268 15.4644V15.3689C33.5192 15.2916 33.7824 15.1846 33.9141 15.1125C33.9834 15.0773 34.0334 15.0469 34.0525 15.0469C34.0899 15.0469 34.1025 15.0832 34.1025 15.1309V17.3054ZM34.1025 18.9266C34.1025 19.1529 34.3285 19.5346 34.7487 19.5346C35.4199 19.5346 35.7021 18.9088 35.7021 18.3782C35.7021 17.7349 35.1882 17.1987 34.699 17.1987C34.4659 17.1987 34.2718 17.3419 34.1025 17.4791V18.9266Z" fill="white"/>
  <path fill-rule="evenodd" clip-rule="evenodd" d="M7.03552 23.065H7.08346C7.20623 23.065 7.33597 23.049 7.33597 22.8803V21.1817C7.33597 21.0127 7.20623 20.9966 7.08346 20.9966H7.03552V20.8992C7.16862 20.8992 7.37344 20.9121 7.54117 20.9121C7.71175 20.9121 7.91631 20.8992 8.0768 20.8992V20.9966H8.0286C7.90636 20.9966 7.77636 21.0127 7.77636 21.1817V22.8803C7.77636 23.049 7.90636 23.065 8.0286 23.065H8.0768V23.1624C7.91308 23.1624 7.70774 23.1499 7.53768 23.1499C7.37008 23.1499 7.16862 23.1624 7.03552 23.1624V23.065Z" fill="white"/>
  <path fill-rule="evenodd" clip-rule="evenodd" d="M8.07677 23.1765C7.91162 23.1765 7.70732 23.1635 7.53739 23.1635C7.37031 23.1635 7.16949 23.1765 7.03549 23.1765H7.02063V23.0512H7.08317C7.2071 23.0484 7.31978 23.0389 7.32082 22.8805V21.1819C7.31978 21.0232 7.2071 21.0129 7.08317 21.0108H7.02063V20.8853H7.03549C7.16949 20.8853 7.37418 20.8979 7.54114 20.8979C7.71094 20.8979 7.91537 20.8853 8.07677 20.8853H8.09202V21.0108H8.02922C7.90516 21.0129 7.79183 21.0232 7.79119 21.1819V22.8805C7.79183 23.0389 7.90516 23.0484 8.02922 23.0512H8.09202V23.1765H8.07677ZM8.06282 23.1494L8.06295 23.0805H8.03C7.90788 23.0805 7.76277 23.0601 7.76199 22.8811V21.1826C7.76277 21.0033 7.90788 20.9832 8.03 20.9832H8.06282V20.914C7.9053 20.9141 7.70746 20.9272 7.54192 20.9272C7.37975 20.9272 7.18346 20.915 7.05126 20.914V20.9832H7.08396C7.20569 20.9832 7.35106 21.0033 7.35106 21.1826V22.8811C7.35106 23.0601 7.20569 23.0805 7.08396 23.0805H7.05126V23.1494C7.18346 23.1483 7.37626 23.1364 7.53818 23.1364C7.70449 23.1364 7.90181 23.1486 8.06282 23.1494Z" fill="white"/>
  <path fill-rule="evenodd" clip-rule="evenodd" d="M10.422 22.5234L10.4289 22.517V21.3015C10.4289 21.0354 10.234 20.9965 10.1317 20.9965H10.0565V20.8992C10.2172 20.8992 10.3742 20.9121 10.5345 20.9121C10.6744 20.9121 10.815 20.8992 10.9544 20.8992V20.9965H10.9036C10.7598 20.9965 10.5993 21.0224 10.5993 21.4083V22.8835C10.5993 22.9971 10.6027 23.1105 10.6195 23.2112H10.4897L8.73192 21.3497V22.6859C8.73192 22.9682 8.78969 23.065 9.05253 23.065H9.11068V23.1624C8.96388 23.1624 8.81721 23.1498 8.67041 23.1498C8.51716 23.1498 8.35989 23.1624 8.20612 23.1624V23.065H8.25406C8.4895 23.065 8.56122 22.9126 8.56122 22.654V21.2879C8.56122 21.1065 8.4037 20.9965 8.2507 20.9965H8.20612V20.8992C8.3356 20.8992 8.46896 20.9121 8.59844 20.9121C8.70117 20.9121 8.80015 20.8992 8.9025 20.8992L10.422 22.5234Z" fill="white"/>
  <path fill-rule="evenodd" clip-rule="evenodd" d="M10.6195 23.225L10.4789 23.2204L8.74638 21.3865V22.6861C8.75052 22.968 8.79561 23.0481 9.05264 23.0512H9.12578V23.1765H9.11066C8.96296 23.1765 8.81603 23.1635 8.6704 23.1635C8.51753 23.1635 8.36065 23.1765 8.20597 23.1765H8.19098V23.0512H8.25404C8.47966 23.05 8.54415 22.9123 8.5466 22.654V21.2885C8.54596 21.1159 8.39683 21.0108 8.25081 21.0108H8.19098V20.8853H8.20597C8.33648 20.8853 8.4701 20.8979 8.59816 20.8979C8.69999 20.8979 8.79859 20.8853 8.91372 20.8903L10.414 22.4942V21.3017C10.4123 21.0442 10.2312 21.0129 10.1318 21.0108H10.0415V20.8853H10.0566C10.2178 20.8853 10.375 20.8979 10.5344 20.8979C10.6734 20.8979 10.8133 20.8853 10.9544 20.8853H10.9694V21.0108H10.9036C10.7626 21.0142 10.618 21.026 10.6139 21.4085V22.8837C10.6139 22.9972 10.6177 23.1104 10.6341 23.2088L10.6372 23.225H10.6195ZM10.4907 23.1974H10.6036C10.5884 23.0999 10.5856 22.9922 10.5856 22.8843V21.4091C10.5856 21.0199 10.7574 20.9832 10.9044 20.983H10.9404V20.914C10.8058 20.915 10.6711 20.9268 10.5352 20.9268C10.3789 20.9268 10.2269 20.915 10.0726 20.914L10.0722 20.983H10.1326C10.2375 20.9832 10.4444 21.0276 10.4444 21.3023L10.4399 22.5281L10.4332 22.5343L10.4215 22.5447L8.90329 20.914C8.80185 20.914 8.70312 20.9268 8.59897 20.9268C8.47388 20.9268 8.34569 20.915 8.2219 20.914L8.22125 20.983H8.25162C8.41172 20.9832 8.57648 21.0993 8.57648 21.2892V22.6547C8.57648 22.9142 8.50037 23.0798 8.25485 23.0807L8.2219 23.0798V23.1494C8.36973 23.1483 8.52208 23.1364 8.6712 23.1364C8.81361 23.1364 8.95575 23.1483 9.09661 23.1494V23.0807H9.05345C8.78479 23.0798 8.71824 22.9687 8.71798 22.6867V21.3142L10.4907 23.1974ZM10.4221 22.5238L10.4329 22.5144L10.4221 22.5238ZM10.414 22.5177V22.5165L10.4113 22.5144L10.414 22.5177Z" fill="white"/>
  <path fill-rule="evenodd" clip-rule="evenodd" d="M11.466 21.0605C11.2096 21.0605 11.1997 21.1192 11.1485 21.3555H11.046C11.0595 21.2647 11.0764 21.174 11.087 21.08C11.1007 20.9888 11.1075 20.8984 11.1075 20.8046H11.1893C11.2169 20.9019 11.3021 20.8984 11.3948 20.8984H13.1556C13.2482 20.8984 13.3334 20.8952 13.3404 20.7979L13.4219 20.8111C13.4087 20.8984 13.3948 20.986 13.3848 21.0737C13.3781 21.1613 13.3781 21.2485 13.3781 21.336L13.2755 21.3721C13.2685 21.2523 13.2516 21.0605 13.0229 21.0605H12.463V22.7855C12.463 23.0356 12.5826 23.0642 12.7462 23.0642H12.8113V23.1616C12.6781 23.1616 12.439 23.1491 12.255 23.1491C12.05 23.1491 11.8108 23.1616 11.6775 23.1616V23.0642H11.7427C11.9308 23.0642 12.0259 23.0482 12.0259 22.7922V21.0605H11.466Z" fill="white"/>
  <path fill-rule="evenodd" clip-rule="evenodd" d="M12.8115 23.1766C12.677 23.1766 12.4382 23.1637 12.2549 23.1637C12.0501 23.1637 11.8113 23.1766 11.6774 23.1766H11.6628V23.0513H11.7426C11.9307 23.0471 12.0063 23.0448 12.0106 22.7933V21.0754H11.4659V21.0471H12.0402V22.7933C12.0402 23.0536 11.9297 23.0799 11.7426 23.0801H11.692V23.1486C11.8267 23.1477 12.0567 23.1358 12.2549 23.1358C12.4326 23.1358 12.6607 23.1477 12.796 23.1486V23.0801H12.7461C12.581 23.0799 12.4481 23.0413 12.4481 22.7865V21.0471H13.0228C13.2518 21.0479 13.2821 21.2328 13.2892 21.3534L13.3632 21.3275C13.3632 21.2428 13.3635 21.158 13.3696 21.0729C13.3797 20.989 13.3921 20.9067 13.4049 20.8236L13.3531 20.8154C13.3372 20.9097 13.2409 20.9148 13.1554 20.9135H11.3769C11.2965 20.9137 11.209 20.91 11.1783 20.8195H11.1219C11.1214 20.9091 11.1149 20.9961 11.102 21.0825C11.0918 21.1716 11.0762 21.2572 11.0638 21.3431H11.1366C11.1815 21.1169 11.2107 21.0439 11.4659 21.0471V21.0754C11.213 21.0802 11.2186 21.1203 11.1629 21.3599L11.1604 21.371H11.0289L11.0307 21.3541C11.0446 21.2637 11.062 21.1726 11.0719 21.0785C11.0861 20.9885 11.0926 20.8986 11.0926 20.8057V20.7913H11.201L11.2036 20.8015C11.2266 20.8832 11.2898 20.8838 11.3769 20.8853H13.1554C13.2505 20.8838 13.3197 20.8826 13.3256 20.7978L13.3267 20.7825L13.3422 20.7854L13.4388 20.7999L13.4363 20.8143C13.4227 20.9013 13.4094 20.9885 13.3991 21.0754C13.3927 21.1623 13.3927 21.2495 13.3927 21.3371V21.3469L13.3828 21.3507L13.262 21.3927L13.2612 21.3739C13.2518 21.2519 13.2386 21.0754 13.0228 21.0754H12.4778V22.7865C12.4812 23.031 12.5833 23.0482 12.7461 23.0513H12.826V23.1766H12.8115Z" fill="white"/>
  <path fill-rule="evenodd" clip-rule="evenodd" d="M13.531 23.065H13.5791C13.7016 23.065 13.8317 23.049 13.8317 22.8803V21.1817C13.8317 21.0127 13.7016 20.9966 13.5791 20.9966H13.531V20.8992C13.7385 20.8992 14.0944 20.9121 14.3806 20.9121C14.6679 20.9121 15.0225 20.8992 15.2546 20.8992C15.2486 21.0386 15.2519 21.2531 15.2619 21.3955L15.1591 21.4213C15.1427 21.2104 15.1017 21.0423 14.7431 21.0423H14.2691V21.8912H14.6746C14.8794 21.8912 14.924 21.7814 14.9443 21.6061H15.0467C15.0398 21.7328 15.0362 21.8592 15.0362 21.9855C15.0362 22.1089 15.0398 22.232 15.0467 22.355L14.9443 22.3744C14.924 22.1801 14.9138 22.0537 14.678 22.0537H14.2691V22.8087C14.2691 23.0198 14.4663 23.0198 14.685 23.0198C15.0947 23.0198 15.2755 22.9937 15.378 22.6245L15.4732 22.6468C15.4289 22.819 15.3882 22.9904 15.3576 23.1624C15.1388 23.1624 14.7462 23.1499 14.4396 23.1499C14.1316 23.1499 13.7257 23.1624 13.531 23.1624V23.065Z" fill="white"/>
  <path fill-rule="evenodd" clip-rule="evenodd" d="M15.3574 23.1765C15.1384 23.1765 14.7455 23.163 14.4393 23.163C14.1317 23.163 13.7259 23.1765 13.5309 23.1765H13.5166V23.0512H13.579C13.7026 23.0492 13.815 23.0389 13.8165 22.8805V21.1819C13.815 21.0234 13.7026 21.0129 13.579 21.0108H13.5166V20.8853H13.5309C13.7395 20.8853 14.0946 20.8979 14.3807 20.8979C14.6677 20.8979 15.0222 20.8853 15.2547 20.8853H15.2698L15.2693 20.9002C15.2671 20.9487 15.2656 21.0064 15.2656 21.0674C15.2656 21.1794 15.2693 21.3023 15.276 21.3946L15.2766 21.4061L15.2651 21.4094L15.1451 21.4393L15.1446 21.4226C15.1244 21.2122 15.0947 21.0592 14.7432 21.056H14.283L14.2828 21.8772H14.6746C14.8714 21.8752 14.9065 21.7797 14.9298 21.6048L14.9306 21.5918H15.0619L15.0616 21.6067C15.055 21.7333 15.051 21.8594 15.051 21.9857C15.051 22.1083 15.055 22.2314 15.0616 22.3546L15.0619 22.3664L15.0494 22.3691L14.9306 22.3915L14.9298 22.3763C14.9061 22.1783 14.9046 22.0698 14.6781 22.0675H14.283V22.8089C14.2835 23.006 14.4624 23.0049 14.6849 23.006C15.096 23.0037 15.2606 22.9846 15.3635 22.6209L15.3669 22.6078L15.3813 22.61L15.4907 22.637L15.4876 22.6504C15.4433 22.8219 15.4026 22.9934 15.3717 23.165L15.3691 23.1765H15.3574ZM15.3455 23.1492C15.3754 22.9852 15.4143 22.8215 15.4562 22.6583L15.389 22.6422C15.2867 23.0049 15.0886 23.0373 14.6857 23.0348C14.4706 23.0348 14.2555 23.0348 14.2544 22.8096V22.0404H14.6789C14.9173 22.0381 14.9413 22.1746 14.9584 22.3591L15.032 22.3447C15.0255 22.2252 15.0221 22.1051 15.0221 21.9863C15.0221 21.8646 15.0255 21.7431 15.032 21.6207H14.9584C14.9391 21.7901 14.8834 21.9083 14.6754 21.9062H14.2544V21.0285H14.744C15.099 21.0258 15.1578 21.2004 15.1733 21.4043L15.2468 21.3853C15.2409 21.2939 15.2369 21.1763 15.2369 21.0681C15.2369 21.0126 15.2384 20.9599 15.2404 20.914C15.0084 20.915 14.6622 20.9268 14.3815 20.9268C14.101 20.9268 13.7557 20.915 13.5468 20.914V20.983H13.5798C13.7013 20.9832 13.8466 21.0033 13.8473 21.1826V22.8812C13.8466 23.0601 13.7013 23.0799 13.5798 23.0807H13.5468V23.1492C13.7455 23.1486 14.1401 23.1364 14.4401 23.1364C14.7414 23.1364 15.1255 23.1486 15.3455 23.1492Z" fill="white"/>
  <path fill-rule="evenodd" clip-rule="evenodd" d="M15.9343 21.2426C15.9343 21.0062 15.7975 20.9965 15.6916 20.9965H15.6299V20.8992C15.7393 20.8992 15.9509 20.9121 16.1594 20.9121C16.3638 20.9121 16.5279 20.8992 16.7088 20.8992C17.1384 20.8992 17.5215 21.0093 17.5215 21.47C17.5215 21.7616 17.3166 21.9397 17.047 22.0408L17.6304 22.8703C17.7263 23.0076 17.794 23.046 17.9618 23.065V23.1624C17.8488 23.1624 17.7396 23.1499 17.6273 23.1499C17.5215 23.1499 17.4118 23.1624 17.3065 23.1624C17.0434 22.8351 16.8179 22.4851 16.5961 22.1116H16.3712V22.8059C16.3712 23.0555 16.4938 23.065 16.6503 23.065H16.7122V23.1624C16.5172 23.1624 16.32 23.1499 16.125 23.1499C15.9611 23.1499 15.8006 23.1624 15.6299 23.1624V23.065H15.6916C15.8184 23.065 15.9343 23.0101 15.9343 22.8903V21.2426ZM16.3712 21.9944H16.538C16.8798 21.9944 17.0638 21.8716 17.0638 21.4888C17.0638 21.2005 16.8692 21.0157 16.565 21.0157C16.4626 21.0157 16.4189 21.0256 16.3712 21.0288V21.9944Z" fill="white"/>
  <path fill-rule="evenodd" clip-rule="evenodd" d="M17.9619 23.1765C17.8474 23.1765 17.7388 23.1635 17.6265 23.1635C17.5225 23.1635 17.4133 23.1765 17.2944 23.1711C17.0325 22.8446 16.808 22.4966 16.5876 22.1264H16.3859V22.8055C16.3896 23.0496 16.4926 23.0478 16.6504 23.0512H16.727V23.1765H16.7119C16.5168 23.1765 16.3184 23.1635 16.125 23.1635C15.9619 23.1635 15.8015 23.1765 15.63 23.1765H15.6152V23.0512H15.6917C15.8144 23.0503 15.9182 22.9995 15.9187 22.8905V21.2428C15.9161 21.0129 15.7976 21.014 15.6917 21.0108H15.6152V20.8853H15.63C15.7405 20.8853 15.9513 20.8979 16.1595 20.8979C16.3632 20.8979 16.527 20.8853 16.7089 20.8853C17.1394 20.8861 17.5354 20.9987 17.5365 21.4697C17.5365 21.7623 17.3328 21.9452 17.0696 22.0471L17.6428 22.8628C17.7383 22.9973 17.7978 23.031 17.9638 23.0512L17.9762 23.053V23.1765H17.9619ZM16.3719 22.0985H16.6052L16.6094 22.1057C16.8317 22.4782 17.056 22.8284 17.3074 23.1494C17.4113 23.1494 17.521 23.1364 17.6273 23.1364C17.7363 23.1364 17.8417 23.1477 17.9477 23.1492V23.078C17.7877 23.0595 17.7125 23.0136 17.6193 22.8792L17.025 22.0352L17.0418 22.0287C17.3092 21.9286 17.5073 21.7555 17.5074 21.4704C17.5073 21.0206 17.1389 20.9162 16.7097 20.914C16.53 20.914 16.3659 20.9272 16.1603 20.9272C15.9597 20.9272 15.7571 20.915 15.6454 20.914V20.983H15.6925C15.7984 20.9832 15.9492 20.9999 15.9492 21.2434V22.8912C15.9492 23.0213 15.8209 23.0805 15.6925 23.0807H15.6454V23.1492C15.8095 23.1486 15.9654 23.1364 16.1258 23.1364C16.3164 23.1364 16.5092 23.1486 16.698 23.1492V23.0807H16.6512C16.4957 23.0805 16.3568 23.0622 16.3568 22.8062V22.0985H16.3719ZM16.3711 22.0093H16.356V21.0165L16.3691 21.0155C16.4158 21.012 16.4618 21.003 16.5651 21.003C16.876 21.003 17.0785 21.1948 17.0788 21.4905C17.0779 21.8776 16.8825 22.0092 16.5381 22.0093H16.3711ZM16.5381 21.981C16.876 21.9778 17.0463 21.8665 17.0497 21.4898C17.0476 21.2066 16.8624 21.0308 16.5651 21.0296C16.473 21.0296 16.4294 21.0377 16.3859 21.0417V21.981H16.5381Z" fill="white"/>
  <path fill-rule="evenodd" clip-rule="evenodd" d="M20.2795 22.5234L20.2854 22.517V21.3015C20.2854 21.0354 20.0915 20.9965 19.989 20.9965H19.9142V20.8992C20.0747 20.8992 20.2312 20.9121 20.3921 20.9121C20.5324 20.9121 20.6713 20.8992 20.8123 20.8992V20.9965H20.7609C20.6174 20.9965 20.4571 21.0224 20.4571 21.4083V22.8835C20.4571 22.9971 20.4604 23.1105 20.4772 23.2112H20.348L18.59 21.3497V22.6859C18.59 22.9682 18.6477 23.065 18.9105 23.065H18.9687V23.1624C18.822 23.1624 18.6749 23.1498 18.5283 23.1498C18.3741 23.1498 18.2174 23.1624 18.0638 23.1624V23.065H18.1113C18.347 23.065 18.4191 22.9126 18.4191 22.654V21.2879C18.4191 21.1065 18.2618 20.9965 18.1083 20.9965H18.0638V20.8992C18.1931 20.8992 18.3272 20.9121 18.4567 20.9121C18.5581 20.9121 18.6576 20.8992 18.7602 20.8992L20.2795 22.5234Z" fill="white"/>
  <path fill-rule="evenodd" clip-rule="evenodd" d="M20.4771 23.225L20.3369 23.2204L18.6042 21.3867V22.686C18.6082 22.9684 18.6532 23.0481 18.9106 23.0512H18.9829V23.1765H18.9681C18.8205 23.1765 18.674 23.163 18.5277 23.163C18.3753 23.163 18.2175 23.1765 18.0638 23.1765H18.0485V23.0512H18.1113C18.3368 23.0503 18.4014 22.9123 18.4036 22.6533V21.2881C18.4032 21.1153 18.2544 21.0108 18.1084 21.0108H18.0485V20.8853H18.0638C18.1942 20.8853 18.3278 20.8979 18.4566 20.8979C18.5569 20.8979 18.6557 20.8853 18.7702 20.8894L20.271 22.4942V21.3017C20.2701 21.0442 20.0883 21.0123 19.9891 21.0108H19.899V20.8853H19.9139C20.0751 20.8853 20.2325 20.8979 20.3921 20.8979C20.5312 20.8979 20.671 20.8853 20.8117 20.8853H20.8268V21.0108H20.7609C20.6201 21.014 20.4749 21.026 20.4716 21.4085V22.8837C20.4716 22.9972 20.4746 23.1096 20.492 23.209L20.4937 23.225H20.4771ZM20.3487 23.1974H20.4606C20.4456 23.1005 20.4426 22.9922 20.4426 22.8843V21.4091C20.4429 21.0199 20.6155 20.9839 20.7617 20.983H20.7976V20.914C20.6632 20.915 20.5283 20.9268 20.3929 20.9268C20.236 20.9268 20.0839 20.915 19.9295 20.914V20.983H19.9898C20.095 20.9839 20.3018 21.0276 20.3018 21.3023L20.2969 22.5281L20.2907 22.5343L20.28 22.545L18.7611 20.914C18.6595 20.914 18.5605 20.9268 18.4574 20.9268C18.3308 20.9268 18.2032 20.915 18.0792 20.914V20.983H18.1091C18.2698 20.9839 18.434 21.0989 18.434 21.2887V22.654C18.434 22.9142 18.3569 23.0798 18.1121 23.0807L18.0792 23.0805V23.1493C18.2266 23.1483 18.3787 23.1364 18.5285 23.1364C18.6716 23.1364 18.8135 23.1483 18.9546 23.1493V23.0807H18.9114C18.6427 23.0805 18.5758 22.969 18.575 22.6866V21.3147L20.3487 23.1974ZM20.2792 22.5238L20.2904 22.5144L20.2792 22.5238ZM20.2711 22.5177V22.5169L20.2686 22.5144L20.2711 22.5177Z" fill="white"/>
  <path fill-rule="evenodd" clip-rule="evenodd" d="M21.3612 22.6991C21.3268 22.8089 21.2856 22.8941 21.2856 22.9517C21.2856 23.0492 21.4294 23.0653 21.5417 23.0653H21.5799V23.1626C21.4427 23.1556 21.3034 23.1501 21.1661 23.1501C21.0432 23.1501 20.9209 23.1556 20.7977 23.1626V23.0653H20.8185C20.9513 23.0653 21.0644 22.9906 21.115 22.8543L21.6613 21.3666C21.7058 21.2463 21.7674 21.0843 21.7882 20.964C21.8967 20.9286 22.0338 20.8641 22.0984 20.8247C22.109 20.8214 22.1154 20.8181 22.1257 20.8181C22.136 20.8181 22.1424 20.8181 22.1499 20.8283C22.1599 20.854 22.1699 20.8832 22.1805 20.9091L22.8089 22.6051C22.8499 22.7182 22.8904 22.8381 22.9341 22.936C22.9757 23.0269 23.0474 23.0653 23.1605 23.0653H23.1809V23.1626C23.0271 23.1556 22.8731 23.1501 22.71 23.1501C22.5427 23.1501 22.3715 23.1556 22.1974 23.1626V23.0653H22.235C22.3131 23.0653 22.4471 23.0524 22.4471 22.9713C22.4471 22.9294 22.4162 22.8418 22.3781 22.7376L22.2451 22.3617H21.4703L21.3612 22.6991ZM21.8597 21.262H21.8525L21.5353 22.1797H22.1732L21.8597 21.262Z" fill="white"/>
  <path fill-rule="evenodd" clip-rule="evenodd" d="M23.1798 23.176C23.0264 23.1698 22.8725 23.1625 22.7099 23.1625C22.5426 23.1625 22.3723 23.1698 22.1981 23.176L22.1823 23.1768V23.0501H22.2349C22.314 23.0501 22.4313 23.0333 22.4316 22.9708C22.4324 22.9339 22.4017 22.845 22.3641 22.7419L22.2341 22.3751H21.4812L21.3749 22.7028C21.3406 22.813 21.2991 22.8987 21.2997 22.9514C21.3009 23.0306 21.4283 23.0501 21.5416 23.0501H21.5941V23.1768L21.5786 23.176C21.4421 23.1698 21.3028 23.1625 21.1662 23.1625C21.0444 23.1625 20.921 23.1698 20.7987 23.176L20.7828 23.1768V23.0501H20.8182C20.9451 23.0499 21.0511 22.981 21.1005 22.8493L21.6472 21.3611C21.6913 21.2411 21.7533 21.0798 21.7828 20.9502C21.8899 20.9157 22.0273 20.8503 22.0928 20.8111C22.1023 20.8079 22.1118 20.8038 22.1255 20.8038C22.1339 20.8033 22.1522 20.8054 22.1633 20.8223C22.173 20.8489 22.1839 20.878 22.1942 20.9042L22.8228 22.5999C22.8629 22.7135 22.9038 22.8332 22.9485 22.9293C22.988 23.0157 23.0507 23.0499 23.1604 23.0501H23.1949V23.1768L23.1798 23.176ZM22.2126 23.147C22.3815 23.1414 22.5473 23.1351 22.7104 23.1351C22.8687 23.1351 23.0175 23.1414 23.1659 23.147V23.0792H23.1608C23.0438 23.0799 22.9633 23.0362 22.9214 22.9406C22.8769 22.8427 22.8355 22.7223 22.7951 22.6088L22.1666 20.9129C22.1563 20.887 22.1466 20.858 22.1377 20.8349C22.1343 20.8317 22.1351 20.8317 22.1324 20.8317H22.1259C22.119 20.8317 22.1149 20.8337 22.1061 20.8358C22.0405 20.8763 21.9036 20.9402 21.8021 20.9655C21.7813 21.0884 21.7197 21.2504 21.6754 21.3705L21.1292 22.8584C21.0773 22.9993 20.9572 23.0794 20.8187 23.0792H20.813V23.147C20.9301 23.1414 21.0482 23.1351 21.1667 23.1351C21.2987 23.1351 21.4334 23.1414 21.564 23.147V23.0792H21.5421C21.4305 23.0777 21.2752 23.0662 21.2713 22.9513C21.2716 22.887 21.3135 22.804 21.3469 22.6944L21.3614 22.6985L21.3469 22.694L21.4594 22.3476H22.2554L22.3921 22.7326C22.4305 22.8369 22.4615 22.9233 22.4615 22.9707C22.4565 23.07 22.3128 23.0773 22.2354 23.0792H22.2126V23.147ZM21.5144 22.1933L21.8412 21.2473H21.8595V21.2617L21.8559 21.2626L21.8595 21.2617V21.2473H21.8697L22.1942 22.1933H21.5144ZM21.5552 22.1654H22.1528L21.8558 21.2966L21.5552 22.1654ZM21.8447 21.2667L21.8526 21.2643L21.8447 21.2667Z" fill="white"/>
  <path fill-rule="evenodd" clip-rule="evenodd" d="M23.3309 21.0605C23.075 21.0605 23.0646 21.1192 23.0132 21.3555H22.9106C22.924 21.2647 22.9415 21.174 22.9521 21.08C22.9654 20.9888 22.972 20.8984 22.972 20.8046H23.0545C23.0813 20.9019 23.1668 20.8984 23.259 20.8984H25.0208C25.1125 20.8984 25.1978 20.8952 25.2046 20.7979L25.2862 20.8111C25.2736 20.8984 25.26 20.986 25.2493 21.0737C25.2418 21.1613 25.2418 21.2485 25.2418 21.336L25.1398 21.3721C25.1337 21.2523 25.1165 21.0605 24.8873 21.0605H24.3275V22.7855C24.3275 23.0356 24.4472 23.0642 24.6108 23.0642H24.676V23.1616C24.5427 23.1616 24.3041 23.1491 24.1193 23.1491C23.9149 23.1491 23.6753 23.1616 23.5422 23.1616V23.0642H23.6072C23.7954 23.0642 23.8906 23.0482 23.8906 22.7922V21.0605H23.3309Z" fill="white"/>
  <path fill-rule="evenodd" clip-rule="evenodd" d="M24.6761 23.1766C24.5419 23.1766 24.3026 23.1637 24.1191 23.1637C23.9152 23.1637 23.6761 23.1766 23.5424 23.1766H23.5273V23.0513H23.6073C23.7955 23.0471 23.871 23.0448 23.8755 22.7933L23.8753 21.0754H23.331V21.0471H23.9054V22.7933C23.9054 23.0536 23.7948 23.0792 23.6073 23.0799H23.557V23.1488C23.6919 23.1477 23.9213 23.1358 24.1191 23.1358C24.2976 23.1358 24.526 23.1477 24.6608 23.1488V23.0799H24.6107C24.4462 23.0792 24.3132 23.0417 24.3129 22.7865V21.0471H24.8873C25.1167 21.0479 25.1466 21.2328 25.1532 21.3534L25.2273 21.3275C25.2273 21.2428 25.2278 21.158 25.2348 21.0732C25.244 20.9896 25.2569 20.9067 25.2693 20.824L25.2178 20.8154C25.2021 20.9097 25.1057 20.915 25.0208 20.9135H23.2416C23.1611 20.9144 23.074 20.91 23.0429 20.8193H22.9871C22.9863 20.909 22.9796 20.9961 22.9662 21.0825C22.9569 21.172 22.9405 21.2578 22.9274 21.3431H23.0008C23.0457 21.1169 23.0752 21.0435 23.331 21.0471V21.0754C23.0778 21.0796 23.0834 21.1203 23.0277 21.3599L23.0252 21.371H22.8934L22.8955 21.3549C22.9098 21.2637 22.9266 21.1726 22.9366 21.0792C22.9505 20.9885 22.9569 20.8986 22.9569 20.8057V20.7913H23.0653L23.0681 20.8015C23.092 20.8832 23.1542 20.8838 23.2416 20.8853H25.0208C25.1153 20.8838 25.1842 20.8826 25.1902 20.7981L25.1908 20.7825L25.2067 20.7854L25.3036 20.7999L25.3012 20.8143C25.2872 20.9013 25.2742 20.9885 25.2639 21.0754C25.2569 21.1623 25.2569 21.2496 25.2569 21.3371V21.3469L25.247 21.3507L25.1261 21.3927L25.1256 21.3739C25.1167 21.2519 25.1031 21.0754 24.8873 21.0754H24.3423V22.7865C24.3458 23.031 24.448 23.0482 24.6107 23.0513H24.6903V23.1766H24.6761Z" fill="white"/>
  <path fill-rule="evenodd" clip-rule="evenodd" d="M25.4127 23.065H25.4605C25.5835 23.065 25.7127 23.049 25.7127 22.8803V21.1817C25.7127 21.0127 25.5835 20.9966 25.4605 20.9966H25.4127V20.8992C25.5459 20.8992 25.7503 20.9121 25.9174 20.9121C26.0885 20.9121 26.2934 20.8992 26.4542 20.8992V20.9966H26.4063C26.2828 20.9966 26.1531 21.0127 26.1531 21.1817V22.8803C26.1531 23.049 26.2828 23.065 26.4063 23.065H26.4542V23.1624C26.2902 23.1624 26.0851 23.1499 25.9147 23.1499C25.7471 23.1499 25.5459 23.1624 25.4127 23.1624V23.065Z" fill="white"/>
  <path fill-rule="evenodd" clip-rule="evenodd" d="M26.4542 23.1765C26.2892 23.1765 26.085 23.163 25.9147 23.163C25.7476 23.163 25.546 23.1765 25.4127 23.1765H25.3981V23.0512H25.4606C25.5836 23.0492 25.6971 23.0389 25.6979 22.8805V21.1819C25.6971 21.0234 25.5836 21.0129 25.4606 21.0108H25.3981V20.8853H25.4127C25.546 20.8853 25.7514 20.8979 25.9174 20.8979C26.0876 20.8979 26.2924 20.8853 26.4542 20.8853H26.4684V21.0108H26.4064C26.2814 21.0129 26.1691 21.0234 26.168 21.1819V22.8805C26.1691 23.0389 26.2814 23.0492 26.4064 23.0512H26.4684V23.1765H26.4542ZM26.4395 23.1492V23.0805H26.4072C26.2847 23.0805 26.1398 23.0601 26.1398 22.8812V21.1826C26.1398 21.0033 26.2847 20.9832 26.4072 20.983H26.4395V20.914C26.2821 20.915 26.0844 20.9268 25.9182 20.9268C25.7561 20.9268 25.5607 20.915 25.4283 20.914V20.983H25.4614C25.5826 20.9832 25.7281 21.0033 25.7285 21.1826V22.8812C25.7281 23.0601 25.5826 23.0805 25.4614 23.0805H25.4283V23.1492C25.5598 23.1477 25.7529 23.1364 25.9155 23.1364C26.081 23.1364 26.2785 23.1483 26.4395 23.1492Z" fill="white"/>
  <path fill-rule="evenodd" clip-rule="evenodd" d="M27.8154 20.8503C28.5432 20.8503 29.1232 21.2788 29.1232 21.9694C29.1232 22.7152 28.5598 23.2109 27.8329 23.2109C27.1089 23.2109 26.5561 22.7439 26.5561 22.0467C26.5561 21.3727 27.1055 20.8503 27.8154 20.8503ZM27.867 23.0681C28.5295 23.0681 28.645 22.5132 28.645 22.0405C28.645 21.5666 28.376 20.993 27.8089 20.993C27.2117 20.993 27.034 21.4989 27.034 21.933C27.034 22.5132 27.3141 23.0681 27.867 23.0681Z" fill="white"/>
  <path fill-rule="evenodd" clip-rule="evenodd" d="M26.5408 22.0467C26.5422 21.3648 27.098 20.8373 27.8152 20.8362V20.8645C27.1134 20.8645 26.5705 21.3798 26.5697 22.0467C26.5711 22.736 27.1159 23.196 27.833 23.1963C28.5525 23.196 29.1078 22.7075 29.1087 21.9689C29.108 21.2868 28.5371 20.8651 27.8152 20.8645V20.8362C28.5481 20.8369 29.1365 21.2695 29.1378 21.9689C29.137 22.7224 28.5669 23.2233 27.833 23.2245C27.1028 23.2233 26.5422 22.7516 26.5408 22.0467ZM27.0189 21.933C27.0199 21.4967 27.1991 20.9785 27.8087 20.9785C28.3884 20.9797 28.6587 21.5641 28.6599 22.0405C28.6587 22.5133 28.5416 23.0814 27.867 23.0814V23.0539C28.516 23.0534 28.6289 22.5133 28.6299 22.0405C28.6299 21.5708 28.3636 21.008 27.8087 21.0071C27.223 21.0077 27.05 21.5011 27.0485 21.933C27.0487 22.5106 27.3263 23.053 27.867 23.0539V23.0814C27.3003 23.0809 27.0199 22.5167 27.0189 21.933Z" fill="white"/>
  <path fill-rule="evenodd" clip-rule="evenodd" d="M31.4236 22.5234L31.4307 22.517V21.3015C31.4307 21.0354 31.2355 20.9965 31.1331 20.9965H31.0588V20.8992C31.2188 20.8992 31.3762 20.9121 31.5362 20.9121C31.6765 20.9121 31.8164 20.8992 31.9565 20.8992V20.9965H31.9052C31.7622 20.9965 31.601 21.0224 31.601 21.4083V22.8835C31.601 22.9971 31.6046 23.1105 31.622 23.2112H31.4921L29.7336 21.3497V22.6859C29.7336 22.9682 29.7919 23.065 30.0542 23.065H30.1128V23.1624C29.9658 23.1624 29.8193 23.1498 29.6725 23.1498C29.5187 23.1498 29.3616 23.1624 29.2079 23.1624V23.065H29.2559C29.4918 23.065 29.5631 22.9126 29.5631 22.654V21.2879C29.5631 21.1065 29.4066 20.9965 29.2521 20.9965H29.2079V20.8992C29.3377 20.8992 29.4707 20.9121 29.6007 20.9121C29.7029 20.9121 29.8013 20.8992 29.9042 20.8992L31.4236 22.5234Z" fill="white"/>
  <path fill-rule="evenodd" clip-rule="evenodd" d="M31.622 23.225L31.4808 23.2204L29.7483 21.3867V22.6861C29.7523 22.9684 29.7974 23.0478 30.0538 23.0506H30.1273V23.1765H30.1128C29.965 23.1765 29.8185 23.1635 29.6724 23.1635C29.5194 23.1635 29.3623 23.1765 29.2075 23.1765H29.1935V23.0506H29.2557C29.4807 23.05 29.5455 22.9123 29.5483 22.654V21.2881C29.5481 21.1153 29.3989 21.0108 29.2522 21.0108H29.1935V20.8853H29.2075C29.3384 20.8853 29.4715 20.8979 29.6005 20.8979C29.7018 20.8979 29.7999 20.8853 29.9156 20.8903L31.4157 22.4942V21.3017C31.4145 21.0442 31.2327 21.0129 31.1331 21.0108H31.0431V20.8853H31.0588C31.2191 20.8853 31.3766 20.8979 31.5357 20.8979C31.6754 20.8979 31.8147 20.8853 31.9566 20.8853H31.9709V21.0108H31.905C31.7643 21.0142 31.6191 21.0265 31.6162 21.4085V22.8837C31.6162 22.9972 31.6189 23.1104 31.6355 23.209L31.6384 23.225H31.622ZM31.4936 23.1982H31.6055C31.5911 23.1006 31.5877 22.993 31.5877 22.8851V21.4099C31.5877 21.0201 31.7601 20.9846 31.9066 20.9838H31.9436V20.9148C31.808 20.9158 31.6738 20.9276 31.5373 20.9276C31.3819 20.9276 31.2292 20.9158 31.0747 20.9148V20.9838H31.1346C31.2401 20.9846 31.4462 21.0289 31.4462 21.3031L31.4426 22.5288L31.436 22.5351L31.4251 22.5458L29.9059 20.9148C29.8048 20.9148 29.7054 20.9276 29.6021 20.9276C29.4762 20.9276 29.348 20.9158 29.2238 20.9148V20.9838H29.2538C29.4143 20.9846 29.5792 21.0996 29.5792 21.2895V22.6555C29.5792 22.9149 29.5029 23.0806 29.2573 23.0815L29.2238 23.0812V23.1501C29.372 23.1491 29.524 23.1372 29.674 23.1372C29.8164 23.1372 29.9579 23.1491 30.0994 23.1501V23.0815H30.0554C29.7875 23.0812 29.7203 22.9698 29.7203 22.6875V21.315L31.4936 23.1982ZM31.4235 22.5238L31.4345 22.5144L31.4235 22.5238ZM31.4157 22.5177V22.5169L31.413 22.5144L31.4157 22.5177Z" fill="white"/>
  <path fill-rule="evenodd" clip-rule="evenodd" d="M32.505 22.6991C32.4715 22.8089 32.4303 22.8941 32.4303 22.9517C32.4303 23.0492 32.5741 23.0653 32.686 23.0653H32.7242V23.1626C32.5875 23.1556 32.4474 23.1501 32.3107 23.1501C32.1878 23.1501 32.065 23.1556 31.9426 23.1626V23.0653H31.962C32.0959 23.0653 32.209 22.9906 32.2588 22.8543L32.8062 21.3666C32.8503 21.2463 32.9121 21.0843 32.9317 20.964C33.0414 20.9286 33.1776 20.8641 33.2434 20.8247C33.2529 20.8214 33.2598 20.8181 33.2704 20.8181C33.2803 20.8181 33.2868 20.8181 33.2938 20.8283C33.3041 20.854 33.3143 20.8832 33.3247 20.9091L33.9528 22.6051C33.9935 22.7182 34.0347 22.8381 34.0793 22.936C34.1203 23.0269 34.1919 23.0653 34.3044 23.0653H34.3255V23.1626C34.1716 23.1556 34.0178 23.1501 33.8538 23.1501C33.6869 23.1501 33.5159 23.1556 33.3416 23.1626V23.0653H33.3795C33.4575 23.0653 33.5914 23.0524 33.5914 22.9713C33.5914 22.9294 33.5608 22.8418 33.5226 22.7376L33.3895 22.3617H32.6147L32.505 22.6991ZM33.0042 21.262H32.9973L32.6791 22.1797H33.3185L33.0042 21.262Z" fill="white"/>
  <path fill-rule="evenodd" clip-rule="evenodd" d="M34.324 23.1758C34.1701 23.1701 34.0169 23.1628 33.8541 23.1628C33.6875 23.1628 33.5164 23.1701 33.3425 23.1758L33.3273 23.1766V23.0505H33.3793C33.4586 23.0505 33.5762 23.0331 33.5764 22.9706C33.5773 22.9337 33.5464 22.8452 33.508 22.7418L33.3785 22.3749H32.6249L32.5194 22.7026C32.4851 22.8137 32.4447 22.8985 32.4451 22.951C32.4451 23.0304 32.5732 23.0505 32.686 23.0505H32.7382V23.1766L32.7228 23.1758C32.5865 23.1701 32.4467 23.1628 32.3107 23.1628C32.1884 23.1628 32.0659 23.1701 31.9427 23.1758L31.9279 23.1766V23.0505H31.9621C32.0894 23.0499 32.1959 22.9807 32.2459 22.8491L32.7918 21.3609C32.8356 21.2409 32.8973 21.0796 32.9273 20.9505C33.0345 20.9152 33.1716 20.8501 33.2381 20.811C33.2468 20.8078 33.2564 20.8038 33.2704 20.8038C33.2791 20.8031 33.2971 20.8052 33.3076 20.8229C33.3179 20.8484 33.328 20.8778 33.3391 20.904L33.9669 22.5998C34.008 22.7133 34.0487 22.8331 34.093 22.9298C34.1332 23.0156 34.1949 23.0497 34.3041 23.0505H34.3394V23.1766L34.324 23.1758ZM33.3567 23.1475C33.5255 23.1417 33.6916 23.1354 33.8544 23.1354C34.0131 23.1354 34.1616 23.1417 34.3106 23.1473L34.3102 23.0794H34.3045C34.1888 23.0797 34.1083 23.0365 34.0657 22.9409C34.0207 22.8429 33.9802 22.7225 33.9392 22.6094L33.311 20.9131C33.301 20.8872 33.2901 20.8583 33.2821 20.8358C33.2792 20.832 33.2795 20.832 33.2774 20.832H33.2707C33.2634 20.832 33.2596 20.8342 33.2515 20.8364C33.1847 20.8761 33.0481 20.9411 32.9473 20.9658C32.9261 21.0886 32.8641 21.2504 32.8201 21.3708L32.2734 22.8586C32.2214 22.9995 32.1022 23.0797 31.9625 23.0794H31.9574V23.1473C32.075 23.1417 32.1924 23.1354 32.3111 23.1354C32.4433 23.1354 32.5783 23.1417 32.7095 23.1473V23.0794H32.6864C32.5754 23.078 32.4198 23.0668 32.4154 22.9513C32.4163 22.8872 32.4583 22.8045 32.4918 22.6947L32.5055 22.6987L32.4918 22.6943L32.6041 22.3478H33.3998L33.5369 22.7328C33.5745 22.8372 33.6057 22.9236 33.6057 22.9709C33.6008 23.0702 33.4572 23.0776 33.3797 23.0794H33.3567V23.1475ZM32.6587 22.1932L32.9866 21.2473H33.0043V21.2617L33.0004 21.2626L33.0043 21.2617V21.2473H33.0146L33.3374 22.1932H32.6587ZM32.7 22.1646H33.2972L33.0003 21.2963L32.7 22.1646ZM32.9901 21.2657L32.9968 21.2633L32.9901 21.2657Z" fill="white"/>
  <path fill-rule="evenodd" clip-rule="evenodd" d="M35.1854 22.8444C35.1854 22.9748 35.2803 23.0132 35.3899 23.0267C35.5296 23.0364 35.6833 23.0364 35.8409 23.0198C35.984 23.0035 36.1069 22.9262 36.1682 22.8444C36.2224 22.7733 36.2532 22.6824 36.2741 22.6113H36.3729C36.3353 22.7961 36.2876 22.9779 36.2466 23.1624C35.9468 23.1624 35.6455 23.1499 35.3455 23.1499C35.0448 23.1499 34.7447 23.1624 34.4443 23.1624V23.065H34.4916C34.6148 23.065 34.7484 23.049 34.7484 22.848V21.1817C34.7484 21.0127 34.6148 20.9965 34.4916 20.9965H34.4443V20.8992C34.625 20.8992 34.8028 20.9121 34.9835 20.9121C35.1579 20.9121 35.3282 20.8992 35.5028 20.8992V20.9965H35.417C35.2873 20.9965 35.1854 20.9999 35.1854 21.1718V22.8444Z" fill="white"/>
  <path fill-rule="evenodd" clip-rule="evenodd" d="M36.2467 23.1765C35.9456 23.1765 35.6449 23.1635 35.3455 23.1635C35.0451 23.1635 34.7447 23.1765 34.4436 23.1765H34.4293V23.0512H34.4915C34.615 23.0484 34.7322 23.0402 34.7336 22.8482V21.1813C34.7322 21.0234 34.6155 21.0129 34.4915 21.0108H34.4293V20.8853H34.4436C34.6254 20.8853 34.8031 20.8979 34.9831 20.8979C35.1569 20.8979 35.327 20.8853 35.5027 20.8853H35.5164V21.0108H35.4169C35.2845 21.014 35.2023 21.0084 35.1993 21.172V22.8446C35.2002 22.9659 35.2838 22.9983 35.3906 23.0128C35.4506 23.0167 35.5142 23.0188 35.5799 23.0188C35.6633 23.0188 35.7501 23.0151 35.8383 23.0063C35.9774 22.9906 36.097 22.9142 36.1561 22.8369C36.2088 22.7676 36.2385 22.6787 36.2592 22.6081L36.262 22.5975H36.3907L36.3878 22.6145C36.3491 22.7998 36.3021 22.9808 36.2607 23.1656L36.258 23.1765H36.2467ZM36.2349 23.1492C36.2744 22.9731 36.319 22.8009 36.356 22.626H36.2855C36.2646 22.6966 36.2341 22.7836 36.1806 22.8541C36.1168 22.9381 35.9904 23.0174 35.8423 23.0348C35.753 23.0434 35.6642 23.0478 35.5806 23.0478C35.5145 23.0478 35.4506 23.045 35.3885 23.0408C35.2775 23.0293 35.1701 22.984 35.1702 22.8453V21.1726C35.1702 20.9923 35.2903 20.983 35.4177 20.983H35.488V20.914C35.3199 20.915 35.1538 20.9272 34.9839 20.9272C34.8075 20.9272 34.6345 20.915 34.4597 20.914V20.983H34.4923C34.614 20.983 34.763 21.0033 34.763 21.1819V22.8489C34.763 23.0587 34.6147 23.0805 34.4923 23.0805H34.4597V23.1492C34.7546 23.1486 35.0498 23.1364 35.3462 23.1364C35.643 23.1364 35.9394 23.1486 36.2349 23.1492Z" fill="white"/>
  <path fill-rule="evenodd" clip-rule="evenodd" d="M36.3311 20.8069C36.537 20.8069 36.6907 20.9571 36.6907 21.1491C36.6907 21.3409 36.537 21.4895 36.3311 21.4895C36.1256 21.4895 35.9717 21.3409 35.9717 21.1491C35.9717 20.9571 36.1256 20.8069 36.3311 20.8069ZM36.3306 21.4259C36.4919 21.4259 36.615 21.2957 36.615 21.1489C36.615 21.0019 36.4933 20.8707 36.3306 20.8707C36.1688 20.8707 36.0458 21.0019 36.0458 21.1489C36.0458 21.2957 36.1688 21.4259 36.3306 21.4259ZM36.1523 21.329V21.3125C36.1962 21.3064 36.2045 21.3075 36.2045 21.282V21.0289C36.2045 20.9934 36.2008 20.9811 36.1537 20.983V20.9656H36.3377C36.4009 20.9656 36.4592 20.9943 36.4592 21.0564C36.4592 21.1071 36.4241 21.1448 36.3742 21.1594L36.4334 21.2377C36.4609 21.2731 36.4923 21.3064 36.5125 21.3182V21.329H36.4425C36.4089 21.329 36.3792 21.262 36.3133 21.172H36.2735V21.2852C36.2735 21.3075 36.2818 21.3064 36.326 21.3125V21.329H36.1523ZM36.2735 21.1497H36.3159C36.3623 21.1497 36.3837 21.1165 36.3837 21.0626C36.3837 21.0084 36.3507 20.9891 36.3136 20.9891H36.2735V21.1497Z" fill="white"/>
  <path fill-rule="evenodd" clip-rule="evenodd" d="M24.2869 9.34436C24.2846 7.93812 23.3591 6.73879 22.055 6.26383V12.4246C23.3591 11.9491 24.2846 10.7508 24.2869 9.34436ZM19.5672 12.4233V6.26434C18.2642 6.74078 17.3401 7.93839 17.3366 9.34426C17.3401 10.7498 18.2642 11.9472 19.5672 12.4233ZM20.8117 4.13645C17.7838 4.13755 15.3306 6.46796 15.3301 9.34378C15.3306 12.2192 17.7838 14.5493 20.8117 14.5498C23.8397 14.5493 26.2934 12.2192 26.2942 9.34378C26.2934 6.46796 23.8397 4.13755 20.8117 4.13645ZM20.7983 15.0416C17.4849 15.0566 14.7578 12.5071 14.7578 9.40366C14.7578 6.01188 17.4849 3.66589 20.7983 3.6665H22.351C25.6253 3.66589 28.6136 6.01078 28.6136 9.40366C28.6136 12.506 25.6253 15.0416 22.351 15.0416H20.7983Z" fill="white"/>
</svg>