<svg xmlns="http://www.w3.org/2000/svg" fill="#F71963" viewBox="0.06 0 55.08 19.97">
  <path d="M40.2964 6.12939H34.5196C34.42 6.12939 34.3204 6.22988 34.3204 6.33035V7.536C34.3204 7.63647 34.42 7.73693 34.5196 7.73693H36.412V14.2675C36.412 14.368 36.5116 14.4685 36.6112 14.4685H38.1053C38.2049 14.4685 38.3044 14.368 38.3044 14.2675V7.73693H40.1968C40.2964 7.73693 40.3961 7.63647 40.3961 7.536V6.33035C40.5953 6.22988 40.4956 6.12939 40.2964 6.12939Z" fill="#F71963"/>
  <path d="M46.4715 6.12779C46.0731 6.02732 45.4755 6.02734 44.1807 6.02734C42.6867 6.02734 41.4915 6.42922 41.4915 8.43866V12.1561C41.4915 14.1655 42.7863 14.5674 44.1807 14.5674C45.3759 14.5674 46.0731 14.467 46.4715 14.467C46.6707 14.467 46.6707 14.3665 46.6707 14.266V13.2613C46.6707 13.1608 46.5711 13.0604 46.4715 13.0604H44.0811C43.5831 13.0604 43.3839 12.8594 43.3839 12.2566V11.0509H46.3719C46.4715 11.0509 46.5711 10.9504 46.5711 10.85V9.74477C46.5711 9.6443 46.4715 9.54385 46.3719 9.54385H43.3839V8.53913C43.3839 7.9363 43.5831 7.73534 44.0811 7.73534H46.4715C46.5711 7.73534 46.6707 7.63489 46.6707 7.53442V6.5297C46.6707 6.22829 46.5711 6.22826 46.4715 6.12779Z" fill="#F71963"/>
  <path d="M55.0382 14.2662L52.4485 10.2474L54.9386 6.329C54.9386 6.329 54.9386 6.32899 54.9386 6.22852C54.9386 6.12805 54.8389 6.02757 54.7393 6.12804H53.0461C52.9465 6.12804 52.8469 6.22852 52.7473 6.329L51.3528 8.63981L49.9584 6.329C49.8588 6.22852 49.7592 6.12804 49.6596 6.12804H47.8667C47.7671 6.12804 47.6675 6.22852 47.6675 6.22852C47.6675 6.22852 47.6675 6.22852 47.6675 6.329L50.1576 10.2474L47.7671 14.3667V14.4671C47.7671 14.5676 47.8667 14.5676 47.9663 14.5676H49.6596C49.7592 14.5676 49.8588 14.4671 49.9584 14.3667L51.3528 11.9554L52.9465 14.4671C53.0461 14.5676 53.0461 14.6681 53.2453 14.6681H55.0382C55.1378 14.6681 55.1378 14.6681 55.1378 14.5676C55.0382 14.3667 55.0382 14.3667 55.0382 14.2662Z" fill="#F71963"/>
  <path d="M33.3243 6.12939H31.7306C31.631 6.12939 31.5314 6.22987 31.5314 6.22987L29.9377 12.2582C29.9377 12.3587 29.8381 12.4591 29.7385 12.4591C29.6389 12.4591 29.6388 12.4591 29.5392 12.2582L27.9455 6.22987C27.9455 6.1294 27.8459 6.12939 27.7463 6.12939H26.1526C26.053 6.12939 25.9534 6.22988 25.9534 6.33035C25.9534 6.33035 27.9455 13.2629 27.9455 13.3634C28.2444 14.1672 28.842 14.5691 29.6389 14.5691C30.4357 14.5691 31.133 14.1672 31.3322 13.3634C31.3322 13.2629 33.3243 6.33035 33.3243 6.33035C33.4239 6.22988 33.4239 6.22987 33.3243 6.12939Z" fill="#F71963"/>
  <path d="M21.7697 0H4.3387C2.94422 0 2.1474 1.40658 2.74503 2.61224L4.43828 5.92783H1.25095C0.653311 5.92783 0.0556641 6.43017 0.0556641 7.13347C0.0556641 7.33441 0.0556397 7.53535 0.155246 7.63583L5.73321 18.2858C6.03202 18.8887 6.72924 19.0896 7.32688 18.7882C7.52609 18.6877 7.7253 18.4868 7.8249 18.2858L9.31899 15.3722L11.2115 18.9891C11.9088 20.2953 13.7016 20.2953 14.3989 18.9891L23.1642 2.41132C23.9611 1.50707 23.1642 0 21.7697 0ZM14.0005 7.13347L10.2155 14.267C10.0163 14.6689 9.51823 14.7693 9.21941 14.5684C9.1198 14.4679 9.02015 14.3674 8.92054 14.267L5.23518 7.13347C5.03597 6.73158 5.13556 6.32969 5.53398 6.12875C5.63359 6.02828 5.73316 6.0283 5.93237 6.0283H13.4028C13.8012 6.0283 14.1997 6.32971 14.1997 6.83207C14.1001 6.93254 14.1001 7.033 14.0005 7.13347Z" fill="#F71963"/>
</svg>