<svg xmlns="http://www.w3.org/2000/svg" fill="none" viewBox="0 0 42.9 27">
  <path d="M42.5171 25.5513V25.5515C42.5171 26.14 42.0377 26.625 41.4534 26.625H1.43867C0.86032 26.625 0.375 26.146 0.375 25.5515V1.44852C0.375 0.859952 0.854403 0.375 1.43867 0.375H41.4624C42.0407 0.375 42.526 0.85391 42.526 1.44838C42.526 1.44842 42.526 1.44848 42.526 1.44852L42.5171 25.5513Z" stroke="white" stroke-width="0.75"/>
  <path d="M7.05544 3.66211H6.23962V23.3296H7.05544V3.66211Z" fill="white"/>
  <path d="M9.94214 3.66162H7.87122V17.0222H9.94214V3.66162Z" fill="white"/>
  <path d="M13.4744 3.66162H12.7393V17.0222H13.4744V3.66162Z" fill="white"/>
  <path d="M14.7236 17.0273H15.2615L15.2615 3.6668H14.7236L14.7236 17.0273Z" fill="white"/>
  <path d="M15.5069 17.0273H16.0448V3.6668H15.5069L15.5069 17.0273Z" fill="white"/>
  <path d="M16.2474 17.0273H17.0453V3.6668H16.2474V17.0273Z" fill="white"/>
  <path d="M18.2945 17.0273H19.8186V3.6668H18.2945V17.0273Z" fill="white"/>
  <path d="M20.3399 17.0273H20.8419V3.6668H20.3399V17.0273Z" fill="white"/>
  <path d="M21.842 17.0273H24.3522V3.6668H21.842V17.0273Z" fill="white"/>
  <path d="M25.4211 17.0273H26.3983V3.6668H25.4211V17.0273Z" fill="white"/>
  <path d="M27.1708 17.0273H27.9149V3.6668H27.1708V17.0273Z" fill="white"/>
  <path d="M29.2133 17.0273H29.6705V3.6668H29.2133V17.0273Z" fill="white"/>
  <path d="M30.6867 17.0273H31.2067V3.6668H30.6867V17.0273Z" fill="white"/>
  <path d="M32.7196 17.0273H34.2168V3.6668H32.7196V17.0273Z" fill="white"/>
  <path d="M34.4886 17.0273H35.2506V3.6668H34.4886V17.0273Z" fill="white"/>
  <path d="M36.0391 23.3394H36.8011V3.67191H36.0391V23.3394Z" fill="white"/>
  <path d="M8.05955 18.1836H9.97807C10.3546 18.1836 10.6415 18.2016 10.8297 18.2286C11.018 18.2646 11.1883 18.3275 11.3318 18.4265C11.4752 18.5255 11.6007 18.6604 11.6994 18.8314C11.798 19.0023 11.8428 19.1913 11.8428 19.3982C11.8428 19.6231 11.78 19.83 11.6635 20.019C11.538 20.2079 11.3766 20.3519 11.1704 20.4418C11.4663 20.5318 11.6904 20.6758 11.8428 20.8827C12.0042 21.0896 12.0759 21.3325 12.0759 21.6115C12.0759 21.8274 12.0221 22.0433 11.9235 22.2502C11.8249 22.4572 11.6814 22.6191 11.5111 22.7451C11.3318 22.871 11.1166 22.943 10.8566 22.97C10.6953 22.988 10.3008 22.997 9.68222 23.006H8.04163V18.1836H8.05955ZM9.03674 18.9933V20.109H9.67326C10.0498 20.109 10.2829 20.1 10.3815 20.091C10.5518 20.073 10.6773 20.01 10.776 19.92C10.8746 19.821 10.9194 19.6951 10.9194 19.5421C10.9194 19.3892 10.8746 19.2722 10.7939 19.1823C10.7132 19.0923 10.5877 19.0293 10.4263 19.0113C10.3277 19.0023 10.0498 18.9933 9.59257 18.9933H9.03674ZM9.03674 20.9097V22.1963H9.93324C10.2829 22.1963 10.507 22.1873 10.5967 22.1693C10.7401 22.1423 10.8566 22.0793 10.9463 21.9803C11.0359 21.8814 11.0808 21.7374 11.0808 21.5665C11.0808 21.4225 11.0449 21.2966 10.9732 21.1976C10.9015 21.0986 10.8029 21.0266 10.6684 20.9727C10.5339 20.9277 10.247 20.9007 9.80773 20.9007H9.03674V20.9097Z" fill="white"/>
  <path d="M12.7124 20.6302C12.7124 20.1354 12.7841 19.7305 12.9365 19.3886C13.0441 19.1457 13.1965 18.9208 13.3848 18.7228C13.573 18.5249 13.7792 18.381 14.0034 18.291C14.2992 18.165 14.6488 18.1021 15.0433 18.1021C15.7515 18.1021 16.3163 18.327 16.7467 18.7678C17.168 19.2087 17.3832 19.8205 17.3832 20.6122C17.3832 21.395 17.168 21.9978 16.7467 22.4386C16.3253 22.8795 15.7605 23.0954 15.0523 23.0954C14.3351 23.0954 13.7703 22.8795 13.3489 22.4386C12.9276 21.9978 12.7124 21.395 12.7124 20.6302ZM13.7165 20.5942C13.7165 21.143 13.842 21.5569 14.093 21.8358C14.344 22.1147 14.6668 22.2587 15.0523 22.2587C15.4378 22.2587 15.7605 22.1147 16.0026 21.8358C16.2536 21.5569 16.3791 21.134 16.3791 20.5762C16.3791 20.0274 16.2626 19.6135 16.0205 19.3346C15.7784 19.0557 15.4557 18.9298 15.0612 18.9298C14.6668 18.9298 14.3351 19.0647 14.093 19.3436C13.833 19.6225 13.7165 20.0364 13.7165 20.5942Z" fill="white"/>
  <path d="M18.1632 23.0139V18.2275H19.1314V22.2042H21.543V23.0139H18.1632Z" fill="white"/>
  <path d="M22.2422 23.0143V18.1919H25.8103V19.0106H23.2194V20.0813H25.631V20.891H23.2194V22.2046H25.9089V23.0143H22.2422Z" fill="white"/>
  <path d="M27.8006 23.0145V19.0018H26.3751V18.1831H30.1942V19.0018H28.7688V23.0145H27.8006Z" fill="white"/>
  <path d="M30.5081 20.6302C30.5081 20.1354 30.5798 19.7305 30.7322 19.3886C30.8398 19.1457 30.9922 18.9208 31.1804 18.7228C31.3687 18.5249 31.5749 18.381 31.799 18.291C32.0949 18.165 32.4445 18.1021 32.839 18.1021C33.5472 18.1021 34.112 18.327 34.5423 18.7678C34.9726 19.2087 35.1788 19.8205 35.1788 20.6122C35.1788 21.395 34.9637 21.9978 34.5423 22.4386C34.121 22.8795 33.5562 23.0954 32.8479 23.0954C32.1307 23.0954 31.5659 22.8795 31.1446 22.4386C30.7143 21.9978 30.5081 21.395 30.5081 20.6302ZM31.5121 20.5942C31.5121 21.143 31.6377 21.5569 31.8887 21.8358C32.1397 22.1147 32.4624 22.2587 32.8479 22.2587C33.2334 22.2587 33.5562 22.1147 33.7982 21.8358C34.0492 21.5569 34.1748 21.134 34.1748 20.5762C34.1748 20.0274 34.0582 19.6135 33.8162 19.3346C33.5741 19.0647 33.2514 18.9298 32.8569 18.9298C32.4535 18.9298 32.1307 19.0647 31.8887 19.3436C31.6287 19.6225 31.5121 20.0364 31.5121 20.5942Z" fill="white"/>
</svg>