<svg xmlns="http://www.w3.org/2000/svg" fill="none" viewBox="0.6 0.11 42.62 26.42">
  <rect x="0.97876" y="0.483398" width="41.8739" height="25.6735" rx="1.125" stroke="white" stroke-width="0.75"/>
  <path d="M25.3248 17.2611H17.8672V4.27734H25.3248V17.2611Z" fill="white"/>
  <path d="M18.3449 10.768C18.3449 8.13423 19.6179 5.78811 21.6002 4.27618C20.1506 3.17058 18.3211 2.51068 16.3328 2.51068C11.6258 2.51068 7.81018 6.20757 7.81018 10.768C7.81018 15.3285 11.6258 19.0254 16.3328 19.0254C18.3211 19.0254 20.1506 18.3655 21.6002 17.2599C19.6179 15.748 18.3449 13.4018 18.3449 10.768Z" fill="white"/>
  <path d="M35.3826 10.768C35.3826 15.3285 31.567 19.0254 26.86 19.0254C24.8717 19.0254 23.0422 18.3655 21.592 17.2599C23.5749 15.748 24.8478 13.4018 24.8478 10.768C24.8478 8.13423 23.5749 5.78811 21.592 4.27618C23.0422 3.17058 24.8717 2.51068 26.86 2.51068C31.567 2.51068 35.3826 6.20757 35.3826 10.768Z" fill="white"/>
  <path d="M14.2234 22.626C14.2234 22.2653 14.4674 21.969 14.8661 21.969C15.247 21.969 15.5042 22.2525 15.5042 22.626C15.5042 22.9995 15.247 23.283 14.8661 23.283C14.4674 23.283 14.2234 22.9867 14.2234 22.626ZM15.9384 22.626V21.6H15.4778V21.8491C15.3317 21.6644 15.11 21.5484 14.8087 21.5484C14.2148 21.5484 13.7491 21.9995 13.7491 22.626C13.7491 23.253 14.2148 23.7036 14.8087 23.7036C15.11 23.7036 15.3317 23.5876 15.4778 23.4029V23.652H15.9384V22.626ZM31.5025 22.626C31.5025 22.2653 31.7465 21.969 32.1452 21.969C32.5266 21.969 32.7833 22.2525 32.7833 22.626C32.7833 22.9995 32.5266 23.283 32.1452 23.283C31.7465 23.283 31.5025 22.9867 31.5025 22.626ZM33.218 22.626V20.7759H32.7569V21.8491C32.6108 21.6644 32.3892 21.5484 32.0879 21.5484C31.4939 21.5484 31.0282 21.9995 31.0282 22.626C31.0282 23.253 31.4939 23.7036 32.0879 23.7036C32.3892 23.7036 32.6108 23.5876 32.7569 23.4029V23.652H33.218V22.626ZM21.6555 21.9479C21.9522 21.9479 22.1429 22.1282 22.1916 22.4457H21.0924C21.1416 22.1494 21.3273 21.9479 21.6555 21.9479ZM21.6646 21.5484C21.0437 21.5484 20.6095 21.9862 20.6095 22.626C20.6095 23.2786 21.0615 23.7036 21.6955 23.7036C22.0146 23.7036 22.3068 23.6265 22.5639 23.4162L22.3382 23.0854C22.1607 23.2225 21.9344 23.3002 21.7219 23.3002C21.4252 23.3002 21.1548 23.167 21.0884 22.7975H22.6613C22.6659 22.742 22.6705 22.6859 22.6705 22.626C22.6659 21.9862 22.2581 21.5484 21.6646 21.5484ZM27.226 22.626C27.226 22.2653 27.47 21.969 27.8686 21.969C28.2496 21.969 28.5067 22.2525 28.5067 22.626C28.5067 22.9995 28.2496 23.283 27.8686 23.283C27.47 23.283 27.226 22.9867 27.226 22.626ZM28.9409 22.626V21.6H28.4804V21.8491C28.3338 21.6644 28.1126 21.5484 27.8113 21.5484C27.2173 21.5484 26.7517 21.9995 26.7517 22.626C26.7517 23.253 27.2173 23.7036 27.8113 23.7036C28.1126 23.7036 28.3338 23.5876 28.4804 23.4029V23.652H28.9409V22.626ZM24.6248 22.626C24.6248 23.2486 25.0722 23.7036 25.755 23.7036C26.074 23.7036 26.2866 23.6348 26.5168 23.4589L26.2957 23.0982C26.1227 23.2186 25.9411 23.283 25.7413 23.283C25.3735 23.2786 25.1032 23.0211 25.1032 22.626C25.1032 22.2309 25.3735 21.9734 25.7413 21.969C25.9411 21.969 26.1227 22.0334 26.2957 22.1538L26.5168 21.7931C26.2866 21.6172 26.074 21.5484 25.755 21.5484C25.0722 21.5484 24.6248 22.0034 24.6248 22.626ZM30.5631 21.5484C30.2973 21.5484 30.1243 21.6688 30.0046 21.8491V21.6H29.5481V23.652H30.0092V22.5017C30.0092 22.1621 30.1598 21.9734 30.4611 21.9734C30.5545 21.9734 30.6519 21.9862 30.7493 22.025L30.8913 21.6044C30.7893 21.5656 30.6564 21.5484 30.5631 21.5484ZM18.2164 21.7631C17.9947 21.6216 17.6894 21.5484 17.3526 21.5484C16.8159 21.5484 16.4705 21.7975 16.4705 22.2054C16.4705 22.54 16.7276 22.7464 17.2014 22.8108L17.419 22.8407C17.6716 22.8751 17.7908 22.9395 17.7908 23.0555C17.7908 23.2142 17.6224 23.3046 17.3079 23.3046C16.9889 23.3046 16.7586 23.2058 16.6034 23.0899L16.3863 23.4373C16.6389 23.6176 16.9579 23.7036 17.3033 23.7036C17.9151 23.7036 18.2696 23.4245 18.2696 23.0339C18.2696 22.6732 17.9907 22.4845 17.5296 22.4201L17.3125 22.3896C17.1131 22.3641 16.9534 22.3258 16.9534 22.1882C16.9534 22.0378 17.104 21.9479 17.3566 21.9479C17.627 21.9479 17.8887 22.0467 18.017 22.1238L18.2164 21.7631ZM24.1592 21.5484C23.8934 21.5484 23.7204 21.6688 23.6012 21.8491V21.6H23.1447V23.652H23.6053V22.5017C23.6053 22.1621 23.7559 21.9734 24.0572 21.9734C24.1506 21.9734 24.248 21.9862 24.3454 22.025L24.4874 21.6044C24.3854 21.5656 24.2525 21.5484 24.1592 21.5484ZM20.2286 21.6H19.4753V20.9774H19.0097V21.6H18.5801V22.0078H19.0097V22.9439C19.0097 23.4201 19.2004 23.7036 19.7452 23.7036C19.9451 23.7036 20.1753 23.6437 20.3214 23.5449L20.1885 23.1626C20.0511 23.2397 19.9004 23.2786 19.7807 23.2786C19.5504 23.2786 19.4753 23.141 19.4753 22.9351V22.0078H20.2286V21.6ZM13.3418 23.652V22.3641C13.3418 21.8791 13.0228 21.5528 12.5084 21.5484C12.2381 21.544 11.9591 21.6255 11.7638 21.9135C11.6177 21.686 11.3874 21.5484 11.0638 21.5484C10.8376 21.5484 10.6164 21.6128 10.4434 21.853V21.6H9.98236V23.652H10.4475V22.5145C10.4475 22.1582 10.6514 21.969 10.9664 21.969C11.2723 21.969 11.427 22.1621 11.427 22.51V23.652H11.8926V22.5145C11.8926 22.1582 12.1052 21.969 12.411 21.969C12.7255 21.969 12.8762 22.1621 12.8762 22.51V23.652H13.3418Z" fill="white"/>
</svg>