<svg width="32" height="32" viewBox="0 0 32 32" fill="none" xmlns="http://www.w3.org/2000/svg">
<path d="M15.8699 18.9919C17.4504 18.9919 18.7317 17.7106 18.7317 16.1301C18.7317 14.5496 17.4504 13.2683 15.8699 13.2683C14.2894 13.2683 13.0081 14.5496 13.0081 16.1301C13.0081 17.7106 14.2894 18.9919 15.8699 18.9919Z" fill="black"/>
<path d="M19.4471 9.10596H12.2927C11.252 9.10596 10.3415 9.43116 9.75609 10.0165C9.17072 10.6019 8.84552 11.5125 8.84552 12.5531V19.7076C8.84552 20.7482 9.17072 21.6588 9.82113 22.3092C10.4715 22.8946 11.3171 23.2198 12.3577 23.2198H19.4471C20.4878 23.2198 21.3984 22.8946 21.9837 22.3092C22.6341 21.7238 22.9593 20.8133 22.9593 19.7726V12.6182C22.9593 11.5775 22.6341 10.732 22.0488 10.0816C21.3984 9.43116 20.5528 9.10596 19.4471 9.10596ZM15.8699 20.5531C13.3984 20.5531 11.4471 18.5369 11.4471 16.1303C11.4471 13.6588 13.4634 11.7076 15.8699 11.7076C18.2764 11.7076 20.3577 13.6588 20.3577 16.1303C20.3577 18.6019 18.3415 20.5531 15.8699 20.5531ZM20.4878 12.5531C19.9024 12.5531 19.4471 12.0978 19.4471 11.5125C19.4471 10.9271 19.9024 10.4718 20.4878 10.4718C21.0732 10.4718 21.5284 10.9271 21.5284 11.5125C21.5284 12.0978 21.0732 12.5531 20.4878 12.5531Z" fill="black"/>
<path d="M16 0C7.15447 0 0 7.15447 0 16C0 24.8455 7.15447 32 16 32C24.8455 32 32 24.8455 32 16C32.065 7.15447 24.8455 0 16 0ZM24.5203 19.7724C24.5203 21.2683 24 22.5691 23.0894 23.4797C22.1789 24.3902 20.878 24.8455 19.4472 24.8455H12.3577C10.9268 24.8455 9.62602 24.3902 8.71545 23.4797C7.73984 22.5691 7.28455 21.2683 7.28455 19.7724V12.6179C7.28455 9.62602 9.30081 7.54471 12.3577 7.54471H19.5122C21.0081 7.54471 22.2439 8.06504 23.1545 8.97561C24.065 9.88618 24.5203 11.122 24.5203 12.6179V19.7724Z" fill="black"/>
</svg>
