<svg width="44" height="27" viewBox="0 0 44 27" fill="none" xmlns="http://www.w3.org/2000/svg">
<rect x="0.375" y="0.375" width="42.5627" height="25.5773" rx="1.125" stroke="white" stroke-width="0.75"/>
<path d="M17.9089 6.19214L13.4577 16.717H10.5534L8.36275 8.31724C8.2301 7.80108 8.11461 7.6111 7.71039 7.39293C7.04978 7.03727 5.95889 6.70464 5 6.49766L5.06469 6.19214H9.74019C10.3352 6.19214 10.871 6.5848 11.0071 7.26469L12.1647 13.3556L15.0222 6.19214H17.9089ZM21.835 6.19214L19.5634 16.717H16.8159L19.0875 6.19214H21.835ZM29.2878 13.2807C29.2993 10.5035 25.4131 10.3494 25.4385 9.10837C25.4478 8.7312 25.8104 8.32951 26.6041 8.22688C26.9972 8.17653 28.0833 8.13629 29.3136 8.69807L29.7949 6.46495C29.1338 6.22807 28.2833 6 27.2252 6C24.5091 6 22.5985 7.42972 22.5833 9.47866C22.5655 10.9942 23.948 11.8389 24.9876 12.3437C26.0585 12.8592 26.4176 13.1905 26.4126 13.6512C26.405 14.3573 25.5575 14.67 24.7694 14.6816C23.3876 14.7033 22.5866 14.3115 21.9477 14.0165L21.449 16.3237C22.0918 16.6156 23.2765 16.8693 24.5035 16.8822C27.3908 16.8822 29.2793 15.4688 29.2878 13.2807ZM36.4598 16.717H39L36.7807 6.19214H34.437C33.9083 6.19214 33.4642 6.49615 33.267 6.96369L29.1445 16.717H32.0296L32.6019 15.1448H36.1268L36.4598 16.717ZM33.393 12.9881L34.8397 9.03565L35.6707 12.9881H33.393ZM25.3512 19.614H24.2349V20.6438H25.4836V20.9534H23.8587V18.0965H25.4196V18.4061H24.2349V19.3087H25.3512V19.614ZM26.0603 17.9441H26.4365V20.9533H26.0603V17.9441ZM27.3856 19.9953C27.3941 20.4999 27.7149 20.7075 28.0953 20.7075C28.3649 20.7075 28.5316 20.6608 28.6686 20.6017L28.737 20.8687C28.6043 20.9278 28.3736 20.9999 28.044 20.9999C27.4071 20.9999 27.0265 20.5804 27.0265 19.9616C27.0265 19.3428 27.3941 18.8595 27.9971 18.8595C28.6771 18.8595 28.8525 19.4445 28.8525 19.8217C28.8525 19.8979 28.8481 19.953 28.8394 19.9953H27.3856ZM28.4888 19.7283C28.4932 19.4953 28.3905 19.1265 27.9672 19.1265C27.5823 19.1265 27.4197 19.4699 27.3897 19.7283H28.4888ZM30.8999 20.8812C30.8016 20.9279 30.5834 21 30.3056 21C29.6812 21 29.275 20.5804 29.275 19.953C29.275 19.3216 29.7109 18.8596 30.3867 18.8596C30.609 18.8596 30.8057 18.9145 30.9084 18.9698L30.8231 19.2538C30.733 19.2071 30.5919 19.1561 30.3867 19.1561C29.912 19.1561 29.6556 19.5079 29.6556 19.932C29.6556 20.4066 29.9634 20.699 30.3739 20.699C30.5878 20.699 30.7289 20.6482 30.8357 20.6015L30.8999 20.8812ZM31.9555 18.4103V18.9019H32.4941V19.1857H31.9555V20.292C31.9555 20.5466 32.0282 20.6905 32.2377 20.6905C32.3402 20.6905 32.4003 20.6821 32.4559 20.6649L32.4731 20.9491C32.4003 20.9745 32.2848 20.9999 32.1394 20.9999C31.964 20.9999 31.8229 20.9405 31.7332 20.8433C31.6305 20.7286 31.5878 20.5466 31.5878 20.305V19.1857H31.2669V18.9019H31.5878V18.5204L31.9555 18.4103ZM33.0198 19.542C33.0198 19.3003 33.0152 19.0927 33.0026 18.9019H33.332L33.3491 19.3087H33.3617C33.4559 19.0333 33.6867 18.8595 33.9389 18.8595C33.9776 18.8595 34.0075 18.8638 34.0418 18.8679V19.2199C34.0032 19.2113 33.965 19.2113 33.9133 19.2113C33.6485 19.2113 33.46 19.4062 33.4088 19.6861C33.4003 19.7369 33.396 19.8004 33.396 19.86V20.9534H33.0198V19.542ZM36.3548 19.9106C36.3548 20.6693 35.8201 21 35.3241 21C34.7681 21 34.3322 20.5929 34.3322 19.9446C34.3322 19.2622 34.7896 18.8596 35.3584 18.8596C35.9528 18.8596 36.3548 19.2875 36.3548 19.9106ZM34.7169 19.9319C34.7169 20.3812 34.9735 20.7203 35.3412 20.7203C35.7005 20.7203 35.9697 20.3853 35.9697 19.9233C35.9697 19.5759 35.7945 19.1391 35.3497 19.1391C34.9094 19.1391 34.7169 19.5462 34.7169 19.9319ZM36.9314 19.4571C36.9314 19.241 36.9269 19.0715 36.9143 18.902H37.2477L37.2692 19.241H37.2777C37.3804 19.0502 37.6198 18.8596 37.962 18.8596C38.2483 18.8596 38.6931 19.0291 38.6931 19.7325V20.9533H38.3169V19.7708C38.3169 19.4403 38.193 19.1647 37.838 19.1647C37.5942 19.1647 37.4017 19.3385 37.3335 19.5461C37.3161 19.5928 37.3077 19.6563 37.3077 19.72V20.9533H36.9314V19.4571Z" fill="white"/>
</svg>
