<svg xmlns="http://www.w3.org/2000/svg" fill="none" viewBox="4.48 3.94 52.97 41.24">
  <path d="M50.7481 17.7424H47.6852V16.1588C47.6852 14.8984 46.6535 13.8642 45.396 13.8642C44.1386 13.8642 43.1069 14.8984 43.1069 16.1588V17.7424H40.0439V16.1588C40.0439 13.1855 42.4621 10.7939 45.396 10.7939C48.3623 10.7939 50.7481 13.2178 50.7481 16.1588V17.7424Z" fill="white"/>
  <path d="M52.0057 17.7424H38.7866C38.2063 17.7424 37.7549 18.1949 37.7549 18.7766V28.569C37.7549 29.1508 38.2063 29.6032 38.7866 29.6032H52.0057C52.586 29.6032 53.0374 29.1508 53.0374 28.569V18.7766C53.0052 18.1949 52.5538 17.7424 52.0057 17.7424ZM46.041 24.1738V25.4988C46.041 25.8543 45.7508 26.1775 45.3639 26.1775C45.0092 26.1775 44.6868 25.8866 44.6868 25.4988V24.1738C44.2677 23.9475 44.0097 23.4951 44.0097 22.978C44.0097 22.2347 44.6223 21.6206 45.3639 21.6206C46.1055 21.6206 46.718 22.2347 46.718 22.978C46.7503 23.4951 46.4601 23.9475 46.041 24.1738Z" fill="white"/>
  <path d="M37.4325 16.2883H34.2405C33.7247 16.2883 33.3055 15.8681 33.3055 15.351C33.3055 14.834 33.7247 14.4138 34.2405 14.4138H37.4325C37.9483 14.4138 38.3675 14.834 38.3675 15.351C38.3675 15.8681 37.9483 16.2883 37.4325 16.2883Z" fill="white"/>
  <path d="M39.6894 11.2464C39.4959 11.2464 39.2702 11.1817 39.109 11.0201L36.5942 8.95177C36.2073 8.62859 36.1428 8.04686 36.4652 7.62673C36.7876 7.23891 37.368 7.17427 37.7871 7.49745L40.302 9.56582C40.6889 9.889 40.7534 10.4707 40.4309 10.8909C40.2053 11.1171 39.9473 11.2464 39.6894 11.2464Z" fill="white"/>
  <path d="M45.3961 9.0489C44.8802 9.0489 44.4611 8.62877 44.4611 8.11168V4.87986C44.4611 4.36276 44.8802 3.94263 45.3961 3.94263C45.9119 3.94263 46.3311 4.36276 46.3311 4.87986V8.11168C46.3311 8.62877 45.9119 9.0489 45.3961 9.0489Z" fill="white"/>
  <path d="M51.0706 11.2464C50.8127 11.2464 50.5225 11.1171 50.3613 10.8909C50.0389 10.503 50.1034 9.889 50.4902 9.56582L53.0051 7.49745C53.392 7.17427 54.0046 7.23891 54.327 7.62673C54.6494 8.01455 54.5849 8.62859 54.198 8.95177L51.6832 11.0201C51.4897 11.1817 51.2963 11.2464 51.0706 11.2464Z" fill="white"/>
  <path d="M56.5195 16.2883H53.2953C52.7794 16.2883 52.3603 15.8681 52.3603 15.351C52.3603 14.834 52.7794 14.4138 53.2953 14.4138H56.5195C57.0353 14.4138 57.4545 14.834 57.4545 15.351C57.4545 15.8681 57.0353 16.2883 56.5195 16.2883Z" fill="white"/>
  <path d="M4.48157 29.4739V19.0352H6.99641V27.2763H11.0266V29.4739H4.48157Z" fill="white"/>
  <path d="M19.3449 25.8865C19.3449 25.9835 19.3449 26.0804 19.3449 26.1774C19.3449 26.2743 19.3449 26.3713 19.3449 26.4682H14.0251C14.0573 26.6622 14.1218 26.8561 14.2185 27.0177C14.3152 27.1792 14.4442 27.3408 14.6054 27.4378C14.7666 27.5671 14.9601 27.664 15.1535 27.7287C15.347 27.7933 15.5727 27.8256 15.7661 27.8256C16.153 27.8256 16.4754 27.761 16.7334 27.5994C16.9913 27.4701 17.217 27.2762 17.3782 27.05L19.0548 28.1165C18.7001 28.6336 18.2487 28.9891 17.7006 29.2799C17.1525 29.5385 16.4754 29.7001 15.7339 29.7001C15.1858 29.7001 14.6699 29.6031 14.1863 29.4415C13.7027 29.2799 13.2835 29.0214 12.8966 28.6982C12.542 28.375 12.2518 27.9549 12.0261 27.4701C11.8004 26.9853 11.7037 26.4359 11.7037 25.8219C11.7037 25.2078 11.8004 24.6907 12.0261 24.206C12.2195 23.7212 12.5097 23.3011 12.8644 22.9779C13.219 22.6547 13.6382 22.3638 14.1218 22.2022C14.6054 22.0083 15.1213 21.9114 15.6694 21.9114C16.2175 21.9114 16.7011 22.0083 17.1525 22.1699C17.6039 22.3638 17.9908 22.6224 18.3132 22.9456C18.6356 23.3011 18.8935 23.7212 19.0548 24.206C19.2482 24.7231 19.3449 25.2725 19.3449 25.8865ZM17.1203 24.9816C17.1203 24.5938 16.9913 24.2706 16.7656 23.9797C16.5399 23.6889 16.153 23.5596 15.6694 23.5596C15.4437 23.5596 15.218 23.5919 15.0246 23.6566C14.8311 23.7212 14.6699 23.8181 14.5087 23.9474C14.3475 24.0767 14.2508 24.2383 14.154 24.3999C14.0573 24.5615 14.0251 24.7554 13.9928 24.9493H17.1203V24.9816Z" fill="white"/>
  <path d="M23.2139 23.9476V26.7593C23.2139 27.1148 23.2784 27.3734 23.4074 27.535C23.5363 27.6966 23.762 27.7935 24.1167 27.7935C24.2457 27.7935 24.3746 27.7935 24.5036 27.7612C24.6326 27.7289 24.7615 27.6966 24.826 27.6642L24.8582 29.4417C24.697 29.5064 24.4713 29.5387 24.2134 29.6033C23.9555 29.6356 23.6976 29.668 23.4396 29.668C22.956 29.668 22.5369 29.6033 22.2144 29.4741C21.892 29.3448 21.6019 29.1832 21.4084 28.957C21.215 28.7307 21.0537 28.4399 20.9893 28.1167C20.9248 27.7935 20.8603 27.438 20.8603 27.0502V23.9476H19.6674V22.1378H20.8281V20.1987H23.2139V22.1378H24.9227V23.9476H23.2139Z" fill="white"/>
  <path d="M32.7251 24.3031C32.5317 24.1092 32.306 23.9476 32.0481 23.8183C31.7901 23.689 31.5 23.6244 31.2098 23.6244C30.9841 23.6244 30.7906 23.6567 30.5972 23.7537C30.4037 23.8506 30.307 23.9799 30.307 24.2061C30.307 24.4 30.4037 24.5616 30.6294 24.6586C30.8551 24.7555 31.1775 24.8525 31.6612 24.9494C31.9513 25.0141 32.2093 25.0787 32.4994 25.208C32.7896 25.3373 33.0153 25.4665 33.241 25.6281C33.4667 25.7897 33.6601 26.0159 33.7891 26.2745C33.9181 26.533 33.9826 26.8239 33.9826 27.1794C33.9826 27.6319 33.8858 28.0197 33.6924 28.3429C33.4989 28.666 33.2732 28.9246 32.9508 29.1185C32.6606 29.3124 32.306 29.4417 31.9513 29.5386C31.5644 29.6356 31.2098 29.6679 30.8229 29.6679C30.2103 29.6679 29.6299 29.5709 29.0818 29.377C28.5015 29.1831 28.0179 28.8923 27.6632 28.5368L29.0174 27.1148C29.243 27.341 29.501 27.5349 29.8234 27.6965C30.1458 27.8581 30.4682 27.9227 30.8229 27.9227C31.0163 27.9227 31.2098 27.8904 31.4032 27.7934C31.5967 27.6965 31.6934 27.5349 31.6934 27.3087C31.6934 27.0824 31.5644 26.9209 31.3387 26.7916C31.1131 26.6946 30.7262 26.5654 30.2425 26.4684C29.9846 26.4038 29.7267 26.3391 29.4687 26.2422C29.2108 26.1452 28.9851 26.0159 28.7917 25.8544C28.5982 25.6928 28.437 25.4665 28.308 25.2403C28.1791 24.9818 28.1146 24.6909 28.1146 24.3677C28.1146 23.9153 28.2113 23.5598 28.4048 23.2366C28.5982 22.9134 28.8239 22.6872 29.1141 22.4933C29.4043 22.2993 29.7267 22.1378 30.0813 22.0731C30.436 21.9762 30.7906 21.9438 31.1453 21.9438C31.6934 21.9438 32.2415 22.0408 32.7574 22.2024C33.2732 22.364 33.7246 22.6225 34.0793 22.978L32.7251 24.3031Z" fill="white"/>
  <path d="M4.48157 41.5609V31.1221H11.478V33.2551H6.89968V35.2265H11.2201V37.2302H6.89968V39.3955H11.7359V41.5609H4.48157Z" fill="white"/>
  <path d="M18.0875 41.5608V37.5534C18.0875 37.3594 18.0553 37.1655 18.023 36.9716C17.9908 36.7777 17.9263 36.6161 17.8618 36.4869C17.7974 36.3576 17.6684 36.2283 17.5394 36.1637C17.4105 36.0667 17.217 36.0344 16.9913 36.0344C16.7656 36.0344 16.5722 36.0667 16.411 36.1637C16.2498 36.2606 16.1208 36.3576 15.9918 36.5192C15.8951 36.6808 15.7984 36.8424 15.7339 37.0363C15.6694 37.2302 15.6372 37.4241 15.6372 37.618V41.5931H13.2191V34.2569H15.5404V35.2588H15.5727C15.6694 35.0972 15.7661 34.9356 15.9273 34.8063C16.0563 34.6447 16.2498 34.5154 16.411 34.4185C16.6044 34.3215 16.7979 34.2246 17.0236 34.1599C17.2492 34.0953 17.4749 34.063 17.7329 34.063C18.2165 34.063 18.6356 34.1599 18.9903 34.3215C19.3449 34.4831 19.6029 34.7417 19.8286 35.0002C20.0543 35.2911 20.1832 35.6143 20.28 35.9698C20.3767 36.3253 20.4089 36.6808 20.4089 37.0686V41.5931H18.0875V41.5608Z" fill="white"/>
  <path d="M26.7282 36.584C26.5992 36.4224 26.4058 36.2608 26.1801 36.1639C25.9544 36.0669 25.6965 36.0023 25.4708 36.0023C25.2128 36.0023 24.9872 36.0669 24.7937 36.1639C24.6003 36.2608 24.4068 36.3901 24.2778 36.584C24.1489 36.7779 24.0199 36.9395 23.9232 37.1657C23.8265 37.3919 23.7942 37.6182 23.7942 37.8767C23.7942 38.1353 23.8265 38.3615 23.9232 38.5877C23.9877 38.814 24.1166 39.0079 24.2778 39.1694C24.439 39.331 24.6003 39.4926 24.8259 39.5896C25.0516 39.6865 25.2773 39.7512 25.5353 39.7512C25.7932 39.7512 26.0189 39.7189 26.2768 39.6219C26.5025 39.525 26.696 39.3957 26.8572 39.2018L28.1791 40.85C27.8889 41.1409 27.4698 41.3671 27.0184 41.5287C26.5347 41.6903 26.0189 41.7872 25.503 41.7872C24.9227 41.7872 24.3746 41.6903 23.8909 41.5287C23.3751 41.3671 22.9559 41.1085 22.569 40.753C22.2144 40.4299 21.9242 40.0097 21.6985 39.525C21.4728 39.0402 21.3761 38.4908 21.3761 37.8767C21.3761 37.2627 21.4728 36.7456 21.6985 36.2608C21.9242 35.776 22.2144 35.3559 22.569 35.0327C22.9237 34.7095 23.3751 34.4187 23.8909 34.2571C24.4068 34.0632 24.9227 33.9985 25.503 33.9985C25.7609 33.9985 26.0189 34.0309 26.2768 34.0632C26.5347 34.1278 26.7927 34.1924 27.0184 34.2571C27.2441 34.354 27.4698 34.451 27.6954 34.5803C27.8889 34.7095 28.0823 34.8388 28.2113 35.0004L26.7282 36.584Z" fill="white"/>
  <path d="M33.7569 36.2284C33.6602 36.1961 33.5312 36.1638 33.4345 36.1638C33.3378 36.1638 33.241 36.1638 33.1443 36.1638C32.8219 36.1638 32.564 36.2284 32.3383 36.3254C32.1126 36.4546 31.9514 36.5839 31.8224 36.7455C31.6934 36.9071 31.5967 37.101 31.5322 37.2949C31.4677 37.4888 31.4355 37.6504 31.4355 37.812V41.5609H29.0174V34.2247H31.3388V35.2912H31.371C31.5645 34.9034 31.8224 34.6125 32.1771 34.3863C32.5317 34.16 32.9186 34.0308 33.37 34.0308C33.4667 34.0308 33.5634 34.0308 33.6602 34.0308C33.7569 34.0308 33.8214 34.0631 33.8859 34.0631L33.7569 36.2284Z" fill="white"/>
  <path d="M39.4314 42.6597C39.2702 43.0475 39.109 43.3707 38.9478 43.6938C38.7544 43.9847 38.5609 44.2432 38.303 44.4695C38.0451 44.6957 37.7549 44.825 37.4325 44.9542C37.1101 45.0512 36.6909 45.1158 36.2395 45.1158C36.0138 45.1158 35.7881 45.1158 35.5302 45.0835C35.3045 45.0512 35.0788 45.0189 34.9176 44.9542L35.1756 42.9182C35.3045 42.9505 35.4335 42.9828 35.5625 43.0152C35.6914 43.0475 35.8204 43.0475 35.9494 43.0475C36.3363 43.0475 36.5942 42.9505 36.7554 42.7889C36.9166 42.6273 37.0778 42.3688 37.1745 42.0456L37.4002 41.4316L34.3373 34.2246H37.0133L38.6576 38.9431H38.6899L40.1408 34.2246H42.6878L39.4314 42.6597Z" fill="white"/>
  <path d="M51.4898 37.8768C51.4898 38.3939 51.4253 38.8787 51.2641 39.3635C51.1029 39.8483 50.8772 40.2361 50.587 40.6239C50.2968 40.9794 49.9099 41.2702 49.4908 41.4965C49.0716 41.7227 48.5558 41.8197 48.0077 41.8197C47.5563 41.8197 47.1371 41.7227 46.718 41.5611C46.3311 41.3672 46.0087 41.141 45.783 40.8178H45.7508V45.1808H43.3326V34.3218H45.6218V35.2267H45.654C45.8797 34.9359 46.2021 34.6773 46.589 34.4511C46.9759 34.2249 47.4596 34.1279 48.0077 34.1279C48.5235 34.1279 49.0072 34.2249 49.4585 34.4511C49.8777 34.645 50.2646 34.9359 50.5548 35.2914C50.8449 35.6469 51.0706 36.067 51.2318 36.5195C51.393 36.875 51.4898 37.3597 51.4898 37.8768ZM49.1361 37.8768C49.1361 37.6506 49.1039 37.4244 49.0394 37.1982C48.9749 36.9719 48.846 36.778 48.717 36.6164C48.588 36.4548 48.3946 36.2932 48.1689 36.1963C47.9432 36.0993 47.7175 36.0347 47.4273 36.0347C47.1371 36.0347 46.9115 36.0993 46.6858 36.1963C46.4601 36.2932 46.2989 36.4548 46.1377 36.6164C45.9765 36.778 45.8797 37.0042 45.783 37.2305C45.6863 37.4567 45.654 37.6829 45.654 37.9092C45.654 38.1354 45.6863 38.3616 45.783 38.5878C45.8797 38.8141 45.9765 39.008 46.1377 39.2019C46.2989 39.3635 46.4601 39.5251 46.6858 39.622C46.9115 39.719 47.1371 39.7836 47.4273 39.7836C47.7175 39.7836 47.9754 39.719 48.1689 39.622C48.3946 39.5251 48.5558 39.3635 48.717 39.2019C48.846 39.0403 48.9749 38.8141 49.0394 38.5878C49.1039 38.3293 49.1361 38.1031 49.1361 37.8768Z" fill="white"/>
  <path d="M55.3265 36.0346V38.8462C55.3265 39.2017 55.3909 39.4603 55.5199 39.6219C55.6489 39.7835 55.8746 39.8804 56.2292 39.8804C56.3582 39.8804 56.4872 39.8804 56.6161 39.8481C56.7451 39.8158 56.8741 39.7835 56.9385 39.7512L56.9708 41.5287C56.8096 41.5933 56.5839 41.6256 56.326 41.6902C56.068 41.7226 55.8101 41.7549 55.5522 41.7549C55.0685 41.7549 54.6494 41.6902 54.327 41.561C54.0046 41.4317 53.7144 41.2701 53.5209 41.0439C53.3275 40.8177 53.1663 40.5268 53.1018 40.2036C53.0373 39.8804 52.9728 39.5249 52.9728 39.1371V36.0346H51.8121V34.2247H52.9728V32.2856H55.3265V34.2247H57.0353V36.0346H55.3265Z" fill="white"/>
  <path d="M27.1473 18.8413C26.438 18.8413 25.8577 19.3584 25.8577 20.0371C25.8577 20.7481 26.3413 21.2005 27.0506 21.2005C27.1151 21.2005 27.1796 21.2005 27.2118 21.1682C27.0828 21.6853 26.5992 22.0731 26.1156 22.1378H26.0189V23.2689H26.1478C26.7282 23.2043 27.2763 22.9457 27.6954 22.5579C28.2435 22.0408 28.5337 21.2652 28.5337 20.3603C28.5337 19.4877 27.9534 18.8413 27.1473 18.8413Z" fill="white"/>
</svg>