<svg width="43" height="27" viewBox="0 0 43 27" fill="none" xmlns="http://www.w3.org/2000/svg">
<path d="M42.2489 25.2191C42.2489 25.795 41.7848 26.2649 41.2031 26.2649H1.4208C0.844936 26.2649 0.375 25.8008 0.375 25.2191V1.4208C0.375 0.844936 0.839111 0.375 1.4208 0.375H41.2031C41.779 0.375 42.2489 0.839111 42.2489 1.4208V25.2191Z" stroke="white" stroke-width="0.75"/>
<path d="M32.4394 9.53059L31.3675 6.97852H30.2242L29.1523 9.53059L28.6419 10.725H27.815C27.5097 10.7477 27.2052 10.6707 26.9473 10.5055C26.8208 10.3772 26.7212 10.2248 26.6546 10.0573C26.588 9.88989 26.5556 9.71077 26.5594 9.53059C26.5594 9.4234 26.5594 9.31111 26.5594 9.18861C26.5234 8.82903 26.6137 8.46812 26.8146 8.16778C26.9425 8.04661 27.0945 7.95393 27.2608 7.89586C27.4271 7.83779 27.6038 7.81565 27.7793 7.83091H29.2391V6.99893H27.667C27.2772 6.98648 26.8888 7.05065 26.5237 7.18779C26.2323 7.31097 25.9863 7.52137 25.8193 7.79008C25.5611 8.2412 25.4355 8.75604 25.4569 9.27538C25.4569 9.36215 25.4569 9.44892 25.4569 9.53059C25.4726 9.88176 25.5504 10.2274 25.6866 10.5514C25.7974 10.7969 25.9682 11.0106 26.1831 11.1729C26.398 11.3352 26.6503 11.441 26.9167 11.4804C27.1497 11.516 27.3854 11.5314 27.6211 11.5263H29.4688L29.918 10.5055H31.684L32.1332 11.5518H33.2969L32.4394 9.53059ZM30.1323 9.67351L30.1936 9.53059L30.7959 8.09122L31.3982 9.53059L31.4594 9.67351H30.1323Z" fill="white"/>
<path d="M33.2916 11.7209H32.1278C32.0904 11.7214 32.0537 11.7104 32.0227 11.6894C31.9916 11.6684 31.9678 11.6385 31.9543 11.6035L31.5561 10.6746H30.0249L29.6217 11.6035C29.6076 11.6381 29.5836 11.6676 29.5527 11.6885C29.5218 11.7094 29.4854 11.7207 29.4481 11.7209H27.6157C27.368 11.7271 27.1202 11.71 26.8756 11.6699C26.583 11.6259 26.306 11.5095 26.0698 11.3312C25.8335 11.1529 25.6456 10.9184 25.523 10.6491C25.3698 10.3046 25.2849 9.93363 25.2729 9.55678C25.2729 9.47512 25.2729 9.38324 25.2729 9.29137C25.2502 8.73495 25.3884 8.18378 25.6711 7.70397C25.852 7.39947 26.1231 7.15869 26.4469 7.01491C26.8354 6.8646 27.2505 6.79513 27.6668 6.81075H29.2389C29.2641 6.81074 29.2891 6.81579 29.3123 6.8256C29.3356 6.8354 29.3566 6.84977 29.3742 6.86785C29.3918 6.88593 29.4056 6.90736 29.4148 6.93087C29.424 6.95437 29.4284 6.97948 29.4277 7.00471V7.83158C29.4284 7.8568 29.424 7.88191 29.4148 7.90542C29.4056 7.92892 29.3918 7.95035 29.3742 7.96843C29.3566 7.98651 29.3356 8.00088 29.3123 8.01069C29.2891 8.0205 29.2641 8.02555 29.2389 8.02554H27.7791C27.6285 8.01222 27.4768 8.0303 27.3336 8.07862C27.1904 8.12694 27.0588 8.20446 26.9471 8.30626C26.7719 8.57474 26.6977 8.89673 26.7378 9.2148C26.7324 9.32362 26.7324 9.43265 26.7378 9.54147C26.7312 9.69472 26.7553 9.84775 26.8088 9.99152C26.8623 10.1353 26.944 10.2669 27.0492 10.3785C27.2738 10.5167 27.5367 10.5793 27.7995 10.5572H28.5039L30.0351 6.95366C30.0457 6.91098 30.0709 6.87335 30.1063 6.84726C30.1417 6.82117 30.1852 6.80826 30.2291 6.81075H31.3673C31.4046 6.811 31.4409 6.82228 31.4718 6.84317C31.5027 6.86406 31.5267 6.89363 31.5408 6.92814L32.6178 9.4547L33.4651 11.4555C33.4803 11.4828 33.4883 11.5136 33.4883 11.5448C33.4883 11.5761 33.4803 11.6069 33.4651 11.6342C33.4467 11.663 33.4209 11.6863 33.3903 11.7015C33.3598 11.7168 33.3256 11.7235 33.2916 11.7209ZM32.2707 11.3381H33.0159L31.2397 7.19356H30.3516L28.8203 10.7971C28.8062 10.8316 28.7822 10.8612 28.7513 10.8821C28.7204 10.903 28.6841 10.9142 28.6468 10.9145H27.8148C27.4663 10.9427 27.1187 10.8509 26.8297 10.6542C26.6826 10.51 26.566 10.3375 26.4871 10.1472C26.4082 9.95689 26.3684 9.7526 26.3703 9.54657C26.3703 9.43428 26.3703 9.31689 26.3703 9.18928C26.3299 8.77722 26.4385 8.36432 26.6766 8.02554C26.8228 7.88144 26.9983 7.77041 27.1911 7.69996C27.384 7.62952 27.5897 7.6013 27.7944 7.6172H29.0602V7.19356H27.6821C27.3184 7.17906 26.9556 7.23809 26.6153 7.3671C26.3625 7.47068 26.1471 7.64869 25.9977 7.87752C25.7565 8.2973 25.6397 8.77705 25.6608 9.26074C25.6608 9.34751 25.6608 9.42407 25.6608 9.50574C25.6752 9.83957 25.755 10.1673 25.8956 10.4704C25.9913 10.6876 26.1402 10.8771 26.3284 11.0216C26.5166 11.1661 26.7381 11.2609 26.9726 11.2973C27.1941 11.3284 27.4177 11.342 27.6413 11.3381H29.3614L29.7391 10.3837C29.7528 10.3493 29.7769 10.32 29.8079 10.2999C29.839 10.2797 29.8756 10.2698 29.9126 10.2714H31.6786C31.716 10.2715 31.7525 10.282 31.7841 10.3019C31.8157 10.3217 31.841 10.3501 31.8573 10.3837L32.2707 11.3381ZM31.4592 9.87324H30.1321C30.101 9.87174 30.0707 9.86257 30.044 9.84654C30.0173 9.83051 29.9949 9.80812 29.979 9.78136C29.9638 9.75405 29.9558 9.7233 29.9558 9.69204C29.9558 9.66078 29.9638 9.63004 29.979 9.60272L30.6425 8.01533C30.6566 7.98081 30.6806 7.95125 30.7115 7.93036C30.7424 7.90947 30.7788 7.89818 30.816 7.89793C30.854 7.89785 30.8912 7.90893 30.923 7.9298C30.9548 7.95067 30.9797 7.98041 30.9947 8.01533L31.6531 9.60272C31.6683 9.63004 31.6763 9.66078 31.6763 9.69204C31.6763 9.7233 31.6683 9.75405 31.6531 9.78136C31.6339 9.81455 31.6051 9.84112 31.5705 9.85753C31.5358 9.87394 31.497 9.87942 31.4592 9.87324ZM30.4383 9.49043H31.1886L30.7956 8.58699L30.4383 9.49043Z" fill="white"/>
<path d="M27.7023 18.5192C27.674 18.4109 27.6329 18.3064 27.5798 18.2078C27.5165 18.0865 27.4277 17.9803 27.3195 17.8965C27.1923 17.8081 27.0507 17.7425 26.901 17.7025C27.112 17.6412 27.3048 17.5291 27.4624 17.3759C27.5835 17.2413 27.6765 17.084 27.7361 16.9131C27.7957 16.7422 27.8206 16.5612 27.8095 16.3806C27.8109 16.1739 27.76 15.9702 27.6615 15.7885C27.5605 15.6125 27.4165 15.4649 27.2429 15.3597C26.8055 15.1656 26.3267 15.0831 25.8495 15.1198H23.5322V19.6472H24.5531V17.9271H25.3646C25.6389 17.9075 25.9139 17.9548 26.166 18.0649C26.3094 18.1369 26.4258 18.2533 26.4977 18.3967C26.5857 18.588 26.6377 18.7939 26.6509 19.0041C26.6672 19.2209 26.7013 19.436 26.7529 19.6472H27.8912C27.8224 19.4253 27.783 19.1954 27.7738 18.9633C27.7619 18.8136 27.738 18.6651 27.7023 18.5192ZM26.4671 17.0186C26.3096 17.099 26.133 17.1343 25.9567 17.1207H24.5428V15.9263H25.9618C26.0925 15.9185 26.2235 15.9323 26.3497 15.9671C26.4544 16.0035 26.5444 16.073 26.6061 16.1651C26.6678 16.2572 26.6978 16.3669 26.6917 16.4775C26.7049 16.5795 26.6911 16.6831 26.6517 16.7781C26.6123 16.873 26.5486 16.956 26.4671 17.0186Z" fill="white"/>
<path d="M27.881 19.8365H26.7428C26.7034 19.8365 26.6651 19.8242 26.633 19.8014C26.601 19.7785 26.5769 19.7462 26.5642 19.7089C26.5056 19.4849 26.468 19.256 26.4519 19.025C26.4404 18.8381 26.3955 18.6549 26.3192 18.4839C26.2627 18.3757 26.1734 18.2881 26.064 18.2338C25.839 18.143 25.5967 18.1029 25.3545 18.1164H24.7318V19.6477C24.7318 19.6978 24.7119 19.7458 24.6765 19.7812C24.641 19.8166 24.593 19.8365 24.5429 19.8365H23.5221C23.4715 19.8366 23.4229 19.8168 23.3867 19.7816C23.3505 19.7463 23.3295 19.6982 23.3281 19.6477V15.1203C23.3281 15.0689 23.3486 15.0195 23.3849 14.9832C23.4213 14.9468 23.4706 14.9264 23.5221 14.9264H25.8394C26.3528 14.8881 26.8674 14.9812 27.3349 15.1969C27.538 15.3222 27.7051 15.498 27.8198 15.7073C27.9321 15.9177 27.99 16.1528 27.9882 16.3912C28.0037 16.5973 27.9773 16.8044 27.9107 17C27.844 17.1956 27.7384 17.3757 27.6003 17.5295C27.529 17.6006 27.4503 17.6639 27.3655 17.7183L27.437 17.7643C27.567 17.8639 27.6734 17.9912 27.7483 18.1369C27.8103 18.2497 27.8583 18.3697 27.8912 18.4942C27.9231 18.6507 27.9435 18.8093 27.9525 18.9688C27.9649 19.1731 28.0009 19.3752 28.0597 19.5711C28.0735 19.598 28.0808 19.6277 28.0808 19.6579C28.0808 19.6881 28.0735 19.7179 28.0597 19.7447C28.0403 19.7741 28.0137 19.798 27.9824 19.8141C27.9511 19.8302 27.9162 19.8379 27.881 19.8365ZM26.9163 19.4537H27.6309C27.6309 19.3261 27.5901 19.1679 27.5748 18.979C27.5653 18.8401 27.5466 18.702 27.5186 18.5656C27.4955 18.4725 27.4595 18.3832 27.4114 18.3002C27.3611 18.2038 27.2916 18.1187 27.2073 18.0501C27.0973 17.9732 26.9746 17.9162 26.8449 17.8817C26.8057 17.8707 26.7712 17.8474 26.7464 17.8152C26.7215 17.783 26.7078 17.7437 26.7071 17.703C26.7071 17.6623 26.72 17.6227 26.7438 17.5897C26.7676 17.5568 26.8012 17.5321 26.8398 17.5193C27.0879 17.4607 27.305 17.3114 27.4486 17.1007C27.5922 16.8901 27.6518 16.6334 27.6156 16.381C27.62 16.2031 27.5777 16.0272 27.4931 15.8706C27.4087 15.7247 27.2895 15.6019 27.146 15.5133C26.7389 15.3337 26.2929 15.26 25.8496 15.299H23.7211V19.4435H24.3643V17.9123C24.3643 17.8868 24.3693 17.8616 24.379 17.8381C24.3888 17.8145 24.4031 17.7931 24.4211 17.7751C24.4391 17.7571 24.4605 17.7428 24.484 17.7331C24.5075 17.7233 24.5328 17.7183 24.5582 17.7183H25.3698C25.6747 17.6997 25.9796 17.7558 26.2579 17.8817C26.4365 17.9691 26.5816 18.1125 26.6713 18.29C26.7716 18.5033 26.8305 18.7336 26.8449 18.9688C26.8551 19.2138 26.8755 19.3619 26.9163 19.4537ZM25.9823 17.31H24.5429C24.495 17.3062 24.4503 17.2848 24.4173 17.2499C24.3843 17.215 24.3654 17.1691 24.3643 17.1211V15.9268C24.3643 15.9013 24.3693 15.8761 24.379 15.8525C24.3888 15.829 24.4031 15.8076 24.4211 15.7896C24.4391 15.7716 24.4605 15.7573 24.484 15.7476C24.5075 15.7378 24.5328 15.7328 24.5582 15.7328H25.9772C26.1287 15.7261 26.2802 15.7433 26.4263 15.7839C26.5741 15.8325 26.7012 15.9295 26.7873 16.059C26.8734 16.1886 26.9134 16.3434 26.901 16.4984C26.9114 16.6288 26.8882 16.7596 26.8337 16.8784C26.7792 16.9972 26.6952 17.1001 26.5897 17.1773C26.3984 17.2834 26.1797 17.3296 25.9619 17.31H25.9823ZM24.7573 16.9272H25.9874C26.1236 16.9403 26.2609 16.9174 26.3855 16.8608C26.4212 16.8353 26.5284 16.7638 26.5284 16.4984C26.5284 16.233 26.4212 16.182 26.3141 16.1462C26.2072 16.1206 26.0972 16.1103 25.9874 16.1156H24.7318L24.7573 16.9272Z" fill="white"/>
<path d="M29.5147 17.7376H31.9494V16.8801H29.5147V15.9664H32.3067V15.1191H28.4429V19.6465H32.3935V18.7737H29.5147V17.7376Z" fill="white"/>
<path d="M32.3932 19.8348H28.4476C28.398 19.8335 28.3507 19.8132 28.3155 19.778C28.2804 19.7429 28.2601 19.6956 28.2588 19.6459V15.1185C28.2588 15.0685 28.2787 15.0204 28.3141 14.985C28.3495 14.9496 28.3976 14.9297 28.4476 14.9297H32.3115C32.3616 14.9297 32.4096 14.9496 32.445 14.985C32.4804 15.0204 32.5003 15.0685 32.5003 15.1185V15.9658C32.5003 16.0159 32.4804 16.064 32.445 16.0994C32.4096 16.1348 32.3616 16.1547 32.3115 16.1547H29.7084V16.6906H31.9491C31.9743 16.6899 31.9994 16.6943 32.0229 16.7035C32.0464 16.7127 32.0679 16.7265 32.0859 16.7441C32.104 16.7617 32.1184 16.7828 32.1282 16.806C32.138 16.8293 32.1431 16.8542 32.143 16.8795V17.7421C32.1417 17.7926 32.1207 17.8407 32.0845 17.8759C32.0482 17.9112 31.9997 17.9309 31.9491 17.9309H29.7084V18.5792H32.3932C32.4446 18.5792 32.4939 18.5996 32.5303 18.636C32.5667 18.6723 32.5871 18.7217 32.5871 18.7731V19.6459C32.5858 19.6965 32.5648 19.7445 32.5285 19.7798C32.4923 19.8151 32.4437 19.8348 32.3932 19.8348ZM28.6365 19.452H32.2094V18.9416H29.5144C29.4896 18.9416 29.4651 18.9367 29.4421 18.9272C29.4192 18.9177 29.3984 18.9038 29.3809 18.8862C29.3633 18.8687 29.3494 18.8479 29.3399 18.825C29.3304 18.8021 29.3256 18.7775 29.3256 18.7527V17.7319C29.3249 17.7066 29.3293 17.6815 29.3384 17.658C29.3476 17.6345 29.3614 17.6131 29.379 17.595C29.3966 17.5769 29.4177 17.5626 29.4409 17.5528C29.4642 17.5429 29.4892 17.5379 29.5144 17.5379H31.7602V17.0632H29.5144C29.4892 17.0632 29.4642 17.0582 29.4409 17.0484C29.4177 17.0386 29.3966 17.0242 29.379 17.0061C29.3614 16.988 29.3476 16.9666 29.3384 16.9431C29.3293 16.9196 29.3249 16.8945 29.3256 16.8693V15.9658C29.3249 15.9406 29.3293 15.9155 29.3384 15.892C29.3476 15.8685 29.3614 15.8471 29.379 15.829C29.3966 15.8109 29.4177 15.7965 29.4409 15.7867C29.4642 15.7769 29.4892 15.7719 29.5144 15.7719H32.1124V15.3125H28.6365V19.452Z" fill="white"/>
<path d="M41.4174 17.6046C41.3606 17.466 41.274 17.3415 41.1638 17.2401C41.0535 17.1386 40.9223 17.0627 40.7793 17.0177C40.5173 16.9433 40.2451 16.9106 39.9729 16.9207H39.2736C39.087 16.9333 38.8996 16.909 38.7224 16.8492C38.6401 16.8113 38.5717 16.7486 38.5268 16.6699C38.482 16.5912 38.4629 16.5004 38.4723 16.4103C38.4723 16.1551 38.5692 15.9968 38.7683 15.9509C38.962 15.9164 39.1587 15.9027 39.3553 15.9101H41.3102V15.1189H39.1664C38.9709 15.1088 38.775 15.1088 38.5795 15.1189C38.415 15.126 38.2541 15.1695 38.1085 15.2463C37.9628 15.3231 37.8361 15.4313 37.7373 15.563C37.5604 15.8196 37.466 16.1241 37.4667 16.4358C37.4565 16.634 37.4878 16.8322 37.5586 17.0177C37.6298 17.1887 37.7399 17.3408 37.8802 17.4617C38.1957 17.6728 38.5738 17.7701 38.9521 17.7374H39.7636C39.9383 17.7237 40.1137 17.7535 40.274 17.8241C40.3611 17.8702 40.433 17.9405 40.481 18.0266C40.529 18.1126 40.5511 18.2107 40.5446 18.309C40.5493 18.394 40.5303 18.4786 40.4897 18.5534C40.4492 18.6282 40.3886 18.6902 40.3149 18.7327C40.1118 18.818 39.8912 18.853 39.6717 18.8347H37.6352V19.6412H39.8351C40.0877 19.6468 40.3404 19.6315 40.5905 19.5953C40.7552 19.5765 40.9128 19.5178 41.0498 19.4245C41.1867 19.3311 41.2989 19.2058 41.3765 19.0593C41.5011 18.8328 41.5645 18.5777 41.5603 18.3192C41.5617 18.0738 41.513 17.8307 41.4174 17.6046Z" fill="white"/>
<path d="M39.8505 19.8357H37.6353C37.5856 19.8344 37.5383 19.8141 37.5031 19.779C37.468 19.7438 37.4477 19.6965 37.4464 19.6469V18.8404C37.4464 18.7898 37.4661 18.7413 37.5014 18.705C37.5367 18.6688 37.5847 18.6478 37.6353 18.6464H39.6769C39.8498 18.66 40.0236 18.6374 40.1873 18.5801C40.233 18.5533 40.2701 18.5142 40.2945 18.4673C40.3189 18.4203 40.3295 18.3674 40.3251 18.3147C40.3324 18.2511 40.3201 18.1868 40.2901 18.1303C40.26 18.0738 40.2135 18.0277 40.1567 17.9982C40.0311 17.9453 39.8943 17.9243 39.7586 17.937H38.9521C38.5279 17.973 38.1046 17.8573 37.7578 17.6103C37.595 17.472 37.4673 17.2971 37.3852 17.0999C37.2977 16.8968 37.2525 16.6779 37.2524 16.4568C37.2523 16.1105 37.3573 15.7723 37.5536 15.487C37.6702 15.336 37.8182 15.2121 37.9875 15.124C38.1567 15.0359 38.343 14.9856 38.5336 14.9766C38.6714 14.9766 38.8756 14.9766 39.141 14.9766H41.3102C41.3617 14.9766 41.411 14.997 41.4474 15.0334C41.4838 15.0697 41.5042 15.1191 41.5042 15.1705V15.977C41.5029 16.0275 41.4818 16.0756 41.4456 16.1108C41.4094 16.1461 41.3608 16.1658 41.3102 16.1658H39.3554C39.1743 16.1617 38.9932 16.1737 38.8143 16.2016C38.7633 16.2016 38.6663 16.2424 38.6663 16.4772C38.6663 16.712 38.7326 16.712 38.799 16.7426C38.9525 16.7902 39.1134 16.8093 39.2737 16.7987H39.973C40.2678 16.7865 40.5626 16.8227 40.8458 16.9059C41.0069 16.9526 41.1567 17.0319 41.2858 17.1391C41.4149 17.2462 41.5206 17.3788 41.5961 17.5286C41.6986 17.7762 41.7507 18.0417 41.7492 18.3096C41.7544 18.5999 41.6841 18.8866 41.545 19.1415C41.4561 19.3141 41.3273 19.4629 41.1692 19.5757C41.0112 19.6884 40.8286 19.7618 40.6365 19.7898C40.3761 19.8259 40.1133 19.8413 39.8505 19.8357ZM37.8445 19.4529H39.8505C40.0911 19.46 40.3319 19.4463 40.5701 19.4121C40.7051 19.3929 40.8334 19.3416 40.9444 19.2626C41.0554 19.1835 41.1459 19.079 41.2082 18.9578C41.3159 18.759 41.3704 18.5357 41.3664 18.3096C41.3677 18.0942 41.3261 17.8808 41.2439 17.6818C41.1973 17.5721 41.1275 17.4739 41.0395 17.3937C40.9514 17.3136 40.847 17.2534 40.7335 17.2173C40.4912 17.1495 40.2397 17.1202 39.9883 17.1305H39.2737C39.0625 17.1338 38.8526 17.0956 38.6561 17.0182C38.5413 16.9646 38.4456 16.8772 38.3817 16.7678C38.3179 16.6584 38.289 16.532 38.2988 16.4057C38.2805 16.2628 38.315 16.118 38.3958 15.9987C38.4767 15.8794 38.5982 15.7936 38.7378 15.7575C38.945 15.7213 39.1553 15.7059 39.3656 15.7116H41.1367V15.2879H39.1665C38.9164 15.2879 38.7275 15.2879 38.5999 15.2879C38.4629 15.292 38.3286 15.3266 38.2067 15.3893C38.0848 15.452 37.9785 15.5412 37.8956 15.6503C37.7247 15.8843 37.6334 16.167 37.6353 16.4568C37.6322 16.6323 37.667 16.8064 37.7373 16.9672C37.7943 17.1111 37.8854 17.2389 38.0028 17.3398C38.2831 17.5241 38.6181 17.607 38.9521 17.5746H39.7637C39.9657 17.5617 40.1677 17.6003 40.3507 17.6869C40.461 17.7491 40.5518 17.8408 40.6131 17.9516C40.6744 18.0625 40.7037 18.1882 40.6977 18.3147C40.7032 18.4326 40.6761 18.5498 40.6193 18.6533C40.5626 18.7568 40.4785 18.8428 40.3762 18.9017C40.1447 19.0076 39.8897 19.0515 39.6361 19.0293H37.8445V19.4529Z" fill="white"/>
<path d="M36.2827 17.0178C36.0207 16.9431 35.7485 16.9104 35.4763 16.9208H34.777C34.5903 16.9334 34.403 16.9091 34.2257 16.8493C34.1434 16.8114 34.0751 16.7487 34.0302 16.67C33.9854 16.5913 33.9663 16.5005 33.9756 16.4104C33.9756 16.1552 34.0777 15.9969 34.2717 15.951C34.4653 15.9165 34.6621 15.9028 34.8587 15.9102H36.8187V15.119H34.6443C34.4505 15.1088 34.2562 15.1088 34.0624 15.119C33.8971 15.1254 33.7352 15.1685 33.5886 15.2454C33.442 15.3222 33.3144 15.4307 33.2151 15.5631C33.04 15.8203 32.9474 16.1248 32.9497 16.4359C32.9393 16.6341 32.9706 16.8324 33.0416 17.0178C33.1127 17.1888 33.2228 17.3409 33.3631 17.4618C33.6787 17.6729 34.0568 17.7702 34.435 17.7375H35.2466C35.4213 17.7238 35.5966 17.7536 35.757 17.8242C35.8441 17.8703 35.916 17.9406 35.964 18.0267C36.012 18.1127 36.034 18.2108 36.0275 18.3091C36.0322 18.3941 36.0132 18.4787 35.9727 18.5535C35.9321 18.6283 35.8716 18.6903 35.7978 18.7328C35.5948 18.8181 35.3742 18.8531 35.1547 18.8348H33.1539V19.6413H35.3589C35.608 19.6482 35.8572 19.6345 36.1041 19.6005C36.2674 19.5796 36.4233 19.5194 36.5584 19.4252C36.6935 19.331 36.8038 19.2055 36.8799 19.0594C37.0045 18.8329 37.0679 18.5778 37.0637 18.3193C37.0661 18.0771 37.0174 17.8371 36.9207 17.615C36.8652 17.4744 36.7792 17.3479 36.6689 17.2446C36.5585 17.1414 36.4266 17.0639 36.2827 17.0178Z" fill="white"/>
<path d="M35.3586 19.8357H33.1537C33.104 19.8344 33.0567 19.8141 33.0215 19.779C32.9864 19.7438 32.9661 19.6965 32.9648 19.6469V18.8404C32.9648 18.7898 32.9845 18.7413 33.0198 18.705C33.0551 18.6688 33.1031 18.6478 33.1537 18.6464H35.1545C35.3375 18.6651 35.5224 18.6424 35.6955 18.5801C35.7417 18.5536 35.7796 18.5147 35.8048 18.4678C35.8301 18.4209 35.8417 18.3678 35.8384 18.3147C35.8438 18.2507 35.8302 18.1866 35.7993 18.1303C35.7685 18.074 35.7217 18.0281 35.6649 17.9982C35.5393 17.9453 35.4025 17.9243 35.2668 17.937H34.4552C34.031 17.973 33.6077 17.8573 33.2608 17.6103C33.0981 17.472 32.9704 17.2971 32.8882 17.0999C32.8004 16.8969 32.7552 16.678 32.7555 16.4568C32.7509 16.1121 32.8505 15.774 33.0414 15.487C33.1585 15.3353 33.3074 15.2111 33.4775 15.123C33.6477 15.0348 33.835 14.9848 34.0265 14.9766C34.1592 14.9766 34.3633 14.9766 34.6288 14.9766H36.8184C36.869 14.9779 36.917 14.9989 36.9523 15.0351C36.9876 15.0714 37.0073 15.12 37.0073 15.1705V15.977C37.006 16.0267 36.9857 16.0739 36.9505 16.1091C36.9154 16.1442 36.8681 16.1645 36.8184 16.1658H34.8584C34.6774 16.1617 34.4963 16.1737 34.3174 16.2016C34.2664 16.2016 34.1694 16.2424 34.1694 16.4772C34.1694 16.712 34.2357 16.712 34.3072 16.7426C34.4587 16.7909 34.6181 16.8099 34.7768 16.7987H35.476C35.7709 16.7865 36.0657 16.8227 36.3489 16.9059C36.5151 16.9485 36.6703 17.0261 36.8041 17.1335C36.9379 17.2408 37.0472 17.3756 37.1247 17.5286C37.2294 17.7757 37.2832 18.0413 37.2829 18.3096C37.2852 18.6002 37.2132 18.8866 37.0736 19.1416C36.9847 19.3141 36.8559 19.4629 36.6979 19.5757C36.5398 19.6884 36.3572 19.7618 36.1651 19.7898C35.898 19.8272 35.6283 19.8425 35.3586 19.8357ZM33.3476 19.4529H35.3586C35.6078 19.4612 35.8571 19.4476 36.1039 19.4121C36.238 19.3925 36.3655 19.341 36.4756 19.262C36.5857 19.1829 36.6753 19.0786 36.7368 18.9578C36.8456 18.7592 36.9019 18.536 36.9001 18.3096C36.9002 18.0938 36.8568 17.8803 36.7725 17.6818C36.7259 17.5721 36.6562 17.4739 36.5681 17.3937C36.48 17.3136 36.3756 17.2534 36.2621 17.2173C36.0216 17.149 35.7717 17.1197 35.522 17.1305H34.7768C34.5604 17.1358 34.3452 17.0976 34.1439 17.0182C34.0291 16.9646 33.9334 16.8772 33.8695 16.7678C33.8057 16.6584 33.7767 16.532 33.7866 16.4057C33.7683 16.2628 33.8028 16.118 33.8836 15.9987C33.9644 15.8794 34.086 15.7936 34.2255 15.7575C34.4327 15.7213 34.6431 15.7059 34.8533 15.7116H36.6143V15.2879H34.6441C34.394 15.2879 34.2051 15.2879 34.0826 15.2879C33.9447 15.2912 33.8094 15.3255 33.6865 15.3882C33.5637 15.4509 33.4566 15.5405 33.3731 15.6503C33.2194 15.876 33.1375 16.1429 33.1383 16.4159C33.1352 16.5914 33.1701 16.7655 33.2404 16.9263C33.2996 17.069 33.3903 17.1964 33.5058 17.299C33.7866 17.4825 34.1213 17.5653 34.4552 17.5337H35.2668C35.4688 17.5208 35.6708 17.5595 35.8537 17.646C35.9699 17.7084 36.066 17.8024 36.131 17.9171C36.1961 18.0318 36.2273 18.1626 36.2212 18.2943C36.2256 18.4126 36.1975 18.5299 36.1399 18.6334C36.0823 18.7368 35.9975 18.8226 35.8946 18.8812C35.6631 18.9871 35.4081 19.0311 35.1545 19.0088H33.3476V19.4529Z" fill="white"/>
<path d="M23.063 10.3834C23.029 10.2764 22.9827 10.1736 22.9252 10.0772C22.8526 9.95459 22.7553 9.84854 22.6393 9.76583C22.4929 9.67773 22.3348 9.61071 22.1697 9.56677L22.328 9.51572C22.4988 9.45295 22.6576 9.36146 22.7976 9.2452C22.9319 9.11326 23.0358 8.95351 23.102 8.77717C23.1681 8.60083 23.1949 8.41215 23.1804 8.22437C23.1813 8.01737 23.1248 7.81416 23.017 7.6374C22.9028 7.456 22.7425 7.30807 22.5526 7.20865C22.0562 7.02189 21.5239 6.95034 20.9958 6.99938H18.4131V11.5268H19.536V9.80666H20.4445C20.749 9.79054 21.0535 9.83925 21.3378 9.94958C21.4917 10.017 21.6203 10.1313 21.7053 10.2762C21.8035 10.4686 21.8625 10.6785 21.8788 10.8938C21.894 11.1119 21.9334 11.3276 21.9962 11.537H23.2569C23.1859 11.317 23.1431 11.0889 23.1293 10.8581C23.121 10.6983 23.0988 10.5394 23.063 10.3834ZM21.6848 8.90323C21.5068 8.98159 21.3122 9.0149 21.1183 9.00021H19.536V7.83135H21.1183C21.264 7.81299 21.4115 7.81299 21.5572 7.83135C21.6686 7.86126 21.7665 7.928 21.8351 8.02068C21.9037 8.11336 21.9389 8.22654 21.935 8.34177C21.9524 8.44954 21.938 8.56004 21.8936 8.65976C21.8491 8.75948 21.7766 8.84409 21.6848 8.90323Z" fill="white"/>
<path d="M23.2568 11.7204H21.9961C21.9565 11.7218 21.9174 11.7108 21.8845 11.6888C21.8515 11.6668 21.8263 11.635 21.8124 11.5979C21.7457 11.3681 21.703 11.132 21.6848 10.8935C21.6694 10.7159 21.6209 10.5428 21.5418 10.3831C21.4735 10.2719 21.3741 10.1832 21.256 10.1279C20.9962 10.0343 20.7201 9.99432 20.4445 10.0105H19.7299V11.5417C19.7299 11.5672 19.7249 11.5924 19.7151 11.6159C19.7054 11.6395 19.6911 11.6609 19.6731 11.6789C19.6551 11.6969 19.6337 11.7112 19.6101 11.7209C19.5866 11.7307 19.5614 11.7357 19.5359 11.7357H18.413C18.3624 11.7305 18.3159 11.7057 18.2834 11.6665C18.251 11.6274 18.2352 11.5771 18.2395 11.5264V7.00413C18.2392 6.95604 18.2568 6.90957 18.2889 6.87373C18.3209 6.83789 18.3652 6.81524 18.413 6.81018H20.9957C21.5584 6.76967 22.1228 6.86053 22.6443 7.07559C22.8552 7.19943 23.0309 7.37514 23.1548 7.58601C23.2798 7.79401 23.3451 8.0324 23.3436 8.27507C23.3555 8.48554 23.3221 8.69611 23.2454 8.8925C23.1688 9.08889 23.0509 9.2665 22.8995 9.41329C22.8236 9.48255 22.7396 9.54252 22.6494 9.59194L22.7209 9.63788C22.8595 9.73488 22.9761 9.86013 23.0629 10.0054C23.1304 10.1174 23.1835 10.2374 23.2211 10.3627C23.2581 10.5186 23.282 10.6774 23.2926 10.8374C23.3034 11.0509 23.3428 11.2621 23.41 11.4652C23.4239 11.4929 23.4311 11.5235 23.4311 11.5545C23.4311 11.5855 23.4239 11.6161 23.41 11.6438C23.3923 11.6677 23.3692 11.6871 23.3426 11.7004C23.316 11.7137 23.2866 11.7206 23.2568 11.7204ZM22.139 11.3376H23.0067C22.9753 11.1808 22.9532 11.0223 22.9404 10.8629C22.9276 10.724 22.9072 10.586 22.8791 10.4494C22.8498 10.3586 22.8104 10.2713 22.7617 10.1891C22.7042 10.0901 22.6258 10.0048 22.532 9.93902C22.4014 9.86171 22.2605 9.80328 22.1135 9.76548C22.0735 9.75426 22.0384 9.73018 22.0135 9.69696C21.9885 9.66375 21.9753 9.62325 21.9757 9.58173C21.9761 9.54042 21.9897 9.50031 22.0145 9.46726C22.0393 9.43421 22.074 9.40994 22.1135 9.39798L22.2564 9.36225C22.4072 9.30941 22.5472 9.22988 22.6699 9.12746C22.7809 9.01547 22.8665 8.88098 22.9211 8.73305C22.9757 8.58513 22.998 8.42721 22.9863 8.26996C22.9929 8.09051 22.9468 7.91306 22.8536 7.75955C22.7564 7.60786 22.6208 7.48459 22.4606 7.40226C21.9941 7.22379 21.4935 7.15227 20.9957 7.19299H18.6019V11.3376H19.3471V9.80631C19.3483 9.75663 19.3687 9.70934 19.4038 9.6742C19.4389 9.63906 19.4862 9.61875 19.5359 9.61746H20.4445C20.7771 9.59721 21.1101 9.65126 21.4193 9.77569C21.6082 9.86089 21.7666 10.0015 21.8736 10.1789C21.9817 10.3923 22.0475 10.6245 22.0676 10.8629C22.0931 11.0721 22.1186 11.2304 22.139 11.3376ZM21.1182 9.19381H19.5359C19.4854 9.19248 19.4373 9.17146 19.4021 9.13523C19.3668 9.099 19.347 9.05042 19.3471 8.99986V7.83101C19.3483 7.78133 19.3687 7.73404 19.4038 7.6989C19.4389 7.66375 19.4862 7.64344 19.5359 7.64215H21.1182C21.2896 7.63433 21.4613 7.64978 21.6286 7.68809C21.783 7.73012 21.9182 7.8242 22.0112 7.95441C22.1042 8.08463 22.1494 8.24298 22.139 8.40267C22.1496 8.53826 22.1228 8.67415 22.0616 8.79562C22.0004 8.91708 21.9072 9.01948 21.7919 9.09173C21.5806 9.18571 21.3479 9.22098 21.1182 9.19381ZM19.7299 8.811H21.1182C21.2765 8.825 21.4359 8.80049 21.5827 8.73954C21.6541 8.69871 21.746 8.61194 21.746 8.37715C21.7555 8.29921 21.7357 8.22053 21.6904 8.15639C21.6451 8.09224 21.5776 8.04722 21.501 8.03007C21.3753 8.00322 21.2466 7.99293 21.1182 7.99944H19.7299V8.811Z" fill="white"/>
<path d="M24.8852 9.53046V7.00391H23.895V9.53046V11.5262H24.8852V9.53046Z" fill="white"/>
<path d="M24.8749 11.7207H23.8949C23.8444 11.7194 23.7963 11.6984 23.761 11.6622C23.7258 11.6259 23.706 11.5774 23.7061 11.5268V7.0045C23.706 6.95394 23.7258 6.90536 23.761 6.86913C23.7963 6.8329 23.8444 6.81188 23.8949 6.81055H24.8749C24.9255 6.81188 24.9735 6.8329 25.0088 6.86913C25.044 6.90536 25.0638 6.95394 25.0638 7.0045V11.5268C25.0638 11.5774 25.044 11.6259 25.0088 11.6622C24.9735 11.6984 24.9255 11.7194 24.8749 11.7207ZM24.0787 11.3379H24.6809V7.19336H24.0889L24.0787 11.3379Z" fill="white"/>
<path d="M34.7568 9.53046V8.20849L35.5122 9.53046L36.6504 11.5262H37.8703V9.53046V7.00391H36.926V9.53046V10.3726L36.4616 9.53046L35.0783 7.00391H33.8125V9.53046V11.5262H34.7568V9.53046Z" fill="white"/>
<path d="M37.8703 11.7208H36.6504C36.6163 11.7204 36.583 11.7112 36.5535 11.6942C36.524 11.6773 36.4994 11.653 36.4819 11.6238L34.9507 8.9288V11.5268C34.9507 11.5774 34.931 11.626 34.8957 11.6622C34.8604 11.6984 34.8124 11.7194 34.7618 11.7208H33.8125C33.7872 11.7208 33.7622 11.7157 33.739 11.7059C33.7157 11.6961 33.6947 11.6817 33.6771 11.6637C33.6595 11.6456 33.6457 11.6242 33.6365 11.6007C33.6273 11.5771 33.6229 11.552 33.6236 11.5268V7.00454C33.6229 6.97931 33.6273 6.9542 33.6365 6.9307C33.6457 6.90719 33.6595 6.88576 33.6771 6.86768C33.6947 6.8496 33.7157 6.83523 33.739 6.82543C33.7622 6.81562 33.7872 6.81057 33.8125 6.81058H35.0834C35.1176 6.80996 35.1514 6.81865 35.181 6.83574C35.2107 6.85282 35.2352 6.87764 35.2518 6.90756L36.7422 9.62807V7.00454C36.7416 6.97973 36.7458 6.95504 36.7546 6.93187C36.7635 6.90869 36.7769 6.88749 36.7939 6.86948C36.811 6.85147 36.8314 6.837 36.8541 6.82689C36.8768 6.81678 36.9012 6.81124 36.926 6.81058H37.8703C37.8955 6.81057 37.9205 6.81562 37.9437 6.82543C37.967 6.83523 37.988 6.8496 38.0056 6.86768C38.0232 6.88576 38.037 6.90719 38.0462 6.9307C38.0554 6.9542 38.0598 6.97931 38.0591 7.00454V11.5268C38.0598 11.552 38.0554 11.5771 38.0462 11.6007C38.037 11.6242 38.0232 11.6456 38.0056 11.6637C37.988 11.6817 37.967 11.6961 37.9437 11.7059C37.9205 11.7157 37.8955 11.7208 37.8703 11.7208ZM36.7627 11.338H37.6763V7.19339H37.1251V10.3835C37.1243 10.4268 37.1094 10.4686 37.0827 10.5027C37.056 10.5368 37.0189 10.5612 36.977 10.5723C36.9356 10.5819 36.8922 10.5776 36.8535 10.5601C36.8147 10.5425 36.7828 10.5128 36.7627 10.4754L34.966 7.19339H34.0064V11.338H34.573V8.20912C34.5737 8.16715 34.588 8.12655 34.6138 8.09342C34.6396 8.06028 34.6754 8.03641 34.7159 8.02537C34.7562 8.01402 34.7991 8.01639 34.8379 8.0321C34.8767 8.04781 34.9092 8.07596 34.9303 8.11214L36.7627 11.338Z" fill="white"/>
<path d="M17.9076 10.6534H15.0289V9.62234H17.4636V9.53046V8.76484H15.0289V7.8512H17.8209V7.00391H13.957V9.53046V11.5262H17.9076V10.6534Z" fill="white"/>
<path d="M17.908 11.7207H13.9574C13.9069 11.7194 13.8588 11.6984 13.8235 11.6622C13.7883 11.6259 13.7685 11.5774 13.7686 11.5268V7.0045C13.7685 6.95394 13.7883 6.90536 13.8235 6.86913C13.8588 6.8329 13.9069 6.81188 13.9574 6.81055H17.8213C17.8718 6.81188 17.9198 6.8329 17.9551 6.86913C17.9904 6.90536 18.0101 6.95394 18.0101 7.0045V7.83138C18.0088 7.88106 17.9885 7.92835 17.9534 7.96349C17.9182 7.99863 17.8709 8.01894 17.8213 8.02023H15.2181V8.53065H17.464C17.4892 8.53064 17.5142 8.53569 17.5374 8.54549C17.5607 8.5553 17.5817 8.56967 17.5993 8.58775C17.6169 8.60583 17.6307 8.62726 17.6399 8.65076C17.6491 8.67427 17.6535 8.69938 17.6528 8.7246V9.62293C17.6535 9.64816 17.6491 9.67327 17.6399 9.69677C17.6307 9.72028 17.6169 9.74171 17.5993 9.75979C17.5817 9.77787 17.5607 9.79224 17.5374 9.80204C17.5142 9.81185 17.4892 9.8169 17.464 9.81689H15.2181V10.4651H17.908C17.9581 10.4651 18.0061 10.485 18.0416 10.5204C18.077 10.5559 18.0969 10.6039 18.0969 10.654V11.5268C18.0976 11.552 18.0932 11.5771 18.084 11.6006C18.0748 11.6241 18.061 11.6456 18.0434 11.6636C18.0258 11.6817 18.0047 11.6961 17.9815 11.7059C17.9582 11.7157 17.9333 11.7208 17.908 11.7207ZM14.1565 11.3379H17.7294V10.8275H15.0293C14.9778 10.8275 14.9285 10.8071 14.8921 10.7707C14.8558 10.7343 14.8353 10.685 14.8353 10.6336V9.61273C14.8367 9.56218 14.8577 9.51414 14.8939 9.47887C14.9301 9.44359 14.9787 9.42386 15.0293 9.42387H17.27V8.95429H15.0293C14.9787 8.95431 14.9301 8.93458 14.8939 8.8993C14.8577 8.86402 14.8367 8.81599 14.8353 8.76544V7.83138C14.8353 7.77994 14.8558 7.7306 14.8921 7.69423C14.9285 7.65785 14.9778 7.63742 15.0293 7.63742H17.6273V7.19336H14.1565V11.3379Z" fill="white"/>
<path d="M21.7612 15.207C21.4431 15.1362 21.1171 15.1071 20.7915 15.1203H17.2186L16.0446 16.6056L14.9625 15.1203H9.96045V19.6477H14.8655L16.0497 18.1164L17.2594 19.6477H19.3317V18.0654H21.0569C21.2901 18.0724 21.5233 18.0501 21.751 17.999C21.9247 17.9516 22.0865 17.8681 22.2257 17.754C22.3973 17.6193 22.5324 17.4439 22.6187 17.2436C22.7108 17.0382 22.7578 16.8154 22.7566 16.5903C22.7581 16.32 22.6839 16.0548 22.5422 15.8247C22.3715 15.5256 22.0916 15.3042 21.7612 15.207ZM14.1561 18.7851H13.8906H11.0323V17.7642H13.467V16.8812H11.0323V15.9676H13.8243V15.4878L15.3555 17.3763L14.1561 18.7851ZM18.2394 19.1883L16.749 17.361L18.2394 15.5694V19.1883ZM21.3019 17.1466C21.1328 17.2366 20.9414 17.2756 20.7506 17.2589H19.3317V15.9267H20.817C20.953 15.9203 21.0891 15.9359 21.2202 15.9727C21.3378 16.0155 21.4376 16.0967 21.5034 16.2032C21.5691 16.3097 21.597 16.4353 21.5826 16.5596C21.594 16.6692 21.5786 16.7799 21.5377 16.8821C21.4968 16.9844 21.4316 17.0752 21.3478 17.1466H21.3019Z" fill="white"/>
<path d="M19.3316 19.8355H17.2593C17.23 19.8363 17.2009 19.8303 17.1743 19.8179C17.1477 19.8055 17.1244 19.787 17.1062 19.7641L16.0496 18.4064L15.0288 19.759C15.0114 19.7832 14.9883 19.8028 14.9617 19.8162C14.935 19.8295 14.9055 19.8361 14.8756 19.8355H9.96034C9.91066 19.8342 9.86337 19.8139 9.82823 19.7788C9.79309 19.7436 9.77278 19.6963 9.77148 19.6467V15.1193C9.77148 15.0692 9.79138 15.0212 9.8268 14.9857C9.86221 14.9503 9.91025 14.9304 9.96034 14.9304H14.9675C14.9977 14.9308 15.0274 14.9384 15.054 14.9526C15.0807 14.9668 15.1035 14.9872 15.1206 15.0121L16.0547 16.2932L17.0755 15.007C17.094 14.9839 17.1172 14.9651 17.1437 14.9519C17.1701 14.9387 17.1991 14.9313 17.2287 14.9304H20.8016C21.1446 14.9177 21.4879 14.9503 21.8224 15.0274C22.1995 15.1388 22.5194 15.391 22.7156 15.7318C22.8741 15.9915 22.9572 16.2901 22.9555 16.5944C22.9578 16.8481 22.9037 17.0991 22.7973 17.3294C22.6978 17.5545 22.5454 17.7524 22.3532 17.9061C22.192 18.0356 22.0062 18.1311 21.8071 18.1869C21.563 18.2442 21.3125 18.2699 21.0619 18.2634H19.5306V19.6518C19.528 19.7023 19.5057 19.7498 19.4685 19.7842C19.4313 19.8185 19.3822 19.8369 19.3316 19.8355ZM17.3511 19.4527H19.1427V18.0644C19.1427 18.0143 19.1626 17.9663 19.198 17.9308C19.2334 17.8954 19.2815 17.8755 19.3316 17.8755H21.0568C21.2731 17.8804 21.4891 17.8581 21.6999 17.8092C21.8488 17.7705 21.9879 17.7009 22.1082 17.605C22.2531 17.4868 22.3684 17.3365 22.4451 17.166C22.5271 16.9849 22.5688 16.7881 22.5676 16.5893C22.5696 16.3553 22.506 16.1254 22.3838 15.9257C22.2352 15.6682 21.9944 15.4767 21.7101 15.3898C21.4082 15.3257 21.0998 15.2983 20.7913 15.3081H17.3154L16.1976 16.7271C16.1578 16.7699 16.1029 16.7956 16.0445 16.7985C16.0143 16.7982 15.9846 16.7906 15.958 16.7763C15.9313 16.7621 15.9085 16.7417 15.8914 16.7169L14.8705 15.3081H13.9314L13.9722 15.349L15.5034 17.2375C15.5322 17.2709 15.548 17.3134 15.548 17.3574C15.548 17.4015 15.5322 17.444 15.5034 17.4774L14.3397 18.9066C14.3204 18.9293 14.2961 18.9472 14.2686 18.9587C14.2411 18.9703 14.2112 18.9751 14.1815 18.9729H13.9161H11.0322C10.9816 18.9729 10.9331 18.9532 10.8968 18.9179C10.8606 18.8826 10.8396 18.8346 10.8383 18.7841V17.7632C10.8383 17.7118 10.8587 17.6625 10.8951 17.6261C10.9314 17.5897 10.9808 17.5693 11.0322 17.5693H13.2729V17.0946H11.0322C10.9808 17.0946 10.9314 17.0741 10.8951 17.0378C10.8587 17.0014 10.8383 16.9521 10.8383 16.9006V15.9666C10.8383 15.9151 10.8587 15.8658 10.8951 15.8294C10.9314 15.793 10.9808 15.7726 11.0322 15.7726H13.6455V15.4868C13.6461 15.4546 13.6543 15.4231 13.6694 15.3947C13.6844 15.3663 13.706 15.3419 13.7323 15.3234H10.1594V19.4629H14.7787L15.9016 17.9878C15.919 17.9636 15.942 17.9439 15.9687 17.9306C15.9954 17.9173 16.0249 17.9106 16.0547 17.9112C16.0835 17.9122 16.1117 17.9196 16.1373 17.9328C16.163 17.9461 16.1853 17.9649 16.2027 17.9878L17.3511 19.4527ZM11.2262 18.5799H14.0947L15.1155 17.3447L14.0079 15.9972C13.9995 16.0395 13.9765 16.0775 13.943 16.1046C13.9094 16.1317 13.8673 16.146 13.8242 16.1452H11.2211V16.6811H13.4669C13.4919 16.6804 13.5168 16.6848 13.54 16.6941C13.5632 16.7033 13.5843 16.7172 13.602 16.7349C13.6197 16.7526 13.6336 16.7737 13.6428 16.7969C13.652 16.8201 13.6564 16.845 13.6557 16.87V17.7326C13.6557 17.7827 13.6358 17.8307 13.6004 17.8661C13.565 17.9016 13.517 17.9215 13.4669 17.9215H11.2211L11.2262 18.5799ZM18.2699 19.3761C18.242 19.3761 18.2143 19.3702 18.1888 19.3587C18.1633 19.3473 18.1405 19.3306 18.1219 19.3098L16.6264 17.4774C16.5966 17.4445 16.5801 17.4018 16.5801 17.3574C16.5801 17.3131 16.5966 17.2704 16.6264 17.2375L18.1168 15.4459C18.1412 15.4156 18.1746 15.3938 18.2123 15.3837C18.2499 15.3737 18.2897 15.3758 18.326 15.3898C18.3633 15.4026 18.3956 15.4266 18.4185 15.4587C18.4413 15.4907 18.4536 15.5291 18.4536 15.5684V19.1873C18.4536 19.2266 18.4413 19.265 18.4185 19.2971C18.3956 19.3291 18.3633 19.3532 18.326 19.3659C18.3068 19.3743 18.2857 19.3778 18.2648 19.3761H18.2699ZM17.0245 17.36L18.0759 18.6462V16.0942L17.0245 17.36ZM20.8016 17.4519H19.3316C19.281 17.4505 19.233 17.4295 19.1977 17.3933C19.1624 17.3571 19.1427 17.3085 19.1427 17.2579V15.9257C19.1427 15.8752 19.1624 15.8266 19.1977 15.7904C19.233 15.7541 19.281 15.7331 19.3316 15.7318H20.8169C20.9758 15.7248 21.1347 15.7456 21.2865 15.793C21.447 15.8418 21.5857 15.9448 21.6787 16.0845C21.7718 16.2241 21.8136 16.3917 21.7969 16.5586C21.8096 16.6986 21.7874 16.8395 21.7321 16.9687C21.6769 17.0979 21.5904 17.2113 21.4804 17.2988C21.2733 17.4229 21.0315 17.4766 20.7913 17.4519H20.8016ZM19.5306 17.0691H20.7913C20.9425 17.0861 21.0954 17.0576 21.2303 16.9874C21.2873 16.9327 21.3307 16.8654 21.3573 16.791C21.3839 16.7166 21.3928 16.6371 21.3834 16.5586C21.3834 16.2728 21.2609 16.1911 21.1537 16.1503C21.0426 16.1192 20.927 16.1071 20.8118 16.1146H19.5255L19.5306 17.0691Z" fill="white"/>
<path d="M11.0273 9.53046L11.6296 8.12682V9.53046V11.5262H12.7678V9.53046V7.00391H11.0273L9.98093 9.53046L9.56239 10.5309L8.16896 7.00391H6.42334V11.5262H7.56157V8.12682L8.94479 11.5262H10.1698L11.0273 9.53046Z" fill="white"/>
<path d="M12.7677 11.7208H11.6295C11.5789 11.7194 11.5309 11.6984 11.4956 11.6622C11.4603 11.6259 11.4406 11.5774 11.4406 11.5268V9.05639L11.2058 9.60763L10.3432 11.6034C10.3291 11.6379 10.3051 11.6674 10.2742 11.6883C10.2433 11.7092 10.207 11.7205 10.1697 11.7208H8.94468C8.90638 11.7223 8.86856 11.7118 8.83653 11.6907C8.8045 11.6697 8.77985 11.6391 8.76603 11.6034L7.7452 9.10743V11.5268C7.74589 11.552 7.74151 11.5771 7.73232 11.6006C7.72314 11.6241 7.70933 11.6456 7.69173 11.6636C7.67412 11.6817 7.65307 11.6961 7.62982 11.7059C7.60657 11.7157 7.58159 11.7208 7.55635 11.7208H6.42323C6.37268 11.7194 6.32465 11.6984 6.28937 11.6622C6.25409 11.6259 6.23436 11.5774 6.23438 11.5268V7.00452C6.23436 6.95395 6.25409 6.90537 6.28937 6.86914C6.32465 6.83291 6.37268 6.81189 6.42323 6.81056H8.16885C8.20743 6.81089 8.24504 6.82273 8.27687 6.84455C8.30869 6.86637 8.33328 6.89719 8.34749 6.93306L9.56228 10.0262L10.8536 6.92796C10.8672 6.89304 10.891 6.86308 10.922 6.8421C10.953 6.82112 10.9897 6.81011 11.0272 6.81056H12.7677C12.8191 6.81056 12.8685 6.83099 12.9048 6.86737C12.9412 6.90374 12.9616 6.95308 12.9616 7.00452V11.5268C12.9616 11.5782 12.9412 11.6276 12.9048 11.6639C12.8685 11.7003 12.8191 11.7208 12.7677 11.7208ZM11.8234 11.3379H12.5788V7.19337H11.1548L9.74093 10.608C9.72402 10.6415 9.69863 10.67 9.66728 10.6906C9.63593 10.7112 9.59973 10.7232 9.56228 10.7254C9.5237 10.7251 9.48609 10.7133 9.45427 10.6915C9.42244 10.6696 9.39785 10.6388 9.38364 10.6029L8.03104 7.19337H6.61719V11.3379H7.3675V8.12743C7.36789 8.08384 7.38335 8.04172 7.41126 8.00822C7.43917 7.97473 7.47781 7.95193 7.52062 7.94368C7.56379 7.93533 7.60852 7.94189 7.64747 7.96229C7.68642 7.9827 7.71728 8.01573 7.735 8.05597L9.05187 11.3379H10.0217L11.4355 8.05597C11.4524 8.01512 11.4832 7.9815 11.5223 7.96098C11.5615 7.94046 11.6067 7.93434 11.6499 7.94368C11.6927 7.95193 11.7313 7.97473 11.7592 8.00822C11.7871 8.04172 11.8026 8.08384 11.803 8.12743L11.8234 11.3379Z" fill="white"/>
<path d="M3.0031 6.99805L1.07373 11.5254H2.23748L2.68664 10.5046H4.45778L4.90695 11.5509H6.07069L4.14133 6.99805H3.0031ZM2.92654 9.67262L3.59008 8.09034L4.25362 9.67262H2.92654Z" fill="white"/>
<path d="M6.06611 11.7208H4.90237C4.86493 11.7212 4.82824 11.7102 4.79723 11.6892C4.76621 11.6683 4.74235 11.6383 4.72883 11.6034L4.3307 10.6744H2.79946L2.41665 11.6034C2.40254 11.6379 2.37853 11.6675 2.34765 11.6884C2.31677 11.7092 2.28039 11.7205 2.2431 11.7208H1.07425C1.04273 11.7207 1.01174 11.7127 0.984105 11.6975C0.956468 11.6824 0.933063 11.6605 0.916026 11.634C0.895914 11.6094 0.882521 11.58 0.877154 11.5487C0.871786 11.5174 0.874628 11.4852 0.885401 11.4554L2.82498 6.92798C2.83941 6.89266 2.8642 6.86253 2.89609 6.84157C2.92798 6.82062 2.96547 6.80981 3.00362 6.81059H4.14185C4.17913 6.81084 4.21551 6.82212 4.24639 6.84301C4.27728 6.8639 4.30128 6.89347 4.31539 6.92798L6.23966 11.4554C6.25485 11.4827 6.26283 11.5134 6.26283 11.5447C6.26283 11.5759 6.25485 11.6067 6.23966 11.634C6.22128 11.6628 6.19544 11.6861 6.16488 11.7014C6.13432 11.7167 6.10018 11.7234 6.06611 11.7208ZM5.04528 11.338H5.77518L4.01425 7.1934H3.12612L1.36519 11.338H2.1104L2.51362 10.3835C2.52795 10.3495 2.55216 10.3207 2.58311 10.3006C2.61406 10.2806 2.65031 10.2704 2.68717 10.2712H4.45831C4.49474 10.2722 4.53019 10.2833 4.56079 10.3031C4.5914 10.3229 4.61597 10.3507 4.63185 10.3835L5.04528 11.338ZM4.23372 9.87308H2.92706C2.89554 9.87297 2.86455 9.86497 2.83691 9.84981C2.80927 9.83466 2.78587 9.81282 2.76883 9.78631C2.75364 9.75899 2.74566 9.72824 2.74566 9.69698C2.74566 9.66572 2.75364 9.63498 2.76883 9.60766L3.43237 8.02027C3.44648 7.98576 3.47049 7.95619 3.50137 7.9353C3.53225 7.91441 3.56863 7.90313 3.60591 7.90287C3.64406 7.9021 3.68156 7.91291 3.71344 7.93386C3.74533 7.95482 3.77013 7.98494 3.78456 8.02027L4.40727 9.60256C4.42246 9.62987 4.43044 9.66062 4.43044 9.69188C4.43044 9.72314 4.42246 9.75388 4.40727 9.7812C4.38954 9.81096 4.36398 9.83526 4.33337 9.85147C4.30277 9.86767 4.26829 9.87515 4.23372 9.87308ZM3.21289 9.49027H3.94789L3.57018 8.58683L3.21289 9.49027Z" fill="white"/>
</svg>
