<svg width="32" height="32" viewBox="0 0 32 32" fill="none" xmlns="http://www.w3.org/2000/svg">
<path fill-rule="evenodd" clip-rule="evenodd" d="M16.0004 0C24.8311 0 32.0004 7.16938 32.0004 16C32.0004 24.8306 24.8311 32 16.0004 32C7.1698 32 0.000427246 24.8306 0.000427246 16C0.000427246 7.16938 7.1698 0 16.0004 0ZM25.5826 11.1861C25.3526 10.3256 24.675 9.648 23.8145 9.418C22.2546 9 16.0004 9 16.0004 9C16.0004 9 9.74624 9 8.18637 9.418C7.32605 9.648 6.64824 10.3256 6.41824 11.1861C6.00043 12.7458 6.00043 16.0001 6.00043 16.0001C6.00043 16.0001 6.00043 19.2543 6.41824 20.8139C6.64824 21.6744 7.32605 22.3523 8.18637 22.5822C9.74624 23 16.0004 23 16.0004 23C16.0004 23 22.2546 23 23.8145 22.5822C24.675 22.3523 25.3526 21.6744 25.5826 20.8139C26.0004 19.2543 26.0004 16.0001 26.0004 16.0001C26.0004 16.0001 26.0004 12.7458 25.5826 11.1861ZM14.0004 19.0002V13.0001L19.1964 16.0001L14.0004 19.0002Z" fill="black"/>
</svg>
