<svg xmlns="http://www.w3.org/2000/svg" fill="none" viewBox="0.6 0.64 42.62 26.64">
  <path d="M42.8527 25.8627C42.8527 26.4386 42.3886 26.9085 41.8069 26.9085H2.02456C1.4487 26.9085 0.97876 26.4444 0.97876 25.8627V2.06435C0.97876 1.48849 1.44287 1.01855 2.02456 1.01855H41.8069C42.3827 1.01855 42.8527 1.48267 42.8527 2.06435V25.8627Z" stroke="white" stroke-width="0.75"/>
  <path d="M17.9783 15.9092C17.8074 16.8467 17.1287 21.2168 16.9285 22.4522C16.9138 22.54 16.8796 22.5742 16.782 22.5742H13.1394C12.7683 22.5742 12.4998 22.252 12.5486 21.8955L15.4099 3.73634C15.4832 3.26759 15.9031 2.91114 16.3865 2.91114C23.823 2.91114 24.448 2.73048 26.3474 3.46778C29.282 4.60548 29.5505 7.34962 28.4958 10.3184C27.446 13.375 24.9558 14.6885 21.655 14.7275C19.5359 14.7617 18.2615 14.3858 17.9783 15.9092ZM29.9753 8.88282C29.8874 8.81935 29.8533 8.79493 29.8289 8.9463C29.7312 9.50294 29.5798 10.0449 29.3992 10.5869C27.4509 16.1436 22.0505 15.6602 19.4138 15.6602C19.116 15.6602 18.9207 15.8213 18.8816 16.1192C17.7781 22.9746 17.5583 24.4053 17.5583 24.4053C17.5095 24.752 17.7292 25.0352 18.0759 25.0352H21.1765C21.5964 25.0352 21.9431 24.7275 22.0261 24.3076C22.0603 24.044 21.9724 24.6055 22.7292 19.8496C22.9539 18.7754 23.4275 18.8877 24.1599 18.8877C27.6267 18.8877 30.3318 17.4815 31.1374 13.4043C31.4548 11.7051 31.3621 9.91798 29.9753 8.88282Z" fill="white"/>
</svg>