<svg xmlns="http://www.w3.org/2000/svg" fill="none" viewBox="0 0 62.29 36.87">
  <path d="M60.7178 14.7697C59.8654 14.6386 59.0786 15.2287 58.9474 16.0811C58.6196 18.5728 57.5049 20.8021 55.6689 22.5725C54.3575 23.8839 52.8494 24.8019 51.2102 25.3265V28.5394C53.6362 27.9493 55.9968 26.6379 57.8983 24.7363C60.1277 22.4414 61.5702 19.6219 62.0292 16.4745C62.1603 15.6877 61.5702 14.9008 60.7178 14.7697Z" fill="#BC6542"/>
  <path d="M60.7178 1.72121C59.8654 1.72121 59.1441 2.44248 59.1441 3.29489V5.52427L57.8983 4.27844C52.2593 -1.42615 43.0139 -1.42615 37.3093 4.27844C35.9324 5.65541 34.9488 7.16352 34.2275 8.86834H36.7192C37.047 8.86834 37.3749 8.86834 37.7027 8.93391C38.1617 8.0815 38.8174 7.22909 39.5387 6.50782C43.9975 2.04906 51.2757 2.04906 55.7345 6.50782L56.9803 7.75365H54.7509C53.8985 7.75365 53.1773 8.47492 53.1773 9.32733C53.1773 10.1797 53.8985 10.901 54.7509 10.901H60.7178C61.5702 10.901 62.2915 10.1797 62.2915 9.32733V3.29489C62.2915 2.44248 61.5702 1.72121 60.7178 1.72121Z" fill="#BC6542"/>
  <path d="M47.6038 6.44226C46.7514 6.44226 46.0301 7.16353 46.0301 8.01594V14.5729C46.0301 15.2942 46.4891 15.8843 47.1448 16.081L51.9314 17.3924C52.0626 17.458 52.1937 17.458 52.3248 17.458C52.9805 17.458 53.6362 16.999 53.8329 16.3433C54.0952 15.4909 53.5707 14.6385 52.7838 14.4418L49.1119 13.3927V8.01594C49.1775 7.16353 48.4562 6.44226 47.6038 6.44226Z" fill="#BC6542"/>
  <path d="M46.817 20.8677L42.9483 20.1464L41.1779 14.8352C40.5222 12.9337 38.7519 11.6879 36.7848 11.6879H13.573C12.4583 11.6879 11.4747 12.6058 11.4747 13.7861V29.7196C11.4747 30.8343 12.3927 31.8179 13.573 31.8179H15.2122C15.2122 34.6374 17.5072 36.8667 20.2611 36.8667C23.0151 36.8667 25.31 34.5718 25.31 31.8179H34.2275C34.2275 34.6374 36.5225 36.8667 39.2764 36.8667C42.0304 36.8667 44.3253 34.5718 44.3253 31.8179H46.2924C47.4071 31.8179 48.3906 30.8999 48.3906 29.7196V22.9003C48.4562 21.9168 47.7349 21.0644 46.817 20.8677ZM20.3267 34.1128C19.0153 34.1128 17.9662 33.0637 17.9662 31.7523C17.9662 30.4409 19.0153 29.3918 20.3267 29.3918C21.6381 29.3918 22.6872 30.4409 22.6872 31.7523C22.6872 33.0637 21.6381 34.1128 20.3267 34.1128ZM33.7685 19.6874V14.3107H36.7848C37.6372 14.3107 38.3584 14.8352 38.6207 15.6876L39.9321 19.753H33.7685V19.6874ZM39.342 34.1128C38.0306 34.1128 36.9815 33.0637 36.9815 31.7523C36.9815 30.4409 38.0306 29.3918 39.342 29.3918C40.6534 29.3918 41.7025 30.4409 41.7025 31.7523C41.7025 33.0637 40.6534 34.1128 39.342 34.1128Z" fill="#BC6542"/>
  <path d="M7.73726 25.2609H1.50811C0.6557 25.2609 0 25.9166 0 26.769C0 27.6214 0.6557 28.2771 1.50811 28.2771H7.73726C8.58967 28.2771 9.24537 27.6214 9.24537 26.769C9.24537 25.9821 8.58967 25.2609 7.73726 25.2609Z" fill="#BC6542"/>
  <path d="M7.73726 20.1464H3.54078C2.68837 20.1464 2.03267 20.8021 2.03267 21.6545C2.03267 22.5069 2.68837 23.1626 3.54078 23.1626H7.73726C8.58967 23.1626 9.24537 22.5069 9.24537 21.6545C9.24537 20.8021 8.58967 20.1464 7.73726 20.1464Z" fill="#BC6542"/>
  <path d="M7.73725 15.032H5.63901C4.78661 15.032 4.13091 15.6877 4.13091 16.5401C4.13091 17.3925 4.78661 18.0482 5.63901 18.0482H7.73725C8.58966 18.0482 9.24536 17.3925 9.24536 16.5401C9.24536 15.6877 8.58966 15.032 7.73725 15.032Z" fill="#BC6542"/>
</svg>