<svg xmlns="http://www.w3.org/2000/svg" fill="none" viewBox="0 0 28 28">
  <path d="M16.2574 27.8179C16.1407 27.8369 16.0237 27.8544 15.9062 27.8704C16.0237 27.8544 16.1407 27.8369 16.2574 27.8179Z" fill="#2F2E2D"/>
  <path d="M16.5374 27.77C16.4817 27.7803 16.4259 27.7897 16.3702 27.7993C16.4259 27.7897 16.4817 27.7803 16.5374 27.77Z" fill="#2F2E2D"/>
  <path d="M15.5934 27.9092C15.4569 27.9246 15.3195 27.9382 15.1818 27.9498C15.3195 27.9382 15.4569 27.9246 15.5934 27.9092Z" fill="#2F2E2D"/>
  <path d="M15.8624 27.8765C15.7968 27.8852 15.7308 27.8933 15.665 27.901C15.7308 27.8933 15.7968 27.8852 15.8624 27.8765Z" fill="#2F2E2D"/>
  <path d="M16.9185 27.6943C16.8694 27.7048 16.82 27.7153 16.7707 27.7253C16.82 27.7153 16.8694 27.7048 16.9185 27.6943Z" fill="#2F2E2D"/>
  <path d="M17.8644 27.4595C17.8247 27.4708 17.785 27.4815 17.7452 27.4926C17.785 27.4815 17.8247 27.4708 17.8644 27.4595Z" fill="#2F2E2D"/>
  <path d="M17.5784 27.5376C17.5353 27.5489 17.4919 27.5605 17.4485 27.5714C17.4919 27.5605 17.5353 27.5491 17.5784 27.5376Z" fill="#2F2E2D"/>
  <path d="M17.2041 27.6311C17.1584 27.6418 17.1123 27.6518 17.0661 27.6621C17.1123 27.6518 17.1584 27.6418 17.2041 27.6311Z" fill="#2F2E2D"/>
  <path d="M15.1773 27.9502C15.1036 27.9564 15.0299 27.9619 14.956 27.9669C15.0299 27.9619 15.1036 27.9564 15.1773 27.9502Z" fill="#2F2E2D"/>
  <path d="M28 14C28 6.2692 21.7308 0 14 0C6.2692 0 0 6.2692 0 14C0 21.7308 6.2692 28 14 28C14.0822 28 14.1641 27.9983 14.2461 27.9968V17.0984H11.2383V13.593H14.2461V11.0135C14.2461 8.02197 16.0724 6.39374 18.7409 6.39374C20.0188 6.39374 21.1173 6.48901 21.4375 6.53152V9.65811H19.5974C18.1456 9.65811 17.8644 10.3481 17.8644 11.3605V13.593H21.3358L20.8834 17.0984H17.8644V27.4591C23.7162 25.7815 28 20.3903 28 14Z" fill="#2F2E2D"/>
  <path d="M14.925 27.9688C14.7793 27.9781 14.633 27.9856 14.4862 27.9905C14.633 27.9856 14.7793 27.9781 14.925 27.9688Z" fill="#2F2E2D"/>
  <path d="M14.4787 27.991C14.4014 27.9934 14.3238 27.9952 14.2463 27.9964C14.3238 27.9952 14.4014 27.9934 14.4787 27.991Z" fill="#2F2E2D"/>
</svg>