<svg width="15" height="9" viewBox="0 0 15 9" fill="none" xmlns="http://www.w3.org/2000/svg">
<path d="M10.3125 1.2071L12.9565 3.8521L1.1665 3.85211C1.0339 3.85211 0.906719 3.90478 0.81295 3.99855C0.719182 4.09232 0.666504 4.2195 0.666504 4.35211C0.666504 4.48471 0.719182 4.61189 0.81295 4.70566C0.906719 4.79943 1.0339 4.85211 1.1665 4.85211L12.9615 4.8521L10.3115 7.5001C10.2176 7.59399 10.1649 7.72133 10.1649 7.8541C10.1649 7.98688 10.2176 8.11422 10.3115 8.2081C10.4054 8.30199 10.5327 8.35474 10.6655 8.35474C10.7983 8.35474 10.9256 8.30199 11.0195 8.2081L14.5095 4.7181L14.5195 4.7081C14.6136 4.61389 14.6664 4.48623 14.6665 4.3531L14.6665 4.3521C14.6666 4.2789 14.6506 4.20656 14.6197 4.14021C14.5888 4.07385 14.5436 4.0151 14.4875 3.9681L11.0195 0.500104C10.9734 0.452349 10.9182 0.414258 10.8572 0.388053C10.7962 0.361849 10.7306 0.348056 10.6642 0.347479C10.5978 0.346902 10.532 0.359553 10.4705 0.384694C10.4091 0.409834 10.3533 0.44696 10.3063 0.493907C10.2594 0.540853 10.2222 0.596679 10.1971 0.658127C10.172 0.719575 10.1593 0.785416 10.1599 0.851805C10.1605 0.918195 10.1742 0.983805 10.2005 1.04481C10.2267 1.10581 10.2647 1.16098 10.3125 1.2071Z" fill="#26247B"/>
</svg>
