<svg width="20" height="20" viewBox="0 0 20 20" fill="none" xmlns="http://www.w3.org/2000/svg">
<path d="M9.07232 2.80564C10.2757 2.80454 11.4524 3.16038 12.4536 3.82816C13.4547 4.49594 14.2353 5.44564 14.6965 6.55713C15.1578 7.66861 15.2791 8.89194 15.045 10.0724C14.8109 11.2528 14.232 12.3372 13.3814 13.1886C12.5309 14.0399 11.4469 14.6198 10.2667 14.855C9.08652 15.0902 7.86308 14.97 6.75117 14.5098C5.63927 14.0495 4.68885 13.2698 4.02016 12.2693C3.35147 11.2687 2.99455 10.0924 2.99455 8.88897C3.00184 7.27878 3.64434 5.73653 4.78241 4.59742C5.92048 3.45831 7.46214 2.8144 9.07232 2.80564ZM9.07232 1.66675C7.6439 1.66675 6.24756 2.09032 5.05987 2.88391C3.87218 3.6775 2.94649 4.80546 2.39986 6.12514C1.85323 7.44483 1.7102 8.89698 1.98887 10.298C2.26754 11.6989 2.95539 12.9858 3.96544 13.9959C4.97549 15.0059 6.26236 15.6937 7.66334 15.9724C9.06431 16.2511 10.5165 16.1081 11.8361 15.5614C13.1558 15.0148 14.2838 14.0891 15.0774 12.9014C15.871 11.7137 16.2945 10.3174 16.2945 8.88897C16.2945 6.97352 15.5336 5.13652 14.1792 3.78209C12.8248 2.42766 10.9878 1.66675 9.07232 1.66675Z" fill="black"/>
<path d="M19.4445 18.4943L15.35 14.3721L14.5612 15.1554L18.6556 19.2776C18.707 19.3294 18.7682 19.3706 18.8355 19.3988C18.9029 19.4269 18.9751 19.4416 19.0481 19.4418C19.1211 19.4421 19.1934 19.428 19.2609 19.4003C19.3285 19.3726 19.3899 19.3318 19.4417 19.2804C19.4935 19.229 19.5347 19.1678 19.5628 19.1005C19.591 19.0332 19.6057 18.9609 19.6059 18.8879C19.6062 18.8149 19.592 18.7426 19.5643 18.6751C19.5367 18.6075 19.4959 18.5461 19.4445 18.4943Z" fill="black"/>
</svg>
