<svg xmlns="http://www.w3.org/2000/svg" fill="none" viewBox="0 0 21 24">
  <path d="M14.202 13.2893C16.2598 12.0295 17.6343 9.75653 17.6343 7.16462C17.6343 3.20572 14.4395 0 10.5027 0C6.5605 0 3.36833 3.2084 3.36833 7.16462C3.36833 9.75921 4.74288 12.0268 6.80071 13.2893C2.82918 14.7929 0 18.65 0 23.1584C0 23.6221 0.376335 24 0.838078 24C1.30249 24 1.67616 23.6221 1.67616 23.1584C1.67616 18.4248 5.38612 14.549 10.0409 14.3078H10.0489C10.2011 14.2998 10.3505 14.2944 10.5027 14.2944C10.6548 14.2944 10.8043 14.2998 10.9564 14.3078H10.9644C15.6139 14.549 19.3238 18.4248 19.3238 23.1584C19.3238 23.6221 19.6975 24 20.1619 24C20.6237 24 21 23.6221 21 23.1584C21.0027 18.65 18.1735 14.7929 14.202 13.2893ZM10.5053 12.6406C10.3639 12.6406 10.2197 12.6352 10.0783 12.6192C7.26512 12.4047 5.04715 10.038 5.04715 7.16194C5.04715 4.13849 7.49466 1.68059 10.5053 1.68059C13.5107 1.68059 15.9609 4.13849 15.9609 7.16194C15.9609 10.038 13.7429 12.4047 10.9351 12.6192C10.7909 12.6379 10.6468 12.6406 10.5053 12.6406Z" fill="currentColor"/>
</svg>