<svg width="23" height="19" viewBox="0 0 23 19" fill="none" xmlns="http://www.w3.org/2000/svg">
<path d="M11.5 18.614L11.128 18.304C3.12996 11.794 0.959961 9.49995 0.959961 5.77995C0.959961 2.67995 3.43996 0.199951 6.53996 0.199951C9.08196 0.199951 10.508 1.62595 11.5 2.74195C12.492 1.62595 13.918 0.199951 16.46 0.199951C19.56 0.199951 22.04 2.67995 22.04 5.77995C22.04 9.49995 19.87 11.794 11.872 18.304L11.5 18.614ZM6.53996 1.43995C4.12196 1.43995 2.19996 3.36195 2.19996 5.77995C2.19996 8.94195 4.18396 11.0499 11.5 17.002C18.816 11.0499 20.8 8.94195 20.8 5.77995C20.8 3.36195 18.878 1.43995 16.46 1.43995C14.29 1.43995 13.112 2.74195 12.182 3.79595L11.5 4.60195L10.818 3.79595C9.88796 2.74195 8.70996 1.43995 6.53996 1.43995Z" fill="black"/>
</svg>
