<?xml version="1.0" encoding="UTF-8"?><svg id="Camada_1" xmlns="http://www.w3.org/2000/svg" viewBox="0 0 16 20"><rect width="16" height="20" fill="none"/><path d="M14.19,18.42h-4.71c.84-.72,1.62-1.49,2.35-2.33,2.33-2.68,3.56-5.5,3.56-8.16,0-1.96-.78-3.84-2.16-5.23-1.39-1.39-3.27-2.16-5.23-2.16s-3.84,.78-5.23,2.16S.61,5.98,.61,7.94c0,2.66,1.23,5.48,3.56,8.16,.73,.83,1.51,1.61,2.35,2.33H1.81c-.14,0-.27,.05-.36,.15-.1,.1-.15,.23-.15,.36s.05,.27,.15,.36c.1,.1,.23,.15,.36,.15H14.19c.14,0,.27-.05,.36-.15,.1-.1,.15-.23,.15-.36s-.05-.27-.15-.36c-.1-.1-.23-.15-.36-.15ZM1.64,7.94c0-1.69,.67-3.3,1.86-4.5,1.19-1.19,2.81-1.86,4.5-1.86s3.3,.67,4.5,1.86c1.19,1.19,1.86,2.81,1.86,4.5,0,5.12-5.07,9.36-6.36,10.36-1.29-1-6.36-5.23-6.36-10.36Zm9.62,0c0-.65-.19-1.28-.55-1.81-.36-.54-.87-.96-1.47-1.2-.6-.25-1.25-.31-1.89-.19-.63,.13-1.22,.44-1.67,.89-.46,.46-.77,1.04-.89,1.67-.13,.63-.06,1.29,.19,1.89,.25,.6,.67,1.11,1.2,1.47,.54,.36,1.17,.55,1.81,.55,.87,0,1.7-.35,2.31-.96,.61-.61,.96-1.44,.96-2.31Zm-5.5,0c0-.44,.13-.87,.38-1.24,.25-.37,.59-.65,1-.82,.41-.17,.86-.21,1.29-.13,.43,.09,.83,.3,1.14,.61,.31,.31,.53,.71,.61,1.14,.09,.43,.04,.88-.13,1.29-.17,.41-.46,.76-.82,1-.37,.25-.8,.38-1.24,.38-.59,0-1.16-.24-1.58-.66-.42-.42-.65-.99-.66-1.58Z" fill="#764b31"/></svg>