<svg width="27" height="24" viewBox="0 0 27 24" fill="none" xmlns="http://www.w3.org/2000/svg">
<path d="M26.1579 3.3868C25.0271 1.10027 21.7698 -0.770519 17.9808 0.318698C16.1702 0.833988 14.5905 1.93904 13.4998 3.45332C12.4091 1.93904 10.8294 0.833988 9.01884 0.318698C5.22141 -0.75389 1.97249 1.10027 0.841702 3.3868C-0.744782 6.58793 -0.0865596 10.1882 2.79949 14.0877C5.06107 17.1392 8.29311 20.2322 12.985 23.8242C13.1333 23.9381 13.316 24 13.504 24C13.6921 24 13.8747 23.9381 14.023 23.8242C18.7065 20.2406 21.947 17.1725 24.2086 14.0877C27.0862 10.1882 27.7444 6.58793 26.1579 3.3868V3.3868Z" fill="#EF4848"/>
</svg>
