<svg width="16" height="20" viewBox="0 0 16 20" fill="none" xmlns="http://www.w3.org/2000/svg">
<g clip-path="url(#clip0_209_69)">
<path d="M14.1875 18.25H9.93703C10.6521 17.6126 11.3266 16.9309 11.9563 16.209C14.3155 13.4959 15.5625 10.6357 15.5625 7.9375C15.5625 5.9318 14.7657 4.00825 13.3475 2.59001C11.9293 1.17176 10.0057 0.375 8 0.375C5.9943 0.375 4.07075 1.17176 2.65251 2.59001C1.23426 4.00825 0.4375 5.9318 0.4375 7.9375C0.4375 10.6356 1.68445 13.4959 4.04369 16.209C4.67343 16.9309 5.34785 17.6126 6.06297 18.25H1.8125C1.63016 18.25 1.4553 18.3224 1.32636 18.4514C1.19743 18.5803 1.125 18.7552 1.125 18.9375C1.125 19.1198 1.19743 19.2947 1.32636 19.4236C1.4553 19.5526 1.63016 19.625 1.8125 19.625H14.1875C14.3698 19.625 14.5447 19.5526 14.6736 19.4236C14.8026 19.2947 14.875 19.1198 14.875 18.9375C14.875 18.7552 14.8026 18.5803 14.6736 18.4514C14.5447 18.3224 14.3698 18.25 14.1875 18.25ZM8 5.1875C8.5439 5.1875 9.07558 5.34878 9.52782 5.65096C9.98005 5.95313 10.3325 6.38262 10.5407 6.88512C10.7488 7.38762 10.8033 7.94055 10.6972 8.474C10.5911 9.00745 10.3291 9.49745 9.94454 9.88204C9.55995 10.2666 9.06995 10.5286 8.5365 10.6347C8.00305 10.7408 7.45012 10.6863 6.94762 10.4782C6.44512 10.27 6.01563 9.91755 5.71346 9.46532C5.41128 9.01308 5.25 8.4814 5.25 7.9375C5.25 7.20815 5.53973 6.50868 6.05546 5.99296C6.57118 5.47723 7.27065 5.1875 8 5.1875Z" fill="#A4704F"/>
</g>
<defs>
<clipPath id="clip0_209_69">
<rect width="16" height="20" fill="white"/>
</clipPath>
</defs>
</svg>
