<svg xmlns="http://www.w3.org/2000/svg" fill="none" viewBox="0 0 20 18.87">
  <path d="M2.52632 0C1.13158 0 0 1.13158 0 2.52632C0 3.92105 1.13158 5.05263 2.52632 5.05263C3.92105 5.05263 5.05263 3.92105 5.05263 2.52632C5.02632 1.13158 3.89474 0 2.52632 0Z" fill="currentColor"/>
  <path d="M7.86845 3.31601H19.2106C19.6579 3.31601 20 2.9739 20 2.52653C20 2.07917 19.6579 1.73706 19.2106 1.73706H7.86845C7.42108 1.73706 7.07898 2.07917 7.07898 2.52653C7.07898 2.9739 7.42108 3.31601 7.86845 3.31601Z" fill="currentColor"/>
  <path d="M2.52632 6.89478C1.13158 6.89478 0 8.02635 0 9.42109C0 10.8158 1.13158 11.9474 2.52632 11.9474C3.92105 11.9474 5.05263 10.8158 5.05263 9.42109C5.02632 8.02635 3.89474 6.89478 2.52632 6.89478Z" fill="currentColor"/>
  <path d="M19.2106 8.63159H7.86845C7.42108 8.63159 7.07898 8.9737 7.07898 9.42107C7.07898 9.86843 7.42108 10.2105 7.86845 10.2105H19.2106C19.6579 10.2105 20 9.86843 20 9.42107C20 8.9737 19.6579 8.63159 19.2106 8.63159Z" fill="currentColor"/>
  <path d="M2.52632 13.8157C1.13158 13.8157 0 14.9473 0 16.342C0 17.7367 1.13158 18.8683 2.52632 18.8683C3.92105 18.8683 5.05263 17.7367 5.05263 16.342C5.02632 14.9209 3.89474 13.8157 2.52632 13.8157Z" fill="currentColor"/>
  <path d="M19.2106 15.5261H7.86845C7.42108 15.5261 7.07898 15.8682 7.07898 16.3156C7.07898 16.763 7.42108 17.1051 7.86845 17.1051H19.2106C19.6579 17.1051 20 16.763 20 16.3156C20 15.8682 19.6579 15.5261 19.2106 15.5261Z" fill="currentColor"/>
</svg>