<svg width="19" height="19" viewBox="0 0 19 19" fill="none" xmlns="http://www.w3.org/2000/svg">
<path d="M12.1638 9.88027H11.6695C12.3454 9.29251 12.9204 8.44328 13.3379 7.53208C13.8002 6.52295 14.0741 5.42715 14.0741 4.50809C14.0741 3.35301 13.6187 2.2451 12.8079 1.4281C11.997 0.611087 10.8971 0.151953 9.75 0.151953C8.60292 0.151953 7.50298 0.611087 6.69211 1.4281C5.88126 2.2451 5.42586 3.35301 5.42586 4.50809C5.42586 5.42702 5.69746 6.52277 6.15867 7.53199C6.57508 8.44319 7.15 9.29245 7.82934 9.88027H7.33621C5.62897 9.88027 3.99182 10.5636 2.78486 11.7797C1.57792 12.9958 0.9 14.645 0.9 16.3645C0.9 16.7939 1.0693 17.2059 1.37089 17.5098C1.6725 17.8137 2.08174 17.9845 2.50862 17.9845H16.9914C17.4183 17.9845 17.8275 17.8137 18.1291 17.5098C18.4307 17.2059 18.6 16.7939 18.6 16.3645C18.6 14.645 17.9221 12.9958 16.7151 11.7797C15.5082 10.5636 13.871 9.88027 12.1638 9.88027ZM6.22931 4.50809C6.22931 3.56683 6.60042 2.66427 7.26076 1.99893C7.92108 1.33361 8.8165 0.959973 9.75 0.959973C10.6835 0.959973 11.5789 1.33361 12.2392 1.99893C12.8996 2.66427 13.2707 3.56683 13.2707 4.50809C13.2707 5.51658 12.8547 6.86705 12.1975 7.96579C11.8695 8.51429 11.4841 8.9951 11.0658 9.33773C10.6472 9.68048 10.2016 9.88027 9.75 9.88027C9.29838 9.88027 8.85278 9.68048 8.43424 9.33773C8.01586 8.9951 7.63054 8.51429 7.30247 7.96579C6.64527 6.86705 6.22931 5.51658 6.22931 4.50809ZM2.50862 17.1765C2.29532 17.1765 2.0906 17.0911 1.93954 16.9389C1.78846 16.7867 1.70345 16.5801 1.70345 16.3645C1.70345 14.8588 2.29708 13.415 3.35351 12.3505C4.40992 11.2861 5.84255 10.6883 7.33621 10.6883H12.1638C13.6574 10.6883 15.0901 11.2861 16.1465 12.3505C17.2029 13.415 17.7966 14.8588 17.7966 16.3645C17.7966 16.5801 17.7115 16.7867 17.5605 16.9389C17.4094 17.0911 17.2047 17.1765 16.9914 17.1765H2.50862Z" fill="white" stroke="white" stroke-width="0.2"/>
</svg>
