<svg xmlns="http://www.w3.org/2000/svg" fill="none" viewBox="0 0 42 28">
  <path d="M2.625 0C1.17862 0 0 1.14291 0 2.54545V5.09091H42V2.54545C42 1.14291 40.824 0 39.375 0H2.625ZM0 12.7273V25.4545C0 26.8596 1.17862 28 2.625 28H39.375C40.824 28 42 26.8596 42 25.4545V12.7273H0ZM6.5625 17.8182H11.8125C12.537 17.8182 13.125 18.3884 13.125 19.0909C13.125 19.7935 12.537 20.3636 11.8125 20.3636H6.5625C5.838 20.3636 5.25 19.7935 5.25 19.0909C5.25 18.3884 5.838 17.8182 6.5625 17.8182Z" fill="#BC6542"/>
</svg>