<svg width="30" height="17" viewBox="0 0 30 17" fill="none" xmlns="http://www.w3.org/2000/svg">
<path d="M29.4791 0.442954L22.8604 0.00347466C22.5277 -0.0330629 22.2319 0.223214 22.2319 0.552817C22.195 0.882426 22.4537 1.13895 22.7864 1.17549L28.0001 1.54189L22.4906 6.48705C21.5662 5.31476 20.2351 4.50917 18.719 4.17931C17.7946 1.76167 15.3913 0.0400714 12.655 0.0400714C9.06834 0.0400714 6.11048 2.93396 6.11048 6.52361C6.11048 7.43936 6.29541 8.28178 6.62813 9.08764L3.00431 12.6776L1.26645 10.9194C1.00749 10.6629 0.601016 10.6629 0.342054 10.9194C0.0830913 11.1759 0.0830979 11.5786 0.342054 11.8351L2.07991 13.5933L0.194217 15.4614C-0.0647389 15.7179 -0.0647389 16.1206 0.194217 16.3771C0.453172 16.6336 0.859648 16.6336 1.11861 16.3771L3.00431 14.509L4.59413 16.1208C4.85309 16.3774 5.25956 16.3774 5.51853 16.1208C5.77748 15.8643 5.77748 15.4616 5.51853 15.2051L3.9287 13.5933L7.33047 10.2599C8.25486 11.5786 9.69692 12.5309 11.3239 12.8608C12.2482 15.2784 14.6515 17 17.3879 17C20.9745 17 23.8955 14.1064 23.8955 10.5165C23.8955 9.4175 23.5997 8.39193 23.1189 7.47618L28.813 2.38464L28.739 7.6959C28.739 8.02551 28.998 8.28203 29.3307 8.28203C29.6634 8.28203 29.9224 8.0255 29.9224 7.6959L29.9964 1.02927C30.0338 0.736201 29.7748 0.479931 29.479 0.443137L29.4791 0.442954ZM17.8687 6.52357C17.8687 9.38069 15.5392 11.725 12.6551 11.725H12.3223C12.2483 11.3586 12.1745 10.9556 12.1745 10.5527C12.1745 7.69559 14.5041 5.35128 17.3882 5.35128H17.7209C17.7947 5.75448 17.8687 6.12064 17.8687 6.52357ZM7.44155 6.52357C7.44155 3.66644 9.77109 1.32214 12.6552 1.32214C14.6518 1.32214 16.3528 2.42109 17.2403 4.06937C13.7276 4.1427 10.8804 7.03632 10.8804 10.5529C10.8804 10.846 10.9173 11.139 10.9544 11.4321C8.88361 10.6993 7.44156 8.79449 7.44156 6.5235L7.44155 6.52357ZM17.388 15.7176C15.3915 15.7176 13.6905 14.6187 12.803 12.9704C16.3156 12.8971 19.1628 10.0035 19.1628 6.48687C19.1628 6.1938 19.1259 5.90074 19.0888 5.60769C21.1225 6.30372 22.6014 8.24504 22.6014 10.516C22.6017 13.4102 20.2721 15.7176 17.388 15.7176H17.388Z" fill="white"/>
</svg>
