<svg width="14" height="14" viewBox="0 0 14 14" fill="none" xmlns="http://www.w3.org/2000/svg">
<path fill-rule="evenodd" clip-rule="evenodd" d="M9.81641 8.69141H9.22391L9.01391 8.48891C9.74891 7.63391 10.1914 6.52391 10.1914 5.31641C10.1914 2.62391 8.00891 0.441406 5.31641 0.441406C2.62391 0.441406 0.441406 2.62391 0.441406 5.31641C0.441406 8.00891 2.62391 10.1914 5.31641 10.1914C6.52391 10.1914 7.63391 9.74891 8.48891 9.01391L8.69141 9.22391V9.81641L12.4414 13.5589L13.5589 12.4414L9.81641 8.69141ZM5.3164 8.69141C3.4489 8.69141 1.9414 7.18391 1.9414 5.31641C1.9414 3.44891 3.4489 1.94141 5.3164 1.94141C7.1839 1.94141 8.6914 3.44891 8.6914 5.31641C8.6914 7.18391 7.1839 8.69141 5.3164 8.69141ZM4.94141 3.44141H5.69141V4.94141H7.19142V5.69141H5.69141V7.19141H4.94141V5.69141H3.44141V4.94141H4.94141V3.44141Z" fill="#000000"/>
</svg>
