<svg width="24" height="17" viewBox="0 0 24 17" fill="none" xmlns="http://www.w3.org/2000/svg">
<path d="M20.7273 4.25H17.4545V0H2.18182C0.976364 0 0 0.950938 0 2.125V13.8125H2.18182C2.18182 15.5709 3.64909 17 5.45455 17C7.26 17 8.72727 15.5709 8.72727 13.8125H15.2727C15.2727 15.5709 16.74 17 18.5455 17C20.3509 17 21.8182 15.5709 21.8182 13.8125H24V8.5L20.7273 4.25ZM5.45455 15.4062C4.54909 15.4062 3.81818 14.6944 3.81818 13.8125C3.81818 12.9306 4.54909 12.2188 5.45455 12.2188C6.36 12.2188 7.09091 12.9306 7.09091 13.8125C7.09091 14.6944 6.36 15.4062 5.45455 15.4062ZM20.1818 5.84375L22.3255 8.5H17.4545V5.84375H20.1818ZM18.5455 15.4062C17.64 15.4062 16.9091 14.6944 16.9091 13.8125C16.9091 12.9306 17.64 12.2188 18.5455 12.2188C19.4509 12.2188 20.1818 12.9306 20.1818 13.8125C20.1818 14.6944 19.4509 15.4062 18.5455 15.4062Z" fill="#000000"/>
</svg>
