<svg width="15" height="11" viewBox="0 0 15 11" fill="none" xmlns="http://www.w3.org/2000/svg">
<path d="M14.057 4.76474C14.3928 5.20391 14.3928 5.79678 14.057 6.23524C12.9995 7.61578 10.4622 10.4583 7.49999 10.4583C4.53774 10.4583 2.00049 7.61578 0.942946 6.23524C0.779592 6.02496 0.690918 5.76627 0.690918 5.49999C0.690918 5.23372 0.779592 4.97502 0.942946 4.76474C2.00049 3.3842 4.53774 0.541656 7.49999 0.541656C10.4622 0.541656 12.9995 3.3842 14.057 4.76474V4.76474Z" stroke="black" stroke-linecap="round" stroke-linejoin="round"/>
<path d="M7.5 7.625C8.6736 7.625 9.625 6.6736 9.625 5.5C9.625 4.32639 8.6736 3.375 7.5 3.375C6.32639 3.375 5.375 4.32639 5.375 5.5C5.375 6.6736 6.32639 7.625 7.5 7.625Z" stroke="black" stroke-linecap="round" stroke-linejoin="round"/>
</svg>
