<svg xmlns="http://www.w3.org/2000/svg" fill="none" id="discount" viewBox="0 0 38.73 38.85">
  <path d="M37.3982 19.4251C37.3982 18.8683 37.6952 18.1301 37.9792 17.4049C38.4697 16.1876 39.0248 14.8019 38.5471 13.4033C38.0695 11.9788 36.7528 11.163 35.6039 10.4378C34.9455 10.0363 34.2613 9.60895 33.9386 9.19455C33.6159 8.7672 33.4093 8.04199 33.2028 7.27794C32.8413 6.00883 32.4412 4.55842 31.2019 3.69077C29.9884 2.84902 28.4652 2.92672 27.1097 2.99147C26.3093 3.03032 25.4832 3.06917 24.9281 2.88787C24.4117 2.73247 23.8179 2.26626 23.1982 1.78711C22.1281 0.945355 20.9146 0 19.3655 0C17.8164 0 16.603 0.945355 15.5315 1.78711C14.9119 2.26626 14.3181 2.73247 13.8017 2.88787C13.2466 3.06917 12.4204 3.03032 11.6201 2.99147C10.2646 2.92672 8.74135 2.84902 7.5279 3.69077C6.28863 4.55842 5.88844 6.00883 5.52699 7.27794C5.32044 8.04199 5.1139 8.7672 4.79117 9.19455C4.46844 9.60895 3.78426 10.0363 3.13881 10.4378C1.97699 11.163 0.660262 11.9788 0.182626 13.4033C-0.295011 14.8019 0.26008 16.1876 0.750626 17.4049C1.03463 18.1301 1.33153 18.8683 1.33153 19.4251C1.33153 19.982 1.03463 20.7201 0.750626 21.4453C0.26008 22.6626 -0.295011 24.0483 0.182626 25.4469C0.660262 26.8714 1.97699 27.6873 3.1259 28.4125C3.78426 28.8139 4.46844 29.2413 4.79117 29.6557C5.1139 30.083 5.32044 30.8082 5.52699 31.5723C5.88844 32.8414 6.28863 34.2918 7.5279 35.1594C8.74135 36.0012 10.2646 35.9235 11.6201 35.8587C12.4204 35.8199 13.2466 35.781 13.8017 35.9623C14.3181 36.1177 14.9119 36.584 15.5315 37.0631C16.603 37.9049 17.8164 38.8502 19.3655 38.8502C20.9146 38.8502 22.1281 37.9049 23.1995 37.0631C23.8192 36.584 24.413 36.1177 24.9294 35.9623C25.4844 35.781 26.3106 35.8199 27.111 35.8587C28.4664 35.9235 29.9897 36.0012 31.2032 35.1594C32.4424 34.2918 32.8426 32.8414 33.2041 31.5723C33.4106 30.8082 33.6172 30.083 33.9399 29.6557C34.2626 29.2413 34.9468 28.8139 35.5923 28.4125C36.7541 27.6873 38.0708 26.8714 38.5484 25.4469C39.0261 24.0483 38.471 22.6626 37.9804 21.4453C37.6952 20.7201 37.3982 19.982 37.3982 19.4251ZM11.6214 14.2451C11.6214 12.8206 12.7832 11.6551 14.2032 11.6551C15.6232 11.6551 16.785 12.8206 16.785 14.2451C16.785 15.6696 15.6232 16.8351 14.2032 16.8351C12.7832 16.8351 11.6214 15.6696 11.6214 14.2451ZM16.603 26.5606C16.3577 26.975 15.9317 27.1951 15.4928 27.1951C15.2604 27.1951 15.041 27.1304 14.8344 27.0138C14.2148 26.6383 14.0212 25.8483 14.3826 25.2397L22.1268 12.2896C22.5012 11.668 23.2886 11.4738 23.8953 11.8364C24.515 12.2119 24.7086 13.0019 24.3472 13.6105L16.603 26.5606ZM24.5292 27.1951C23.1092 27.1951 21.9474 26.0296 21.9474 24.6051C21.9474 23.1806 23.1092 22.0151 24.5292 22.0151C25.9492 22.0151 27.111 23.1806 27.111 24.6051C27.1097 26.0296 25.9479 27.1951 24.5292 27.1951Z" fill="#BC6542"/>
</svg>