<svg width="20" height="14" viewBox="0 0 20 14" fill="none" xmlns="http://www.w3.org/2000/svg">
<path fill-rule="evenodd" clip-rule="evenodd" d="M18.5 1H1.5C1.36739 1 1.24021 1.05268 1.14645 1.14645C1.05268 1.24021 1 1.36739 1 1.5V12.5C1 12.6326 1.05268 12.7598 1.14645 12.8536C1.24021 12.9473 1.36739 13 1.5 13H18.5C18.6326 13 18.7598 12.9473 18.8536 12.8536C18.9473 12.7598 19 12.6326 19 12.5V1.5C19 1.36739 18.9473 1.24021 18.8536 1.14645C18.7598 1.05268 18.6326 1 18.5 1ZM1.5 0C1.10218 0 0.720644 0.158035 0.43934 0.43934C0.158035 0.720644 0 1.10218 0 1.5V12.5C0 12.8978 0.158035 13.2794 0.43934 13.5607C0.720644 13.842 1.10218 14 1.5 14H18.5C18.8978 14 19.2794 13.842 19.5607 13.5607C19.842 13.2794 20 12.8978 20 12.5V1.5C20 1.10218 19.842 0.720644 19.5607 0.43934C19.2794 0.158035 18.8978 0 18.5 0H1.5Z" fill="#F8F8F8"/>
<path d="M0 3H20V7H0V3Z" fill="#F8F8F8"/>
</svg>
