<svg width="10" height="10" viewBox="0 0 10 10" fill="none" xmlns="http://www.w3.org/2000/svg">
<path d="M4.75893 4.67054L5.11249 5.0241L5.46604 4.67054L9.04577 1.09082C9.07018 1.06641 9.10975 1.06641 9.13415 1.09082C9.15856 1.11522 9.15856 1.1548 9.13415 1.1792L5.55443 4.75893L5.20087 5.11249L5.55443 5.46604L9.13415 9.04577C9.15856 9.07018 9.15856 9.10975 9.13415 9.13415C9.10975 9.15856 9.07018 9.15856 9.04577 9.13415L5.46604 5.55443L5.11249 5.20087L4.75893 5.55443L1.1792 9.13415C1.1548 9.15856 1.11522 9.15856 1.09082 9.13415C1.06641 9.10975 1.06641 9.07018 1.09082 9.04577L4.67054 5.46604L5.0241 5.11249L4.67054 4.75893L1.09082 1.1792C1.06641 1.1548 1.06641 1.11522 1.09082 1.09082C1.11522 1.06641 1.1548 1.06641 1.1792 1.09082L4.75893 4.67054Z" fill="black" stroke="#716A67"/>
</svg>
