<svg width="16" height="8" viewBox="0 0 16 8" fill="none" xmlns="http://www.w3.org/2000/svg">
<path d="M14.5 8C14.8978 8 15.2794 7.84196 15.5607 7.56066C15.842 7.27936 16 6.89782 16 6.5L16 1.5C16 1.10218 15.842 0.720644 15.5607 0.43934C15.2794 0.158035 14.8978 -4.81776e-08 14.5 -6.55671e-08L1.5 -6.33815e-07C1.10218 -6.51205e-07 0.720645 0.158034 0.439341 0.439339C0.158036 0.720644 -4.81776e-08 1.10217 -6.55671e-08 1.5L-2.84124e-07 6.5C-3.01513e-07 6.89782 0.158036 7.27936 0.43934 7.56066C0.720645 7.84196 1.10218 8 1.5 8L14.5 8ZM4.996 1L4.996 3.5C4.996 3.63261 5.04868 3.75979 5.14245 3.85355C5.23621 3.94732 5.36339 4 5.496 4C5.62861 4 5.75578 3.94732 5.84955 3.85355C5.94332 3.75979 5.996 3.63261 5.996 3.5L5.996 1L7.5 1L7.5 2.5C7.5 2.63261 7.55268 2.75979 7.64645 2.85355C7.74021 2.94732 7.86739 3 8 3C8.13261 3 8.25979 2.94732 8.35355 2.85355C8.44732 2.75979 8.5 2.63261 8.5 2.5L8.5 1L10 1L10 3.5C10 3.63261 10.0527 3.75979 10.1464 3.85355C10.2402 3.94732 10.3674 4 10.5 4C10.6326 4 10.7598 3.94732 10.8536 3.85355C10.9473 3.75979 11 3.63261 11 3.5L11 1L12.5 1L12.5 2.5C12.5 2.63261 12.5527 2.75979 12.6464 2.85355C12.7402 2.94732 12.8674 3 13 3C13.1326 3 13.2598 2.94732 13.3536 2.85355C13.4473 2.75979 13.5 2.63261 13.5 2.5L13.5 1L14.5 1C14.6326 1 14.7598 1.05268 14.8536 1.14645C14.9473 1.24021 15 1.36739 15 1.5L15 6.5C15 6.63261 14.9473 6.75979 14.8536 6.85355C14.7598 6.94732 14.6326 7 14.5 7L1.5 7C1.36739 7 1.24021 6.94732 1.14645 6.85355C1.05268 6.75978 1 6.63261 1 6.5L1 1.5C1 1.36739 1.05268 1.24021 1.14645 1.14645C1.24021 1.05268 1.36739 0.999999 1.5 0.999999L2.5 0.999999L2.5 2.5C2.5 2.63261 2.55268 2.75979 2.64645 2.85355C2.74021 2.94732 2.86739 3 3 3C3.13261 3 3.25979 2.94732 3.35355 2.85355C3.44732 2.75979 3.5 2.63261 3.5 2.5L3.5 0.999999L4.996 1Z" fill="#000000"/>
</svg>
