<svg width="9" height="12" viewBox="0 0 9 12" fill="none" xmlns="http://www.w3.org/2000/svg">
<path d="M4.42046 0C2.44941 0 0.845774 1.53489 0.845774 3.42159V5.37575C0.845774 5.39796 0.817144 5.43538 0.794654 5.44253C0.601346 5.50423 0.444354 5.5577 0.300642 5.61073C0.129261 5.67397 0 5.85576 0 6.03362V10.5237C0 10.7004 0.128426 10.8823 0.298721 10.9469C1.61633 11.4467 3.00308 11.7 4.42044 11.7C5.83781 11.7 7.22455 11.4466 8.54223 10.9468C8.71246 10.8823 8.84082 10.7004 8.84082 10.5237V6.03362C8.84082 5.85576 8.71158 5.67397 8.54012 5.61067C8.39634 5.55764 8.23937 5.50417 8.04621 5.44247C8.02378 5.43532 7.99515 5.39788 7.99515 5.37567V3.42153C7.99505 1.53489 6.39152 0 4.42046 0ZM3.44681 7.40115C3.44681 6.88608 3.88272 6.46927 4.4204 6.46927C4.95803 6.46927 5.39395 6.88604 5.39395 7.40115C5.39395 7.74244 5.19288 8.02819 4.90717 8.19017V9.73086C4.90717 9.98843 4.68945 10.1968 4.42038 10.1968C4.15129 10.1968 3.93359 9.98843 3.93359 9.73086V8.19017C3.6479 8.02819 3.44681 7.74244 3.44681 7.40115ZM6.76598 3.42153V5.10761C5.9968 4.94919 5.20768 4.86896 4.42078 4.8689C3.63422 4.8689 2.84527 4.94915 2.0749 5.10743V3.42153C2.0749 2.18358 3.12708 1.17649 4.4204 1.17649C5.7137 1.17647 6.76598 2.18358 6.76598 3.42153Z" fill="black"/>
</svg>
