<svg width="15" height="9" viewBox="0 0 15 9" fill="none" xmlns="http://www.w3.org/2000/svg">
<path d="M10.146 1.70698L12.79 4.35198L1 4.35198C0.867392 4.35198 0.740215 4.40466 0.646447 4.49843C0.552678 4.5922 0.5 4.71937 0.5 4.85198C0.5 4.98459 0.552678 5.11177 0.646447 5.20554C0.740215 5.2993 0.867392 5.35198 1 5.35198L12.795 5.35198L10.145 7.99998C10.0511 8.09387 9.99837 8.22121 9.99837 8.35398C9.99837 8.48676 10.0511 8.6141 10.145 8.70798C10.2389 8.80187 10.3662 8.85461 10.499 8.85461C10.6318 8.85461 10.7591 8.80187 10.853 8.70798L14.343 5.21798L14.353 5.20798C14.447 5.11376 14.4999 4.98611 14.5 4.85298L14.5 4.85198C14.5001 4.77877 14.4841 4.70644 14.4532 4.64009C14.4223 4.57373 14.3771 4.51498 14.321 4.46798L10.853 0.999982C10.8069 0.952227 10.7517 0.914136 10.6907 0.887931C10.6297 0.861727 10.5641 0.847934 10.4977 0.847357C10.4313 0.84678 10.3655 0.859431 10.304 0.884572C10.2426 0.909712 10.1867 0.946838 10.1398 0.993784C10.0929 1.04073 10.0557 1.09656 10.0306 1.15801C10.0054 1.21945 9.9928 1.28529 9.99337 1.35168C9.99395 1.41807 10.0077 1.48368 10.0339 1.54468C10.0602 1.60569 10.0982 1.66086 10.146 1.70698Z" fill="black"/>
</svg>
