<svg width="15" height="9" viewBox="0 0 15 9" fill="none" xmlns="http://www.w3.org/2000/svg">
<path d="M4.854 7.29314L2.21 4.64814L14 4.64814C14.1326 4.64814 14.2598 4.59546 14.3536 4.50169C14.4473 4.40792 14.5 4.28075 14.5 4.14814C14.5 4.01553 14.4473 3.88835 14.3536 3.79459C14.2598 3.70082 14.1326 3.64814 14 3.64814L2.205 3.64814L4.855 1.00014C4.94889 0.906252 5.00163 0.778915 5.00163 0.646139C5.00163 0.513363 4.94889 0.386025 4.855 0.292139C4.76111 0.198252 4.63378 0.145507 4.501 0.145507C4.36823 0.145507 4.24089 0.198252 4.147 0.292139L0.656999 3.78214L0.646999 3.79214C0.552953 3.88636 0.500092 4.01402 0.5 4.14714L0.5 4.14814C0.499905 4.22135 0.515887 4.29368 0.546818 4.36004C0.577748 4.42639 0.622872 4.48514 0.679001 4.53214L4.147 8.00014C4.19312 8.04789 4.2483 8.08599 4.3093 8.11219C4.3703 8.13839 4.43591 8.15219 4.5023 8.15276C4.56869 8.15334 4.63453 8.14069 4.69598 8.11555C4.75742 8.09041 4.81325 8.05328 4.8602 8.00634C4.90714 7.95939 4.94427 7.90356 4.96941 7.84212C4.99455 7.78067 5.0072 7.71483 5.00662 7.64844C5.00605 7.58205 4.99225 7.51644 4.96605 7.45544C4.93985 7.39443 4.90176 7.33926 4.854 7.29314Z" fill="#000000"/>
</svg>
