<svg width="11" height="23" viewBox="0 0 11 23" fill="none" xmlns="http://www.w3.org/2000/svg">
<path d="M0.592503 6.29465C0.922421 6.62301 1.45605 6.62174 1.7844 6.29183L4.72682 3.33517L4.72682 21.184C4.72682 21.6495 5.10414 22.0269 5.56962 22.0269C6.03511 22.0269 6.41243 21.6495 6.41243 21.184L6.41244 3.33513L9.35485 6.29187C9.68321 6.62179 10.2168 6.62305 10.5467 6.29469C10.8767 5.96629 10.8779 5.43267 10.5496 5.10275L6.16701 0.698906C6.16676 0.69861 6.16646 0.698398 6.16621 0.698146C5.83785 0.369071 5.3025 0.368017 4.97304 0.698102C4.97279 0.698398 4.9725 0.69861 4.97224 0.698862L0.589638 5.10271C0.261364 5.43258 0.262501 5.96625 0.592503 6.29465Z" fill="#3A3A3A"/>
</svg>
