<svg width="30" height="30" viewBox="0 0 30 30" fill="none" xmlns="http://www.w3.org/2000/svg">
<path d="M14.9997 29.9995C23.2839 29.9995 29.9995 23.2839 29.9995 14.9997C29.9995 6.71561 23.2839 0 14.9997 0C6.71561 0 0 6.71561 0 14.9997C0 23.2839 6.71561 29.9995 14.9997 29.9995Z" fill="white"/>
<path d="M16.2105 20.085C15.0765 19.9973 14.6 19.4349 13.7107 18.8951C13.2219 21.4596 12.6246 23.9179 10.8553 25.2022C10.3085 21.3262 11.6569 18.4149 12.2831 15.3247C11.2157 13.5279 12.4115 9.91125 14.6628 10.8024C17.4337 11.8982 12.2639 17.4836 15.7345 18.1812C19.3578 18.9095 20.837 11.8942 18.5899 9.61231C15.3433 6.31787 9.13975 9.53744 9.9026 14.2536C10.0884 15.4065 11.2799 15.7565 10.3785 17.3475C8.3007 16.8873 7.6809 15.2485 7.76058 13.0637C7.88919 9.48744 10.974 6.98339 14.0682 6.63686C17.9814 6.19888 21.6541 8.07378 22.1611 11.7546C22.7314 15.9089 20.3945 20.408 16.2105 20.085Z" fill="#AB8570"/>
</svg>
