<svg width="24" height="24" viewBox="0 0 24 24" fill="none" xmlns="http://www.w3.org/2000/svg">
<path d="M19.4625 5.73752L19.4663 5.73452C19.3973 5.65202 19.3185 5.58002 19.2465 5.50052C19.1085 5.34677 18.9713 5.19302 18.8243 5.04827C18.72 4.94627 18.6098 4.85177 18.5018 4.75502C18.3645 4.63127 18.2273 4.50827 18.0833 4.39352C17.9633 4.29752 17.8395 4.20827 17.7158 4.11827C17.5718 4.01327 17.427 3.91052 17.277 3.81377C17.1456 3.72971 17.0124 3.64869 16.8773 3.57077C16.7233 3.48127 16.567 3.39602 16.4085 3.31502C16.2705 3.24452 16.131 3.17627 15.9885 3.11252C15.822 3.03752 15.6518 2.96927 15.48 2.90252C15.3375 2.84852 15.1965 2.79377 15.0518 2.74652C14.8673 2.68502 14.6783 2.63402 14.4893 2.58377C14.3498 2.54702 14.2133 2.50727 14.0723 2.47652C13.8548 2.42927 13.632 2.39627 13.41 2.36402C13.29 2.34677 13.1738 2.32202 13.053 2.30927C11.4515 2.13141 9.83089 2.35534 8.3376 2.96082C6.84432 3.5663 5.52541 4.53427 4.50001 5.77727V3.00002H3.00001V9.00002H9.00001V7.50002H5.10826C5.85346 6.35011 6.87428 5.40471 8.07789 4.74979C9.28151 4.09487 10.6297 3.75119 12 3.75002C12.2979 3.75082 12.5956 3.76759 12.8918 3.80027C12.9938 3.81152 13.0928 3.83177 13.194 3.84602C13.3815 3.87377 13.5698 3.90227 13.7535 3.94202C13.8735 3.96827 13.9898 4.00202 14.1075 4.03277C14.2673 4.07552 14.4263 4.11827 14.5823 4.17002C14.7053 4.21052 14.826 4.25702 14.9468 4.30352C15.0915 4.35902 15.2348 4.41602 15.3743 4.47977C15.4958 4.53377 15.6143 4.59227 15.732 4.65227C15.866 4.72027 15.9975 4.79177 16.1265 4.86677C16.2413 4.93427 16.3553 5.00177 16.4663 5.07377C16.5923 5.15627 16.7138 5.24177 16.8353 5.33027C16.9403 5.40677 17.0468 5.48252 17.148 5.56427C17.2695 5.66177 17.385 5.76527 17.5005 5.86877C17.5928 5.95127 17.6865 6.03152 17.7743 6.11777C17.8995 6.24077 18.0165 6.37127 18.1335 6.50177C19.0261 7.49732 19.6631 8.69502 19.9897 9.99161C20.3164 11.2882 20.3227 12.6448 20.0083 13.9444C19.6939 15.244 19.0681 16.4476 18.1849 17.4515C17.3017 18.4554 16.1876 19.2294 14.9386 19.7068C13.6897 20.1842 12.3434 20.3507 11.0157 20.192C9.6881 20.0332 8.419 19.5539 7.31785 18.7954C6.2167 18.037 5.31654 17.022 4.69498 15.8382C4.07342 14.6544 3.74911 13.3371 3.75001 12H2.25001C2.24802 13.5684 2.62442 15.1141 3.34724 16.5059C4.07007 17.8978 5.118 19.0947 6.4021 19.9952C7.68621 20.8957 9.16858 21.4731 10.7234 21.6784C12.2783 21.8838 13.8598 21.711 15.3336 21.1748C16.8074 20.6385 18.1302 19.7547 19.1895 18.5982C20.2489 17.4417 21.0137 16.0467 21.4189 14.5316C21.8242 13.0165 21.8579 11.426 21.5173 9.89504C21.1767 8.3641 20.4719 6.93792 19.4625 5.73752Z" fill="#5452AF"/>
</svg>
