<svg width="17" height="17" viewBox="0 0 17 17" fill="none" xmlns="http://www.w3.org/2000/svg">
<path d="M7.13933 1.07663C7.2494 0.85343 7.41974 0.66549 7.63107 0.534073C7.84241 0.402656 8.0863 0.333008 8.33517 0.333008C8.58403 0.333008 8.82793 0.402656 9.03926 0.534073C9.2506 0.66549 9.42093 0.85343 9.531 1.07663L11.3843 4.8333L15.5277 5.4333C15.774 5.46906 16.0054 5.57306 16.1956 5.73351C16.3859 5.89396 16.5274 6.10447 16.6043 6.3412C16.6811 6.57794 16.6901 6.83145 16.6304 7.07305C16.5706 7.31466 16.4444 7.53471 16.266 7.7083L13.2677 10.63L13.976 14.7566C14.0178 15.0016 13.9902 15.2534 13.8965 15.4836C13.8027 15.7138 13.6465 15.9132 13.4455 16.0593C13.2444 16.2054 13.0065 16.2924 12.7587 16.3105C12.5108 16.3286 12.2628 16.277 12.0427 16.1616L8.33433 14.2133L4.62767 16.1616C4.40754 16.277 4.15954 16.3286 3.91167 16.3105C3.6638 16.2924 3.42592 16.2054 3.22487 16.0593C3.02382 15.9132 2.86761 15.7138 2.77386 15.4836C2.68012 15.2534 2.65257 15.0016 2.69433 14.7566L3.401 10.63L0.402667 7.70663C0.224762 7.53287 0.0989984 7.31281 0.0395862 7.07133C-0.0198261 6.82984 -0.010519 6.57655 0.0664559 6.34008C0.143431 6.10361 0.285006 5.89338 0.475184 5.73314C0.665362 5.5729 0.896564 5.46904 1.14267 5.4333L5.286 4.83163L7.13767 1.07663H7.13933Z" fill="#D2993E"/>
</svg>
