<svg width="20" height="20" viewBox="0 0 20 20" fill="none" xmlns="http://www.w3.org/2000/svg">
<path d="M10 19C14.9706 19 19 14.9706 19 10C19 5.02944 14.9706 1 10 1C5.02944 1 1 5.02944 1 10C1 14.9706 5.02944 19 10 19Z" stroke="#716A67"/>
<path d="M9.75893 9.67054L10.1125 10.0241L10.466 9.67054L14.0458 6.09082C14.0702 6.06641 14.1097 6.06641 14.1342 6.09082C14.1586 6.11522 14.1586 6.1548 14.1342 6.1792L10.5544 9.75893L10.2009 10.1125L10.5544 10.466L14.1342 14.0458C14.1586 14.0702 14.1586 14.1097 14.1342 14.1342C14.1097 14.1586 14.0702 14.1586 14.0458 14.1342L10.466 10.5544L10.1125 10.2009L9.75893 10.5544L6.1792 14.1342C6.1548 14.1586 6.11522 14.1586 6.09082 14.1342C6.06641 14.1097 6.06641 14.0702 6.09082 14.0458L9.67054 10.466L10.0241 10.1125L9.67054 9.75893L6.09082 6.1792C6.06641 6.1548 6.06641 6.11522 6.09082 6.09082C6.11522 6.06641 6.1548 6.06641 6.1792 6.09082L9.75893 9.67054Z" fill="black" stroke="#716A67"/>
</svg>
