<svg width="18" height="20" viewBox="0 0 18 20" fill="none" xmlns="http://www.w3.org/2000/svg">
<path d="M15.1008 4.63516C14.9743 4.56975 14.8511 4.49804 14.7317 4.42031C14.3845 4.1908 14.0662 3.92037 13.7836 3.61484C13.0766 2.80586 12.8125 1.98516 12.7153 1.41055H12.7192C12.6379 0.933594 12.6715 0.625 12.6766 0.625H9.45629V13.0773C9.45629 13.2445 9.45629 13.4098 9.44926 13.573C9.44926 13.5934 9.44731 13.6121 9.44614 13.634C9.44614 13.643 9.44614 13.6523 9.44418 13.6617C9.44418 13.6641 9.44418 13.6664 9.44418 13.6688C9.41024 14.1155 9.26702 14.5471 9.02712 14.9256C8.78722 15.304 8.45799 15.6177 8.0684 15.8391C7.66237 16.0701 7.20313 16.1912 6.73598 16.1906C5.23559 16.1906 4.01957 14.9672 4.01957 13.4563C4.01957 11.9453 5.23559 10.7219 6.73598 10.7219C7.02 10.7216 7.30227 10.7663 7.57231 10.8543L7.57622 7.57539C6.75644 7.4695 5.92361 7.53465 5.13027 7.76673C4.33693 7.99882 3.60029 8.3928 2.96684 8.92383C2.41179 9.40609 1.94515 9.98152 1.58793 10.6242C1.452 10.8586 0.939106 11.8004 0.876997 13.3289C0.837934 14.1965 1.09848 15.0953 1.2227 15.4668V15.4746C1.30082 15.6934 1.60356 16.4398 2.09692 17.0691C2.49475 17.5739 2.96477 18.0174 3.49184 18.3852V18.3773L3.49965 18.3852C5.05864 19.4445 6.78715 19.375 6.78715 19.375C7.08637 19.3629 8.08872 19.375 9.227 18.8355C10.4895 18.2375 11.2082 17.3465 11.2082 17.3465C11.6674 16.8141 12.0325 16.2074 12.2879 15.5523C12.5793 14.7863 12.6766 13.8676 12.6766 13.5004V6.89414C12.7157 6.91758 13.236 7.26172 13.236 7.26172C13.236 7.26172 13.9856 7.74219 15.1551 8.05508C15.9942 8.27773 17.1247 8.32461 17.1247 8.32461V5.12773C16.7286 5.1707 15.9243 5.0457 15.1008 4.63516Z" fill="#AB8570"/>
</svg>
