<svg width="28" height="27" viewBox="0 0 28 27" fill="none" xmlns="http://www.w3.org/2000/svg">
<path d="M17.7739 7.11377H9.80508C8.53315 7.11377 7.49832 8.14859 7.49832 9.42053V17.3893C7.49832 18.6613 8.53315 19.6964 9.80508 19.6964H17.7739C19.0458 19.6964 20.0809 18.6616 20.0809 17.3893V9.42053C20.0809 8.14859 19.0461 7.11377 17.7739 7.11377ZM13.7895 17.5472C11.5057 17.5472 9.6475 15.6891 9.6475 13.4049C9.6475 11.1211 11.5057 9.26295 13.7895 9.26295C16.0736 9.26295 17.9318 11.1211 17.9318 13.4049C17.9318 15.6888 16.0733 17.5472 13.7895 17.5472ZM18.0649 10.1193C17.5243 10.1193 17.0846 9.67968 17.0846 9.13933C17.0846 8.59898 17.5243 8.15932 18.0649 8.15932C18.6053 8.15932 19.0449 8.59898 19.0449 9.13933C19.0449 9.67968 18.6053 10.1193 18.0649 10.1193Z" fill="#121212"/>
<path d="M13.7895 11.0133C12.4711 11.0133 11.3976 12.0863 11.3976 13.4047C11.3976 14.7237 12.4711 15.7969 13.7895 15.7969C15.1085 15.7969 16.1812 14.7237 16.1812 13.4047C16.1812 12.0866 15.1082 11.0133 13.7895 11.0133Z" fill="#121212"/>
<path d="M13.7895 0.000488281C6.40662 0.000488281 0.421082 5.98603 0.421082 13.3689C0.421082 20.7518 6.40662 26.7373 13.7895 26.7373C21.1724 26.7373 27.1579 20.7518 27.1579 13.3689C27.1579 5.98603 21.1724 0.000488281 13.7895 0.000488281ZM21.831 17.3894C21.831 19.6267 20.0113 21.4464 17.7739 21.4464H9.8051C7.56804 21.4464 5.74801 19.6267 5.74801 17.3894V9.42055C5.74801 7.18349 7.56804 5.36346 9.8051 5.36346H17.7739C20.0113 5.36346 21.831 7.18349 21.831 9.42055V17.3894Z" fill="#121212"/>
</svg>
