<svg width="45" height="35" viewBox="0 0 45 35" fill="none" xmlns="http://www.w3.org/2000/svg">
<path d="M38.5555 11.4998H36.003V10.1802C36.003 9.12982 35.1433 8.268 34.0954 8.268C33.0476 8.268 32.1878 9.12982 32.1878 10.1802V11.4998H29.6353V10.1802C29.6353 7.70243 31.6504 5.70947 34.0954 5.70947C36.5673 5.70947 38.5555 7.72936 38.5555 10.1802V11.4998Z" fill="#FFA400"/>
<path d="M39.6034 11.4999H28.5875C28.1039 11.4999 27.7278 11.8769 27.7278 12.3617V20.522C27.7278 21.0068 28.1039 21.3839 28.5875 21.3839H39.6034C40.087 21.3839 40.4632 21.0068 40.4632 20.522V12.3617C40.4363 11.8769 40.0602 11.4999 39.6034 11.4999ZM34.6328 16.8593V17.9635C34.6328 18.2598 34.391 18.5291 34.0686 18.5291C33.7731 18.5291 33.5044 18.2867 33.5044 17.9635V16.8593C33.1551 16.6708 32.9401 16.2937 32.9401 15.8628C32.9401 15.2434 33.4506 14.7317 34.0686 14.7317C34.6866 14.7317 35.1971 15.2434 35.1971 15.8628C35.2239 16.2937 34.9821 16.6708 34.6328 16.8593Z" fill="#223F73"/>
<path d="M27.459 10.288H24.7991C24.3692 10.288 24.02 9.93788 24.02 9.50698C24.02 9.07607 24.3692 8.72595 24.7991 8.72595H27.459C27.8889 8.72595 28.2382 9.07607 28.2382 9.50698C28.2382 9.93788 27.8889 10.288 27.459 10.288Z" fill="#FFA400"/>
<path d="M29.3398 6.08645C29.1786 6.08645 28.9906 6.03259 28.8562 5.89793L26.7605 4.17429C26.4381 3.90497 26.3844 3.4202 26.653 3.07008C26.9217 2.7469 27.4054 2.69304 27.7546 2.96236L29.8503 4.68599C30.1728 4.95531 30.2265 5.44009 29.9578 5.7902C29.7697 5.97872 29.5548 6.08645 29.3398 6.08645Z" fill="#FFA400"/>
<path d="M34.0954 4.25523C33.6656 4.25523 33.3163 3.90512 33.3163 3.47421V0.781024C33.3163 0.350114 33.6656 0 34.0954 0C34.5253 0 34.8746 0.350114 34.8746 0.781024V3.47421C34.8746 3.90512 34.5253 4.25523 34.0954 4.25523Z" fill="#FFA400"/>
<path d="M38.8242 6.08645C38.6092 6.08645 38.3674 5.97872 38.2331 5.7902C37.9644 5.46702 38.0182 4.95531 38.3406 4.68599L40.4363 2.96236C40.7587 2.69304 41.2692 2.7469 41.5378 3.07008C41.8065 3.39327 41.7528 3.90497 41.4304 4.17429L39.3347 5.89793C39.1735 6.03259 39.0123 6.08645 38.8242 6.08645Z" fill="#FFA400"/>
<path d="M43.3649 10.288H40.6781C40.2482 10.288 39.8989 9.93788 39.8989 9.50698C39.8989 9.07607 40.2482 8.72595 40.6781 8.72595H43.3649C43.7948 8.72595 44.1441 9.07607 44.1441 9.50698C44.1441 9.93788 43.7948 10.288 43.3649 10.288Z" fill="#EEA542"/>
<path d="M0 21.2761V12.5771H2.0957V19.4448H5.4542V21.2761H0Z" fill="#223F73"/>
<path d="M12.3861 18.2866C12.3861 18.3674 12.3861 18.4482 12.3861 18.529C12.3861 18.6098 12.3861 18.6906 12.3861 18.7714H7.9529C7.97977 18.933 8.03351 19.0946 8.11411 19.2292C8.19472 19.3639 8.30219 19.4985 8.43653 19.5793C8.57087 19.6871 8.73208 19.7679 8.89328 19.8217C9.05449 19.8756 9.24257 19.9025 9.40378 19.9025C9.72619 19.9025 9.99487 19.8487 10.2098 19.714C10.4248 19.6063 10.6128 19.4447 10.7472 19.2562L12.1443 20.1449C11.8488 20.5758 11.4726 20.8721 11.0159 21.1145C10.5591 21.3299 9.99487 21.4646 9.37691 21.4646C8.92015 21.4646 8.49026 21.3838 8.08724 21.2491C7.68422 21.1145 7.33494 20.899 7.01253 20.6297C6.71698 20.3604 6.47517 20.0103 6.28709 19.6063C6.09901 19.2023 6.01841 18.7445 6.01841 18.2327C6.01841 17.721 6.09901 17.2901 6.28709 16.8862C6.4483 16.4822 6.69011 16.1321 6.98566 15.8627C7.28121 15.5934 7.63049 15.351 8.03351 15.2164C8.43653 15.0548 8.86642 14.974 9.32317 14.974C9.77993 14.974 10.1829 15.0548 10.5591 15.1895C10.9352 15.351 11.2577 15.5665 11.5263 15.8358C11.795 16.1321 12.01 16.4822 12.1443 16.8862C12.3055 17.3171 12.3861 17.7749 12.3861 18.2866ZM10.5322 17.5325C10.5322 17.2093 10.4248 16.94 10.2367 16.6976C10.0486 16.4552 9.72619 16.3475 9.32317 16.3475C9.13509 16.3475 8.94702 16.3745 8.78581 16.4283C8.6246 16.4822 8.49026 16.563 8.35592 16.6707C8.22158 16.7784 8.14098 16.9131 8.06038 17.0477C7.97977 17.1824 7.9529 17.344 7.92604 17.5056H10.5322V17.5325Z" fill="#223F73"/>
<path d="M15.6103 16.6708V19.0139C15.6103 19.3102 15.664 19.5256 15.7715 19.6603C15.879 19.7949 16.0671 19.8757 16.3626 19.8757C16.4701 19.8757 16.5775 19.8757 16.685 19.8488C16.7925 19.8219 16.9 19.7949 16.9537 19.768L16.9806 21.2493C16.8462 21.3031 16.6581 21.3301 16.4432 21.3839C16.2283 21.4108 16.0133 21.4378 15.7984 21.4378C15.3954 21.4378 15.0461 21.3839 14.7774 21.2762C14.5087 21.1685 14.2669 21.0338 14.1057 20.8453C13.9445 20.6568 13.8101 20.4144 13.7564 20.1451C13.7027 19.8757 13.6489 19.5795 13.6489 19.2563V16.6708H12.6548V15.1627H13.6221V13.5468H15.6103V15.1627H17.0343V16.6708H15.6103Z" fill="#223F73"/>
<path d="M23.5363 16.967C23.3751 16.8054 23.187 16.6707 22.9721 16.563C22.7572 16.4553 22.5154 16.4014 22.2735 16.4014C22.0855 16.4014 21.9243 16.4284 21.763 16.5092C21.6018 16.59 21.5212 16.6977 21.5212 16.8862C21.5212 17.0478 21.6018 17.1825 21.7899 17.2633C21.978 17.344 22.2467 17.4248 22.6497 17.5056C22.8915 17.5595 23.1064 17.6134 23.3483 17.7211C23.5901 17.8288 23.7781 17.9365 23.9662 18.0712C24.1543 18.2059 24.3155 18.3944 24.423 18.6098C24.5304 18.8253 24.5842 19.0677 24.5842 19.3639C24.5842 19.741 24.5036 20.0642 24.3424 20.3335C24.1812 20.6028 23.9931 20.8183 23.7244 20.9798C23.4826 21.1414 23.187 21.2492 22.8915 21.33C22.5691 21.4108 22.2735 21.4377 21.9511 21.4377C21.4406 21.4377 20.957 21.3569 20.5003 21.1953C20.0166 21.0337 19.6136 20.7913 19.3181 20.4951L20.4465 19.3101C20.6346 19.4986 20.8495 19.6602 21.1182 19.7948C21.3869 19.9295 21.6556 19.9834 21.9511 19.9834C22.1123 19.9834 22.2735 19.9564 22.4347 19.8756C22.596 19.7948 22.6766 19.6602 22.6766 19.4717C22.6766 19.2831 22.5691 19.1485 22.381 19.0408C22.1929 18.96 21.8705 18.8522 21.4675 18.7714C21.2526 18.7176 21.0376 18.6637 20.8227 18.5829C20.6077 18.5021 20.4196 18.3944 20.2584 18.2597C20.0972 18.1251 19.9629 17.9365 19.8554 17.748C19.7479 17.5326 19.6942 17.2902 19.6942 17.0209C19.6942 16.6438 19.7748 16.3476 19.936 16.0783C20.0972 15.8089 20.2853 15.6204 20.5271 15.4588C20.7689 15.2972 21.0376 15.1626 21.3332 15.1087C21.6287 15.0279 21.9243 15.001 22.2198 15.001C22.6766 15.001 23.1333 15.0818 23.5632 15.2164C23.9931 15.3511 24.3692 15.5665 24.6648 15.8628L23.5363 16.967Z" fill="#223F73"/>
<path d="M0 31.3485V22.6495H5.83035V24.427H2.0151V26.0699H5.6154V27.7397H2.0151V29.5441H6.04529V31.3485H0Z" fill="#223F73"/>
<path d="M11.3383 31.3485V28.009C11.3383 27.8474 11.3114 27.6858 11.2846 27.5242C11.2577 27.3626 11.2039 27.228 11.1502 27.1202C11.0965 27.0125 10.989 26.9048 10.8815 26.8509C10.7741 26.7701 10.6129 26.7432 10.4248 26.7432C10.2367 26.7432 10.0755 26.7701 9.94115 26.8509C9.80681 26.9317 9.69934 27.0125 9.59187 27.1472C9.51127 27.2818 9.43066 27.4165 9.37693 27.5781C9.32319 27.7397 9.29632 27.9013 9.29632 28.0628V31.3755H7.28123V25.2619H9.21572V26.0968H9.24259C9.32319 25.9622 9.4038 25.8275 9.53814 25.7198C9.64561 25.5851 9.80681 25.4774 9.94115 25.3966C10.1024 25.3158 10.2636 25.235 10.4516 25.1811C10.6397 25.1273 10.8278 25.1003 11.0427 25.1003C11.4458 25.1003 11.795 25.1811 12.0906 25.3158C12.3861 25.4505 12.6011 25.6659 12.7892 25.8814C12.9772 26.1238 13.0847 26.3931 13.1653 26.6893C13.2459 26.9856 13.2728 27.2818 13.2728 27.605V31.3755H11.3383V31.3485Z" fill="#223F73"/>
<path d="M18.5389 27.2012C18.4314 27.0665 18.2702 26.9319 18.0821 26.8511C17.8941 26.7703 17.6791 26.7164 17.491 26.7164C17.2761 26.7164 17.088 26.7703 16.9268 26.8511C16.7656 26.9319 16.6044 27.0396 16.4969 27.2012C16.3894 27.3628 16.282 27.4974 16.2014 27.686C16.1208 27.8745 16.0939 28.063 16.0939 28.2785C16.0939 28.4939 16.1208 28.6824 16.2014 28.871C16.2551 29.0595 16.3626 29.2211 16.4969 29.3557C16.6313 29.4904 16.7656 29.625 16.9537 29.7058C17.1418 29.7866 17.3298 29.8405 17.5448 29.8405C17.7597 29.8405 17.9478 29.8136 18.1627 29.7328C18.3508 29.652 18.512 29.5443 18.6464 29.3827L19.7479 30.7562C19.5061 30.9986 19.1568 31.1871 18.7807 31.3218C18.3777 31.4564 17.9478 31.5372 17.5179 31.5372C17.0343 31.5372 16.5775 31.4564 16.1745 31.3218C15.7446 31.1871 15.3953 30.9716 15.0729 30.6754C14.7774 30.4061 14.5356 30.056 14.3475 29.652C14.1594 29.248 14.0788 28.7902 14.0788 28.2785C14.0788 27.7667 14.1594 27.3358 14.3475 26.9319C14.5356 26.5279 14.7774 26.1778 15.0729 25.9085C15.3685 25.6391 15.7446 25.3967 16.1745 25.2621C16.6044 25.1005 17.0343 25.0466 17.5179 25.0466C17.7328 25.0466 17.9478 25.0736 18.1627 25.1005C18.3777 25.1544 18.5926 25.2082 18.7807 25.2621C18.9688 25.3429 19.1568 25.4237 19.3449 25.5314C19.5061 25.6391 19.6673 25.7469 19.7748 25.8815L18.5389 27.2012Z" fill="#223F73"/>
<path d="M24.3961 26.9049C24.3155 26.8779 24.208 26.851 24.1274 26.851C24.0468 26.851 23.9662 26.851 23.8856 26.851C23.6169 26.851 23.402 26.9049 23.2139 26.9856C23.0259 27.0934 22.8915 27.2011 22.784 27.3358C22.6766 27.4704 22.596 27.632 22.5422 27.7936C22.4885 27.9552 22.4616 28.0899 22.4616 28.2245V31.3486H20.4465V25.2351H22.381V26.1238H22.4079C22.5691 25.8006 22.784 25.5583 23.0796 25.3697C23.3751 25.1812 23.6976 25.0735 24.0737 25.0735C24.1543 25.0735 24.2349 25.0735 24.3155 25.0735C24.3961 25.0735 24.4499 25.1004 24.5036 25.1004L24.3961 26.9049Z" fill="#223F73"/>
<path d="M29.1249 32.2642C28.9906 32.5874 28.8562 32.8567 28.7219 33.126C28.5607 33.3684 28.3995 33.5839 28.1845 33.7724C27.9696 33.9609 27.7278 34.0686 27.4591 34.1764C27.1904 34.2571 26.8411 34.311 26.465 34.311C26.2769 34.311 26.0888 34.311 25.8739 34.2841C25.6858 34.2571 25.4977 34.2302 25.3634 34.1764L25.5783 32.4796C25.6858 32.5066 25.7933 32.5335 25.9007 32.5604C26.0082 32.5874 26.1157 32.5874 26.2232 32.5874C26.5456 32.5874 26.7605 32.5066 26.8949 32.3719C27.0292 32.2373 27.1635 32.0218 27.2441 31.7525L27.4322 31.2408L24.8798 25.235H27.1098L28.4801 29.167H28.5069L29.716 25.235H31.8386L29.1249 32.2642Z" fill="#223F73"/>
<path d="M39.1735 28.2785C39.1735 28.7094 39.1198 29.1134 38.9854 29.5174C38.8511 29.9214 38.663 30.2445 38.4212 30.5677C38.1794 30.864 37.857 31.1064 37.5077 31.2949C37.1584 31.4834 36.7285 31.5642 36.2717 31.5642C35.8956 31.5642 35.5463 31.4834 35.197 31.3487C34.8746 31.1871 34.6059 30.9986 34.4179 30.7293H34.391V34.3651H32.3759V25.316H34.2835V26.0701H34.3104C34.4985 25.8277 34.7671 25.6123 35.0896 25.4237C35.412 25.2352 35.815 25.1544 36.2717 25.1544C36.7016 25.1544 37.1047 25.2352 37.4808 25.4237C37.8301 25.5853 38.1525 25.8277 38.3943 26.124C38.6361 26.4202 38.8242 26.7703 38.9585 27.1474C39.0929 27.4436 39.1735 27.8476 39.1735 28.2785ZM37.2121 28.2785C37.2121 28.09 37.1853 27.9015 37.1315 27.7129C37.0778 27.5244 36.9703 27.3628 36.8628 27.2282C36.7554 27.0935 36.5942 26.9589 36.4061 26.8781C36.218 26.7973 36.0299 26.7434 35.7881 26.7434C35.5463 26.7434 35.3582 26.7973 35.1702 26.8781C34.9821 26.9589 34.8478 27.0935 34.7134 27.2282C34.5791 27.3628 34.4985 27.5514 34.4179 27.7399C34.3373 27.9284 34.3104 28.1169 34.3104 28.3054C34.3104 28.494 34.3373 28.6825 34.4179 28.871C34.4985 29.0595 34.5791 29.2211 34.7134 29.3827C34.8478 29.5174 34.9821 29.652 35.1702 29.7328C35.3582 29.8136 35.5463 29.8675 35.7881 29.8675C36.0299 29.8675 36.2449 29.8136 36.4061 29.7328C36.5942 29.652 36.7285 29.5174 36.8628 29.3827C36.9703 29.2481 37.0778 29.0595 37.1315 28.871C37.1853 28.6556 37.2121 28.467 37.2121 28.2785Z" fill="#223F73"/>
<path d="M42.3707 26.7432V29.0863C42.3707 29.3826 42.4245 29.598 42.532 29.7327C42.6394 29.8673 42.8275 29.9481 43.123 29.9481C43.2305 29.9481 43.338 29.9481 43.4455 29.9212C43.5529 29.8943 43.6604 29.8673 43.7141 29.8404L43.741 31.3216C43.6067 31.3755 43.4186 31.4024 43.2037 31.4563C42.9887 31.4832 42.7738 31.5102 42.5588 31.5102C42.1558 31.5102 41.8065 31.4563 41.5378 31.3486C41.2692 31.2409 41.0273 31.1062 40.8661 30.9177C40.7049 30.7291 40.5706 30.4868 40.5169 30.2174C40.4631 29.9481 40.4094 29.6519 40.4094 29.3287V26.7432H39.4421V25.2351H40.4094V23.6191H42.3707V25.2351H43.7947V26.7432H42.3707Z" fill="#223F73"/>
<path d="M18.8881 12.4155C18.2971 12.4155 17.8134 12.8464 17.8134 13.412C17.8134 14.0045 18.2165 14.3816 18.8075 14.3816C18.8613 14.3816 18.915 14.3816 18.9419 14.3546C18.8344 14.7855 18.4314 15.1087 18.0284 15.1626H17.9478V16.1052H18.0552C18.5389 16.0513 18.9956 15.8359 19.3449 15.5127C19.8017 15.0818 20.0435 14.4354 20.0435 13.6813C20.0435 12.9542 19.5598 12.4155 18.8881 12.4155Z" fill="#223F73"/>
</svg>
